<svg width="30" height="30" viewBox="0 0 30 30" fill="none" xmlns="http://www.w3.org/2000/svg">
<path d="M17.4745 11.5068V15.0949H20.6915C20.9389 15.0949 21.0627 15.3424 21.0627 15.5898L20.5677 17.9407C20.5677 18.0644 20.3203 18.1881 20.1966 18.1881H17.4745V27.2203H13.7627V18.3118H11.6593C11.4118 18.3118 11.2881 18.1881 11.2881 17.9407V15.5898C11.2881 15.3424 11.4118 15.2186 11.6593 15.2186H13.7627V11.1356C13.7627 9.03218 15.3711 7.42371 17.4745 7.42371H20.8152C21.0627 7.42371 21.1864 7.54744 21.1864 7.79489V10.7644C21.1864 11.0118 21.0627 11.1356 20.8152 11.1356H17.8457C17.5983 11.1356 17.4745 11.2593 17.4745 11.5068Z" stroke="white" stroke-width="1.85593" stroke-miterlimit="10" stroke-linecap="round"/>
<path d="M18.7118 27.2202H11.2881C5.10165 27.2202 2.62708 24.7457 2.62708 18.5592V11.1355C2.62708 4.94906 5.10165 2.47449 11.2881 2.47449H18.7118C24.8983 2.47449 27.3728 4.94906 27.3728 11.1355V18.5592C27.3728 24.7457 24.8983 27.2202 18.7118 27.2202Z" stroke="white" stroke-width="1.85593" stroke-linecap="round" stroke-linejoin="round"/>
</svg>
