<svg width="34" height="34" viewBox="0 0 34 34" fill="none" xmlns="http://www.w3.org/2000/svg">
<path d="M17.3402 32.7464C25.9338 32.7464 32.9003 25.7799 32.9003 17.1863C32.9003 8.59271 25.9338 1.62622 17.3402 1.62622C8.74656 1.62622 1.78006 8.59271 1.78006 17.1863C1.78006 25.7799 8.74656 32.7464 17.3402 32.7464Z" stroke="#3C6178" stroke-width="1.66716" stroke-linecap="round" stroke-linejoin="round"/>
<path d="M17.3402 21.8544C25.9338 21.8544 32.9003 19.7644 32.9003 17.1863C32.9003 14.6083 25.9338 12.5183 17.3402 12.5183C8.74656 12.5183 1.78006 14.6083 1.78006 17.1863C1.78006 19.7644 8.74656 21.8544 17.3402 21.8544Z" stroke="#3C6178" stroke-width="1.66716" stroke-linecap="round" stroke-linejoin="round"/>
<path d="M9.56012 17.1863C9.56012 25.7799 13.0434 32.7464 17.3402 32.7464C21.637 32.7464 25.1202 25.7799 25.1202 17.1863C25.1202 8.59271 21.637 1.62622 17.3402 1.62622C13.0434 1.62622 9.56012 8.59271 9.56012 17.1863Z" stroke="#3C6178" stroke-width="1.66716" stroke-linecap="round" stroke-linejoin="round"/>
<path d="M17.3402 1.62622V32.7463" stroke="#3C6178" stroke-width="1.66716" stroke-linecap="round" stroke-linejoin="round"/>
</svg>
