<svg width="34" height="36" viewBox="0 0 34 36" fill="none" xmlns="http://www.w3.org/2000/svg">
<path d="M12.9375 10.0222C13.474 10.0054 14.0206 9.99683 14.5754 9.99683C21.8121 9.99683 27.6786 11.4635 27.6786 13.2726C27.6786 15.0819 21.8121 16.5485 14.5754 16.5485C7.33863 16.5485 1.47211 15.0819 1.47211 13.2726C1.47211 12.6871 2.08665 12.1374 3.16331 11.6617" stroke="#3C6178" stroke-width="2.22287" stroke-linecap="round" stroke-linejoin="round"/>
<path d="M1.47211 13.2727V28.5759C1.47211 30.3135 2.19377 31.9821 3.77998 32.6914C5.76921 33.581 9.18775 34.5655 14.5754 34.5655C19.9629 34.5655 23.3816 33.581 25.3708 32.6914C26.957 31.9821 27.6786 30.3135 27.6786 28.5759V13.2727" stroke="#3C6178" stroke-width="2.22287" stroke-linecap="round" stroke-linejoin="round"/>
<path d="M27.6786 14.9106C30.3924 14.9106 32.5923 17.1105 32.5923 19.8244C32.5923 22.5382 30.3924 24.7381 27.6786 24.7381" stroke="#3C6178" stroke-width="2.22287" stroke-linecap="round" stroke-linejoin="round"/>
<path d="M8.02374 3.44507V9.99671" stroke="#3C6178" stroke-width="2.22287" stroke-linecap="round" stroke-linejoin="round"/>
<path d="M14.5754 1.80713V5.08295" stroke="#3C6178" stroke-width="2.22287" stroke-linecap="round" stroke-linejoin="round"/>
<path d="M21.127 5.08301V9.99674" stroke="#3C6178" stroke-width="2.22287" stroke-linecap="round" stroke-linejoin="round"/>
</svg>
