<svg width="32" height="32" viewBox="0 0 32 32" fill="none" xmlns="http://www.w3.org/2000/svg">
<path d="M13.7412 11.0933H17.6312M8.89164 29.2468H22.4808C26.0596 29.2468 27.486 27.0554 27.6545 24.3842L28.3288 13.6737C28.3708 13.0096 28.2762 12.3439 28.0508 11.7178C27.8254 11.0917 27.4739 10.5185 27.0182 10.0336C26.5625 9.54868 26.0121 9.1624 25.4012 8.89862C24.7903 8.63483 24.1317 8.49914 23.4663 8.49994C22.6753 8.49994 21.9492 8.0461 21.5861 7.3459L20.6525 5.46572C20.056 4.28574 18.5 3.31323 17.1774 3.31323H14.208C12.8724 3.31323 11.3164 4.28574 10.72 5.46572L9.78634 7.3459C9.42327 8.0461 8.69714 8.49994 7.90616 8.49994C5.09238 8.49994 2.86209 10.8729 3.04363 13.6737L3.7179 24.3842C3.8735 27.0554 5.31281 29.2468 8.89164 29.2468Z" stroke="#3C6178" stroke-width="1.66716" stroke-linecap="round" stroke-linejoin="round"/>
<path d="M15.6862 24.0602C18.0073 24.0602 19.9004 22.1671 19.9004 19.846C19.9004 17.525 18.0073 15.6318 15.6862 15.6318C13.3652 15.6318 11.472 17.525 11.472 19.846C11.472 22.1671 13.3652 24.0602 15.6862 24.0602Z" stroke="#3C6178" stroke-width="1.66716" stroke-linecap="round" stroke-linejoin="round"/>
</svg>
