<svg width="30" height="30" viewBox="0 0 30 30" fill="none" xmlns="http://www.w3.org/2000/svg">
<path d="M27.5254 11.1356V18.5593C27.5254 21.6526 26.9067 23.8178 25.521 25.2159L17.6271 17.322L27.1913 7.75781C27.414 8.73527 27.5254 9.84883 27.5254 11.1356Z" stroke="white" stroke-width="1.85593" stroke-linecap="round" stroke-linejoin="round"/>
<path d="M27.1914 7.75771L8.06288 26.8862C4.33865 26.0325 2.77966 23.4589 2.77966 18.5592V11.1355C2.77966 4.94906 5.25424 2.47449 11.4407 2.47449H18.8644C23.7641 2.47449 26.3376 4.03347 27.1914 7.75771Z" stroke="white" stroke-width="1.85593" stroke-linecap="round" stroke-linejoin="round"/>
<path d="M25.521 25.2159C24.1229 26.6017 21.9576 27.2203 18.8644 27.2203H11.4407C10.1539 27.2203 9.04032 27.109 8.06287 26.8863L17.6271 17.322L25.521 25.2159Z" stroke="white" stroke-width="1.85593" stroke-linecap="round" stroke-linejoin="round"/>
<path d="M8.02581 9.87348C8.86717 6.24823 14.3112 6.24823 15.1526 9.87348C15.6351 12.0016 14.2989 13.8081 13.1234 14.9216C12.7095 15.315 12.1603 15.5344 11.5892 15.5344C11.0181 15.5344 10.4689 15.315 10.055 14.9216C8.87954 13.8081 7.5309 12.0016 8.02581 9.87348Z" stroke="white" stroke-width="1.85593"/>
<path d="M11.5582 10.7643H11.5694" stroke="white" stroke-width="2.47458" stroke-linecap="round" stroke-linejoin="round"/>
</svg>
