<svg width="72" height="72" viewBox="0 0 72 72" fill="none" xmlns="http://www.w3.org/2000/svg">
<circle cx="36" cy="36" r="36" fill="#E4661B"/>
<path d="M46.8389 53.5428C45.2701 54.0064 43.416 54.2203 41.2411 54.2203H30.5446C28.3697 54.2203 26.5156 54.0064 24.9468 53.5428C25.339 48.9077 30.099 45.2531 35.8929 45.2531C41.6868 45.2531 46.4467 48.9077 46.8389 53.5428Z" stroke="white" stroke-width="2.67411" stroke-linecap="round" stroke-linejoin="round"/>
<path d="M41.2411 18.5656H30.5447C21.631 18.5656 18.0655 22.131 18.0655 31.0447V41.7412C18.0655 48.4799 20.0978 52.1702 24.9469 53.5429C25.3391 48.9078 30.099 45.2531 35.8929 45.2531C41.6868 45.2531 46.4467 48.9078 46.8389 53.5429C51.6879 52.1702 53.7203 48.4799 53.7203 41.7412V31.0447C53.7203 22.131 50.1548 18.5656 41.2411 18.5656ZM35.8929 40.2615C32.3631 40.2615 29.5107 37.3913 29.5107 33.8614C29.5107 30.3316 32.3631 27.4792 35.8929 27.4792C39.4227 27.4792 42.2751 30.3316 42.2751 33.8614C42.2751 37.3913 39.4227 40.2615 35.8929 40.2615Z" stroke="white" stroke-width="2.67411" stroke-linecap="round" stroke-linejoin="round"/>
<path d="M42.2751 33.8614C42.2751 37.3912 39.4228 40.2614 35.8929 40.2614C32.3631 40.2614 29.5107 37.3912 29.5107 33.8614C29.5107 30.3316 32.3631 27.4792 35.8929 27.4792C39.4228 27.4792 42.2751 30.3316 42.2751 33.8614Z" stroke="white" stroke-width="2.67411" stroke-linecap="round" stroke-linejoin="round"/>
</svg>
