<svg width="62" height="72" viewBox="0 0 62 72" fill="none" xmlns="http://www.w3.org/2000/svg">
<mask id="path-1-inside-1_59_17" fill="white">
<path d="M1.95923 17.1527L30.0302 0.85346C30.9412 0.324482 32.0638 0.315806 32.9829 0.830637L60.4763 16.2313C61.4173 16.7584 62 17.7527 62 18.8312V51.7984C62 52.8529 61.4427 53.8289 60.5346 54.3648L33.0109 70.6083C32.0784 71.1586 30.9208 71.1599 29.9872 70.6115L1.49533 53.8782C0.571001 53.3354 0.00945897 52.3379 0.024771 51.266L0.475897 19.6872C0.49085 18.6405 1.05394 17.6784 1.95923 17.1527Z"/>
</mask>
<path d="M1.95923 17.1527L30.0302 0.85346C30.9412 0.324482 32.0638 0.315806 32.9829 0.830637L60.4763 16.2313C61.4173 16.7584 62 17.7527 62 18.8312V51.7984C62 52.8529 61.4427 53.8289 60.5346 54.3648L33.0109 70.6083C32.0784 71.1586 30.9208 71.1599 29.9872 70.6115L1.49533 53.8782C0.571001 53.3354 0.00945897 52.3379 0.024771 51.266L0.475897 19.6872C0.49085 18.6405 1.05394 17.6784 1.95923 17.1527Z" fill="#F3F3F3"/>
<path d="M30.0302 0.85346L532.166 865.642L532.166 865.642L30.0302 0.85346ZM1.95923 17.1527L-500.176 -847.636L-500.177 -847.636L1.95923 17.1527ZM0.475897 19.6872L1000.37 33.9715L1000.37 33.9714L0.475897 19.6872ZM0.024771 51.266L-999.873 36.9818L0.024771 51.266ZM1.49533 53.8782L507.917 -808.408L507.916 -808.408L1.49533 53.8782ZM29.9872 70.6115L-476.435 932.897L-476.435 932.897L29.9872 70.6115ZM33.0109 70.6083L541.264 931.816L541.265 931.816L33.0109 70.6083ZM60.5346 54.3648L-447.716 -806.844L-447.719 -806.843L60.5346 54.3648ZM60.4763 16.2313L-428.231 888.679L-428.231 888.679L60.4763 16.2313ZM32.9829 0.830637L-455.725 873.278L-455.724 873.278L32.9829 0.830637ZM-472.105 -863.935L-500.176 -847.636L504.095 881.942L532.166 865.642L-472.105 -863.935ZM-999.422 5.40295L-999.873 36.9818L999.923 65.5503L1000.37 33.9715L-999.422 5.40295ZM-504.926 916.164L-476.435 932.897L536.409 -791.674L507.917 -808.408L-504.926 916.164ZM541.265 931.816L568.788 915.572L-447.719 -806.843L-475.243 -790.599L541.265 931.816ZM1062 51.7984V18.8312H-938V51.7984H1062ZM549.184 -856.216L521.69 -871.617L-455.724 873.278L-428.231 888.679L549.184 -856.216ZM1062 18.8312C1062 -344.159 865.873 -678.821 549.183 -856.217L-428.231 888.679C-743.038 712.338 -938 379.664 -938 18.8312H1062ZM568.785 915.574C874.438 735.19 1062 406.705 1062 51.7984H-938C-938 -300.999 -751.553 -627.532 -447.716 -806.844L568.785 915.574ZM-476.435 932.897C-162.198 1117.45 227.418 1117.04 541.264 931.816L-475.243 -790.599C-163.261 -974.719 224.039 -975.13 536.409 -791.674L-476.435 932.897ZM-999.873 36.9818C-1005.03 397.732 -816.029 733.454 -504.925 916.165L507.916 -808.408C817.171 -626.783 1005.05 -293.056 999.923 65.5503L-999.873 36.9818ZM-500.177 -847.636C-804.871 -670.717 -994.389 -346.895 -999.422 5.40298L1000.37 33.9714C995.371 384.176 806.979 706.073 504.095 881.942L-500.177 -847.636ZM532.166 865.642C227.366 1042.62 -148.226 1045.53 -455.725 873.278L521.691 -871.617C212.354 -1044.89 -165.484 -1041.97 -472.105 -863.935L532.166 865.642Z" fill="black" mask="url(#path-1-inside-1_59_17)"/>
<mask id="path-3-inside-2_59_17" fill="white">
<path d="M8.85364 21.9932L29.7511 9.85919C30.6682 9.32666 31.7983 9.31793 32.7236 9.83621L53.1584 21.2829C54.1057 21.8135 54.6923 22.8145 54.6923 23.9003V48.4409C54.6923 49.5024 54.1313 50.4849 53.2171 51.0245L32.7518 63.1023C31.8131 63.6563 30.6477 63.6576 29.7078 63.1056L8.50537 50.6533C7.57483 50.1068 7.00952 49.1027 7.02494 48.0236L7.36035 24.5447C7.3754 23.4909 7.94227 22.5224 8.85364 21.9932Z"/>
</mask>
<path d="M8.85364 21.9932L29.7511 9.85919C30.6682 9.32666 31.7983 9.31793 32.7236 9.83621L53.1584 21.2829C54.1057 21.8135 54.6923 22.8145 54.6923 23.9003V48.4409C54.6923 49.5024 54.1313 50.4849 53.2171 51.0245L32.7518 63.1023C31.8131 63.6563 30.6477 63.6576 29.7078 63.1056L8.50537 50.6533C7.57483 50.1068 7.00952 49.1027 7.02494 48.0236L7.36035 24.5447C7.3754 23.4909 7.94227 22.5224 8.85364 21.9932Z" fill="url(#paint0_linear_59_17)" fill-opacity="0.5"/>
<path d="M29.7511 9.85919L416.009 675.081L416.01 675.081L29.7511 9.85919ZM8.85364 21.9932L-377.404 -643.229L-377.405 -643.229L8.85364 21.9932ZM7.36035 24.5447L-761.792 13.5568L7.36035 24.5447ZM7.02494 48.0236L-762.127 37.0357L-762.127 37.0357L7.02494 48.0236ZM8.50537 50.6533L-381.051 713.949L-381.05 713.95L8.50537 50.6533ZM29.7078 63.1056L419.264 -600.191L419.263 -600.191L29.7078 63.1056ZM32.7518 63.1023L423.716 725.57L423.716 725.57L32.7518 63.1023ZM53.2171 51.0245L-337.746 -611.443L-337.747 -611.443L53.2171 51.0245ZM53.1584 21.2829L429.088 -649.83L429.087 -649.831L53.1584 21.2829ZM32.7236 9.83621L-343.205 680.95L-343.205 680.95L32.7236 9.83621ZM-356.507 -655.363L-377.404 -643.229L395.112 687.215L416.009 675.081L-356.507 -655.363ZM-761.792 13.5568L-762.127 37.0357L776.177 59.0115L776.513 35.5326L-761.792 13.5568ZM-381.05 713.95L-359.847 726.402L419.263 -600.191L398.061 -612.643L-381.05 713.95ZM423.716 725.57L444.181 713.492L-337.747 -611.443L-358.212 -599.365L423.716 725.57ZM823.923 48.4409V23.9003H-714.538V48.4409H823.923ZM429.087 -649.831L408.652 -661.277L-343.205 680.95L-322.77 692.397L429.087 -649.831ZM823.923 23.9003C823.923 -255.58 672.917 -513.248 429.088 -649.83L-322.771 692.396C-564.705 556.875 -714.538 301.209 -714.538 23.9003H823.923ZM444.18 713.492C679.512 574.608 823.923 321.697 823.923 48.4409H-714.538C-714.538 -222.692 -571.25 -473.639 -337.746 -611.443L444.18 713.492ZM-359.848 726.402C-117.904 868.497 182.076 868.177 423.716 725.57L-358.212 -599.365C-118.45 -740.864 179.199 -741.181 419.264 -600.191L-359.848 726.402ZM-762.127 37.0357C-766.095 314.791 -620.578 573.274 -381.051 713.949L398.062 -612.643C635.727 -473.061 780.114 -216.586 776.177 59.0115L-762.127 37.0357ZM-377.405 -643.229C-612 -507.012 -757.917 -257.69 -761.792 13.5568L776.513 35.5326C772.668 304.672 627.885 552.057 395.112 687.215L-377.405 -643.229ZM416.01 675.081C181.764 811.095 -106.887 813.325 -343.205 680.95L408.652 -661.277C170.483 -794.689 -120.428 -792.442 -356.507 -655.363L416.01 675.081Z" fill="black" mask="url(#path-3-inside-2_59_17)"/>
<path d="M31.0499 54.3724L32.2809 55L31.0499 55.6276L29.8429 55L31.0499 54.3724Z" stroke="#FF7A00" stroke-opacity="0.3" stroke-width="22"/>
<path d="M39 21H25C23.8954 21 23 21.8954 23 23V34.5M39.5 48.5H27.5M27.5 48.5H25C23.8954 48.5 23 47.6046 23 46.5V34.5M27.5 48.5V55.5V41M27.5 41H42M27.5 41V34.5M27.5 34.5H23M27.5 34.5H37.5M27.5 34.5V29.5C27.5 28.3954 28.3954 27.5 29.5 27.5H44" stroke="url(#paint1_linear_59_17)"/>
<defs>
<linearGradient id="paint0_linear_59_17" x1="60.5" y1="36" x2="31" y2="36" gradientUnits="userSpaceOnUse">
<stop stop-color="#FF7A00" stop-opacity="0.48"/>
<stop offset="1" stop-color="#FF7A00"/>
</linearGradient>
<linearGradient id="paint1_linear_59_17" x1="24" y1="18.5" x2="43.5" y2="67" gradientUnits="userSpaceOnUse">
<stop stop-color="#FF7A00"/>
<stop offset="1" stop-color="#140083"/>
</linearGradient>
</defs>
</svg>
