<svg width="179" height="179" viewBox="0 0 179 179" fill="none" xmlns="http://www.w3.org/2000/svg">
<path d="M177 89.5C177 137.825 137.825 177 89.5 177C41.1751 177 2 137.825 2 89.5C2 41.1751 41.1751 2 89.5 2C137.825 2 177 41.1751 177 89.5Z" stroke="url(#paint0_linear_65_76)" stroke-width="3.97727"/>
<path d="M108.11 55.3334C116.517 55.3334 123.277 62.1367 123.277 70.5C123.277 78.69 116.777 85.3634 108.673 85.6667C108.299 85.6234 107.921 85.6234 107.547 85.6667M116.473 124.667C119.593 124.017 122.54 122.76 124.967 120.897C131.727 115.827 131.727 107.463 124.967 102.393C122.583 100.573 119.68 99.36 116.603 98.6667M76.6934 85.1034C76.26 85.06 75.74 85.06 75.2634 85.1034C70.2896 84.9345 65.5768 82.8363 62.1231 79.2532C58.6694 75.6701 56.7459 70.8833 56.76 65.9067C56.76 55.29 65.34 46.6667 76 46.6667C81.097 46.5748 86.0218 48.5114 89.691 52.0505C93.3601 55.5896 95.4731 60.4414 95.565 65.5384C95.657 70.6354 93.7204 75.5602 90.1812 79.2293C86.6421 82.8985 81.7904 85.0114 76.6934 85.1034ZM55.0267 101.093C44.54 108.113 44.54 119.553 55.0267 126.53C66.9433 134.503 86.4867 134.503 98.4034 126.53C108.89 119.51 108.89 108.07 98.4034 101.093C86.53 93.1634 66.9867 93.1634 55.0267 101.093Z" stroke="url(#paint1_linear_65_76)" stroke-width="6.5" stroke-linecap="round" stroke-linejoin="round"/>
<defs>
<linearGradient id="paint0_linear_65_76" x1="10.3333" y1="-10.6812" x2="76.3218" y2="258.953" gradientUnits="userSpaceOnUse">
<stop stop-color="#FF7A00"/>
<stop offset="1" stop-color="#140083"/>
</linearGradient>
<linearGradient id="paint1_linear_65_76" x1="88.5992" y1="46.6636" x2="88.5992" y2="132.51" gradientUnits="userSpaceOnUse">
<stop stop-color="#140083"/>
<stop offset="1" stop-color="#FF7A00"/>
</linearGradient>
</defs>
</svg>
