<svg width="122" height="47" viewBox="0 0 122 47" fill="none" xmlns="http://www.w3.org/2000/svg">
<path d="M75 28L74.5037 28.0604L75 28ZM121.246 5.43517C121.487 5.29916 121.571 4.99409 121.435 4.75376L119.219 0.837358C119.083 0.597028 118.778 0.512452 118.537 0.648453C118.297 0.784453 118.213 1.08953 118.349 1.32986L120.319 4.8111L116.837 6.78111C116.597 6.91711 116.512 7.22219 116.648 7.46252C116.784 7.70285 117.09 7.78742 117.33 7.65142L121.246 5.43517ZM0.813795 33.964C1.11281 34.084 1.4151 34.2044 1.72054 34.3251L2.08809 33.3951C1.78425 33.275 1.48358 33.1553 1.1862 33.036L0.813795 33.964ZM3.57911 35.0486C4.18558 35.2811 4.80273 35.5144 5.42971 35.7479L5.7787 34.8107C5.15472 34.5784 4.54058 34.3463 3.93713 34.1149L3.57911 35.0486ZM7.28857 36.4302C7.90561 36.6534 8.53092 36.8765 9.16378 37.0989L9.49535 36.1555C8.86539 35.9341 8.24296 35.7121 7.62879 35.4899L7.28857 36.4302ZM11.0353 37.7472C11.6553 37.9588 12.2816 38.1695 12.9135 38.3788L13.228 37.4296C12.599 37.2211 11.9755 37.0114 11.3584 36.8008L11.0353 37.7472ZM14.8057 38.9962C15.4299 39.1967 16.0589 39.3957 16.692 39.5927L16.9891 38.6379C16.359 38.4418 15.7329 38.2437 15.1116 38.0441L14.8057 38.9962ZM18.59 40.1737C19.2214 40.3638 19.8563 40.5517 20.4941 40.737L20.7732 39.7768C20.1385 39.5923 19.5067 39.4053 18.8783 39.2162L18.59 40.1737ZM22.4001 41.2809C23.0363 41.4591 23.6749 41.6344 24.3153 41.8068L24.5751 40.8411C23.9381 40.6697 23.3028 40.4952 22.6698 40.3179L22.4001 41.2809ZM26.2332 42.3121C26.8739 42.4773 27.5158 42.6391 28.1584 42.7972L28.3974 41.8262C27.7584 41.669 27.1201 41.5081 26.4829 41.3438L26.2332 42.3121ZM30.0876 43.2603C30.7334 43.4113 31.3794 43.5583 32.025 43.701L32.2408 42.7246C31.5993 42.5828 30.9572 42.4367 30.3153 42.2865L30.0876 43.2603ZM33.965 44.1168C34.6155 44.2518 35.2652 44.3821 35.9134 44.5074L36.1031 43.5256C35.4595 43.4012 34.8144 43.2718 34.1682 43.1377L33.965 44.1168ZM37.8677 44.8703C38.5212 44.9866 39.1726 45.0975 39.8214 45.2024L39.9811 44.2153C39.3377 44.1112 38.6914 44.0012 38.043 43.8858L37.8677 44.8703ZM41.7923 45.5042C42.4521 45.5994 43.1086 45.688 43.7611 45.7698L43.8854 44.7776C43.2393 44.6966 42.589 44.6088 41.935 44.5145L41.7923 45.5042ZM45.7345 45.9971C46.4022 46.067 47.065 46.1292 47.7222 46.1831L47.804 45.1864C47.1546 45.1332 46.4992 45.0717 45.8387 45.0026L45.7345 45.9971ZM49.7049 46.3214C50.3747 46.3597 51.0377 46.3886 51.6932 46.4077L51.7223 45.4081C51.0766 45.3893 50.4229 45.3608 49.7619 45.3231L49.7049 46.3214ZM53.6952 46.4352C54.3697 46.4336 55.0351 46.4206 55.6902 46.3956L55.652 45.3963C55.0094 45.4209 54.3561 45.4337 53.6928 45.4352L53.6952 46.4352ZM57.6761 46.2798C58.3554 46.2259 59.022 46.1575 59.6748 46.0738L59.5477 45.0819C58.9118 45.1634 58.2612 45.2302 57.5969 45.283L57.6761 46.2798ZM61.6631 45.7632C62.3361 45.6378 62.9918 45.4937 63.6286 45.33L63.3797 44.3615C62.7661 44.5193 62.1324 44.6585 61.4799 44.7801L61.6631 45.7632ZM65.5605 44.7518C66.2118 44.5268 66.8391 44.277 67.4401 44.0011L67.0228 43.0923C66.4536 43.3537 65.8568 43.5915 65.234 43.8066L65.5605 44.7518ZM69.2373 43.048C69.8282 42.6871 70.3855 42.2936 70.9063 41.8659L70.2717 41.0931C69.7889 41.4896 69.2697 41.8564 68.7161 42.1946L69.2373 43.048ZM72.3875 40.4431C72.8414 39.9311 73.2529 39.3822 73.6192 38.7949L72.7708 38.2657C72.4345 38.8048 72.0566 39.3089 71.6392 39.7797L72.3875 40.4431ZM74.5591 36.9663C74.8149 36.3497 75.0287 35.7002 75.1986 35.0168L74.2281 34.7756C74.0698 35.4122 73.8715 36.0141 73.6354 36.583L74.5591 36.9663ZM75.5597 32.9994C75.6341 32.3516 75.6742 31.6781 75.679 30.9783L74.6791 30.9713C74.6744 31.6374 74.6363 32.2751 74.5663 32.8854L75.5597 32.9994ZM75.6018 28.9755C75.5741 28.6358 75.539 28.2905 75.4963 27.9396L74.5037 28.0604C74.5448 28.3985 74.5786 28.7306 74.6051 29.0567L75.6018 28.9755ZM75.4963 27.9396C75.4557 27.6057 75.4198 27.2759 75.3885 26.9502L74.3931 27.0459C74.4252 27.3801 74.462 27.7182 74.5037 28.0604L75.4963 27.9396ZM75.2547 25.0274C75.2268 24.3627 75.2194 23.7167 75.2318 23.0891L74.232 23.0694C74.2192 23.7183 74.2268 24.3848 74.2556 25.0694L75.2547 25.0274ZM75.3371 21.1512C75.397 20.4912 75.4804 19.8536 75.5864 19.2378L74.6008 19.0682C74.4902 19.7112 74.4034 20.3753 74.3412 21.061L75.3371 21.1512ZM75.9955 17.3599C76.1644 16.726 76.3595 16.118 76.5793 15.5348L75.6435 15.1822C75.4117 15.7972 75.2065 16.4371 75.0292 17.1024L75.9955 17.3599ZM77.3485 13.7847C77.6412 13.207 77.9612 12.6572 78.3067 12.134L77.4722 11.583C77.1056 12.1381 76.7664 12.721 76.4565 13.3326L77.3485 13.7847ZM79.4489 10.6058C79.861 10.1165 80.2991 9.65444 80.761 9.21841L80.0746 8.49119C79.5857 8.95274 79.1213 9.44245 78.6841 9.96153L79.4489 10.6058ZM82.2226 7.9828C82.7299 7.59836 83.2593 7.23861 83.8089 6.90247L83.2871 6.0494C82.7105 6.40209 82.1535 6.78045 81.6186 7.18577L82.2226 7.9828ZM85.4933 5.97504C86.064 5.69278 86.6518 5.43185 87.2549 5.1913L86.8844 4.26246C86.2579 4.51236 85.6457 4.78404 85.05 5.07869L85.4933 5.97504ZM89.0749 4.54037C89.6843 4.34594 90.3061 4.16966 90.9386 4.01063L90.6947 3.04081C90.0431 3.20466 89.4012 3.3866 88.771 3.58769L89.0749 4.54037ZM92.834 3.59069C93.4655 3.46869 94.1053 3.36208 94.7519 3.27004L94.611 2.28002C93.9489 2.37427 93.2928 2.48356 92.6443 2.60885L92.834 3.59069ZM96.6855 3.03923C97.3291 2.9766 97.9775 2.92712 98.6293 2.88998L98.5724 1.8916C97.9079 1.92946 97.2461 1.97995 96.5886 2.04394L96.6855 3.03923ZM100.579 2.81513C101.229 2.80189 101.88 2.79996 102.532 2.80856L102.545 1.80865C101.883 1.79991 101.22 1.80186 100.559 1.81534L100.579 2.81513ZM104.485 2.86509C105.137 2.894 105.788 2.9327 106.436 2.98039L106.51 1.98308C105.852 1.9347 105.192 1.89543 104.529 1.86607L104.485 2.86509ZM108.384 3.15092C109.037 3.21704 109.685 3.29164 110.328 3.37388L110.455 2.38198C109.804 2.29865 109.147 2.22305 108.485 2.15601L108.384 3.15092ZM112.265 3.6472C112.917 3.74768 113.561 3.85544 114.196 3.96955L114.373 2.98534C113.73 2.86978 113.078 2.76063 112.417 2.65886L112.265 3.6472ZM116.118 4.34039C116.77 4.4746 117.408 4.61489 118.031 4.7601L118.258 3.7862C117.627 3.63903 116.98 3.49691 116.32 3.36096L116.118 4.34039ZM119.932 5.23008C120.249 5.31299 120.56 5.39696 120.866 5.48184L121.134 4.51818C120.823 4.43202 120.507 4.34681 120.186 4.26271L119.932 5.23008Z" fill="url(#paint0_linear_67_6)"/>
<defs>
<linearGradient id="paint0_linear_67_6" x1="-13.5" y1="-4.49999" x2="200.5" y2="46" gradientUnits="userSpaceOnUse">
<stop stop-color="#FF7A00"/>
<stop offset="1" stop-color="#140083"/>
</linearGradient>
</defs>
</svg>
