<svg width="209" height="294" viewBox="0 0 209 294" fill="none" xmlns="http://www.w3.org/2000/svg">
<mask id="path-1-inside-1_1_26" fill="white">
<path d="M75 291.5V236.5L85.5 235.5H96.5L95.5 291.5H75Z"/>
</mask>
<path d="M75 236.5L69.3115 176.77L15 181.943V236.5H75ZM75 291.5H15V351.5H75V291.5ZM95.5 291.5V351.5H154.438L155.49 292.571L95.5 291.5ZM96.5 235.5L156.49 236.571L157.581 175.5H96.5V235.5ZM85.5 235.5V175.5H82.6493L79.8115 175.77L85.5 235.5ZM15 236.5V291.5H135V236.5H15ZM75 351.5H95.5V231.5H75V351.5ZM155.49 292.571L156.49 236.571L36.5096 234.429L35.5096 290.429L155.49 292.571ZM96.5 175.5H85.5V295.5H96.5V175.5ZM79.8115 175.77L69.3115 176.77L80.6886 296.23L91.1886 295.23L79.8115 175.77Z" fill="#02325A" mask="url(#path-1-inside-1_1_26)"/>
<mask id="path-3-inside-2_1_26" fill="white">
<path d="M97.5 290L99.5 233.5L111.5 223.5L110.5 290H97.5Z"/>
</mask>
<path d="M99.5 233.5L61.089 187.407L40.4863 204.576L39.5376 231.377L99.5 233.5ZM97.5 290L37.5376 287.877L35.3386 350H97.5V290ZM110.5 290V350H169.605L170.493 290.902L110.5 290ZM111.5 223.5L171.493 224.402L173.458 93.7661L73.089 177.407L111.5 223.5ZM39.5376 231.377L37.5376 287.877L157.462 292.123L159.462 235.623L39.5376 231.377ZM97.5 350H110.5V230H97.5V350ZM170.493 290.902L171.493 224.402L51.5068 222.598L50.5068 289.098L170.493 290.902ZM73.089 177.407L61.089 187.407L137.911 279.593L149.911 269.593L73.089 177.407Z" fill="#90081E" mask="url(#path-3-inside-2_1_26)"/>
<path d="M75 290.5H4.50003V187.5L10.5 182L20 176H64.5L73 177.5L61 195L63 220L75 235.5V290.5Z" fill="#90081E"/>
<path d="M153.873 0.803009C129.669 5.62098 113.552 27.3592 116.247 51.449L116.878 57.07L105.579 86.7808L94.2797 116.492L93.3046 111.903C90.8956 100.833 83.554 91.4267 73.5739 86.6087C49.8282 75.1374 22.5837 90.8531 20.7483 117.008C20.5189 120.335 21.0925 125.955 23.3294 141.958C25.1074 154.462 26.2546 164.671 26.2546 167.826V173.045L21.666 173.39C13.1199 173.963 6.63856 178.265 3.13979 185.721L1.30438 189.564L1.13231 241.587L0.960236 293.667H57.514H114.01L114.125 248.011L114.297 202.297L132.938 198.684C143.205 196.734 162.42 193.006 175.669 190.424C188.918 187.901 201.594 185.434 203.888 184.976C206.183 184.517 208.19 184.115 208.42 184.115C209.108 184.115 208.19 145.686 207.273 138.803C206.125 129.684 205.781 127.791 200.275 101.98L195.457 79.2097L198.612 75.08C202.397 70.2047 205.208 64.5264 207.043 58.2171C208.879 51.7932 208.879 40.7233 207.043 34.242C202.512 18.2968 189.607 5.50626 173.948 1.43393C169.016 0.17208 158.806 -0.172056 153.873 0.803009ZM164.829 6.71075C164.599 7.22697 164.14 9.40652 163.796 11.5287C162.649 18.1821 164.771 27.2445 168.786 32.4066L170.163 34.242L166.148 38.1996L162.19 42.1572L148.998 28.9652C141.771 21.7382 135.978 15.6584 136.15 15.429C136.724 14.4539 144.352 9.75064 147.105 8.66086C151.235 7.05487 157.257 5.85039 161.559 5.79303C164.714 5.73567 165.115 5.8504 164.829 6.71075ZM174.866 7.9726C178.881 9.34916 183.068 11.4714 186.223 13.7656L188.746 15.601L181.634 22.7133C176.644 27.7033 174.407 29.5961 173.891 29.1946C172.342 27.9328 170.105 21.6235 169.819 17.6085C169.532 13.5362 170.449 6.88281 171.31 6.88281C171.539 6.88281 173.145 7.34167 174.866 7.9726ZM197.751 27.015C199.357 30.055 201.766 36.2495 201.766 37.3393C201.766 38.1996 195.17 39.1173 191.155 38.8879C187.312 38.6011 183.24 37.2819 180.028 35.1597L178.652 34.2993L185.764 27.1298L192.876 20.0175L194.425 21.8529C195.285 22.828 196.776 25.1796 197.751 27.015ZM145.557 34.1273L157.888 46.459L154.045 50.3019L150.26 54.0874L147.449 52.3094C144.18 50.1872 140.911 48.9827 136.093 47.9503L132.651 47.262L131.848 44.4515C130.414 39.0026 131.103 21.7956 132.823 21.7956C133.053 21.7956 138.789 27.3592 145.557 34.1273ZM183.527 43.5338C189.721 45.5986 197.178 45.656 202.225 43.7632C202.971 43.4191 203.028 44.05 202.741 48.5238C202.168 56.7259 199.357 64.8132 195.514 69.4591L193.966 71.2945L192.647 65.0426C191.958 61.6012 190.754 57.4715 190.008 55.8081C187.083 49.2695 180.143 44.2794 173.26 43.7059L169.589 43.4191L171.941 41.0101L174.35 38.6011L177.103 40.4365C178.652 41.4689 181.519 42.8455 183.527 43.5338ZM177.504 50.9328C180.602 52.5388 183.355 55.3493 184.617 58.2171C185.821 60.9703 199.529 124.923 200.849 133.928C201.365 137.369 202.053 143.449 202.34 147.407C203.028 156.699 203.085 179.527 202.397 179.527C202.11 179.527 192.589 181.305 181.29 183.484C169.991 185.721 144.639 190.597 124.908 194.439C105.177 198.282 88.4293 201.552 87.741 201.724C86.4792 202.011 86.4218 202.24 86.766 204.706C86.9954 206.14 87.2248 207.402 87.3395 207.517C87.4542 207.632 102.711 204.821 107.013 203.903C108.275 203.617 108.275 203.731 108.275 208.664C108.275 219.849 103.916 227.534 95.1401 231.664C92.3296 232.983 91.2398 233.155 85.9056 233.155C80.4567 233.155 79.5964 232.983 76.5565 231.549C66.9779 226.789 62.6188 217.669 63.9953 204.878C65.8307 187.327 77.1874 172.07 93.4767 165.302C98.1226 163.352 102.138 162.492 140.395 155.207C164.427 150.562 173.088 148.841 175.554 148.153C176.472 147.923 176.587 147.522 176.243 145.227C176.013 143.736 175.784 142.474 175.669 142.36C175.612 142.245 173.891 142.589 171.883 143.048C169.876 143.507 168.155 143.793 168.041 143.679C167.524 143.163 155.881 67.1074 155.881 64.297C155.881 58.2745 160.068 52.3667 165.861 50.2445C169.016 49.04 174.464 49.3842 177.504 50.9328ZM141.312 56.0376C145.671 58.0451 145.901 58.5039 143.549 60.7982C141.542 62.7483 141.542 62.7483 140.452 61.6585C139.821 61.0276 138.444 59.0201 137.24 57.1847L135.175 53.858L136.781 54.2595C137.641 54.4889 139.706 55.2346 141.312 56.0376ZM150.03 69.5738C149.858 70.4341 149.572 70.3768 147.851 68.8855L145.843 67.2221L147.564 65.3867L149.285 63.6087L149.744 66.075C149.973 67.4516 150.088 69.0002 150.03 69.5738ZM125.138 74.5065C127.948 78.292 133.282 83.1673 137.527 85.8057C140.108 87.3544 140.911 88.2147 140.624 88.8456C140.452 89.3619 134.888 103.816 128.35 121.023C121.811 138.23 116.247 152.684 116.075 153.143C115.846 153.716 113.38 154.462 108.389 155.38C101.966 156.584 94.7959 158.419 91.3545 159.739C90.7236 159.968 91.4119 159.394 92.8458 158.419C94.7959 157.158 95.943 155.838 97.1475 153.372L98.7535 150.103L97.7211 142.302C95.6563 126.758 94.6238 131.634 107.414 98.0801C113.666 81.8481 118.943 67.9104 119.287 67.1074C119.803 65.7309 119.861 65.7882 121.467 68.7134C122.327 70.3194 123.991 72.9578 125.138 74.5065ZM151.12 91.4841C152.439 91.8282 153.644 92.2297 153.816 92.3444C154.218 92.8033 162.305 144.654 161.961 144.941C161.559 145.342 123.188 152.741 122.901 152.454C122.729 152.282 127.948 138.172 134.487 121.138C145.557 92.0576 146.417 90.0501 147.507 90.4516C148.195 90.6811 149.801 91.1399 151.12 91.4841ZM86.7086 109.437C87.9131 112.993 92.7884 148.038 92.3869 149.816C91.9854 151.365 90.6662 153.028 89.1749 153.831C88.372 154.232 84.9879 153.429 75.4093 150.504C68.4118 148.382 62.3893 146.374 62.0452 146.03C61.6437 145.686 60.9554 143.908 60.4392 142.13C59.5789 139.09 59.3494 138.803 57.3419 138.23C56.1948 137.943 54.8756 137.656 54.4741 137.656C54.0726 137.656 53.0975 137.025 52.3519 136.222C50.918 134.846 50.4591 132.035 51.2621 129.913C51.6636 128.938 54.3594 127.332 55.736 127.332C56.2522 127.332 59.2347 125.439 62.3893 123.145L68.125 119.015L67.7809 113.968L67.4367 108.978H71.9106C74.4916 108.978 78.1624 108.462 80.4567 107.888C82.6936 107.257 84.7585 106.741 85.16 106.741C85.5041 106.684 86.2498 107.945 86.7086 109.437ZM49.0826 141.098C50.2871 142.015 52.0078 142.933 53.0402 143.163C54.7035 143.507 54.933 143.793 55.8507 147.235C56.4242 149.3 57.1125 151.078 57.4567 151.135C57.8008 151.25 61.5863 152.454 65.8307 153.774C70.534 155.265 73.0577 156.297 72.3121 156.469C70.9929 156.641 70.9929 156.813 70.9929 164.958V173.217H51.4916H31.9902V168.457C31.9902 165.876 31.5888 160.312 31.0152 156.182C30.499 151.995 30.1548 148.439 30.3269 148.325C30.8431 147.808 46.1 139.434 46.5015 139.377C46.7883 139.377 47.9354 140.123 49.0826 141.098ZM86.5365 162.033C84.4717 163.123 82.751 163.926 82.6363 163.811C82.5216 163.696 82.6936 162.951 82.9804 162.148C83.554 160.714 84.1276 160.484 89.0602 160.14C89.6912 160.083 88.544 160.943 86.5365 162.033ZM65.6013 181.649C59.0626 190.195 58.0876 193.464 58.0876 206.484C58.0876 215.604 58.2023 216.866 59.4641 220.25C61.7011 226.33 64.5115 230.115 70.4766 234.876L71.9106 236.023L71.6811 261.948L71.4517 287.931H39.1025H6.75327V282.195V276.46H10.08C16.1598 276.46 21.7234 272.617 23.3294 267.34C24.9927 261.776 23.1573 254.549 19.4865 251.796L17.7658 250.477L19.3718 249.1C21.8381 247.036 23.9603 242.332 23.9603 238.948C23.9603 235.622 22.0675 231.033 19.888 229.026C17.5363 226.903 13.6361 225.412 10.08 225.412H6.75327V209.639C6.75327 200.634 7.04005 192.719 7.38419 191.055C8.47397 185.893 13.0052 181.133 18.1099 179.756C20.06 179.24 27.287 179.01 44.2072 179.01L67.6662 178.953L65.6013 181.649ZM108.275 258.392V287.931H104.26H100.245V261.662V235.45L102.138 234.188C103.17 233.442 104.891 232.008 105.98 230.861C107.07 229.771 107.988 228.854 108.103 228.854C108.217 228.854 108.275 242.16 108.275 258.392ZM13.2919 231.951C17.0775 233.557 18.9703 237.973 17.4216 241.644C16.9054 242.906 14.8406 245.143 11.9154 247.552L7.21212 251.395L10.5962 253.288C15.4715 255.983 16.9628 257.36 17.7084 259.826C19.4865 265.677 15.4715 270.724 9.04754 270.724H6.75327V250.936V231.148H9.04754C10.3094 231.148 12.2022 231.492 13.2919 231.951ZM87.3395 239.063C90.15 238.891 92.9031 238.662 93.362 238.547C94.1076 238.375 94.2223 241.415 94.3944 263.153L94.5091 287.931H86.1924H77.8757V263.038V238.145L79.9979 238.719C81.2024 239.063 84.4717 239.178 87.3395 239.063Z" fill="white"/>
<path d="M81.145 117.18C79.0802 117.581 78.4493 117.926 78.6787 118.556C78.8508 119.015 79.0228 119.933 79.0228 120.621C79.0228 122.973 79.7685 123.432 82.6937 123.03L85.3894 122.629L84.9879 119.933C84.8159 118.499 84.4717 117.123 84.2423 116.95C84.0702 116.778 82.6363 116.893 81.145 117.18Z" fill="white"/>
<path d="M38.6437 226.272C33.3095 228.165 27.9753 236.08 26.484 244.225C25.5089 249.731 25.5089 252.083 26.484 257.589C29.5813 274.739 43.4616 282.081 53.1549 271.584C57.8008 266.537 60.0951 259.769 60.0951 250.936C60.0951 241.529 57.2272 233.901 52.0078 229.198C47.9354 225.584 43.4043 224.552 38.6437 226.272ZM47.4192 232.754C49.1973 234.016 52.4093 239.178 53.2696 242.046C53.6138 243.135 54.0153 246.175 54.1873 248.756C55.1624 262.465 47.8207 273.534 40.2496 269.806C35.317 267.34 32.5065 261.145 32.105 251.968C31.9329 247.15 32.105 245.43 33.08 242.16C35.8332 232.983 42.1424 228.854 47.4192 232.754Z" fill="white"/>
</svg>
