<svg width="94" height="93" viewBox="0 0 94 93" fill="none" xmlns="http://www.w3.org/2000/svg">
<mask id="path-1-inside-1_100_16" fill="white">
<path d="M43.2496 0.0560413C42.595 0.114222 42.566 0.179676 42.5514 1.73601C42.5441 2.41964 42.5005 3.07417 42.4569 3.25599C42.275 3.89598 41.8532 4.34688 41.0823 4.70324C40.7114 4.87778 40.5805 4.8996 39.8678 4.8996C39.1769 4.8996 39.0242 4.87778 38.726 4.73233C38.0351 4.39051 37.5406 3.73598 37.0315 2.49964C36.8788 2.13601 36.6824 1.69238 36.5879 1.49602L36.4133 1.1542H36.0279C35.657 1.1542 34.9006 1.33602 34.5079 1.51784C34.2534 1.6342 34.1806 2.04874 34.297 2.73963C34.5806 4.4996 34.5879 4.58687 34.5224 4.95778C34.3843 5.67777 33.9479 6.19412 33.1188 6.60866C31.9407 7.19774 30.8571 7.03774 29.9771 6.14321C29.7807 5.93231 29.3298 5.35777 28.988 4.85596C28.6389 4.35415 28.3044 3.90325 28.2389 3.85234C28.1371 3.76507 28.0498 3.77962 27.628 3.94689C27.3589 4.05597 26.9444 4.25233 26.7044 4.37597L26.268 4.60869L26.2899 4.96505C26.2971 5.16141 26.4717 5.81595 26.6753 6.41957C27.2644 8.15045 27.1989 8.71771 26.2971 9.54679C26.0644 9.76497 25.6499 10.0559 25.3735 10.1868C24.9517 10.3904 24.8135 10.4268 24.3408 10.4268C23.8899 10.4268 23.7299 10.3904 23.4317 10.2304C22.8499 9.92497 22.4136 9.58315 21.4681 8.68862L20.5736 7.85227L20.1591 8.09954C19.9263 8.23772 19.5336 8.52135 19.2791 8.72499L18.8209 9.09589L19.01 9.51043C19.1118 9.73588 19.25 10.0559 19.33 10.2304C19.4027 10.3977 19.5991 10.7322 19.7663 10.9795C20.2172 11.6486 20.3554 12.0122 20.3554 12.5431C20.3481 13.1613 20.1081 13.6849 19.57 14.2522C18.9663 14.8776 18.4864 15.1322 17.8173 15.1758C16.9809 15.2267 16.4427 14.994 14.6973 13.794L13.9482 13.2776L13.4755 13.6922C12.821 14.2594 12.4574 14.7758 12.5228 15.0231C12.5883 15.2994 12.901 15.7212 13.621 16.4994C14.2755 17.2121 14.4791 17.5612 14.5664 18.0848C14.6682 18.7466 14.1955 19.823 13.5046 20.4921C12.8864 21.0884 12.0865 21.2848 11.1774 21.0521C10.9228 20.9866 10.2029 20.6884 9.58468 20.3902L8.45015 19.8521L8.21743 20.0848C7.99925 20.303 7.17745 21.5539 7.17745 21.663C7.17745 21.7793 7.87562 22.4848 8.40652 22.9138C9.75195 23.9975 9.9774 24.3175 9.97013 25.1538C9.97013 25.6411 9.93377 25.772 9.67195 26.332C9.30832 27.0956 8.84288 27.6192 8.31925 27.8519C7.75198 28.0992 7.10472 28.0774 5.73747 27.7501C5.12657 27.5974 4.50113 27.481 4.3484 27.481C4.07205 27.481 4.07205 27.4883 3.80296 28.0483C3.65751 28.361 3.47569 28.7974 3.39569 29.0156L3.25024 29.4083L3.54842 29.6774C3.71569 29.8301 4.01386 30.0264 4.22477 30.1283C4.4284 30.2228 4.84294 30.4192 5.14839 30.5646C6.17383 31.0446 6.66837 31.7355 6.66837 32.681C6.66837 32.9573 6.632 33.3355 6.58837 33.51C6.4211 34.2591 5.88292 35.0664 5.40293 35.3136C4.73385 35.6627 3.41024 35.7864 2.3848 35.5973C1.323 35.4009 1.14118 35.5391 0.995733 36.6518C0.864826 37.7209 0.857553 37.699 1.35209 37.9463C1.58481 38.07 2.10844 38.2663 2.50843 38.3827C3.61387 38.7099 3.94114 38.8772 4.30477 39.2772C4.75567 39.779 4.8793 40.2299 4.8284 41.1463C4.77749 42.0917 4.63204 42.4772 4.13023 42.979C3.51205 43.5899 2.76298 43.8226 0.886644 43.968L0.159383 44.0262L0.064839 44.4626C-0.0442501 44.9644 -0.00788711 46.1207 0.115747 46.2735C0.210291 46.3825 1.35209 46.6298 2.34116 46.7534C3.17024 46.8553 3.61387 47.0516 3.9775 47.4589C4.4284 47.9752 4.5884 48.4625 4.5884 49.3716C4.59567 50.317 4.44295 50.7097 3.87569 51.2552C3.40297 51.6988 2.95934 51.9243 2.07935 52.1715C0.573921 52.5933 0.508468 52.6224 0.464832 52.8915C0.413924 53.2333 0.523013 54.0697 0.683011 54.506L0.82119 54.8624L1.54118 54.9497C2.07935 55.0079 2.49389 55.0079 3.11206 54.9497C3.86841 54.8769 3.99205 54.8842 4.29022 55.0006C4.77749 55.1824 5.31566 55.6987 5.57748 56.2296C5.83929 56.7678 6.04292 57.6696 5.97747 58.026C5.80293 58.9714 5.23566 59.5314 3.53387 60.455C3.11206 60.6878 2.6757 60.9423 2.56662 61.0296L2.37026 61.1896L2.61752 61.9168C2.7557 62.3168 2.93025 62.7677 3.00297 62.9277L3.14115 63.2041L3.57751 63.1604C3.8175 63.1386 4.35568 63.0295 4.77749 62.9277C5.82474 62.6659 6.78473 62.6514 7.23563 62.8841C7.92653 63.2477 8.52288 64.1059 8.7047 64.9786C8.9156 65.9822 8.41379 66.9131 7.11927 67.9313C6.85018 68.1422 6.44292 68.4694 6.21019 68.6658L5.79565 69.0222L6.13747 69.6767C6.32655 70.0403 6.58837 70.4476 6.712 70.593L6.93745 70.8621L7.63562 70.6949C8.05743 70.5858 8.65379 70.3676 9.1556 70.1276C9.91195 69.7567 10.0065 69.7276 10.3847 69.7567C11.4756 69.8512 12.741 71.073 12.8864 72.1785C12.9955 72.9566 12.5737 73.8075 11.3883 75.233L10.6756 76.0911L10.9083 76.4184C11.0392 76.6002 11.3519 76.9711 11.6137 77.2402L12.0865 77.7347L12.7628 77.4511C13.1264 77.2984 13.6137 77.0293 13.8392 76.8548C14.0573 76.6802 14.3555 76.4475 14.4937 76.3384C15.2573 75.7493 16.4646 75.9966 17.41 76.9275C17.8973 77.4002 18.1664 77.9457 18.21 78.5638C18.2754 79.3129 18.1009 79.7711 17.1118 81.4801C16.93 81.8001 16.7773 82.1129 16.7773 82.1783C16.7773 82.4183 18.1082 83.5528 18.3918 83.5528C18.5954 83.5528 19.01 83.2183 19.8172 82.3965C20.6972 81.5092 20.9954 81.3129 21.599 81.2183C22.6463 81.0511 24.1444 81.8729 24.559 82.8401C24.6972 83.1601 24.719 83.3128 24.6899 83.8365C24.6608 84.3528 24.5808 84.6728 24.2463 85.6692C24.0135 86.331 23.8317 86.9273 23.8317 86.9855C23.8317 87.1091 24.8208 87.72 25.359 87.9237L25.7444 88.0691L26.028 87.7928C26.188 87.64 26.5444 87.1746 26.8353 86.7528C27.7953 85.3419 28.1516 85.0655 29.0244 85.0583C30.0134 85.0583 31.068 85.531 31.5407 86.1782C31.9043 86.6801 32.0061 87.1673 31.9479 88.0982C31.9261 88.5346 31.8389 89.1455 31.7589 89.4436C31.5698 90.1709 31.5698 90.3964 31.7879 90.6C32.0134 90.8109 32.6825 91.0436 33.2279 91.0945C33.6279 91.1382 33.657 91.1236 33.8752 90.8909C34.1297 90.6145 34.3697 90.1709 34.6679 89.4C35.0752 88.3382 35.3879 87.9673 36.1224 87.6909C37.0606 87.3346 38.5733 87.7128 39.2424 88.4764C39.4315 88.6873 39.5987 88.9855 39.7005 89.2909C39.846 89.72 39.8605 89.9018 39.846 91.0218C39.8315 92.6799 39.7951 92.629 41.0969 92.7309C41.8751 92.789 42.0496 92.7818 42.1369 92.7018C42.275 92.5563 42.5732 91.6472 42.755 90.8036C43.0169 89.5891 43.4968 89.0146 44.4932 88.7091C45.1623 88.5055 46.035 88.5346 46.5441 88.7818C46.9877 89 47.4677 89.4873 47.7513 90.0254C48.0059 90.5054 48.2677 91.4218 48.2677 91.8727C48.2749 92.3527 48.4931 92.8836 48.704 92.9418C49.2422 93.0872 50.5004 92.9418 50.7113 92.709C50.8204 92.5854 50.8495 92.36 50.8785 91.16C50.9222 89.7855 50.9295 89.7491 51.1404 89.3273C51.5622 88.5055 52.4931 88.0255 53.6858 88.0255C54.2748 88.0255 54.3767 88.0473 54.7258 88.2437C55.1985 88.4982 55.8385 89.1746 56.1003 89.6836C56.2021 89.8945 56.4275 90.44 56.5948 90.8982L56.9003 91.7345L57.1475 91.7127C57.3948 91.6909 58.3621 91.4654 58.7839 91.3272C58.9584 91.2763 59.0239 91.2036 59.0602 91.0291C59.1402 90.6291 59.1039 90.0909 58.9511 89.2691C58.7766 88.3673 58.7911 87.8728 59.0166 87.4364C59.4966 86.5055 61.002 85.7637 62.0347 85.9601C62.8783 86.1128 63.4601 86.6291 64.3838 88.0328L65.0528 89.0655L65.3365 89.0073C65.7365 88.9273 65.9837 88.8182 66.5437 88.4764L67.0455 88.1709L67.0019 87.7637C66.9801 87.5382 66.8128 86.9491 66.631 86.4546C66.2237 85.371 66.151 84.8037 66.3401 84.3019C66.6092 83.6037 67.6928 82.7165 68.5437 82.4983C69.4528 82.2656 70.0782 82.5565 71.5473 83.931L72.5655 84.8764L72.9436 84.6801C73.1545 84.5783 73.5254 84.3237 73.78 84.1274C74.1291 83.8437 74.2309 83.7274 74.2309 83.5674C74.2309 83.4583 73.9472 82.8038 73.5982 82.1056C72.9582 80.8474 72.9582 80.8329 72.9582 80.2874C72.9582 79.582 73.14 79.2111 73.7872 78.5784C74.3981 77.9966 74.7836 77.7929 75.4018 77.7493C76.2527 77.6911 77.0236 78.0184 78.529 79.0729L79.1981 79.5529L79.569 79.2111C79.7726 79.022 80.0999 78.6875 80.289 78.4693C80.5653 78.1493 80.6308 78.0256 80.5944 77.8875C80.529 77.6329 80.209 77.2038 79.5326 76.462C78.769 75.6184 78.5654 75.2112 78.609 74.5421C78.6599 73.5966 79.4526 72.4039 80.2962 71.9967C81.0817 71.6112 81.7871 71.7203 83.4453 72.4767C84.0198 72.7312 84.5362 72.9276 84.5943 72.9057C84.7471 72.8476 85.2998 72.113 85.5761 71.5967L85.8234 71.1385L85.5907 70.8476C85.4671 70.6876 85.1834 70.4185 84.958 70.2512C84.7398 70.0912 84.3834 69.8222 84.1653 69.6549C83.7071 69.3203 83.4089 68.9567 83.278 68.5785C82.9798 67.7422 83.3944 66.3386 84.1798 65.5604C84.8852 64.855 85.7071 64.775 87.4307 65.2477C88.8343 65.6259 88.8125 65.6259 88.9797 65.3495C89.3143 64.8186 89.5761 64.2077 89.6197 63.9022C89.6634 63.5895 89.6561 63.5677 89.3652 63.3204C89.2052 63.1823 88.6597 62.8477 88.1579 62.5714C87.067 61.975 86.8052 61.7641 86.587 61.3277C86.2452 60.6078 86.4561 59.1387 87.0088 58.4114C87.3216 57.9969 87.3943 57.9387 87.867 57.6769L88.2306 57.4805H89.8961C91.2997 57.4805 91.5688 57.466 91.6124 57.3714C91.7433 57.1169 92.0488 55.9315 92.0488 55.6842C92.0488 55.4806 91.9979 55.3788 91.8306 55.2406C91.5615 55.0079 90.6597 54.666 89.9252 54.506C88.9943 54.3024 88.5216 53.8442 88.2888 52.9061C88.0416 51.8879 88.427 50.5061 89.1179 49.9825C89.5688 49.6407 90.1215 49.4589 91.1251 49.3279C91.6124 49.2625 92.2088 49.1752 92.4488 49.1316L92.8851 49.0443L92.9797 48.6443C93.096 48.1425 93.0524 47.1753 92.8997 46.9425C92.7542 46.7244 92.4124 46.6444 91.1324 46.4989C89.7143 46.3462 89.2561 46.0916 88.8197 45.248C88.4488 44.5135 88.4052 43.3571 88.7252 42.659C88.9434 42.179 89.2415 41.8808 89.8743 41.5172C90.4924 41.1535 90.8342 41.0299 91.5688 40.899C92.3542 40.7608 92.5142 40.6299 92.536 40.1281C92.5506 39.8954 92.4851 39.4663 92.3906 39.0808L92.2233 38.4263L91.7506 38.3463C91.147 38.2372 90.3833 38.2299 89.8015 38.3172C89.4379 38.3827 89.2634 38.3754 88.9652 38.2881C87.9979 38.0045 87.2416 36.8045 87.2488 35.5682C87.2634 34.3755 87.8234 33.7355 89.7433 32.7537L90.667 32.2737V31.9901C90.667 31.6119 90.427 30.8555 90.1797 30.4846C89.8743 30.0046 89.627 30.0046 88.0197 30.4555C87.5834 30.5792 87.0525 30.681 86.8489 30.681C86.0707 30.681 85.2998 30.0555 84.798 29.0228C84.5725 28.5501 84.5362 28.3974 84.5289 27.961C84.5289 27.5319 84.5653 27.3719 84.7471 27.0083C84.9798 26.5283 85.8743 25.5538 86.7616 24.7974L87.307 24.332L87.1325 23.932C86.9652 23.5538 86.5652 22.8629 86.347 22.5866C86.2452 22.4557 86.2089 22.4629 85.4161 22.6811C84.8634 22.8338 84.4198 23.0157 84.0489 23.2338C83.5253 23.5466 83.3362 23.5975 82.8126 23.5538C82.0853 23.5102 81.0235 22.6448 80.6162 21.7648C80.4199 21.3502 80.3835 21.183 80.3835 20.7757C80.398 19.9757 80.7471 19.3721 82.0707 17.903C82.4853 17.4448 82.5944 17.2703 82.558 17.1612C82.4417 16.783 81.3799 15.554 81.1762 15.554C81.0017 15.554 80.3617 15.9394 79.5544 16.543C78.3181 17.4594 77.7799 17.5539 76.769 17.0376C76.3036 16.8049 75.6199 16.1358 75.4018 15.714C74.9 14.7249 75.089 13.794 76.1945 11.8886L76.6527 11.0886L76.4708 10.9431C76.369 10.8559 76.1072 10.6377 75.8963 10.4559C75.4818 10.1068 74.9581 9.73588 74.8709 9.73588C74.8418 9.73588 74.3691 10.165 73.8163 10.6813C72.74 11.6995 72.4127 11.9322 71.8746 12.0704C71.2055 12.2377 70.2309 11.8886 69.4964 11.2122C68.5728 10.3541 68.5146 9.45225 69.2491 7.33592C69.3801 6.95774 69.5037 6.51412 69.5328 6.35412C69.5837 6.06321 69.5764 6.06321 69.1619 5.79413C68.9291 5.64868 68.5292 5.4305 68.2746 5.30686L67.8092 5.08868L67.6128 5.24868C67.2855 5.52504 66.791 6.15776 66.4274 6.77593C66.231 7.1032 65.9837 7.46683 65.8819 7.57592C65.2783 8.22318 64.0929 8.30318 62.9947 7.77955C62.3838 7.48864 61.9911 7.11774 61.7293 6.59411C61.5329 6.20867 61.5038 6.07049 61.5038 5.5614C61.5038 5.23414 61.5693 4.59415 61.6493 4.13597C61.8165 3.17599 61.8311 2.65963 61.7075 2.55055C61.562 2.43418 60.0929 1.95419 59.882 1.95419C59.7293 1.95419 59.6566 2.01964 59.5402 2.25237C59.4529 2.41237 59.2784 2.71781 59.1402 2.92872C59.002 3.13963 58.813 3.57598 58.7111 3.8887C58.4857 4.58687 58.3184 4.85596 57.9984 5.1105C57.0021 5.86685 54.9803 5.5614 54.1949 4.53597C53.7658 3.96143 53.5549 3.03781 53.5694 1.70692C53.5767 0.645122 53.5258 0.485125 53.104 0.310582C52.8494 0.208766 51.664 0.16513 51.4313 0.252402C51.3658 0.281492 51.2785 0.383309 51.2349 0.492398C50.9513 1.21239 50.7985 1.75783 50.704 2.40509C50.5658 3.29235 50.384 3.65598 49.904 3.97598C49.4022 4.31052 48.7695 4.4487 47.9622 4.41233C47.1041 4.3687 46.6459 4.18688 46.195 3.68507C45.8168 3.26326 45.6568 2.86327 45.2786 1.40875C45.1259 0.80512 44.9805 0.245129 44.9514 0.150585C44.9077 -0.00213959 44.8714 -0.00941219 44.3114 0.00513302C43.9914 0.0124056 43.5114 0.0342234 43.2496 0.0560413ZM53.0676 6.68866C57.0093 7.685 59.8893 8.6159 63.1038 9.93951C65.7874 11.0377 67.5546 11.9395 69.4964 13.2049C73.7945 15.9976 77.729 20.5575 81.1035 26.6447C81.9908 28.2447 83.5907 31.5319 83.518 31.6046C83.5035 31.6192 82.9144 30.8192 82.2162 29.8228C78.9944 25.292 77.9254 24.0411 76.4054 23.0447C74.2818 21.6484 72.7182 21.8157 70.6528 23.6411L70.1655 24.0775L67.0528 21.8593C61.6347 18.0121 61.002 17.5539 60.9947 17.5103C60.9947 17.4812 61.1693 17.1758 61.3875 16.8339C61.8893 16.034 62.122 15.3794 62.1147 14.754C62.1074 13.4667 60.7984 11.9249 58.3184 10.2886C56.7184 9.23407 55.3803 8.52135 51.2858 6.52139C50.5149 6.14321 50.4495 6.09958 50.7404 6.14321C50.9222 6.16503 51.9694 6.4123 53.0676 6.68866ZM38.3406 8.20136C38.2969 8.23045 37.8606 8.44136 37.3588 8.66681C34.1952 10.0777 31.8025 11.2922 30.4716 12.1504C29.3516 12.8776 28.188 14.0558 27.7807 14.8776C27.0898 16.2594 27.1917 17.4012 28.1662 19.023L28.6098 19.7648L24.6608 23.6266L20.7045 27.4883L20.21 27.0592C19.1918 26.1574 18.53 25.852 17.6718 25.8883C17.17 25.9174 17.0173 25.9611 16.4137 26.252C14.5082 27.1756 12.6101 29.1683 9.11196 33.8955C8.43561 34.8118 7.88289 35.5536 7.86835 35.5536C7.83926 35.5536 8.3847 34.2446 8.88651 33.1173C9.75922 31.1392 11.8319 27.1974 13.0319 25.2265C15.3737 21.372 17.9991 18.2085 20.5154 16.194C23.8026 13.5613 28.188 11.2922 33.1843 9.62679C34.5879 9.16134 37.3879 8.36136 38.3769 8.14318C38.3915 8.13591 38.3769 8.165 38.3406 8.20136ZM50.9585 12.7467C52.1294 12.9504 56.0348 13.9249 56.9584 14.2449C57.9766 14.594 58.3548 14.8194 58.9002 15.394C59.6784 16.2085 59.9911 17.0012 59.9911 18.1357C59.9911 19.503 59.6275 20.2812 58.1148 22.1357C56.6021 23.9975 56.093 25.1538 56.093 26.7174C56.093 27.6774 56.2239 28.2228 56.653 29.0446C57.0239 29.7501 57.9548 30.7173 58.6675 31.1392C60.3038 32.0919 62.4129 32.0482 63.9838 31.0301C64.6383 30.6155 65.1547 30.041 65.9837 28.8483C66.8855 27.5465 68.2819 25.7865 68.7037 25.4229C69.4891 24.7538 71.0891 24.7174 72.4055 25.3429C73.7 25.9538 75.1472 27.9101 76.849 31.3719C77.7726 33.2482 78.1654 34.1791 78.7399 35.9173C79.8235 39.1536 80.3617 42.3608 80.4635 46.1353C80.5799 50.4261 79.7581 54.7242 77.9326 59.3351C77.2126 61.1532 75.7509 63.7277 74.7036 65.0077C73.7727 66.1422 72.4273 67.284 71.3873 67.8076C70.6091 68.2004 70.1509 68.3094 69.2128 68.3167C68.4419 68.3167 68.3473 68.3022 67.9619 68.1131C67.2855 67.7858 66.6019 66.9858 65.8383 65.6331C65.0674 64.2877 64.6165 63.7132 63.8165 63.0804C63.082 62.5059 62.3765 62.1423 61.5765 61.9459C59.7802 61.495 57.6275 62.1932 56.4275 63.6186C56.0203 64.0986 55.5112 65.0659 55.3512 65.6622C55.1839 66.2804 55.1839 67.4222 55.3439 68.0622C55.5257 68.7603 55.9694 69.604 56.6821 70.6149C58.3039 72.8985 58.842 73.9894 58.9366 75.1893C59.0239 76.2948 58.6748 77.1602 57.8021 78.0256C56.9221 78.9056 56.0421 79.2765 53.7949 79.7274C48.3404 80.8256 43.2569 80.7383 38.1951 79.4729C36.3551 79.0075 33.0752 77.8147 31.5261 77.0366C30.6898 76.622 30.0716 76.1784 29.548 75.6257C29.0244 75.0657 28.7625 74.6148 28.5953 73.9748C28.3698 73.1166 28.4789 72.4185 29.0098 71.3712C29.5044 70.3821 29.8025 70.0112 30.7552 69.1749C32.5952 67.5676 33.0679 67.0295 33.6134 65.9168C34.057 65.0222 34.1806 64.4331 34.1443 63.4804C34.0861 62.2077 33.577 61.1023 32.617 60.1569C31.4898 59.0441 30.4134 58.586 28.9225 58.586C28.0353 58.586 27.4826 58.7096 26.7626 59.0732C25.9771 59.466 25.4535 59.895 23.8754 61.4368C22.4645 62.8041 21.7154 63.4077 21.0972 63.6695C20.0136 64.1277 18.7773 64.0913 17.8682 63.5677C16.4937 62.775 15.7009 61.4005 14.421 57.5678C13.0974 53.597 12.5592 50.4043 12.5592 46.5789C12.5592 42.1208 13.4173 37.9536 15.2937 33.3209C16.1955 31.081 16.7046 30.1719 17.4755 29.4228C18.2464 28.6665 19.0463 28.3538 20.2027 28.3538C21.0609 28.3538 21.6499 28.5137 22.2972 28.9356C22.9008 29.3283 23.2935 29.7065 24.4644 31.0155C25.6644 32.361 26.3844 32.9791 27.2717 33.4009C28.8571 34.1573 30.4352 34.2009 31.7952 33.5246C33.9406 32.4555 35.0752 30.201 34.6388 27.9028C34.3843 26.572 33.817 25.692 32.0134 23.8447C30.5807 22.3757 30.3116 22.0411 29.9116 21.2411C29.5189 20.463 29.4098 19.9393 29.4462 19.1175C29.4898 18.3612 29.6934 17.7939 30.1443 17.1758C30.5007 16.703 31.2861 16.0921 32.0134 15.7431C32.6243 15.4449 35.4315 14.3758 36.4861 14.034C38.7187 13.3213 41.4096 12.8195 44.0496 12.6158C44.2314 12.6013 45.7004 12.6013 47.3222 12.6086C49.664 12.6231 50.4058 12.6522 50.9585 12.7467ZM62.3329 24.2011C62.8856 24.4702 63.402 25.0011 63.6711 25.5756C63.8383 25.9247 63.8674 26.092 63.8674 26.6083C63.8674 27.1247 63.8383 27.2919 63.6711 27.641C63.4165 28.1938 62.9802 28.6447 62.4347 28.9428C62.0056 29.1756 61.9329 29.1901 61.2856 29.1901C60.6675 29.1901 60.5438 29.1683 60.1584 28.9792C59.5329 28.6737 58.8784 27.9974 58.6748 27.4447C58.4493 26.8483 58.4857 26.0847 58.7693 25.532C59.482 24.1356 61.0311 23.5611 62.3329 24.2011ZM30.6898 26.4483C31.2498 26.7247 31.7661 27.2556 32.0352 27.8301C32.2025 28.1865 32.2316 28.3392 32.2316 28.9356C32.2316 29.5537 32.2098 29.6701 32.0279 30.0192C31.1989 31.5901 29.1844 32.0264 27.948 30.8919C26.8426 29.881 26.6462 28.3828 27.4753 27.2265C27.7517 26.8483 28.3262 26.4265 28.7844 26.2738C29.3225 26.0992 30.1298 26.1792 30.6898 26.4483ZM84.1144 46.7098C84.9362 47.1389 84.5362 48.3534 83.5689 48.3534C83.198 48.3534 82.8126 47.968 82.8126 47.5971C82.8126 46.8698 83.5035 46.3971 84.1144 46.7098ZM8.66833 56.0987C9.59195 58.1496 11.2792 61.5023 11.8174 62.3459C13.4319 64.8986 15.2137 66.1786 16.8791 65.9895C17.6864 65.8949 18.4136 65.5968 19.3591 64.9786L19.8681 64.6441L20.7336 65.5313C21.2136 66.0259 22.9881 67.8367 24.6826 69.5603C26.3771 71.2839 27.7589 72.7312 27.7589 72.7676C27.7589 72.8039 27.6062 72.9785 27.4244 73.153C27.2426 73.3348 26.9589 73.6694 26.7989 73.9021C26.0571 74.9857 25.948 75.7275 26.3626 76.7529C27.1844 78.7529 29.3444 80.862 34.2097 84.4255C35.2133 85.1673 36.0352 85.7782 36.0206 85.7855C35.9988 85.8073 33.4388 84.7019 32.2025 84.1346C28.7844 82.5783 24.3844 80.0256 21.6499 78.0038C20.0645 76.8329 18.4064 75.3639 17.2936 74.1494C14.5082 71.0949 11.941 66.6731 10.101 61.735C9.31559 59.6405 8.34107 56.4115 8.02107 54.8624C7.95562 54.5424 8.03562 54.7024 8.66833 56.0987ZM30.0934 61.3132C30.6607 61.5968 31.148 62.0914 31.417 62.6659C31.6207 63.1023 31.6498 63.2259 31.6498 63.8077C31.6498 64.4041 31.628 64.5131 31.4098 64.9495C31.1189 65.5459 30.6025 66.0331 30.028 66.244C29.6716 66.3822 29.5116 66.3968 28.9225 66.3677C27.7226 66.3022 27.1626 65.9822 26.7117 65.0804C26.2317 64.1132 26.1953 63.3059 26.5953 62.4914C26.8644 61.9386 27.3953 61.4368 27.9262 61.2259C28.4935 61.0078 29.5407 61.0441 30.0934 61.3132ZM82.6162 63.3859C79.6926 68.004 76.449 72.1203 73.2782 75.233C69.751 78.6947 66.5437 80.6947 61.9256 82.3238C58.6239 83.4874 54.013 84.4401 49.8386 84.8255C47.9622 85.0001 47.9186 84.971 49.4313 84.5637C53.6276 83.4365 55.9839 82.6801 57.2348 82.0547C58.5875 81.371 59.7075 80.3747 60.1729 79.4293C60.4493 78.8693 60.4493 78.8693 60.4493 77.9602C60.4493 76.9929 60.442 76.9566 59.8602 75.4657C59.7875 75.2766 59.7438 75.1093 59.7584 75.0948C59.9184 74.9493 68.7837 68.8622 68.8273 68.8622C68.8637 68.8622 69.0382 69.0658 69.2128 69.3058C69.6491 69.9094 70.3255 70.513 70.8128 70.7458C72.1 71.3494 74.2963 70.4985 76.9872 68.3531C78.1072 67.4586 79.2563 66.4258 81.1399 64.6222C82.078 63.7204 82.8562 62.9786 82.8635 62.9786C82.878 62.9714 82.7616 63.1604 82.6162 63.3859ZM61.4456 64.7386C62.8565 65.3786 63.2783 67.0949 62.3474 68.4113C62.042 68.8476 61.4093 69.2549 60.8566 69.3712C59.322 69.6985 57.9984 68.6076 57.9912 67.0077C57.9912 65.2113 59.8384 63.9968 61.4456 64.7386Z"/>
</mask>
<path d="M43.2496 0.0560413C42.595 0.114222 42.566 0.179676 42.5514 1.73601C42.5441 2.41964 42.5005 3.07417 42.4569 3.25599C42.275 3.89598 41.8532 4.34688 41.0823 4.70324C40.7114 4.87778 40.5805 4.8996 39.8678 4.8996C39.1769 4.8996 39.0242 4.87778 38.726 4.73233C38.0351 4.39051 37.5406 3.73598 37.0315 2.49964C36.8788 2.13601 36.6824 1.69238 36.5879 1.49602L36.4133 1.1542H36.0279C35.657 1.1542 34.9006 1.33602 34.5079 1.51784C34.2534 1.6342 34.1806 2.04874 34.297 2.73963C34.5806 4.4996 34.5879 4.58687 34.5224 4.95778C34.3843 5.67777 33.9479 6.19412 33.1188 6.60866C31.9407 7.19774 30.8571 7.03774 29.9771 6.14321C29.7807 5.93231 29.3298 5.35777 28.988 4.85596C28.6389 4.35415 28.3044 3.90325 28.2389 3.85234C28.1371 3.76507 28.0498 3.77962 27.628 3.94689C27.3589 4.05597 26.9444 4.25233 26.7044 4.37597L26.268 4.60869L26.2899 4.96505C26.2971 5.16141 26.4717 5.81595 26.6753 6.41957C27.2644 8.15045 27.1989 8.71771 26.2971 9.54679C26.0644 9.76497 25.6499 10.0559 25.3735 10.1868C24.9517 10.3904 24.8135 10.4268 24.3408 10.4268C23.8899 10.4268 23.7299 10.3904 23.4317 10.2304C22.8499 9.92497 22.4136 9.58315 21.4681 8.68862L20.5736 7.85227L20.1591 8.09954C19.9263 8.23772 19.5336 8.52135 19.2791 8.72499L18.8209 9.09589L19.01 9.51043C19.1118 9.73588 19.25 10.0559 19.33 10.2304C19.4027 10.3977 19.5991 10.7322 19.7663 10.9795C20.2172 11.6486 20.3554 12.0122 20.3554 12.5431C20.3481 13.1613 20.1081 13.6849 19.57 14.2522C18.9663 14.8776 18.4864 15.1322 17.8173 15.1758C16.9809 15.2267 16.4427 14.994 14.6973 13.794L13.9482 13.2776L13.4755 13.6922C12.821 14.2594 12.4574 14.7758 12.5228 15.0231C12.5883 15.2994 12.901 15.7212 13.621 16.4994C14.2755 17.2121 14.4791 17.5612 14.5664 18.0848C14.6682 18.7466 14.1955 19.823 13.5046 20.4921C12.8864 21.0884 12.0865 21.2848 11.1774 21.0521C10.9228 20.9866 10.2029 20.6884 9.58468 20.3902L8.45015 19.8521L8.21743 20.0848C7.99925 20.303 7.17745 21.5539 7.17745 21.663C7.17745 21.7793 7.87562 22.4848 8.40652 22.9138C9.75195 23.9975 9.9774 24.3175 9.97013 25.1538C9.97013 25.6411 9.93377 25.772 9.67195 26.332C9.30832 27.0956 8.84288 27.6192 8.31925 27.8519C7.75198 28.0992 7.10472 28.0774 5.73747 27.7501C5.12657 27.5974 4.50113 27.481 4.3484 27.481C4.07205 27.481 4.07205 27.4883 3.80296 28.0483C3.65751 28.361 3.47569 28.7974 3.39569 29.0156L3.25024 29.4083L3.54842 29.6774C3.71569 29.8301 4.01386 30.0264 4.22477 30.1283C4.4284 30.2228 4.84294 30.4192 5.14839 30.5646C6.17383 31.0446 6.66837 31.7355 6.66837 32.681C6.66837 32.9573 6.632 33.3355 6.58837 33.51C6.4211 34.2591 5.88292 35.0664 5.40293 35.3136C4.73385 35.6627 3.41024 35.7864 2.3848 35.5973C1.323 35.4009 1.14118 35.5391 0.995733 36.6518C0.864826 37.7209 0.857553 37.699 1.35209 37.9463C1.58481 38.07 2.10844 38.2663 2.50843 38.3827C3.61387 38.7099 3.94114 38.8772 4.30477 39.2772C4.75567 39.779 4.8793 40.2299 4.8284 41.1463C4.77749 42.0917 4.63204 42.4772 4.13023 42.979C3.51205 43.5899 2.76298 43.8226 0.886644 43.968L0.159383 44.0262L0.064839 44.4626C-0.0442501 44.9644 -0.00788711 46.1207 0.115747 46.2735C0.210291 46.3825 1.35209 46.6298 2.34116 46.7534C3.17024 46.8553 3.61387 47.0516 3.9775 47.4589C4.4284 47.9752 4.5884 48.4625 4.5884 49.3716C4.59567 50.317 4.44295 50.7097 3.87569 51.2552C3.40297 51.6988 2.95934 51.9243 2.07935 52.1715C0.573921 52.5933 0.508468 52.6224 0.464832 52.8915C0.413924 53.2333 0.523013 54.0697 0.683011 54.506L0.82119 54.8624L1.54118 54.9497C2.07935 55.0079 2.49389 55.0079 3.11206 54.9497C3.86841 54.8769 3.99205 54.8842 4.29022 55.0006C4.77749 55.1824 5.31566 55.6987 5.57748 56.2296C5.83929 56.7678 6.04292 57.6696 5.97747 58.026C5.80293 58.9714 5.23566 59.5314 3.53387 60.455C3.11206 60.6878 2.6757 60.9423 2.56662 61.0296L2.37026 61.1896L2.61752 61.9168C2.7557 62.3168 2.93025 62.7677 3.00297 62.9277L3.14115 63.2041L3.57751 63.1604C3.8175 63.1386 4.35568 63.0295 4.77749 62.9277C5.82474 62.6659 6.78473 62.6514 7.23563 62.8841C7.92653 63.2477 8.52288 64.1059 8.7047 64.9786C8.9156 65.9822 8.41379 66.9131 7.11927 67.9313C6.85018 68.1422 6.44292 68.4694 6.21019 68.6658L5.79565 69.0222L6.13747 69.6767C6.32655 70.0403 6.58837 70.4476 6.712 70.593L6.93745 70.8621L7.63562 70.6949C8.05743 70.5858 8.65379 70.3676 9.1556 70.1276C9.91195 69.7567 10.0065 69.7276 10.3847 69.7567C11.4756 69.8512 12.741 71.073 12.8864 72.1785C12.9955 72.9566 12.5737 73.8075 11.3883 75.233L10.6756 76.0911L10.9083 76.4184C11.0392 76.6002 11.3519 76.9711 11.6137 77.2402L12.0865 77.7347L12.7628 77.4511C13.1264 77.2984 13.6137 77.0293 13.8392 76.8548C14.0573 76.6802 14.3555 76.4475 14.4937 76.3384C15.2573 75.7493 16.4646 75.9966 17.41 76.9275C17.8973 77.4002 18.1664 77.9457 18.21 78.5638C18.2754 79.3129 18.1009 79.7711 17.1118 81.4801C16.93 81.8001 16.7773 82.1129 16.7773 82.1783C16.7773 82.4183 18.1082 83.5528 18.3918 83.5528C18.5954 83.5528 19.01 83.2183 19.8172 82.3965C20.6972 81.5092 20.9954 81.3129 21.599 81.2183C22.6463 81.0511 24.1444 81.8729 24.559 82.8401C24.6972 83.1601 24.719 83.3128 24.6899 83.8365C24.6608 84.3528 24.5808 84.6728 24.2463 85.6692C24.0135 86.331 23.8317 86.9273 23.8317 86.9855C23.8317 87.1091 24.8208 87.72 25.359 87.9237L25.7444 88.0691L26.028 87.7928C26.188 87.64 26.5444 87.1746 26.8353 86.7528C27.7953 85.3419 28.1516 85.0655 29.0244 85.0583C30.0134 85.0583 31.068 85.531 31.5407 86.1782C31.9043 86.6801 32.0061 87.1673 31.9479 88.0982C31.9261 88.5346 31.8389 89.1455 31.7589 89.4436C31.5698 90.1709 31.5698 90.3964 31.7879 90.6C32.0134 90.8109 32.6825 91.0436 33.2279 91.0945C33.6279 91.1382 33.657 91.1236 33.8752 90.8909C34.1297 90.6145 34.3697 90.1709 34.6679 89.4C35.0752 88.3382 35.3879 87.9673 36.1224 87.6909C37.0606 87.3346 38.5733 87.7128 39.2424 88.4764C39.4315 88.6873 39.5987 88.9855 39.7005 89.2909C39.846 89.72 39.8605 89.9018 39.846 91.0218C39.8315 92.6799 39.7951 92.629 41.0969 92.7309C41.8751 92.789 42.0496 92.7818 42.1369 92.7018C42.275 92.5563 42.5732 91.6472 42.755 90.8036C43.0169 89.5891 43.4968 89.0146 44.4932 88.7091C45.1623 88.5055 46.035 88.5346 46.5441 88.7818C46.9877 89 47.4677 89.4873 47.7513 90.0254C48.0059 90.5054 48.2677 91.4218 48.2677 91.8727C48.2749 92.3527 48.4931 92.8836 48.704 92.9418C49.2422 93.0872 50.5004 92.9418 50.7113 92.709C50.8204 92.5854 50.8495 92.36 50.8785 91.16C50.9222 89.7855 50.9295 89.7491 51.1404 89.3273C51.5622 88.5055 52.4931 88.0255 53.6858 88.0255C54.2748 88.0255 54.3767 88.0473 54.7258 88.2437C55.1985 88.4982 55.8385 89.1746 56.1003 89.6836C56.2021 89.8945 56.4275 90.44 56.5948 90.8982L56.9003 91.7345L57.1475 91.7127C57.3948 91.6909 58.3621 91.4654 58.7839 91.3272C58.9584 91.2763 59.0239 91.2036 59.0602 91.0291C59.1402 90.6291 59.1039 90.0909 58.9511 89.2691C58.7766 88.3673 58.7911 87.8728 59.0166 87.4364C59.4966 86.5055 61.002 85.7637 62.0347 85.9601C62.8783 86.1128 63.4601 86.6291 64.3838 88.0328L65.0528 89.0655L65.3365 89.0073C65.7365 88.9273 65.9837 88.8182 66.5437 88.4764L67.0455 88.1709L67.0019 87.7637C66.9801 87.5382 66.8128 86.9491 66.631 86.4546C66.2237 85.371 66.151 84.8037 66.3401 84.3019C66.6092 83.6037 67.6928 82.7165 68.5437 82.4983C69.4528 82.2656 70.0782 82.5565 71.5473 83.931L72.5655 84.8764L72.9436 84.6801C73.1545 84.5783 73.5254 84.3237 73.78 84.1274C74.1291 83.8437 74.2309 83.7274 74.2309 83.5674C74.2309 83.4583 73.9472 82.8038 73.5982 82.1056C72.9582 80.8474 72.9582 80.8329 72.9582 80.2874C72.9582 79.582 73.14 79.2111 73.7872 78.5784C74.3981 77.9966 74.7836 77.7929 75.4018 77.7493C76.2527 77.6911 77.0236 78.0184 78.529 79.0729L79.1981 79.5529L79.569 79.2111C79.7726 79.022 80.0999 78.6875 80.289 78.4693C80.5653 78.1493 80.6308 78.0256 80.5944 77.8875C80.529 77.6329 80.209 77.2038 79.5326 76.462C78.769 75.6184 78.5654 75.2112 78.609 74.5421C78.6599 73.5966 79.4526 72.4039 80.2962 71.9967C81.0817 71.6112 81.7871 71.7203 83.4453 72.4767C84.0198 72.7312 84.5362 72.9276 84.5943 72.9057C84.7471 72.8476 85.2998 72.113 85.5761 71.5967L85.8234 71.1385L85.5907 70.8476C85.4671 70.6876 85.1834 70.4185 84.958 70.2512C84.7398 70.0912 84.3834 69.8222 84.1653 69.6549C83.7071 69.3203 83.4089 68.9567 83.278 68.5785C82.9798 67.7422 83.3944 66.3386 84.1798 65.5604C84.8852 64.855 85.7071 64.775 87.4307 65.2477C88.8343 65.6259 88.8125 65.6259 88.9797 65.3495C89.3143 64.8186 89.5761 64.2077 89.6197 63.9022C89.6634 63.5895 89.6561 63.5677 89.3652 63.3204C89.2052 63.1823 88.6597 62.8477 88.1579 62.5714C87.067 61.975 86.8052 61.7641 86.587 61.3277C86.2452 60.6078 86.4561 59.1387 87.0088 58.4114C87.3216 57.9969 87.3943 57.9387 87.867 57.6769L88.2306 57.4805H89.8961C91.2997 57.4805 91.5688 57.466 91.6124 57.3714C91.7433 57.1169 92.0488 55.9315 92.0488 55.6842C92.0488 55.4806 91.9979 55.3788 91.8306 55.2406C91.5615 55.0079 90.6597 54.666 89.9252 54.506C88.9943 54.3024 88.5216 53.8442 88.2888 52.9061C88.0416 51.8879 88.427 50.5061 89.1179 49.9825C89.5688 49.6407 90.1215 49.4589 91.1251 49.3279C91.6124 49.2625 92.2088 49.1752 92.4488 49.1316L92.8851 49.0443L92.9797 48.6443C93.096 48.1425 93.0524 47.1753 92.8997 46.9425C92.7542 46.7244 92.4124 46.6444 91.1324 46.4989C89.7143 46.3462 89.2561 46.0916 88.8197 45.248C88.4488 44.5135 88.4052 43.3571 88.7252 42.659C88.9434 42.179 89.2415 41.8808 89.8743 41.5172C90.4924 41.1535 90.8342 41.0299 91.5688 40.899C92.3542 40.7608 92.5142 40.6299 92.536 40.1281C92.5506 39.8954 92.4851 39.4663 92.3906 39.0808L92.2233 38.4263L91.7506 38.3463C91.147 38.2372 90.3833 38.2299 89.8015 38.3172C89.4379 38.3827 89.2634 38.3754 88.9652 38.2881C87.9979 38.0045 87.2416 36.8045 87.2488 35.5682C87.2634 34.3755 87.8234 33.7355 89.7433 32.7537L90.667 32.2737V31.9901C90.667 31.6119 90.427 30.8555 90.1797 30.4846C89.8743 30.0046 89.627 30.0046 88.0197 30.4555C87.5834 30.5792 87.0525 30.681 86.8489 30.681C86.0707 30.681 85.2998 30.0555 84.798 29.0228C84.5725 28.5501 84.5362 28.3974 84.5289 27.961C84.5289 27.5319 84.5653 27.3719 84.7471 27.0083C84.9798 26.5283 85.8743 25.5538 86.7616 24.7974L87.307 24.332L87.1325 23.932C86.9652 23.5538 86.5652 22.8629 86.347 22.5866C86.2452 22.4557 86.2089 22.4629 85.4161 22.6811C84.8634 22.8338 84.4198 23.0157 84.0489 23.2338C83.5253 23.5466 83.3362 23.5975 82.8126 23.5538C82.0853 23.5102 81.0235 22.6448 80.6162 21.7648C80.4199 21.3502 80.3835 21.183 80.3835 20.7757C80.398 19.9757 80.7471 19.3721 82.0707 17.903C82.4853 17.4448 82.5944 17.2703 82.558 17.1612C82.4417 16.783 81.3799 15.554 81.1762 15.554C81.0017 15.554 80.3617 15.9394 79.5544 16.543C78.3181 17.4594 77.7799 17.5539 76.769 17.0376C76.3036 16.8049 75.6199 16.1358 75.4018 15.714C74.9 14.7249 75.089 13.794 76.1945 11.8886L76.6527 11.0886L76.4708 10.9431C76.369 10.8559 76.1072 10.6377 75.8963 10.4559C75.4818 10.1068 74.9581 9.73588 74.8709 9.73588C74.8418 9.73588 74.3691 10.165 73.8163 10.6813C72.74 11.6995 72.4127 11.9322 71.8746 12.0704C71.2055 12.2377 70.2309 11.8886 69.4964 11.2122C68.5728 10.3541 68.5146 9.45225 69.2491 7.33592C69.3801 6.95774 69.5037 6.51412 69.5328 6.35412C69.5837 6.06321 69.5764 6.06321 69.1619 5.79413C68.9291 5.64868 68.5292 5.4305 68.2746 5.30686L67.8092 5.08868L67.6128 5.24868C67.2855 5.52504 66.791 6.15776 66.4274 6.77593C66.231 7.1032 65.9837 7.46683 65.8819 7.57592C65.2783 8.22318 64.0929 8.30318 62.9947 7.77955C62.3838 7.48864 61.9911 7.11774 61.7293 6.59411C61.5329 6.20867 61.5038 6.07049 61.5038 5.5614C61.5038 5.23414 61.5693 4.59415 61.6493 4.13597C61.8165 3.17599 61.8311 2.65963 61.7075 2.55055C61.562 2.43418 60.0929 1.95419 59.882 1.95419C59.7293 1.95419 59.6566 2.01964 59.5402 2.25237C59.4529 2.41237 59.2784 2.71781 59.1402 2.92872C59.002 3.13963 58.813 3.57598 58.7111 3.8887C58.4857 4.58687 58.3184 4.85596 57.9984 5.1105C57.0021 5.86685 54.9803 5.5614 54.1949 4.53597C53.7658 3.96143 53.5549 3.03781 53.5694 1.70692C53.5767 0.645122 53.5258 0.485125 53.104 0.310582C52.8494 0.208766 51.664 0.16513 51.4313 0.252402C51.3658 0.281492 51.2785 0.383309 51.2349 0.492398C50.9513 1.21239 50.7985 1.75783 50.704 2.40509C50.5658 3.29235 50.384 3.65598 49.904 3.97598C49.4022 4.31052 48.7695 4.4487 47.9622 4.41233C47.1041 4.3687 46.6459 4.18688 46.195 3.68507C45.8168 3.26326 45.6568 2.86327 45.2786 1.40875C45.1259 0.80512 44.9805 0.245129 44.9514 0.150585C44.9077 -0.00213959 44.8714 -0.00941219 44.3114 0.00513302C43.9914 0.0124056 43.5114 0.0342234 43.2496 0.0560413ZM53.0676 6.68866C57.0093 7.685 59.8893 8.6159 63.1038 9.93951C65.7874 11.0377 67.5546 11.9395 69.4964 13.2049C73.7945 15.9976 77.729 20.5575 81.1035 26.6447C81.9908 28.2447 83.5907 31.5319 83.518 31.6046C83.5035 31.6192 82.9144 30.8192 82.2162 29.8228C78.9944 25.292 77.9254 24.0411 76.4054 23.0447C74.2818 21.6484 72.7182 21.8157 70.6528 23.6411L70.1655 24.0775L67.0528 21.8593C61.6347 18.0121 61.002 17.5539 60.9947 17.5103C60.9947 17.4812 61.1693 17.1758 61.3875 16.8339C61.8893 16.034 62.122 15.3794 62.1147 14.754C62.1074 13.4667 60.7984 11.9249 58.3184 10.2886C56.7184 9.23407 55.3803 8.52135 51.2858 6.52139C50.5149 6.14321 50.4495 6.09958 50.7404 6.14321C50.9222 6.16503 51.9694 6.4123 53.0676 6.68866ZM38.3406 8.20136C38.2969 8.23045 37.8606 8.44136 37.3588 8.66681C34.1952 10.0777 31.8025 11.2922 30.4716 12.1504C29.3516 12.8776 28.188 14.0558 27.7807 14.8776C27.0898 16.2594 27.1917 17.4012 28.1662 19.023L28.6098 19.7648L24.6608 23.6266L20.7045 27.4883L20.21 27.0592C19.1918 26.1574 18.53 25.852 17.6718 25.8883C17.17 25.9174 17.0173 25.9611 16.4137 26.252C14.5082 27.1756 12.6101 29.1683 9.11196 33.8955C8.43561 34.8118 7.88289 35.5536 7.86835 35.5536C7.83926 35.5536 8.3847 34.2446 8.88651 33.1173C9.75922 31.1392 11.8319 27.1974 13.0319 25.2265C15.3737 21.372 17.9991 18.2085 20.5154 16.194C23.8026 13.5613 28.188 11.2922 33.1843 9.62679C34.5879 9.16134 37.3879 8.36136 38.3769 8.14318C38.3915 8.13591 38.3769 8.165 38.3406 8.20136ZM50.9585 12.7467C52.1294 12.9504 56.0348 13.9249 56.9584 14.2449C57.9766 14.594 58.3548 14.8194 58.9002 15.394C59.6784 16.2085 59.9911 17.0012 59.9911 18.1357C59.9911 19.503 59.6275 20.2812 58.1148 22.1357C56.6021 23.9975 56.093 25.1538 56.093 26.7174C56.093 27.6774 56.2239 28.2228 56.653 29.0446C57.0239 29.7501 57.9548 30.7173 58.6675 31.1392C60.3038 32.0919 62.4129 32.0482 63.9838 31.0301C64.6383 30.6155 65.1547 30.041 65.9837 28.8483C66.8855 27.5465 68.2819 25.7865 68.7037 25.4229C69.4891 24.7538 71.0891 24.7174 72.4055 25.3429C73.7 25.9538 75.1472 27.9101 76.849 31.3719C77.7726 33.2482 78.1654 34.1791 78.7399 35.9173C79.8235 39.1536 80.3617 42.3608 80.4635 46.1353C80.5799 50.4261 79.7581 54.7242 77.9326 59.3351C77.2126 61.1532 75.7509 63.7277 74.7036 65.0077C73.7727 66.1422 72.4273 67.284 71.3873 67.8076C70.6091 68.2004 70.1509 68.3094 69.2128 68.3167C68.4419 68.3167 68.3473 68.3022 67.9619 68.1131C67.2855 67.7858 66.6019 66.9858 65.8383 65.6331C65.0674 64.2877 64.6165 63.7132 63.8165 63.0804C63.082 62.5059 62.3765 62.1423 61.5765 61.9459C59.7802 61.495 57.6275 62.1932 56.4275 63.6186C56.0203 64.0986 55.5112 65.0659 55.3512 65.6622C55.1839 66.2804 55.1839 67.4222 55.3439 68.0622C55.5257 68.7603 55.9694 69.604 56.6821 70.6149C58.3039 72.8985 58.842 73.9894 58.9366 75.1893C59.0239 76.2948 58.6748 77.1602 57.8021 78.0256C56.9221 78.9056 56.0421 79.2765 53.7949 79.7274C48.3404 80.8256 43.2569 80.7383 38.1951 79.4729C36.3551 79.0075 33.0752 77.8147 31.5261 77.0366C30.6898 76.622 30.0716 76.1784 29.548 75.6257C29.0244 75.0657 28.7625 74.6148 28.5953 73.9748C28.3698 73.1166 28.4789 72.4185 29.0098 71.3712C29.5044 70.3821 29.8025 70.0112 30.7552 69.1749C32.5952 67.5676 33.0679 67.0295 33.6134 65.9168C34.057 65.0222 34.1806 64.4331 34.1443 63.4804C34.0861 62.2077 33.577 61.1023 32.617 60.1569C31.4898 59.0441 30.4134 58.586 28.9225 58.586C28.0353 58.586 27.4826 58.7096 26.7626 59.0732C25.9771 59.466 25.4535 59.895 23.8754 61.4368C22.4645 62.8041 21.7154 63.4077 21.0972 63.6695C20.0136 64.1277 18.7773 64.0913 17.8682 63.5677C16.4937 62.775 15.7009 61.4005 14.421 57.5678C13.0974 53.597 12.5592 50.4043 12.5592 46.5789C12.5592 42.1208 13.4173 37.9536 15.2937 33.3209C16.1955 31.081 16.7046 30.1719 17.4755 29.4228C18.2464 28.6665 19.0463 28.3538 20.2027 28.3538C21.0609 28.3538 21.6499 28.5137 22.2972 28.9356C22.9008 29.3283 23.2935 29.7065 24.4644 31.0155C25.6644 32.361 26.3844 32.9791 27.2717 33.4009C28.8571 34.1573 30.4352 34.2009 31.7952 33.5246C33.9406 32.4555 35.0752 30.201 34.6388 27.9028C34.3843 26.572 33.817 25.692 32.0134 23.8447C30.5807 22.3757 30.3116 22.0411 29.9116 21.2411C29.5189 20.463 29.4098 19.9393 29.4462 19.1175C29.4898 18.3612 29.6934 17.7939 30.1443 17.1758C30.5007 16.703 31.2861 16.0921 32.0134 15.7431C32.6243 15.4449 35.4315 14.3758 36.4861 14.034C38.7187 13.3213 41.4096 12.8195 44.0496 12.6158C44.2314 12.6013 45.7004 12.6013 47.3222 12.6086C49.664 12.6231 50.4058 12.6522 50.9585 12.7467ZM62.3329 24.2011C62.8856 24.4702 63.402 25.0011 63.6711 25.5756C63.8383 25.9247 63.8674 26.092 63.8674 26.6083C63.8674 27.1247 63.8383 27.2919 63.6711 27.641C63.4165 28.1938 62.9802 28.6447 62.4347 28.9428C62.0056 29.1756 61.9329 29.1901 61.2856 29.1901C60.6675 29.1901 60.5438 29.1683 60.1584 28.9792C59.5329 28.6737 58.8784 27.9974 58.6748 27.4447C58.4493 26.8483 58.4857 26.0847 58.7693 25.532C59.482 24.1356 61.0311 23.5611 62.3329 24.2011ZM30.6898 26.4483C31.2498 26.7247 31.7661 27.2556 32.0352 27.8301C32.2025 28.1865 32.2316 28.3392 32.2316 28.9356C32.2316 29.5537 32.2098 29.6701 32.0279 30.0192C31.1989 31.5901 29.1844 32.0264 27.948 30.8919C26.8426 29.881 26.6462 28.3828 27.4753 27.2265C27.7517 26.8483 28.3262 26.4265 28.7844 26.2738C29.3225 26.0992 30.1298 26.1792 30.6898 26.4483ZM84.1144 46.7098C84.9362 47.1389 84.5362 48.3534 83.5689 48.3534C83.198 48.3534 82.8126 47.968 82.8126 47.5971C82.8126 46.8698 83.5035 46.3971 84.1144 46.7098ZM8.66833 56.0987C9.59195 58.1496 11.2792 61.5023 11.8174 62.3459C13.4319 64.8986 15.2137 66.1786 16.8791 65.9895C17.6864 65.8949 18.4136 65.5968 19.3591 64.9786L19.8681 64.6441L20.7336 65.5313C21.2136 66.0259 22.9881 67.8367 24.6826 69.5603C26.3771 71.2839 27.7589 72.7312 27.7589 72.7676C27.7589 72.8039 27.6062 72.9785 27.4244 73.153C27.2426 73.3348 26.9589 73.6694 26.7989 73.9021C26.0571 74.9857 25.948 75.7275 26.3626 76.7529C27.1844 78.7529 29.3444 80.862 34.2097 84.4255C35.2133 85.1673 36.0352 85.7782 36.0206 85.7855C35.9988 85.8073 33.4388 84.7019 32.2025 84.1346C28.7844 82.5783 24.3844 80.0256 21.6499 78.0038C20.0645 76.8329 18.4064 75.3639 17.2936 74.1494C14.5082 71.0949 11.941 66.6731 10.101 61.735C9.31559 59.6405 8.34107 56.4115 8.02107 54.8624C7.95562 54.5424 8.03562 54.7024 8.66833 56.0987ZM30.0934 61.3132C30.6607 61.5968 31.148 62.0914 31.417 62.6659C31.6207 63.1023 31.6498 63.2259 31.6498 63.8077C31.6498 64.4041 31.628 64.5131 31.4098 64.9495C31.1189 65.5459 30.6025 66.0331 30.028 66.244C29.6716 66.3822 29.5116 66.3968 28.9225 66.3677C27.7226 66.3022 27.1626 65.9822 26.7117 65.0804C26.2317 64.1132 26.1953 63.3059 26.5953 62.4914C26.8644 61.9386 27.3953 61.4368 27.9262 61.2259C28.4935 61.0078 29.5407 61.0441 30.0934 61.3132ZM82.6162 63.3859C79.6926 68.004 76.449 72.1203 73.2782 75.233C69.751 78.6947 66.5437 80.6947 61.9256 82.3238C58.6239 83.4874 54.013 84.4401 49.8386 84.8255C47.9622 85.0001 47.9186 84.971 49.4313 84.5637C53.6276 83.4365 55.9839 82.6801 57.2348 82.0547C58.5875 81.371 59.7075 80.3747 60.1729 79.4293C60.4493 78.8693 60.4493 78.8693 60.4493 77.9602C60.4493 76.9929 60.442 76.9566 59.8602 75.4657C59.7875 75.2766 59.7438 75.1093 59.7584 75.0948C59.9184 74.9493 68.7837 68.8622 68.8273 68.8622C68.8637 68.8622 69.0382 69.0658 69.2128 69.3058C69.6491 69.9094 70.3255 70.513 70.8128 70.7458C72.1 71.3494 74.2963 70.4985 76.9872 68.3531C78.1072 67.4586 79.2563 66.4258 81.1399 64.6222C82.078 63.7204 82.8562 62.9786 82.8635 62.9786C82.878 62.9714 82.7616 63.1604 82.6162 63.3859ZM61.4456 64.7386C62.8565 65.3786 63.2783 67.0949 62.3474 68.4113C62.042 68.8476 61.4093 69.2549 60.8566 69.3712C59.322 69.6985 57.9984 68.6076 57.9912 67.0077C57.9912 65.2113 59.8384 63.9968 61.4456 64.7386Z" stroke="#FF6601" stroke-width="2" mask="url(#path-1-inside-1_100_16)"/>
</svg>
