<svg width="127" height="127" viewBox="0 0 127 127" fill="none" xmlns="http://www.w3.org/2000/svg">
<path d="M56.6709 0.223681C42.0862 1.89172 28.7419 8.22174 18.6053 18.4011C6.58684 30.3768 -0.0425647 46.2873 0.000205669 63.0105L0.042976 68.4424L3.0369 65.2346C9.58076 58.263 10.094 57.4504 10.4362 54.5848L10.7356 51.933L12.6602 52.2324C13.9433 52.4035 14.756 52.318 15.2264 51.9758C16.0391 51.2487 15.312 50.6927 13.4729 50.6927C11.1633 50.6499 11.0777 50.3505 12.5747 45.9879C13.3446 43.7639 14.2855 41.2832 14.7132 40.5133L15.4403 39.1019L18.9047 41.4971C21.9414 43.5928 22.4546 43.8067 23.0106 43.2506C23.5667 42.7374 23.1817 42.3525 19.9312 40.1712C17.6216 38.6314 16.2957 37.5194 16.424 37.1345C16.7662 36.3219 20.8721 30.2485 21.2998 29.9918C21.4709 29.9063 23.2673 30.9328 25.2347 32.3014C27.2449 33.7129 29.2123 34.8249 29.5973 34.8677C31.3509 34.9104 30.5382 33.8839 26.9883 31.4888C24.8925 30.0774 23.0534 28.7515 22.9251 28.5376C22.6257 28.0244 29.7684 21.0528 30.4099 21.2667C30.8804 21.4378 42.7278 41.1549 42.7705 41.8392C42.7705 42.0531 42.0434 41.7537 41.188 41.2404C39.8194 40.385 39.6483 40.385 39.9049 41.0266C40.076 41.4543 40.2043 41.9675 40.2043 42.1386C40.2043 42.3525 41.3591 43.2934 42.7278 44.2771C45.1229 45.9024 45.5934 46.5012 50.3409 54.542C53.121 59.2468 55.5589 63.0961 55.73 63.0961C55.901 63.0961 57.6974 61.4708 59.7076 59.4606C61.7606 57.4076 63.8135 55.6968 64.4979 55.5685C65.1394 55.3974 65.9948 54.9697 66.4225 54.6276C67.0641 54.0288 67.1496 54.0715 67.1496 54.6703C67.1496 55.8679 68.946 57.1938 70.1863 56.9372C71.17 56.7661 71.2556 56.8516 71.0845 57.7498C70.9562 58.4769 71.2556 59.1612 72.111 60.0166C72.7953 60.7009 73.3941 61.3853 73.4369 61.5563C73.7363 62.7967 73.9073 62.8395 74.7628 62.0696C75.5326 61.3853 76.0886 61.3425 78.3555 61.5563C79.8524 61.7274 81.7343 62.0268 82.547 62.1551C84.0011 62.4973 83.9584 62.4973 80.4084 63.7376C78.3982 64.422 76.4308 64.9352 76.0459 64.8924C74.5489 64.8069 76.4308 67.2448 79.6386 69.5116C82.7608 71.7357 82.7608 71.7357 81.1783 71.5646C79.6386 71.3935 79.5958 71.4363 80.1518 72.2917C80.5795 72.8905 81.4349 73.2326 83.4451 73.532C86.0541 73.917 86.6529 74.2591 97.6449 81.8295C105.557 87.2613 109.065 89.9131 108.893 90.298C108.68 90.8113 106.156 94.575 104.488 96.8419C104.018 97.4407 104.403 98.0394 107.354 100.948C111.331 104.883 110.861 105.011 114.839 99.2798C120.185 91.5384 123.735 82.8132 125.36 73.3182C126.6 66.1328 126.344 56.1245 124.761 49.4096C118.731 24.004 99.0563 5.27058 73.6935 0.865236C69.0743 0.0525995 60.9479 -0.246793 56.6709 0.223681ZM62.4449 10.1464C62.4449 10.4458 63.1292 16.733 63.9419 24.1323C64.7545 31.5316 65.4388 38.2037 65.4388 38.9736C65.4388 40.5989 62.4877 49.0674 62.0172 48.768C61.8461 48.6825 60.4347 46.3301 58.8094 43.5928L55.9438 38.5887L54.4041 24.7311C53.5487 17.1607 52.9499 10.8307 53.0782 10.7452C53.292 10.5313 58.9805 9.76147 61.0762 9.67593C61.9317 9.63316 62.4449 9.84701 62.4449 10.1464ZM72.2821 10.5741C73.8218 10.8307 75.276 11.1301 75.5326 11.3012C75.832 11.4723 74.5061 15.6638 71.6405 23.4052C69.2454 29.9491 67.1924 35.3809 67.1069 35.5092C66.893 35.6803 64.1129 11.6434 64.1557 10.1464C64.1557 9.50484 66.5081 9.63316 72.2821 10.5741ZM51.3246 11.6006C51.3246 12.2421 53.5059 31.831 53.7197 33.1568C53.9336 34.44 53.8908 34.5683 53.3348 34.0123C52.5222 33.1568 41.9151 14.9367 41.9151 14.4234C41.9151 14.0813 43.9681 13.2259 48.1168 11.8144C49.571 11.344 51.3246 11.2157 51.3246 11.6006ZM82.8463 13.568C84.5572 14.2524 86.0541 15.0222 86.1824 15.1933C86.3107 15.4072 84.2578 21.5233 81.6488 28.7515L76.8585 41.9248L72.9664 45.8596C70.8279 48.0409 68.946 49.8373 68.8177 49.8373C68.4327 49.8373 68.0906 47.8698 67.7484 43.5073L67.449 39.6579L72.5387 25.7148C78.3555 9.80424 77.1579 11.2157 82.8463 13.568ZM47.3042 27.2545L54.2758 39.1447L54.9601 44.7476C55.3022 47.8698 55.5161 50.4788 55.4306 50.6071C55.3022 50.6927 53.292 49.4523 50.8969 47.7843L46.5771 44.7904L39.3061 32.5153C35.3285 25.7576 32.078 20.0691 32.078 19.898C32.078 19.5986 33.7888 18.4011 37.6381 16.1342C38.4507 15.6638 39.3917 15.2788 39.7338 15.3216C40.076 15.3644 43.4976 20.7534 47.3042 27.2545ZM94.0094 19.6414C95.4636 20.7107 96.6612 21.7372 96.6612 21.951C96.6612 22.1221 92.8974 26.0142 88.321 30.5906C83.7445 35.1671 79.9807 38.717 79.9807 38.4604C79.9807 38.1182 85.9686 21.5233 87.6366 17.2035L88.1071 16.0059L89.6896 16.8613C90.5878 17.2891 92.5124 18.5722 94.0094 19.6414ZM101.794 26.5702L104.916 29.778L94.4799 40.2567L84.0439 50.6927L79.4247 52.2324C76.8585 53.0878 74.6772 53.6866 74.5489 53.5583C74.4634 53.43 75.2332 50.9493 76.3025 48.0409L78.2272 42.7802L88.1926 33.0713C93.6672 27.725 98.2864 23.3624 98.4148 23.3197C98.5431 23.3197 100.083 24.7739 101.794 26.5702ZM108.124 34.5683C110.134 37.6905 111.93 41.1549 111.588 41.4543C111.246 41.7537 89.1336 48.9819 88.5348 48.9819C88.0643 48.9819 105.429 31.5316 105.985 31.446C106.028 31.446 107.012 32.8575 108.124 34.5683ZM113.898 46.8434C114.539 48.8108 115.052 50.821 114.967 51.3342C114.839 52.0613 112.828 52.874 101.323 56.7233L87.8077 61.2142L82.8463 60.5299C80.109 60.1449 77.7567 59.7172 77.6284 59.6317C77.5428 59.5034 79.0826 57.7926 81.05 55.7824L84.6855 52.1896L98.2864 47.6132C105.728 45.1325 112.058 43.1223 112.272 43.1651C112.529 43.2079 113.256 44.8759 113.898 46.8434ZM58.6383 46.5012C59.6221 48.212 60.6913 50.0084 60.9907 50.4788C61.4184 51.1632 61.4184 51.5909 60.9052 52.7884L60.3064 54.1999L58.9377 53.3017C57.4408 52.4035 57.398 52.1896 56.7137 46.0735C56.5426 44.6193 56.4998 43.4217 56.6281 43.4217C56.7564 43.4217 57.6546 44.8331 58.6383 46.5012ZM66.7647 50.3505C66.8502 51.4198 66.6364 52.2324 66.0804 52.8312C65.0539 53.9432 64.9256 53.9005 64.0274 52.4463C63.3431 51.2915 63.3431 51.1204 64.3696 48.1692C64.9256 46.5012 65.5244 44.8759 65.7382 44.6193C66.0376 44.0633 66.5508 46.7578 66.7647 50.3505ZM73.5224 50.8638C72.4959 53.7721 71.9399 54.6703 71.1273 55.0125C69.2454 55.6968 68.8604 55.5257 68.8604 53.8149C68.8604 52.4035 69.2026 51.8475 71.7261 49.324C73.3513 47.6988 74.6772 46.5867 74.7628 46.7578C74.8055 46.9717 74.2495 48.8108 73.5224 50.8638ZM52.8216 51.1204C55.9438 53.2161 56.0293 53.3444 56.0293 55.0553C56.0293 56.7661 56.0293 56.7661 54.6607 56.5095C53.9336 56.3811 53.292 56.2101 53.2493 56.1245C51.4957 53.4728 49.1006 48.9819 49.3999 48.9819C49.5283 48.9819 51.068 49.9656 52.8216 51.1204ZM63.3003 54.5848C63.3003 54.7986 63.0009 54.9697 62.6587 54.9697C62.0172 54.9697 61.8033 54.4565 62.2738 53.986C62.616 53.6438 63.3003 54.0288 63.3003 54.5848ZM78.2699 56.4667C76.0031 58.7335 75.276 59.2468 74.1212 59.2468C72.4104 59.2468 72.1965 58.9474 72.9236 57.2793C73.3941 56.1245 73.9501 55.7396 76.6446 54.8414C78.3555 54.2426 80.0663 53.7294 80.4084 53.7294C80.7506 53.6866 79.7669 54.9269 78.2699 56.4667ZM116.207 59.8455C116.336 62.7967 116.378 65.2346 116.25 65.2346C116.122 65.2346 110.69 64.4647 104.146 63.5238C97.6021 62.5828 92.1275 61.813 91.9992 61.7702C91.8709 61.7702 97.0461 59.9738 103.504 57.7498C109.963 55.5685 115.437 53.9432 115.651 54.1143C115.822 54.3282 116.079 56.8944 116.207 59.8455ZM58.9377 56.1245C58.2534 56.9799 57.7402 56.7661 57.7402 55.6113C57.7402 54.6703 57.8257 54.5848 58.5528 55.0553C59.1944 55.4402 59.2799 55.6968 58.9377 56.1245ZM56.1577 59.0329C55.901 59.76 55.0884 59.6745 54.8318 58.9046C54.7462 58.6052 55.0456 58.3913 55.5589 58.3913C56.1577 58.3913 56.3715 58.6052 56.1577 59.0329ZM101.751 64.8069C108.466 65.7478 114.539 66.646 115.181 66.7743C116.378 67.031 116.378 67.031 116.079 69.6399C115.908 71.0514 115.566 73.1043 115.266 74.1736C114.667 76.526 116.336 76.526 99.4412 74.1736L87.0378 72.4628L83.103 69.8538C80.9217 68.4424 78.9542 67.031 78.6976 66.7316C78.3127 66.3039 79.1681 65.8334 82.6325 64.6786C85.0704 63.8232 87.5939 63.1388 88.2782 63.1388C88.9625 63.0961 95.0359 63.8659 101.751 64.8069ZM102.221 76.1838C108.466 77.0392 113.727 77.8946 113.94 78.1085C114.325 78.4506 112.743 83.1981 111.118 86.4059L110.134 88.3306L100.083 81.4873C94.6082 77.7235 90.2884 74.6441 90.5022 74.6441C90.7161 74.6441 95.9768 75.3284 102.221 76.1838Z" fill="black"/>
<path d="M30.9232 36.8777C30.6238 36.9633 29.3407 38.5458 28.0576 40.3421C25.4058 44.1059 23.3528 46.4583 12.8313 57.7497C5.94529 65.1489 3.3363 68.0573 1.15502 70.6235C0.427919 71.5217 0.427919 71.6928 1.28333 75.8415C4.53387 91.8804 14.2855 106.38 27.8437 115.404C38.8357 122.718 49.9987 126.097 63.0865 126.097C76.1314 126.097 87.38 122.718 98.1154 115.532C102.863 112.367 109.065 107.064 109.065 106.208C109.065 105.952 106.712 103.3 103.847 100.349C100.938 97.3978 97.5594 93.6768 96.2763 92.0943C94.8221 90.2551 92.598 88.2449 90.1601 86.5769C85.3698 83.198 80.0663 76.7825 74.0784 67.0308C69.2882 59.2039 66.893 56.937 64.669 57.9635C64.0702 58.2201 62.8298 59.2894 61.9317 60.3159C60.0925 62.4116 55.3878 66.0899 54.5752 66.0899C54.2758 66.0899 53.677 65.2773 53.2065 64.2508C52.7788 63.267 51.4102 61.0002 50.2126 59.2466C49.0578 57.4931 47.4325 54.8841 46.6199 53.5154C45.2085 50.992 42.6422 48.1263 40.5893 46.8005C39.9049 46.33 39.0495 44.9186 38.3224 43.0367C37.6809 41.4114 36.7827 39.5295 36.2695 38.9307C34.858 37.0916 32.5057 36.1934 30.9232 36.8777ZM33.1045 44.5336C33.2328 44.9186 33.3611 45.5601 33.3611 45.9878C33.3611 46.3728 34.2593 47.5276 35.4141 48.5113C39.4772 52.104 40.076 52.7455 43.0272 57.1081C46.8765 62.7966 48.2024 65.4056 48.5873 68.1001C48.8439 70.2386 48.8439 70.2386 47.4325 70.7519C46.7054 71.0085 45.4651 71.6928 44.738 72.2488C42.5567 73.8741 40.7603 74.644 39.0495 74.644C37.5953 74.644 37.1249 74.9434 34.2165 78.0656C32.4629 79.9475 29.8539 82.1715 28.4425 83.0269C25.748 84.6522 23.5239 85.5076 23.5239 84.9516C23.5239 84.7378 24.1227 83.4546 24.8498 82.0432C26.8172 78.1939 26.9455 76.3975 25.2775 73.7458C23.695 71.1368 23.6522 70.8374 25.0209 68.8272C25.6196 67.9718 26.0901 66.7314 26.0901 66.1327C26.0901 65.4911 26.7744 63.9514 27.5871 62.6683C29.2979 60.0593 29.3834 59.4605 28.3997 57.3647C27.6726 55.9106 27.7154 55.9106 29.084 53.9431C30.3244 52.2323 30.4955 51.6763 30.4099 49.7516C30.3244 48.1691 30.581 47.0571 31.3081 45.6884C32.3774 43.6782 32.7195 43.4644 33.1045 44.5336ZM67.4918 66.817C68.1761 67.7152 69.8869 70.4525 71.2556 72.8904C72.6242 75.3283 74.8483 78.4933 76.1314 79.9475C77.4145 81.3589 79.4675 83.7113 80.6223 85.1227C83.0602 88.0738 83.2313 88.2449 86.3108 90.2979C88.6631 91.9232 90.3739 93.7623 90.0318 94.3183C89.9035 94.4894 88.9197 94.7888 87.8077 94.9599C86.6957 95.131 84.6427 95.8153 83.2313 96.5424C80.9645 97.6972 80.4085 97.7827 78.0989 97.5689C72.7526 97.0556 71.9827 96.8418 70.7424 95.5587C68.946 93.6768 67.5773 94.0617 67.5773 96.4141C67.5773 96.799 67.3207 97.5261 66.9786 97.9538C66.4225 98.6809 66.337 98.6809 64.7973 97.4833C63.3003 96.3713 62.8298 96.243 59.7931 96.243L56.4571 96.2858L57.7829 95.0454C59.2799 93.7195 59.2371 92.4792 57.6974 90.5545C56.5854 89.1003 56.6709 88.7154 58.3817 87.0901C60.7769 84.8661 61.3757 83.4119 60.7341 81.3589C60.0925 79.1348 60.5202 76.6114 62.0172 74.1735C63.5142 71.7356 64.669 68.4423 64.5407 66.9881C64.4551 65.3628 64.4979 65.2345 65.3961 65.2345C65.8665 65.2345 66.8075 65.9616 67.4918 66.817Z" fill="#FF6601" fill-opacity="0.24"/>
</svg>
