<svg width="77" height="71" viewBox="0 0 77 71" fill="none" xmlns="http://www.w3.org/2000/svg">
<path d="M38.658 0.103083C38.4414 0.199347 37.9721 0.662615 37.9721 0.776928C37.9721 0.800994 37.7735 1.13792 37.5329 1.535C36.4559 3.26173 35.1504 5.92703 34.0614 8.62241C33.6703 9.57903 33.1288 10.8365 32.8641 11.408C32.3106 12.5812 32.2143 12.8219 31.4743 14.7893C31.1795 15.5654 30.8486 16.4258 30.7282 16.7025C30.4094 17.4365 28.8511 20.5471 28.3758 21.3773C27.5756 22.7912 27.2267 23.2605 26.0895 24.4758C25.0487 25.5828 24.1703 26.8764 23.7491 27.9232C23.6348 28.2 23.4603 28.8197 23.3521 29.295C22.973 31.0037 22.6421 32.0866 22.3593 32.568C22.2029 32.8447 22.0104 32.9771 21.0056 33.5306C20.6567 33.7231 20.2596 33.9578 20.1152 34.054L19.8565 34.2285L19.664 34.1082C19.0262 33.7171 17.5221 31.858 15.2659 28.6873C13.9303 26.8102 13.3948 26.2627 12.4322 25.7814C11.2529 25.1978 10.1158 25.3542 9.31562 26.2146C8.9065 26.6598 8.68991 27.105 7.59491 29.7402C6.50593 32.3514 5.75387 33.8916 5.19434 34.6196C4.55659 35.4679 4.41821 35.9372 3.8647 39.1079C3.29313 42.3447 3.05849 43.2592 2.34253 45.0221C2.05374 45.738 1.95748 46.0148 1.63259 47.1519C1.32575 48.2409 1.13322 48.6019 0.53759 49.2155C-0.070074 49.8473 -0.142272 50.1481 0.218717 50.5813C0.411244 50.8039 0.712067 50.9062 1.01289 50.852C1.1994 50.8219 1.3438 50.7076 1.783 50.2624C2.59522 49.4381 2.82987 48.9869 3.29313 47.3444C3.44355 46.827 3.75039 45.9305 3.97901 45.353C4.66489 43.6022 4.91758 42.5974 5.51321 39.1861C5.82005 37.4353 6.03063 36.4606 6.16901 36.1478C6.21714 36.0335 6.4217 35.7266 6.61423 35.4619C7.24596 34.6376 7.80549 33.4704 9.27952 29.9508C10.188 27.7969 10.4227 27.3396 10.7235 27.1592C11.1386 26.9125 11.8185 27.1772 12.5766 27.8751C12.7209 28.0075 13.2745 28.7234 13.8039 29.4695C16.2586 32.9049 17.6845 34.6737 18.5569 35.3476L18.7194 35.4739L18.6291 35.8229C18.581 36.0154 18.4968 36.6772 18.4486 37.2909C18.2922 39.1801 18.1719 40.3112 18.0816 40.7383C17.9553 41.364 17.6785 41.6528 15.8315 43.1269C15.1095 43.7045 14.2311 44.5347 11.8967 46.8511C8.29282 50.4369 7.55881 51.2672 6.897 52.4945C6.76464 52.7472 6.59618 52.9097 6.04266 53.3308C2.90808 55.7073 1.62657 57.9575 0.856463 62.4458C0.495474 64.5214 0.236766 68.9075 0.429293 69.6054C0.459376 69.7197 0.573688 69.8942 0.675969 69.9964C0.838413 70.1529 0.898578 70.1709 1.22347 70.1709C1.57242 70.1709 1.59649 70.1589 1.78902 69.9363C1.90333 69.8039 1.99358 69.6415 1.99358 69.5753C1.99358 69.479 2.06577 69.4249 2.2944 69.3406C3.34728 68.9676 5.34475 65.7729 8.68991 59.1006C9.74279 57.0009 9.98345 56.5857 10.4407 56.0803C11.3913 55.0275 13.8701 54.1972 15.4945 54.3777C16.2105 54.4619 16.7159 54.6484 18.2741 55.3945C19.327 55.8998 19.8685 56.1164 20.5845 56.333C22.9189 57.037 24.3087 58.0537 26.3723 60.5746C26.9379 61.2665 28.1412 62.4638 28.9474 63.1377C29.3745 63.4986 30.4515 64.3229 31.1494 64.8223L31.3239 64.9546L30.8365 64.8764C30.1567 64.7681 29.1038 64.4914 27.7742 64.0642C25.4698 63.3242 24.7058 63.1497 23.6529 63.1437C22.4857 63.1316 21.3004 63.4986 18.9721 64.6057C17.853 65.1351 17.9553 65.081 14.6342 66.8318C11.2589 68.6126 10.2542 69.0699 9.30359 69.2684C8.77414 69.3767 8.63576 69.461 8.58161 69.7317C8.49738 70.0987 8.79219 70.4417 9.20131 70.4417C9.97743 70.4417 11.8245 69.6354 15.3201 67.7643C18.7254 65.9473 20.777 64.9727 22.0886 64.5575C22.9189 64.2928 23.4242 64.2327 24.074 64.3048C24.9885 64.4071 25.3315 64.4914 27.2026 65.087C29.6393 65.8571 30.3733 66.0256 31.733 66.1098C32.2324 66.1399 32.7979 66.2 32.9784 66.2361C34.29 66.4948 36.113 67.2228 37.6412 68.0892C38.9106 68.8112 39.1754 68.8052 41.8046 68.029C44.169 67.3311 44.867 67.2469 48.0196 67.265C50.5766 67.283 50.2336 67.3131 53.4344 66.8017C56.208 66.3565 57.1767 66.2722 58.4762 66.3565C59.3967 66.4166 59.872 66.5129 60.9851 66.8618C64.1618 67.8546 68.7764 68.6126 73.9807 68.9977C74.4439 69.0278 74.9914 69.0699 75.19 69.0879C75.4186 69.1 75.6412 69.1601 75.7615 69.2323C76.2429 69.5271 76.8866 69.2564 76.9949 68.7209C77.037 68.4863 76.8144 67.2409 76.4474 65.6826C75.5209 61.7418 74.101 57.3378 73.1023 55.3042C72.8135 54.7266 72.651 54.4739 72.284 54.0708C72.0313 53.7941 71.4056 53.0781 70.8942 52.4825C69.6247 51.0145 69.0472 50.4309 67.8439 49.384C66.791 48.4755 66.0269 47.7174 65.8885 47.4647C65.8464 47.3865 65.7682 47.1579 65.708 46.9533C65.4674 46.1171 65.1304 45.4733 64.3483 44.3903C63.4518 43.1389 61.5566 39.4929 61.1656 38.2535C60.6662 36.6953 60.5098 36.4125 59.4749 35.2934C58.759 34.5233 58.5304 34.1563 58.3739 33.5486C58.3078 33.296 58.0611 32.0205 57.8264 30.7209C57.1887 27.2133 57.1165 26.9365 56.7254 26.7019C56.2441 26.4071 55.1672 26.7139 53.7533 27.5562C53.4103 27.7548 53.0915 27.9052 53.0433 27.8871C52.923 27.839 52.6823 27.4419 52.562 27.093C52.5079 26.9305 52.3695 26.3349 52.2552 25.7754C51.8701 23.8982 51.6595 23.3989 50.9135 22.5927C50.2096 21.8286 49.9629 21.5277 48.9221 20.1439C48.3024 19.3197 47.9173 18.7421 47.8391 18.5315C47.7729 18.3571 47.6105 17.6652 47.4781 16.9973C47.081 15.0119 46.9426 14.6629 45.8537 12.84C45.1618 11.6788 44.7647 10.8124 44.4759 9.84977C44.1269 8.67054 43.8562 8.05084 43.0018 6.46249C42.5566 5.63222 42.1295 4.7478 41.973 4.31461C41.3774 2.71423 40.8058 1.45679 40.4388 0.921323C39.8793 0.109099 39.2656 -0.173675 38.658 0.103083ZM39.5243 2.67813C39.8432 3.35198 40.0237 3.79118 40.4749 5.00049C40.6193 5.39156 40.9623 6.11955 41.233 6.62494C42.4002 8.79688 42.5205 9.06161 43.0199 10.668C43.3027 11.5885 43.6877 12.3827 44.518 13.8086C44.8549 14.3742 45.1798 14.9457 45.24 15.0721C45.4445 15.4692 45.6611 16.2453 45.8537 17.2621C46.0823 18.4894 46.341 19.3197 46.6298 19.7709C47.2435 20.7155 48.7175 22.6107 49.5598 23.5433C49.8305 23.8381 50.1073 24.193 50.1735 24.3314C50.3179 24.6142 50.4863 25.258 50.6668 26.1905C50.8413 27.117 51.0038 27.6766 51.2143 28.1098C51.7919 29.2709 52.6041 29.7763 53.4946 29.5296C53.6089 29.4996 53.9639 29.3251 54.2767 29.1386C55.0528 28.6873 55.6665 28.3745 55.7026 28.4106C55.7387 28.4407 55.9974 29.8064 56.3825 31.9663C56.8939 34.8121 56.9841 35.0227 58.5123 36.6892C59.1019 37.333 59.2523 37.6037 59.505 38.4641C59.848 39.6253 60.215 40.4074 61.6168 43.0065C62.0861 43.8789 62.6516 44.8235 63.0006 45.3229C63.6684 46.2735 63.9512 46.8029 64.1437 47.4587C64.4686 48.5357 64.8055 48.9328 67.1219 50.9302C68.0063 51.6943 68.3613 52.0613 69.6789 53.5955C70.1181 54.1069 70.6776 54.7326 70.9123 54.9853C71.3755 55.4727 71.7124 56.0803 72.2058 57.3137C72.7774 58.7697 73.8002 61.9765 74.3416 64.0341C74.6906 65.3637 74.9192 66.3023 74.8952 66.3264C74.8831 66.3384 74.7448 66.0436 74.5823 65.6706C73.758 63.7574 72.9338 62.2111 72.2178 61.2364C70.9544 59.5218 68.0003 56.0683 65.5035 53.385C63.4879 51.225 62.7058 50.4309 61.6168 49.4562C58.9455 47.0556 58.0129 46.0328 57.4173 44.8416C57.1165 44.252 57.0684 44.0474 56.6833 42.0439C55.9914 38.44 55.3356 36.4185 54.5775 35.5341C54.0481 34.9204 52.935 34.5775 49.8606 34.0721C47.4059 33.675 46.7321 33.5065 45.4927 32.9771C41.7685 31.3887 38.5677 28.9761 37.7615 27.1531C37.4366 26.4251 37.3103 24.9631 37.5148 24.2773C37.6472 23.82 37.9119 23.5372 38.664 23.0319C39.6928 22.34 40.1621 21.6902 40.1621 20.9562C40.1681 20.3726 39.8191 19.7649 38.3992 17.8577C38.0683 17.4125 37.7615 16.9853 37.7254 16.9131C37.6592 16.7868 37.7013 16.7266 38.3391 16.0648C39.3859 14.9818 39.6808 14.3862 39.783 13.1047C39.8131 12.7256 39.8913 11.8593 39.9575 11.1794C40.1741 8.89315 40.2042 8.38776 40.2102 7.11829C40.2162 4.87414 39.9274 3.40011 39.2957 2.45552C39.1152 2.18478 39.0671 2.03437 39.1633 2.03437C39.1934 2.03437 39.3559 2.32316 39.5243 2.67813ZM38.7843 4.17022C38.9768 4.89821 39.055 5.71645 39.055 7.05812C39.055 8.38776 39.037 8.6946 38.8204 11.029C38.7542 11.7209 38.67 12.6173 38.6399 13.0084C38.5858 13.6401 38.5497 13.7845 38.3631 14.1816C38.1766 14.5727 38.0383 14.7472 37.3825 15.3909C36.486 16.2754 36.4078 16.3776 36.4078 16.6604C36.4078 16.9973 36.6966 17.4847 37.7013 18.8504C38.2127 19.5423 38.7302 20.2944 38.8445 20.517C39.055 20.9141 39.055 20.9261 38.9648 21.1487C38.8264 21.4736 38.6279 21.6661 37.942 22.1294C36.9854 22.7792 36.5341 23.3447 36.3416 24.1509C36.2393 24.5901 36.2574 25.7994 36.3717 26.4612C36.6003 27.7307 37.214 28.7415 38.5075 29.9628C40.6013 31.9422 44.4639 34.0781 47.1472 34.7399C47.4781 34.8181 48.5731 35.0227 49.5839 35.1911C52.3454 35.6424 53.4585 35.9492 53.7593 36.3463C54.3609 37.1345 54.9867 39.2101 55.6003 42.4651C55.9433 44.3181 56.0034 44.5347 56.3223 45.2026C56.9901 46.6164 57.8324 47.5791 60.5639 50.0458C61.9056 51.2551 62.6095 51.9651 64.6611 54.1671C67.525 57.2475 70.6536 60.9477 71.6342 62.4097C72.0373 63.0173 73.006 64.9245 73.5896 66.2602C73.7641 66.6573 73.9987 67.1687 74.113 67.3973C74.2273 67.6199 74.3055 67.8185 74.2875 67.8365C74.2213 67.9087 70.9905 67.5898 68.8366 67.3071C65.7321 66.8979 63.3195 66.3986 61.2859 65.7488C60.2451 65.4179 59.5291 65.2735 58.5484 65.2073C57.1225 65.1111 56.0877 65.2133 52.3815 65.803C50.0953 66.1639 49.8065 66.188 47.6285 66.1399C45.5167 66.0917 44.8489 66.1339 43.5674 66.3865C42.7973 66.537 42.701 66.567 40.9803 67.0724C39.3258 67.5658 39.0129 67.5778 38.3511 67.1747C37.9179 66.916 36.5763 66.2422 36.0468 66.0195C35.8302 65.9293 35.6016 65.803 35.5294 65.7428C35.4632 65.6766 35.1504 65.5442 34.8315 65.448C32.6355 64.7621 29.0918 62.1028 27.0943 59.6421C26.3362 58.7095 25.2593 57.6266 24.5553 57.0731C23.4483 56.2127 22.5037 55.7254 21.2042 55.3343C20.2175 55.0335 19.6339 54.7928 18.1959 54.0949L17.1009 53.5594L18.7374 53.03C21.6975 52.0734 24.6095 50.9784 26.5107 50.112C27.726 49.5525 28.5022 49.2817 29.4889 49.0591C31.011 48.7222 32.3828 48.5898 34.3622 48.5838C35.9566 48.5778 36.5281 48.6319 37.942 48.9087C39.1212 49.1373 42.6529 50.0639 42.9838 50.2323C43.7118 50.6053 44.4518 51.207 45.9981 52.687C48.0076 54.6123 47.9354 54.5882 51.2143 54.5882H53.3502L53.5788 54.7567C54.0541 55.1237 54.6377 56.0142 55.2574 57.3318C55.4379 57.7108 55.6425 58.0718 55.7147 58.1319C55.835 58.2463 55.9553 58.2523 57.7542 58.2583C59.7938 58.2643 60.3594 58.3185 61.5566 58.6193C62.4711 58.8479 63.0608 59.0886 64.595 59.8827C66.075 60.6408 66.8211 60.9537 67.7416 61.2004C68.4154 61.3808 69.2577 61.5072 69.4563 61.453C70.0038 61.3207 69.9797 60.4844 69.4262 60.3701C69.354 60.352 68.993 60.2858 68.626 60.2136C67.5611 60.0091 66.815 59.7263 65.2869 58.9382C63.7767 58.162 63.163 57.8913 62.417 57.6627C61.1235 57.2656 60.1488 57.1392 58.0972 57.1031L56.4126 57.0791L56.19 56.5977C55.48 55.0696 54.6437 53.9866 53.8676 53.5895C53.5848 53.4451 53.5848 53.4451 51.4189 53.4451C49.0243 53.4391 48.6212 53.403 48.188 53.1142C48.0437 53.0179 47.43 52.4644 46.8163 51.8808C45.0354 50.1782 44.0968 49.4442 43.2786 49.1133C42.8996 48.9568 40.126 48.2108 38.9046 47.934C36.9132 47.4828 35.2466 47.3384 33.183 47.4467C31.2757 47.549 29.8859 47.7475 28.5864 48.1025C27.7742 48.3191 27.3049 48.4996 26.24 48.9809C24.2485 49.8834 21.8058 50.8099 18.8096 51.8026C17.5642 52.2178 14.5199 53.1142 14.3695 53.1142C14.2852 53.1142 13.5753 53.3128 12.4622 53.6617C10.7836 54.1791 9.80296 54.859 9.00277 56.0623C8.84634 56.2969 8.07623 57.7529 7.29409 59.2991C5.3628 63.0895 4.22569 65.1472 3.16077 66.7415C2.72157 67.4033 2.16204 68.1073 2.04772 68.1494C2.00561 68.1614 1.99959 68.0471 2.01764 67.8185C2.03569 67.6199 2.06577 67.0423 2.08382 66.5309C2.20415 63.3542 2.82385 60.2979 3.73835 58.3846C4.34 57.1212 5.42898 55.8758 6.95717 54.6965C7.94387 53.9385 8.02208 53.8542 8.34697 53.2646C8.68389 52.663 9.23741 51.9169 9.8571 51.2431C10.1158 50.9603 11.638 49.4261 13.2444 47.8438C15.5487 45.5696 16.379 44.7874 17.1852 44.1437C18.1959 43.3314 19.0443 42.5192 19.3451 42.062C19.6519 41.5987 19.8384 40.5338 20.0129 38.2234C20.1693 36.226 20.1814 36.1658 20.4942 35.8469C20.765 35.5702 21.2042 35.2934 22.3293 34.6677C22.6842 34.4692 23.1114 34.1804 23.3039 33.9939C23.8996 33.4283 24.3327 32.3574 24.796 30.2937C24.9344 29.6921 25.1149 28.9942 25.1931 28.7475C25.4819 27.8932 26.258 26.732 27.2989 25.6009C28.9113 23.8501 29.4407 23.0198 31.1494 19.6025C32.1421 17.611 32.3346 17.1778 33.1469 14.9999C33.8027 13.2671 33.7545 13.3694 34.4524 11.8713C34.7593 11.2095 35.2887 9.97611 35.6257 9.13381C36.2514 7.57554 37.3764 5.14489 38.0503 3.90549L38.4233 3.21962L38.5557 3.51442C38.6279 3.67687 38.7302 3.97167 38.7843 4.17022Z" fill="#FF6601"/>
<path d="M45.3422 40.5819C45.1136 40.5879 43.7238 40.624 42.2678 40.6601C40.8058 40.6962 39.3017 40.7504 38.9287 40.7864C37.2501 40.9369 35.5534 41.3099 34.0012 41.8634C32.2985 42.4771 31.5645 42.6275 29.6092 42.7659C27.5997 42.9103 23.334 42.826 22.3533 42.6215C21.7637 42.4951 21.4869 42.6696 21.4869 43.1569C21.4869 43.4217 21.6795 43.6322 22.0044 43.7225C22.7745 43.927 25.9271 44.0534 28.2795 43.9692C31.0351 43.8669 32.3166 43.6864 33.6161 43.2171C35.3188 42.5914 36.3416 42.3086 37.6111 42.1101C38.7241 41.9296 39.6206 41.8694 42.0934 41.8032C47.2495 41.6649 48.3625 41.7491 49.8727 42.3808C50.7811 42.7599 51.3286 42.9283 52.5199 43.181C53.1637 43.3194 53.8495 43.4878 54.0541 43.548C54.5655 43.7105 54.7881 43.7044 54.9686 43.5179C55.1732 43.3194 55.1792 42.9403 54.9746 42.7358C54.7941 42.5553 54.1383 42.3507 52.8388 42.074C51.6355 41.8213 51.1903 41.6949 50.5525 41.4122C49.1326 40.7925 47.3397 40.5037 45.3422 40.5819Z" fill="#FF6601"/>
</svg>
