<svg width="394" height="394" viewBox="0 0 394 394" fill="none" xmlns="http://www.w3.org/2000/svg">
<path d="M176.667 0.696869C131.201 5.89688 89.6006 25.6302 58.0006 57.3636C20.534 94.6969 -0.132692 144.297 0.000641157 196.43L0.133974 213.364L9.46731 203.364C29.8673 181.63 31.4673 179.097 32.534 170.164L33.4673 161.897L39.4673 162.83C43.4673 163.364 46.0006 163.097 47.4673 162.03C50.0006 159.764 47.734 158.03 42.0006 158.03C34.8006 157.897 34.534 156.964 39.2006 143.364C41.6006 136.43 44.534 128.697 45.8673 126.297L48.134 121.897L58.934 129.364C68.4007 135.897 70.0006 136.564 71.734 134.83C73.4673 133.23 72.2673 132.03 62.134 125.23C54.934 120.43 50.8006 116.964 51.2006 115.764C52.2673 113.23 65.0673 94.2969 66.4007 93.4969C66.934 93.2302 72.534 96.4302 78.6673 100.697C84.934 105.097 91.0673 108.564 92.2673 108.697C97.734 108.83 95.2006 105.63 84.134 98.1636C77.6006 93.7636 71.8673 89.6302 71.4673 88.9636C70.534 87.3636 92.8007 65.6302 94.8007 66.2969C96.2673 66.8302 133.201 128.297 133.334 130.43C133.334 131.097 131.067 130.164 128.401 128.564C124.134 125.897 123.601 125.897 124.401 127.897C124.934 129.23 125.334 130.83 125.334 131.364C125.334 132.03 128.934 134.964 133.201 138.03C140.667 143.097 142.134 144.964 156.934 170.03C165.601 184.697 173.201 196.697 173.734 196.697C174.267 196.697 179.867 191.63 186.134 185.364C192.534 178.964 198.934 173.63 201.067 173.23C203.067 172.697 205.734 171.364 207.067 170.297C209.067 168.43 209.334 168.564 209.334 170.43C209.334 174.164 214.934 178.297 218.801 177.497C221.867 176.964 222.134 177.23 221.601 180.03C221.201 182.297 222.134 184.43 224.801 187.097C226.934 189.23 228.801 191.364 228.934 191.897C229.867 195.764 230.401 195.897 233.067 193.497C235.467 191.364 237.201 191.23 244.267 191.897C248.934 192.43 254.801 193.364 257.334 193.764C261.867 194.83 261.734 194.83 250.667 198.697C244.401 200.83 238.267 202.43 237.067 202.297C232.401 202.03 238.267 209.63 248.267 216.697C258.001 223.63 258.001 223.63 253.067 223.097C248.267 222.564 248.134 222.697 249.867 225.364C251.201 227.23 253.867 228.297 260.134 229.23C268.267 230.43 270.134 231.497 304.401 255.097C329.067 272.03 340.001 280.297 339.467 281.497C338.801 283.097 330.934 294.83 325.734 301.897C324.267 303.764 325.467 305.63 334.667 314.697C347.067 326.964 345.601 327.364 358.001 309.497C374.667 285.364 385.734 258.164 390.801 228.564C394.667 206.164 393.867 174.964 388.934 154.03C370.134 74.8302 308.801 16.4302 229.734 2.69687C215.334 0.163544 190.001 -0.769806 176.667 0.696869ZM194.667 31.6302C194.667 32.5635 196.801 52.1636 199.334 75.2302C201.867 98.2969 204.001 119.097 204.001 121.497C204.001 126.564 194.801 152.964 193.334 152.03C192.801 151.764 188.401 144.43 183.334 135.897L174.401 120.297L169.601 77.0969C166.934 53.4969 165.067 33.7635 165.467 33.4969C166.134 32.8302 183.867 30.4302 190.401 30.1635C193.067 30.0302 194.667 30.6969 194.667 31.6302ZM225.334 32.9635C230.134 33.7635 234.667 34.6969 235.467 35.2302C236.401 35.7635 232.267 48.8302 223.334 72.9636C215.867 93.3636 209.467 110.297 209.201 110.697C208.534 111.23 199.867 36.2969 200.001 31.6302C200.001 29.6302 207.334 30.0302 225.334 32.9635ZM160.001 36.1635C160.001 38.1635 166.801 99.2302 167.467 103.364C168.134 107.364 168.001 107.764 166.267 106.03C163.734 103.364 130.667 46.5635 130.667 44.9635C130.667 43.8969 137.067 41.2302 150.001 36.8302C154.534 35.3636 160.001 34.9635 160.001 36.1635ZM258.267 42.2969C263.601 44.4302 268.267 46.8302 268.667 47.3636C269.067 48.0302 262.667 67.0969 254.534 89.6302L239.601 130.697L227.467 142.964C220.801 149.764 214.934 155.364 214.534 155.364C213.334 155.364 212.267 149.23 211.201 135.63L210.267 123.63L226.134 80.1636C244.267 30.5636 240.534 34.9635 258.267 42.2969ZM147.467 84.9636L169.201 122.03L171.334 139.497C172.401 149.23 173.067 157.364 172.801 157.764C172.401 158.03 166.134 154.164 158.667 148.964L145.201 139.63L122.534 101.364C110.134 80.2969 100.001 62.5636 100.001 62.0302C100.001 61.0969 105.334 57.3636 117.334 50.2969C119.867 48.8302 122.801 47.6302 123.867 47.7635C124.934 47.8969 135.601 64.6969 147.467 84.9636ZM293.067 61.2302C297.601 64.5636 301.334 67.7636 301.334 68.4302C301.334 68.9636 289.601 81.0969 275.334 95.3636C261.067 109.63 249.334 120.697 249.334 119.897C249.334 118.83 268.001 67.0969 273.201 53.6302L274.667 49.8969L279.601 52.5636C282.401 53.8969 288.401 57.8969 293.067 61.2302ZM317.334 82.8302L327.067 92.8302L294.534 125.497L262.001 158.03L247.601 162.83C239.601 165.497 232.801 167.364 232.401 166.964C232.134 166.564 234.534 158.83 237.867 149.764L243.867 133.364L274.934 103.097C292.001 86.4302 306.401 72.8302 306.801 72.6969C307.201 72.6969 312.001 77.2302 317.334 82.8302ZM337.067 107.764C343.334 117.497 348.934 128.297 347.867 129.23C346.801 130.164 277.867 152.697 276.001 152.697C274.534 152.697 328.667 98.2969 330.401 98.0302C330.534 98.0302 333.601 102.43 337.067 107.764ZM355.067 146.03C357.067 152.164 358.667 158.43 358.401 160.03C358.001 162.297 351.734 164.83 315.867 176.83L273.734 190.83L258.267 188.697C249.734 187.497 242.401 186.164 242.001 185.897C241.734 185.497 246.534 180.164 252.667 173.897L264.001 162.697L306.401 148.43C329.601 140.697 349.334 134.43 350.001 134.564C350.801 134.697 353.067 139.897 355.067 146.03ZM182.801 144.964C185.867 150.297 189.201 155.897 190.134 157.364C191.467 159.497 191.467 160.83 189.867 164.564L188.001 168.964L183.734 166.164C179.067 163.364 178.934 162.697 176.801 143.63C176.267 139.097 176.134 135.364 176.534 135.364C176.934 135.364 179.734 139.764 182.801 144.964ZM208.134 156.964C208.401 160.297 207.734 162.83 206.001 164.697C202.801 168.164 202.401 168.03 199.601 163.497C197.467 159.897 197.467 159.364 200.667 150.164C202.401 144.964 204.267 139.897 204.934 139.097C205.867 137.364 207.467 145.764 208.134 156.964ZM229.201 158.564C226.001 167.63 224.267 170.43 221.734 171.497C215.867 173.63 214.667 173.097 214.667 167.764C214.667 163.364 215.734 161.63 223.601 153.764C228.667 148.697 232.801 145.23 233.067 145.764C233.201 146.43 231.467 152.164 229.201 158.564ZM164.667 159.364C174.401 165.897 174.667 166.297 174.667 171.63C174.667 176.964 174.667 176.964 170.401 176.164C168.134 175.764 166.134 175.23 166.001 174.964C160.534 166.697 153.067 152.697 154.001 152.697C154.401 152.697 159.201 155.764 164.667 159.364ZM197.334 170.164C197.334 170.83 196.401 171.364 195.334 171.364C193.334 171.364 192.667 169.764 194.134 168.297C195.201 167.23 197.334 168.43 197.334 170.164ZM244.001 176.03C236.934 183.097 234.667 184.697 231.067 184.697C225.734 184.697 225.067 183.764 227.334 178.564C228.801 174.964 230.534 173.764 238.934 170.964C244.267 169.097 249.601 167.497 250.667 167.497C251.734 167.364 248.667 171.23 244.001 176.03ZM362.267 186.564C362.667 195.764 362.801 203.364 362.401 203.364C362.001 203.364 345.067 200.964 324.667 198.03C304.267 195.097 287.201 192.697 286.801 192.564C286.401 192.564 302.534 186.964 322.667 180.03C342.801 173.23 359.867 168.164 360.534 168.697C361.067 169.364 361.867 177.364 362.267 186.564ZM183.734 174.964C181.601 177.63 180.001 176.964 180.001 173.364C180.001 170.43 180.267 170.164 182.534 171.63C184.534 172.83 184.801 173.63 183.734 174.964ZM175.067 184.03C174.267 186.297 171.734 186.03 170.934 183.63C170.667 182.697 171.601 182.03 173.201 182.03C175.067 182.03 175.734 182.697 175.067 184.03ZM317.201 202.03C338.134 204.964 357.067 207.764 359.067 208.164C362.801 208.964 362.801 208.964 361.867 217.097C361.334 221.497 360.267 227.897 359.334 231.23C357.467 238.564 362.667 238.564 310.001 231.23L271.334 225.897L259.067 217.764C252.267 213.364 246.134 208.964 245.334 208.03C244.134 206.697 246.801 205.23 257.601 201.63C265.201 198.964 273.067 196.83 275.201 196.83C277.334 196.697 296.267 199.097 317.201 202.03ZM318.667 237.497C338.134 240.164 354.534 242.83 355.201 243.497C356.401 244.564 351.467 259.364 346.401 269.364L343.334 275.364L312.001 254.03C294.934 242.297 281.467 232.697 282.134 232.697C282.801 232.697 299.201 234.83 318.667 237.497Z" fill="white"/>
<path d="M96.4006 114.964C95.4672 115.23 91.4672 120.164 87.4672 125.764C79.2006 137.497 72.8006 144.83 40.0006 180.03C18.5339 203.097 10.4006 212.164 3.60055 220.164C1.33389 222.964 1.33389 223.497 4.00055 236.43C14.1339 286.43 44.5339 331.63 86.8006 359.764C121.067 382.564 155.867 393.097 196.667 393.097C237.334 393.097 272.401 382.564 305.867 360.164C320.667 350.297 340.001 333.764 340.001 331.097C340.001 330.297 332.667 322.03 323.734 312.83C314.667 303.63 304.134 292.03 300.134 287.097C295.601 281.364 288.667 275.097 281.067 269.897C266.134 259.364 249.601 239.364 230.934 208.964C216.001 184.564 208.534 177.497 201.601 180.697C199.734 181.497 195.867 184.83 193.067 188.03C187.334 194.564 172.667 206.03 170.134 206.03C169.201 206.03 167.334 203.497 165.867 200.297C164.534 197.23 160.267 190.164 156.534 184.697C152.934 179.23 147.867 171.097 145.334 166.83C140.934 158.964 132.934 150.03 126.534 145.897C124.401 144.43 121.734 140.03 119.467 134.164C117.467 129.097 114.667 123.23 113.067 121.364C108.667 115.63 101.334 112.83 96.4006 114.964ZM103.201 138.83C103.601 140.03 104.001 142.03 104.001 143.364C104.001 144.564 106.801 148.164 110.401 151.23C123.067 162.43 124.934 164.43 134.134 178.03C146.134 195.764 150.267 203.897 151.467 212.297C152.267 218.964 152.267 218.964 147.867 220.564C145.601 221.364 141.734 223.497 139.467 225.23C132.667 230.297 127.067 232.697 121.734 232.697C117.201 232.697 115.734 233.63 106.667 243.364C101.201 249.23 93.0672 256.164 88.6672 258.83C80.2672 263.897 73.3339 266.564 73.3339 264.83C73.3339 264.164 75.2006 260.164 77.4672 255.764C83.6006 243.764 84.0006 238.164 78.8006 229.897C73.8672 221.764 73.7339 220.83 78.0006 214.564C79.8672 211.897 81.3339 208.03 81.3339 206.164C81.3339 204.164 83.4672 199.364 86.0006 195.364C91.3339 187.23 91.6006 185.364 88.5339 178.83C86.2672 174.297 86.4006 174.297 90.6672 168.164C94.5339 162.83 95.0672 161.097 94.8006 155.097C94.5339 150.164 95.3339 146.697 97.6006 142.43C100.934 136.164 102.001 135.497 103.201 138.83ZM210.401 208.297C212.534 211.097 217.867 219.63 222.134 227.23C226.401 234.83 233.334 244.697 237.334 249.23C241.334 253.63 247.734 260.964 251.334 265.364C258.934 274.564 259.467 275.097 269.067 281.497C276.401 286.564 281.734 292.297 280.667 294.03C280.267 294.564 277.201 295.497 273.734 296.03C270.267 296.564 263.867 298.697 259.467 300.964C252.401 304.564 250.667 304.83 243.467 304.164C226.801 302.564 224.401 301.897 220.534 297.897C214.934 292.03 210.667 293.23 210.667 300.564C210.667 301.764 209.867 304.03 208.801 305.364C207.067 307.63 206.801 307.63 202.001 303.897C197.334 300.43 195.867 300.03 186.401 300.03L176.001 300.164L180.134 296.297C184.801 292.164 184.667 288.297 179.867 282.297C176.401 277.764 176.667 276.564 182.001 271.497C189.467 264.564 191.334 260.03 189.334 253.63C187.334 246.697 188.667 238.83 193.334 231.23C198.001 223.63 201.601 213.364 201.201 208.83C200.934 203.764 201.067 203.364 203.867 203.364C205.334 203.364 208.267 205.63 210.401 208.297Z" fill="white"/>
<path d="M197 250.334V162.333M197 345.667C278.004 345.667 343.667 280.004 343.667 199C343.667 117.996 278.004 52.3335 197 52.3335C115.996 52.3335 50.3335 117.996 50.3335 199C50.3335 280.004 115.996 345.667 197 345.667Z" stroke="#FF6601" stroke-width="22" stroke-linecap="round" stroke-linejoin="round"/>
<path d="M153 191.667L197 147.667L241 191.667" stroke="#FF6601" stroke-width="22" stroke-linecap="round" stroke-linejoin="round"/>
</svg>
