<svg width="73" height="73" viewBox="0 0 73 73" fill="none" xmlns="http://www.w3.org/2000/svg">
<path d="M45.7581 66.0645H27.7581C12.7581 66.0645 6.75806 60.0645 6.75806 45.0645V27.0645C6.75806 12.0645 12.7581 6.06445 27.7581 6.06445H45.7581C60.7581 6.06445 66.7581 12.0645 66.7581 27.0645V45.0645C66.7581 60.0645 60.7581 66.0645 45.7581 66.0645Z" fill="url(#paint0_linear_36_9)" stroke="#EBB703" stroke-width="3.48387" stroke-linecap="round" stroke-linejoin="round"/>
<path d="M42.7581 27.9645V36.6645H50.5581C51.1581 36.6645 51.4581 37.2645 51.4581 37.8645L50.2581 43.5645C50.2581 43.8645 49.6581 44.1645 49.3581 44.1645H42.7581V66.0645H33.7581V44.4645H28.6581C28.0581 44.4645 27.7581 44.1645 27.7581 43.5645V37.8645C27.7581 37.2645 28.0581 36.9645 28.6581 36.9645H33.7581V27.0645C33.7581 21.9645 37.6581 18.0645 42.7581 18.0645H50.8581C51.4581 18.0645 51.7581 18.3645 51.7581 18.9645V26.1645C51.7581 26.7645 51.4581 27.0645 50.8581 27.0645H43.6581C43.0581 27.0645 42.7581 27.3645 42.7581 27.9645Z" stroke="#EBB703" stroke-width="3.48387" stroke-miterlimit="10" stroke-linecap="round"/>
<defs>
<linearGradient id="paint0_linear_36_9" x1="10" y1="-6" x2="104.5" y2="144" gradientUnits="userSpaceOnUse">
<stop offset="0.171609"/>
<stop offset="1" stop-color="#EBB703"/>
</linearGradient>
</defs>
</svg>
