<svg width="73" height="73" viewBox="0 0 73 73" fill="none" xmlns="http://www.w3.org/2000/svg">
<path d="M27.5 66.1934H45.5C60.5 66.1934 66.5 60.1934 66.5 45.1934V27.1934C66.5 12.1934 60.5 6.19336 45.5 6.19336H27.5C12.5 6.19336 6.5 12.1934 6.5 27.1934V45.1934C6.5 60.1934 12.5 66.1934 27.5 66.1934Z" fill="url(#paint0_linear_36_10)" stroke="#EBB703" stroke-width="3.48387" stroke-linecap="round" stroke-linejoin="round"/>
<path d="M36.5 46.6934C37.8789 46.6934 39.2443 46.4218 40.5182 45.8941C41.7921 45.3664 42.9496 44.593 43.9246 43.618C44.8996 42.643 45.6731 41.4855 46.2007 40.2115C46.7284 38.9376 47 37.5722 47 36.1934C47 34.8145 46.7284 33.4491 46.2007 32.1752C45.6731 30.9013 44.8996 29.7438 43.9246 28.7687C42.9496 27.7937 41.7921 27.0203 40.5182 26.4926C39.2443 25.9649 37.8789 25.6934 36.5 25.6934C33.7152 25.6934 31.0445 26.7996 29.0754 28.7687C27.1062 30.7379 26 33.4086 26 36.1934C26 38.9781 27.1062 41.6488 29.0754 43.618C31.0445 45.5871 33.7152 46.6934 36.5 46.6934Z" stroke="#EBB703" stroke-width="3.48387" stroke-linecap="round" stroke-linejoin="round"/>
<path d="M53.408 21.1934H53.444" stroke="#EBB703" stroke-width="4.64516" stroke-linecap="round" stroke-linejoin="round"/>
<defs>
<linearGradient id="paint0_linear_36_10" x1="27" y1="18" x2="113.5" y2="120.5" gradientUnits="userSpaceOnUse">
<stop/>
<stop offset="1" stop-color="#EBB703"/>
</linearGradient>
</defs>
</svg>
