<svg width="29" height="30" viewBox="0 0 29 30" fill="none" xmlns="http://www.w3.org/2000/svg">
<path d="M10.8 27H18C24 27 26.4 24.6 26.4 18.6V11.4C26.4 5.4 24 3 18 3H10.8C4.80002 3 2.40002 5.4 2.40002 11.4V18.6C2.40002 24.6 4.80002 27 10.8 27Z" stroke="#3C6178" stroke-width="1.8" stroke-linecap="round" stroke-linejoin="round"/>
<path d="M14.4001 19.2C14.9516 19.2 15.4978 19.0914 16.0073 18.8803C16.5169 18.6693 16.9799 18.3599 17.3699 17.9699C17.7599 17.5799 18.0693 17.1169 18.2804 16.6073C18.4914 16.0978 18.6001 15.5516 18.6001 15C18.6001 14.4485 18.4914 13.9023 18.2804 13.3928C18.0693 12.8832 17.7599 12.4202 17.3699 12.0302C16.9799 11.6402 16.5169 11.3308 16.0073 11.1198C15.4978 10.9087 14.9516 10.8 14.4001 10.8C13.2862 10.8 12.2179 11.2425 11.4302 12.0302C10.6426 12.8179 10.2001 13.8861 10.2001 15C10.2001 16.114 10.6426 17.1822 11.4302 17.9699C12.2179 18.7575 13.2862 19.2 14.4001 19.2Z" stroke="#3C6178" stroke-width="1.8" stroke-linecap="round" stroke-linejoin="round"/>
<path d="M21.1632 9H21.1776" stroke="#3C6178" stroke-width="2.4" stroke-linecap="round" stroke-linejoin="round"/>
</svg>
