<svg width="30" height="30" viewBox="0 0 30 30" fill="none" xmlns="http://www.w3.org/2000/svg">
<path d="M11.1356 27.2202H18.5594C24.7458 27.2202 27.2204 24.7457 27.2204 18.5592V11.1355C27.2204 4.94906 24.7458 2.47449 18.5594 2.47449H11.1356C4.94919 2.47449 2.47461 4.94906 2.47461 11.1355V18.5592C2.47461 24.7457 4.94919 27.2202 11.1356 27.2202Z" stroke="white" stroke-width="1.85593" stroke-linecap="round" stroke-linejoin="round"/>
<path d="M14.8475 19.1779C15.4162 19.1779 15.9793 19.0659 16.5047 18.8482C17.0301 18.6306 17.5075 18.3116 17.9096 17.9095C18.3117 17.5074 18.6307 17.03 18.8483 16.5046C19.066 15.9792 19.178 15.416 19.178 14.8474C19.178 14.2787 19.066 13.7155 18.8483 13.1901C18.6307 12.6647 18.3117 12.1873 17.9096 11.7852C17.5075 11.3831 17.0301 11.0641 16.5047 10.8465C15.9793 10.6289 15.4162 10.5168 14.8475 10.5168C13.699 10.5168 12.5975 10.9731 11.7853 11.7852C10.9732 12.5974 10.517 13.6988 10.517 14.8474C10.517 15.9959 10.9732 17.0974 11.7853 17.9095C12.5975 18.7216 13.699 19.1779 14.8475 19.1779Z" stroke="white" stroke-width="1.85593" stroke-linecap="round" stroke-linejoin="round"/>
<path d="M21.8208 8.66101H21.8348" stroke="white" stroke-width="2.47458" stroke-linecap="round" stroke-linejoin="round"/>
</svg>
