<svg width="29" height="30" viewBox="0 0 29 30" fill="none" xmlns="http://www.w3.org/2000/svg">
<path d="M25.2 8.80005V20.8C25.2 24.4 23.4 26.8 19.2 26.8H9.60004C5.40004 26.8 3.60004 24.4 3.60004 20.8V8.80005C3.60004 5.20005 5.40004 2.80005 9.60004 2.80005H19.2C23.4 2.80005 25.2 5.20005 25.2 8.80005Z" stroke="#3C6178" stroke-width="1.8" stroke-miterlimit="10" stroke-linecap="round" stroke-linejoin="round"/>
<path d="M15.9001 17.2H21.0001M10.8001 22H21.0001M18.6001 2.80005V12.232C18.6001 12.76 17.9761 13.024 17.5921 12.676L14.8081 10.108C14.6977 10.0041 14.5517 9.94621 14.4001 9.94621C14.2484 9.94621 14.1025 10.0041 13.9921 10.108L11.2081 12.676C10.8241 13.024 10.2001 12.76 10.2001 12.232V2.80005H18.6001Z" stroke="#3C6178" stroke-width="1.8" stroke-miterlimit="10" stroke-linecap="round" stroke-linejoin="round"/>
</svg>
