<svg width="29" height="30" viewBox="0 0 29 30" fill="none" xmlns="http://www.w3.org/2000/svg">
<path d="M8.28002 25.5202C10.08 26.6002 12.24 27.2002 14.4 27.2002C21 27.2002 26.4 21.8002 26.4 15.2002C26.4 8.6002 21 3.2002 14.4 3.2002C7.80002 3.2002 2.40002 8.6002 2.40002 15.2002C2.40002 17.3602 3.00002 19.4002 3.96002 21.2002L2.92802 25.1674C2.87478 25.3722 2.87664 25.5874 2.93342 25.7913C2.9902 25.9951 3.09987 26.1804 3.25132 26.3281C3.40277 26.4759 3.5906 26.5811 3.79578 26.6328C4.00096 26.6846 4.21618 26.6812 4.41962 26.623L8.28002 25.5202Z" stroke="#3C6178" stroke-width="1.8" stroke-miterlimit="10" stroke-linecap="round" stroke-linejoin="round"/>
<path d="M19.8 18.6179C19.8 18.8123 19.7568 19.0127 19.6644 19.2071C19.5701 19.408 19.4464 19.5936 19.2972 19.7579C19.032 20.0495 18.7404 20.2595 18.4092 20.3951C18.0852 20.5307 17.7336 20.6003 17.3556 20.6003C16.8036 20.6003 16.2144 20.4707 15.5916 20.2067C14.9332 19.9212 14.3092 19.5622 13.7316 19.1363C13.1034 18.6774 12.5105 18.172 11.958 17.6243C11.4114 17.0748 10.9071 16.4847 10.4496 15.8591C10.0291 15.2865 9.67338 14.6692 9.3888 14.0183C9.1296 13.4003 9 12.8123 9 12.2519C9 11.8847 9.0648 11.5343 9.1944 11.2103C9.324 10.8803 9.5304 10.5779 9.8172 10.3079C10.1628 9.96709 10.5408 9.80029 10.9416 9.80029C11.0928 9.80029 11.244 9.83269 11.3796 9.89749C11.52 9.96229 11.6436 10.0595 11.742 10.1999L12.9972 11.9663C13.0932 12.1007 13.1652 12.2255 13.2132 12.3443C13.2612 12.4571 13.2888 12.5711 13.2888 12.6731C13.2872 12.8092 13.2478 12.9422 13.1748 13.0571C13.0915 13.1976 12.9898 13.3263 12.8724 13.4399L12.4608 13.8671C12.4322 13.8951 12.4097 13.9288 12.3948 13.966C12.3799 14.0032 12.373 14.0431 12.3744 14.0831C12.3744 14.1251 12.3804 14.1635 12.3912 14.2067C12.4068 14.2499 12.4236 14.2823 12.4344 14.3147C12.5304 14.4935 12.6984 14.7251 12.9372 15.0059C13.1808 15.2867 13.44 15.5735 13.7208 15.8591C14.0136 16.1459 14.2944 16.4099 14.5812 16.6535C14.862 16.8899 15.0948 17.0519 15.2784 17.1491L15.3768 17.1935C15.4199 17.2089 15.4655 17.2162 15.5112 17.2151C15.5526 17.216 15.5937 17.2082 15.6319 17.1923C15.6702 17.1764 15.7047 17.1527 15.7332 17.1227L16.1436 16.7171C16.2792 16.5827 16.4088 16.4807 16.5336 16.4147C16.6484 16.3416 16.7815 16.3024 16.9176 16.3019C17.0312 16.3036 17.1433 16.3276 17.2476 16.3727C17.3664 16.4207 17.4912 16.4903 17.6256 16.5827L19.416 17.8523C19.5457 17.9367 19.6489 18.0561 19.7136 18.1967C19.7697 18.3301 19.7991 18.4732 19.8 18.6179Z" stroke="#3C6178" stroke-width="1.8" stroke-miterlimit="10"/>
</svg>
