<svg width="1440" height="1024" viewBox="0 0 1440 1024" fill="none" xmlns="http://www.w3.org/2000/svg">
<g clip-path="url(#clip0_3_2)">
<g clip-path="url(#clip1_3_2)">
<path d="M0 779L80 803.5C160 828 320 877 480 844.3C640 812 800 697 960 697.3C1120 697 1280 812 1440 819.8C1600 828 1760 730 1920 672.8C2080 616 2240 599 2400 623.8C2560 648 2720 714 2880 738.2C3040 763 3200 746 3360 721.8C3520 697 3680 665 3840 705.5C4000 746 4160 861 4320 844.3C4480 828 4640 681 4800 623.8C4960 567 5120 599 5280 607.5C5440 616 5600 599 5760 615.7C5920 632 6080 681 6240 738.2C6400 795 6560 861 6720 844.3C6880 828 7040 730 7200 672.8C7360 616 7520 599 7680 640.2C7840 681 8000 779 8160 811.7C8320 844 8480 812 8640 770.8C8800 730 8960 681 9120 640.2C9280 599 9440 567 9600 566.7C9760 567 9920 599 10080 664.7C10240 730 10400 828 10560 819.8C10720 812 10880 697 11040 705.5C11200 714 11360 844 11440 909.7L11520 975V1024H11440C11360 1024 11200 1024 11040 1024C10880 1024 10720 1024 10560 1024C10400 1024 10240 1024 10080 1024C9920 1024 9760 1024 9600 1024C9440 1024 9280 1024 9120 1024C8960 1024 8800 1024 8640 1024C8480 1024 8320 1024 8160 1024C8000 1024 7840 1024 7680 1024C7520 1024 7360 1024 7200 1024C7040 1024 6880 1024 6720 1024C6560 1024 6400 1024 6240 1024C6080 1024 5920 1024 5760 1024C5600 1024 5440 1024 5280 1024C5120 1024 4960 1024 4800 1024C4640 1024 4480 1024 4320 1024C4160 1024 4000 1024 3840 1024C3680 1024 3520 1024 3360 1024C3200 1024 3040 1024 2880 1024C2720 1024 2560 1024 2400 1024C2240 1024 2080 1024 1920 1024C1760 1024 1600 1024 1440 1024C1280 1024 1120 1024 960 1024C800 1024 640 1024 480 1024C320 1024 160 1024 80 1024H0V779Z" fill="url(#paint0_linear_3_2)"/>
<path opacity="0.9" d="M0 975L80 909.7C160 844 320 714 480 689.2C640 665 800 746 960 762.7C1120 779 1280 730 1440 738.2C1600 746 1760 812 1920 795.3C2080 779 2240 681 2400 689.2C2560 697 2720 812 2880 877C3040 942 3200 959 3360 966.8C3520 975 3680 975 3840 926C4000 877 4160 779 4320 705.5C4480 632 4640 583 4800 583C4960 583 5120 632 5280 648.3C5440 665 5600 648 5760 656.5C5920 665 6080 697 6240 713.7C6400 730 6560 730 6720 713.7C6880 697 7040 665 7200 672.8C7360 681 7520 730 7680 762.7C7840 795 8000 812 8160 811.7C8320 812 8480 795 8640 787.2C8800 779 8960 779 9120 746.3C9280 714 9440 648 9600 664.7C9760 681 9920 779 10080 811.7C10240 844 10400 812 10560 754.5C10720 697 10880 616 11040 599.3C11200 583 11360 632 11440 656.5L11520 681V1024H11440C11360 1024 11200 1024 11040 1024C10880 1024 10720 1024 10560 1024C10400 1024 10240 1024 10080 1024C9920 1024 9760 1024 9600 1024C9440 1024 9280 1024 9120 1024C8960 1024 8800 1024 8640 1024C8480 1024 8320 1024 8160 1024C8000 1024 7840 1024 7680 1024C7520 1024 7360 1024 7200 1024C7040 1024 6880 1024 6720 1024C6560 1024 6400 1024 6240 1024C6080 1024 5920 1024 5760 1024C5600 1024 5440 1024 5280 1024C5120 1024 4960 1024 4800 1024C4640 1024 4480 1024 4320 1024C4160 1024 4000 1024 3840 1024C3680 1024 3520 1024 3360 1024C3200 1024 3040 1024 2880 1024C2720 1024 2560 1024 2400 1024C2240 1024 2080 1024 1920 1024C1760 1024 1600 1024 1440 1024C1280 1024 1120 1024 960 1024C800 1024 640 1024 480 1024C320 1024 160 1024 80 1024H0V975Z" fill="url(#paint1_linear_3_2)"/>
</g>
<g clip-path="url(#clip2_3_2)">
<path d="M0 245L80 220.5C160 196 320 147 480 179.7C640 212 800 327 960 326.7C1120 327 1280 212 1440 204.2C1600 196 1760 294 1920 351.2C2080 408 2240 425 2400 400.2C2560 376 2720 310 2880 285.8C3040 261 3200 278 3360 302.2C3520 327 3680 359 3840 318.5C4000 278 4160 163 4320 179.7C4480 196 4640 343 4800 400.2C4960 457 5120 425 5280 416.5C5440 408 5600 425 5760 408.3C5920 392 6080 343 6240 285.8C6400 229 6560 163 6720 179.7C6880 196 7040 294 7200 351.2C7360 408 7520 425 7680 383.8C7840 343 8000 245 8160 212.3C8320 180 8480 212 8640 253.2C8800 294 8960 343 9120 383.8C9280 425 9440 457 9600 457.3C9760 457 9920 425 10080 359.3C10240 294 10400 196 10560 204.2C10720 212 10880 327 11040 318.5C11200 310 11360 180 11440 114.3L11520 49V0H11440C11360 0 11200 0 11040 0C10880 0 10720 0 10560 0C10400 0 10240 0 10080 0C9920 0 9760 0 9600 0C9440 0 9280 0 9120 0C8960 0 8800 0 8640 0C8480 0 8320 0 8160 0C8000 0 7840 0 7680 0C7520 0 7360 0 7200 0C7040 0 6880 0 6720 0C6560 0 6400 0 6240 0C6080 0 5920 0 5760 0C5600 0 5440 0 5280 0C5120 0 4960 0 4800 0C4640 0 4480 0 4320 0C4160 0 4000 0 3840 0C3680 0 3520 0 3360 0C3200 0 3040 0 2880 0C2720 0 2560 0 2400 0C2240 0 2080 0 1920 0C1760 0 1600 0 1440 0C1280 0 1120 0 960 0C800 0 640 0 480 0C320 0 160 0 80 0H0V245Z" fill="url(#paint2_linear_3_2)"/>
<path opacity="0.9" d="M0 49L80 114.3C160 180 320 310 480 334.8C640 359 800 278 960 261.3C1120 245 1280 294 1440 285.8C1600 278 1760 212 1920 228.7C2080 245 2240 343 2400 334.8C2560 327 2720 212 2880 147C3040 82 3200 65 3360 57.2C3520 49 3680 49 3840 98C4000 147 4160 245 4320 318.5C4480 392 4640 441 4800 441C4960 441 5120 392 5280 375.7C5440 359 5600 376 5760 367.5C5920 359 6080 327 6240 310.3C6400 294 6560 294 6720 310.3C6880 327 7040 359 7200 351.2C7360 343 7520 294 7680 261.3C7840 229 8000 212 8160 212.3C8320 212 8480 229 8640 236.8C8800 245 8960 245 9120 277.7C9280 310 9440 376 9600 359.3C9760 343 9920 245 10080 212.3C10240 180 10400 212 10560 269.5C10720 327 10880 408 11040 424.7C11200 441 11360 392 11440 367.5L11520 343V0H11440C11360 0 11200 0 11040 0C10880 0 10720 0 10560 0C10400 0 10240 0 10080 0C9920 0 9760 0 9600 0C9440 0 9280 0 9120 0C8960 0 8800 0 8640 0C8480 0 8320 0 8160 0C8000 0 7840 0 7680 0C7520 0 7360 0 7200 0C7040 0 6880 0 6720 0C6560 0 6400 0 6240 0C6080 0 5920 0 5760 0C5600 0 5440 0 5280 0C5120 0 4960 0 4800 0C4640 0 4480 0 4320 0C4160 0 4000 0 3840 0C3680 0 3520 0 3360 0C3200 0 3040 0 2880 0C2720 0 2560 0 2400 0C2240 0 2080 0 1920 0C1760 0 1600 0 1440 0C1280 0 1120 0 960 0C800 0 640 0 480 0C320 0 160 0 80 0H0V49Z" fill="url(#paint3_linear_3_2)"/>
</g>
</g>
<defs>
<linearGradient id="paint0_linear_3_2" x1="0" y1="1024" x2="0" y2="566.7" gradientUnits="userSpaceOnUse">
<stop stop-color="#085E3B"/>
<stop offset="1" stop-color="#00A060"/>
</linearGradient>
<linearGradient id="paint1_linear_3_2" x1="0" y1="1024" x2="0" y2="583" gradientUnits="userSpaceOnUse">
<stop stop-color="#00A060"/>
<stop offset="1" stop-color="#085E3B"/>
</linearGradient>
<linearGradient id="paint2_linear_3_2" x1="0" y1="0" x2="0" y2="457.3" gradientUnits="userSpaceOnUse">
<stop stop-color="#085E3B"/>
<stop offset="1" stop-color="#00A060"/>
</linearGradient>
<linearGradient id="paint3_linear_3_2" x1="0" y1="0" x2="0" y2="441" gradientUnits="userSpaceOnUse">
<stop stop-color="#00A060"/>
<stop offset="1" stop-color="#085E3B"/>
</linearGradient>
<clipPath id="clip0_3_2">
<rect width="1440" height="1024" fill="white"/>
</clipPath>
<clipPath id="clip1_3_2">
<rect width="1440" height="490" fill="white" transform="translate(0 534)"/>
</clipPath>
<clipPath id="clip2_3_2">
<rect width="1440" height="490" fill="white" transform="matrix(1 0 0 -1 0 490)"/>
</clipPath>
</defs>
</svg>
