<svg width="32" height="32" viewBox="0 0 32 32" fill="none" xmlns="http://www.w3.org/2000/svg">
<path d="M0 16C0 24.8366 7.16344 32 16 32C24.8366 32 32 24.8366 32 16C32 7.16344 24.8366 0 16 0C7.16344 0 0 7.16344 0 16Z" fill="#085E3B"/>
<path d="M7.40991 26C7.40991 22.13 11.2599 19 15.9999 19C16.9599 19 17.8899 19.13 18.7599 19.37M15.9999 16C17.326 16 18.5978 15.4732 19.5354 14.5355C20.4731 13.5979 20.9999 12.3261 20.9999 11C20.9999 9.67392 20.4731 8.40215 19.5354 7.46447C18.5978 6.52678 17.326 6 15.9999 6C14.6738 6 13.4021 6.52678 12.4644 7.46447C11.5267 8.40215 10.9999 9.67392 10.9999 11C10.9999 12.3261 11.5267 13.5979 12.4644 14.5355C13.4021 15.4732 14.6738 16 15.9999 16Z" stroke="white" stroke-width="1.5" stroke-linecap="round" stroke-linejoin="round"/>
<path d="M23.49 21.98H20.51M26 22C26 22.32 25.96 22.63 25.88 22.93C25.79 23.33 25.63 23.72 25.42 24.06C25.0675 24.6525 24.5667 25.143 23.967 25.4831C23.3674 25.8233 22.6894 26.0014 22 26C21.0155 26.0029 20.0659 25.6352 19.34 24.97C19.04 24.71 18.78 24.4 18.58 24.06C18.1993 23.4404 17.9985 22.7272 18 22C17.9994 21.4745 18.1024 20.9541 18.3031 20.4685C18.5039 19.9829 18.7985 19.5417 19.1701 19.1701C19.5417 18.7985 19.9829 18.5039 20.4685 18.3031C20.9541 18.1024 21.4745 17.9993 22 18C23.18 18 24.25 18.51 24.97 19.33C25.61 20.04 26 20.98 26 22Z" stroke="white" stroke-width="1.5" stroke-miterlimit="10" stroke-linecap="round" stroke-linejoin="round"/>
<path d="M21.98 20.51V23.49M22 18C22.32 18 22.63 18.04 22.93 18.12C23.33 18.21 23.72 18.37 24.06 18.58C24.6525 18.9325 25.143 19.4333 25.4831 20.033C25.8233 20.6326 26.0014 21.3106 26 22C26.0029 22.9846 25.6352 23.9342 24.97 24.66C24.71 24.96 24.4 25.22 24.06 25.42C23.4404 25.8007 22.7272 26.0015 22 26C21.4745 26.0007 20.9541 25.8977 20.4685 25.6969C19.9829 25.4961 19.5417 25.2015 19.1701 24.8299C18.7985 24.4583 18.5039 24.0171 18.3031 23.5315C18.1024 23.0459 17.9993 22.5255 18 22C18 20.82 18.51 19.75 19.33 19.03C20.04 18.39 20.98 18 22 18Z" stroke="white" stroke-width="1.5" stroke-miterlimit="10" stroke-linecap="round" stroke-linejoin="round"/>
</svg>
