<svg width="32" height="32" viewBox="0 0 32 32" fill="none" xmlns="http://www.w3.org/2000/svg">
<path d="M0 16C0 24.8366 7.16344 32 16 32C24.8366 32 32 24.8366 32 16C32 7.16344 24.8366 0 16 0C7.16344 0 0 7.16344 0 16Z" fill="#085E3B"/>
<path d="M22.1401 25.62C21.2601 25.88 20.2201 26 19.0001 26H13.0001C11.7801 26 10.7401 25.88 9.86011 25.62C10.0801 23.02 12.7501 20.97 16.0001 20.97C19.2501 20.97 21.9201 23.02 22.1401 25.62Z" stroke="white" stroke-width="1.5" stroke-linecap="round" stroke-linejoin="round"/>
<path d="M19 6H13C8 6 6 8 6 13V19C6 22.78 7.14 24.85 9.86 25.62C10.08 23.02 12.75 20.97 16 20.97C19.25 20.97 21.92 23.02 22.14 25.62C24.86 24.85 26 22.78 26 19V13C26 8 24 6 19 6ZM16 18.17C14.02 18.17 12.42 16.56 12.42 14.58C12.42 12.6 14.02 11 16 11C17.98 11 19.58 12.6 19.58 14.58C19.58 16.56 17.98 18.17 16 18.17Z" stroke="white" stroke-width="1.5" stroke-linecap="round" stroke-linejoin="round"/>
<path d="M19.5799 14.58C19.5799 16.56 17.9799 18.17 15.9999 18.17C14.0199 18.17 12.4199 16.56 12.4199 14.58C12.4199 12.6 14.0199 11 15.9999 11C17.9799 11 19.5799 12.6 19.5799 14.58Z" stroke="white" stroke-width="1.5" stroke-linecap="round" stroke-linejoin="round"/>
</svg>
