<?xml version="1.0" standalone="no"?>
<svg xmlns:xlink="http://www.w3.org/1999/xlink" id="wave" style="transform:rotate(0deg); transition: 0.3s" viewBox="0 0 1440 490" version="1.1" xmlns="http://www.w3.org/2000/svg"><defs><linearGradient id="sw-gradient-0" x1="0" x2="0" y1="1" y2="0"><stop stop-color="rgba(8, 94, 59, 1)" offset="0%"/><stop stop-color="rgba(0, 160, 96, 1)" offset="100%"/></linearGradient></defs><path style="transform:translate(0, 0px); opacity:1" fill="url(#sw-gradient-0)" d="M0,245L80,269.5C160,294,320,343,480,310.3C640,278,800,163,960,163.3C1120,163,1280,278,1440,285.8C1600,294,1760,196,1920,138.8C2080,82,2240,65,2400,89.8C2560,114,2720,180,2880,204.2C3040,229,3200,212,3360,187.8C3520,163,3680,131,3840,171.5C4000,212,4160,327,4320,310.3C4480,294,4640,147,4800,89.8C4960,33,5120,65,5280,73.5C5440,82,5600,65,5760,81.7C5920,98,6080,147,6240,204.2C6400,261,6560,327,6720,310.3C6880,294,7040,196,7200,138.8C7360,82,7520,65,7680,106.2C7840,147,8000,245,8160,277.7C8320,310,8480,278,8640,236.8C8800,196,8960,147,9120,106.2C9280,65,9440,33,9600,32.7C9760,33,9920,65,10080,130.7C10240,196,10400,294,10560,285.8C10720,278,10880,163,11040,171.5C11200,180,11360,310,11440,375.7L11520,441L11520,490L11440,490C11360,490,11200,490,11040,490C10880,490,10720,490,10560,490C10400,490,10240,490,10080,490C9920,490,9760,490,9600,490C9440,490,9280,490,9120,490C8960,490,8800,490,8640,490C8480,490,8320,490,8160,490C8000,490,7840,490,7680,490C7520,490,7360,490,7200,490C7040,490,6880,490,6720,490C6560,490,6400,490,6240,490C6080,490,5920,490,5760,490C5600,490,5440,490,5280,490C5120,490,4960,490,4800,490C4640,490,4480,490,4320,490C4160,490,4000,490,3840,490C3680,490,3520,490,3360,490C3200,490,3040,490,2880,490C2720,490,2560,490,2400,490C2240,490,2080,490,1920,490C1760,490,1600,490,1440,490C1280,490,1120,490,960,490C800,490,640,490,480,490C320,490,160,490,80,490L0,490Z"/><defs><linearGradient id="sw-gradient-1" x1="0" x2="0" y1="1" y2="0"><stop stop-color="rgba(0, 160, 96, 1)" offset="0%"/><stop stop-color="rgba(8, 94, 59, 1)" offset="100%"/></linearGradient></defs><path style="transform:translate(0, 50px); opacity:0.9" fill="url(#sw-gradient-1)" d="M0,441L80,375.7C160,310,320,180,480,155.2C640,131,800,212,960,228.7C1120,245,1280,196,1440,204.2C1600,212,1760,278,1920,261.3C2080,245,2240,147,2400,155.2C2560,163,2720,278,2880,343C3040,408,3200,425,3360,432.8C3520,441,3680,441,3840,392C4000,343,4160,245,4320,171.5C4480,98,4640,49,4800,49C4960,49,5120,98,5280,114.3C5440,131,5600,114,5760,122.5C5920,131,6080,163,6240,179.7C6400,196,6560,196,6720,179.7C6880,163,7040,131,7200,138.8C7360,147,7520,196,7680,228.7C7840,261,8000,278,8160,277.7C8320,278,8480,261,8640,253.2C8800,245,8960,245,9120,212.3C9280,180,9440,114,9600,130.7C9760,147,9920,245,10080,277.7C10240,310,10400,278,10560,220.5C10720,163,10880,82,11040,65.3C11200,49,11360,98,11440,122.5L11520,147L11520,490L11440,490C11360,490,11200,490,11040,490C10880,490,10720,490,10560,490C10400,490,10240,490,10080,490C9920,490,9760,490,9600,490C9440,490,9280,490,9120,490C8960,490,8800,490,8640,490C8480,490,8320,490,8160,490C8000,490,7840,490,7680,490C7520,490,7360,490,7200,490C7040,490,6880,490,6720,490C6560,490,6400,490,6240,490C6080,490,5920,490,5760,490C5600,490,5440,490,5280,490C5120,490,4960,490,4800,490C4640,490,4480,490,4320,490C4160,490,4000,490,3840,490C3680,490,3520,490,3360,490C3200,490,3040,490,2880,490C2720,490,2560,490,2400,490C2240,490,2080,490,1920,490C1760,490,1600,490,1440,490C1280,490,1120,490,960,490C800,490,640,490,480,490C320,490,160,490,80,490L0,490Z"/></svg>