<svg width="28" height="28" viewBox="0 0 28 28" fill="none" xmlns="http://www.w3.org/2000/svg">
<path d="M23.0871 4.92335C19.6338 1.48169 14.0338 1.48169 10.6038 4.92335C8.18879 7.31502 7.46545 10.7567 8.39879 13.79L2.91545 19.2734C2.53045 19.67 2.26212 20.4517 2.34379 21.0117L2.69379 23.555C2.82212 24.395 3.60379 25.1884 4.44379 25.305L6.98712 25.655C7.54712 25.7367 8.32879 25.48 8.72545 25.0717L9.68212 24.115C9.91545 23.8934 9.91545 23.52 9.68212 23.2867L7.41879 21.0234C7.25606 20.8587 7.1648 20.6365 7.1648 20.405C7.1648 20.1735 7.25606 19.9513 7.41879 19.7867C7.75712 19.4484 8.31712 19.4484 8.65545 19.7867L10.9305 22.0617C11.1521 22.2834 11.5255 22.2834 11.7471 22.0617L14.2205 19.6C17.2421 20.545 20.6838 19.81 23.0871 17.4184C26.5288 13.9767 26.5288 8.36502 23.0871 4.92335V4.92335ZM16.9155 14C16.1419 14 15.4 13.6927 14.8531 13.1457C14.3061 12.5988 13.9988 11.8569 13.9988 11.0834C13.9988 10.3098 14.3061 9.56794 14.8531 9.02096C15.4 8.47398 16.1419 8.16669 16.9155 8.16669C17.689 8.16669 18.4309 8.47398 18.9778 9.02096C19.5248 9.56794 19.8321 10.3098 19.8321 11.0834C19.8321 11.8569 19.5248 12.5988 18.9778 13.1457C18.4309 13.6927 17.689 14 16.9155 14V14Z" fill="#006E0F"/>
</svg>
