<svg width="28" height="28" viewBox="0 0 28 28" fill="none" xmlns="http://www.w3.org/2000/svg">
<path d="M14 14C15.5471 14 17.0308 13.3854 18.1248 12.2914C19.2188 11.1975 19.8334 9.71374 19.8334 8.16665C19.8334 6.61955 19.2188 5.13582 18.1248 4.04186C17.0308 2.94789 15.5471 2.33331 14 2.33331C12.4529 2.33331 10.9692 2.94789 9.87523 4.04186C8.78127 5.13582 8.16669 6.61955 8.16669 8.16665C8.16669 9.71374 8.78127 11.1975 9.87523 12.2914C10.9692 13.3854 12.4529 14 14 14V14ZM14 16.9166C8.15502 16.9166 3.39502 20.8366 3.39502 25.6666C3.39502 25.9933 3.65169 26.25 3.97835 26.25H24.0217C24.3484 26.25 24.605 25.9933 24.605 25.6666C24.605 20.8366 19.845 16.9166 14 16.9166Z" fill="#006E0F"/>
</svg>
