<svg width="313" height="191" viewBox="0 0 313 191" fill="none" xmlns="http://www.w3.org/2000/svg">
<path d="M151.357 86.4847L155.042 86.6758L158.726 86.4871L228.384 82.9195L228.02 85.3642C228.02 85.3646 228.02 85.3649 228.02 85.3653C226.709 94.1531 226.706 103.086 228.011 111.874C228.011 111.875 228.011 111.875 228.011 111.875L228.273 113.636L159.638 109.242L155.036 108.947L150.434 109.246L84.0702 113.549L84.8807 108.168C86.1348 99.8425 86.2144 91.3869 85.1213 83.0483L151.357 86.4847ZM71.1135 82.3216H71.1136L14.0735 91.741L71.1135 82.3216Z" stroke="url(#paint0_linear_43_344)" stroke-width="143.129"/>
<path d="M42.3014 172.313H43.0834L43.4766 172.819L43.8633 173.269L44.5923 174.183H43.7337L43.2322 173.567L42.975 173.201L42.3014 172.313ZM44.6581 171.65C44.6581 172.124 44.5682 172.528 44.3882 172.861C44.2097 173.194 43.9661 173.448 43.6572 173.624C43.3498 173.798 43.0041 173.885 42.6201 173.885C42.2334 173.885 41.8863 173.797 41.5788 173.622C41.2714 173.446 41.0284 173.192 40.8499 172.859C40.6714 172.526 40.5822 172.123 40.5822 171.65C40.5822 171.175 40.6714 170.771 40.8499 170.438C41.0284 170.105 41.2714 169.852 41.5788 169.678C41.8863 169.502 42.2334 169.414 42.6201 169.414C43.0041 169.414 43.3498 169.502 43.6572 169.678C43.9661 169.852 44.2097 170.105 44.3882 170.438C44.5682 170.771 44.6581 171.175 44.6581 171.65ZM43.7252 171.65C43.7252 171.342 43.6792 171.083 43.5871 170.872C43.4964 170.661 43.3682 170.501 43.2024 170.392C43.0367 170.283 42.8426 170.228 42.6201 170.228C42.3977 170.228 42.2036 170.283 42.0379 170.392C41.8721 170.501 41.7432 170.661 41.6511 170.872C41.5604 171.083 41.5151 171.342 41.5151 171.65C41.5151 171.957 41.5604 172.216 41.6511 172.427C41.7432 172.639 41.8721 172.799 42.0379 172.908C42.2036 173.017 42.3977 173.071 42.6201 173.071C42.8426 173.071 43.0367 173.017 43.2024 172.908C43.3682 172.799 43.4964 172.639 43.5871 172.427C43.6792 172.216 43.7252 171.957 43.7252 171.65Z" fill="#085E3B"/>
<path d="M48.028 169.474H48.9482V172.3C48.9482 172.617 48.8724 172.895 48.7208 173.133C48.5707 173.371 48.3603 173.557 48.0897 173.69C47.8191 173.822 47.5039 173.887 47.144 173.887C46.7827 173.887 46.4668 173.822 46.1962 173.69C45.9256 173.557 45.7152 173.371 45.565 173.133C45.4149 172.895 45.3398 172.617 45.3398 172.3V169.474H46.2599V172.221C46.2599 172.387 46.2961 172.534 46.3683 172.663C46.442 172.792 46.5454 172.894 46.6786 172.967C46.8118 173.041 46.9669 173.078 47.144 173.078C47.3225 173.078 47.4776 173.041 47.6094 172.967C47.7426 172.894 47.8453 172.792 47.9175 172.663C47.9912 172.534 48.028 172.387 48.028 172.221V169.474Z" fill="#085E3B"/>
<path d="M50.4555 173.826H49.4694L50.9719 169.474H52.1577L53.658 173.826H52.672L51.5818 170.468H51.5478L50.4555 173.826ZM50.3938 172.115H52.723V172.833H50.3938V172.115Z" fill="#085E3B"/>
<path d="M55.7247 173.826H54.1819V169.474H55.7375C56.1752 169.474 56.5521 169.561 56.868 169.735C57.184 169.908 57.4269 170.156 57.5969 170.481C57.7684 170.805 57.8541 171.193 57.8541 171.645C57.8541 172.099 57.7684 172.488 57.5969 172.814C57.4269 173.14 57.1825 173.39 56.8638 173.564C56.5464 173.739 56.1667 173.826 55.7247 173.826ZM55.1021 173.037H55.6865C55.9585 173.037 56.1873 172.989 56.3729 172.893C56.5599 172.795 56.7001 172.644 56.7936 172.44C56.8886 172.235 56.936 171.97 56.936 171.645C56.936 171.324 56.8886 171.061 56.7936 170.857C56.7001 170.653 56.5606 170.503 56.375 170.406C56.1894 170.31 55.9606 170.262 55.6886 170.262H55.1021V173.037Z" fill="#085E3B"/>
<path d="M58.5357 173.826V169.474H60.2528C60.5815 169.474 60.862 169.532 61.0944 169.65C61.3281 169.766 61.5059 169.931 61.6278 170.145C61.751 170.358 61.8127 170.608 61.8127 170.895C61.8127 171.184 61.7503 171.433 61.6256 171.641C61.501 171.848 61.3203 172.007 61.0837 172.117C60.8486 172.228 60.5638 172.283 60.2294 172.283H59.0797V171.543H60.0807C60.2564 171.543 60.4023 171.519 60.5185 171.471C60.6346 171.423 60.7211 171.351 60.7777 171.254C60.8358 171.158 60.8649 171.038 60.8649 170.895C60.8649 170.751 60.8358 170.629 60.7777 170.53C60.7211 170.431 60.6339 170.355 60.5163 170.304C60.4002 170.252 60.2535 170.226 60.0764 170.226H59.4559V173.826H58.5357ZM60.8861 171.845L61.9678 173.826H60.952L59.8937 171.845H60.8861Z" fill="#085E3B"/>
<path d="M63.2131 173.826H62.2271L63.7295 169.474H64.9153L66.4157 173.826H65.4296L64.3394 170.468H64.3054L63.2131 173.826ZM63.1515 172.115H65.4806V172.833H63.1515V172.115Z" fill="#085E3B"/>
<path d="M70.0055 173.921C69.64 173.92 69.3255 173.83 69.062 173.652C68.7999 173.473 68.598 173.214 68.4563 172.876C68.3161 172.537 68.2466 172.13 68.2481 171.654C68.2481 171.179 68.3182 170.775 68.4584 170.44C68.6001 170.106 68.802 169.852 69.0641 169.678C69.3276 169.502 69.6414 169.414 70.0055 169.414C70.3696 169.414 70.6827 169.502 70.9448 169.678C71.2084 169.853 71.4109 170.108 71.5526 170.443C71.6943 170.776 71.7644 171.179 71.763 171.654C71.763 172.131 71.6922 172.539 71.5505 172.878C71.4102 173.217 71.2091 173.475 70.947 173.654C70.6849 173.832 70.3711 173.921 70.0055 173.921ZM70.0055 173.159C70.2549 173.159 70.4539 173.033 70.6027 172.782C70.7515 172.532 70.8251 172.155 70.8237 171.654C70.8237 171.324 70.7897 171.049 70.7217 170.829C70.6551 170.61 70.5602 170.445 70.4369 170.334C70.3151 170.224 70.1713 170.168 70.0055 170.168C69.7576 170.168 69.5593 170.292 69.4105 170.54C69.2617 170.788 69.1867 171.159 69.1852 171.654C69.1852 171.988 69.2185 172.267 69.2851 172.491C69.3531 172.714 69.4487 172.881 69.572 172.993C69.6953 173.103 69.8398 173.159 70.0055 173.159Z" fill="#085E3B"/>
<path d="M74.0279 173.885C73.7105 173.885 73.4279 173.831 73.1799 173.722C72.9334 173.611 72.7386 173.46 72.5955 173.267C72.4539 173.073 72.3809 172.849 72.3766 172.595H73.3032C73.3089 172.702 73.3436 172.795 73.4073 172.876C73.4725 172.955 73.5589 173.017 73.6666 173.061C73.7743 173.105 73.8954 173.127 74.03 173.127C74.1702 173.127 74.2942 173.102 74.4019 173.052C74.5096 173.003 74.5939 172.934 74.6548 172.846C74.7157 172.758 74.7462 172.657 74.7462 172.542C74.7462 172.426 74.7136 172.323 74.6484 172.234C74.5846 172.143 74.4926 172.073 74.3721 172.022C74.2531 171.971 74.1114 171.945 73.9471 171.945H73.5412V171.269H73.9471C74.0859 171.269 74.2085 171.245 74.3148 171.197C74.4224 171.149 74.506 171.082 74.5655 170.997C74.625 170.911 74.6548 170.81 74.6548 170.696C74.6548 170.586 74.6286 170.491 74.5761 170.409C74.5251 170.325 74.4529 170.26 74.3594 170.213C74.2673 170.166 74.1596 170.143 74.0364 170.143C73.9117 170.143 73.7976 170.166 73.6942 170.211C73.5908 170.255 73.5079 170.318 73.4456 170.4C73.3832 170.482 73.3499 170.579 73.3457 170.689H72.4638C72.468 170.438 72.5396 170.217 72.6784 170.026C72.8172 169.835 73.0043 169.685 73.2394 169.578C73.476 169.469 73.7431 169.414 74.0406 169.414C74.341 169.414 74.6038 169.469 74.829 169.578C75.0543 169.687 75.2293 169.834 75.3539 170.02C75.48 170.204 75.5424 170.411 75.5409 170.64C75.5424 170.884 75.4666 171.087 75.3136 171.25C75.162 171.413 74.9643 171.517 74.7206 171.56V171.594C75.0408 171.636 75.2845 171.747 75.4517 171.928C75.6203 172.108 75.7039 172.333 75.7025 172.604C75.7039 172.852 75.6323 173.072 75.4878 173.265C75.3447 173.457 75.1471 173.609 74.8949 173.72C74.6427 173.83 74.3537 173.885 74.0279 173.885Z" fill="#085E3B"/>
<path d="M135.979 172.313H136.761L137.154 172.819L137.541 173.269L138.27 174.183H137.411L136.91 173.567L136.652 173.201L135.979 172.313ZM138.336 171.65C138.336 172.124 138.246 172.528 138.066 172.861C137.887 173.194 137.643 173.448 137.335 173.624C137.027 173.798 136.681 173.885 136.298 173.885C135.911 173.885 135.564 173.797 135.256 173.622C134.949 173.446 134.706 173.192 134.527 172.859C134.349 172.526 134.26 172.123 134.26 171.65C134.26 171.175 134.349 170.771 134.527 170.438C134.706 170.105 134.949 169.852 135.256 169.678C135.564 169.502 135.911 169.414 136.298 169.414C136.681 169.414 137.027 169.502 137.335 169.678C137.643 169.852 137.887 170.105 138.066 170.438C138.246 170.771 138.336 171.175 138.336 171.65ZM137.403 171.65C137.403 171.342 137.357 171.083 137.264 170.872C137.174 170.661 137.046 170.501 136.88 170.392C136.714 170.283 136.52 170.228 136.298 170.228C136.075 170.228 135.881 170.283 135.715 170.392C135.55 170.501 135.421 170.661 135.329 170.872C135.238 171.083 135.192 171.342 135.192 171.65C135.192 171.957 135.238 172.216 135.329 172.427C135.421 172.639 135.55 172.799 135.715 172.908C135.881 173.017 136.075 173.071 136.298 173.071C136.52 173.071 136.714 173.017 136.88 172.908C137.046 172.799 137.174 172.639 137.264 172.427C137.357 172.216 137.403 171.957 137.403 171.65Z" fill="#085E3B"/>
<path d="M141.705 169.474H142.626V172.3C142.626 172.617 142.55 172.895 142.398 173.133C142.248 173.371 142.038 173.557 141.767 173.69C141.496 173.822 141.181 173.887 140.821 173.887C140.46 173.887 140.144 173.822 139.874 173.69C139.603 173.557 139.393 173.371 139.242 173.133C139.092 172.895 139.017 172.617 139.017 172.3V169.474H139.937V172.221C139.937 172.387 139.973 172.534 140.046 172.663C140.119 172.792 140.223 172.894 140.356 172.967C140.489 173.041 140.644 173.078 140.821 173.078C141 173.078 141.155 173.041 141.287 172.967C141.42 172.894 141.523 172.792 141.595 172.663C141.669 172.534 141.705 172.387 141.705 172.221V169.474Z" fill="#085E3B"/>
<path d="M144.133 173.826H143.147L144.649 169.474H145.835L147.335 173.826H146.349L145.259 170.468H145.225L144.133 173.826ZM144.071 172.115H146.4V172.833H144.071V172.115Z" fill="#085E3B"/>
<path d="M149.402 173.826H147.859V169.474H149.415C149.853 169.474 150.23 169.561 150.545 169.735C150.861 169.908 151.104 170.156 151.274 170.481C151.446 170.805 151.531 171.193 151.531 171.645C151.531 172.099 151.446 172.488 151.274 172.814C151.104 173.14 150.86 173.39 150.541 173.564C150.224 173.739 149.844 173.826 149.402 173.826ZM148.779 173.037H149.364C149.636 173.037 149.865 172.989 150.05 172.893C150.237 172.795 150.378 172.644 150.471 172.44C150.566 172.235 150.613 171.97 150.613 171.645C150.613 171.324 150.566 171.061 150.471 170.857C150.378 170.653 150.238 170.503 150.052 170.406C149.867 170.31 149.638 170.262 149.366 170.262H148.779V173.037Z" fill="#085E3B"/>
<path d="M152.213 173.826V169.474H153.93C154.259 169.474 154.539 169.532 154.772 169.65C155.006 169.766 155.183 169.931 155.305 170.145C155.428 170.358 155.49 170.608 155.49 170.895C155.49 171.184 155.428 171.433 155.303 171.641C155.178 171.848 154.998 172.007 154.761 172.117C154.526 172.228 154.241 172.283 153.907 172.283H152.757V171.543H153.758C153.934 171.543 154.08 171.519 154.196 171.471C154.312 171.423 154.398 171.351 154.455 171.254C154.513 171.158 154.542 171.038 154.542 170.895C154.542 170.751 154.513 170.629 154.455 170.53C154.398 170.431 154.311 170.355 154.194 170.304C154.078 170.252 153.931 170.226 153.754 170.226H153.133V173.826H152.213ZM154.564 171.845L155.645 173.826H154.629L153.571 171.845H154.564Z" fill="#085E3B"/>
<path d="M156.891 173.826H155.904L157.407 169.474H158.593L160.093 173.826H159.107L158.017 170.468H157.983L156.891 173.826ZM156.829 172.115H159.158V172.833H156.829V172.115Z" fill="#085E3B"/>
<path d="M163.683 173.921C163.317 173.92 163.003 173.83 162.739 173.652C162.477 173.473 162.275 173.214 162.134 172.876C161.993 172.537 161.924 172.13 161.925 171.654C161.925 171.179 161.996 170.775 162.136 170.44C162.278 170.106 162.479 169.852 162.742 169.678C163.005 169.502 163.319 169.414 163.683 169.414C164.047 169.414 164.36 169.502 164.622 169.678C164.886 169.853 165.088 170.108 165.23 170.443C165.372 170.776 165.442 171.179 165.44 171.654C165.44 172.131 165.37 172.539 165.228 172.878C165.088 173.217 164.886 173.475 164.624 173.654C164.362 173.832 164.048 173.921 163.683 173.921ZM163.683 173.159C163.932 173.159 164.131 173.033 164.28 172.782C164.429 172.532 164.503 172.155 164.501 171.654C164.501 171.324 164.467 171.049 164.399 170.829C164.333 170.61 164.238 170.445 164.114 170.334C163.992 170.224 163.849 170.168 163.683 170.168C163.435 170.168 163.237 170.292 163.088 170.54C162.939 170.788 162.864 171.159 162.863 171.654C162.863 171.988 162.896 172.267 162.963 172.491C163.031 172.714 163.126 172.881 163.249 172.993C163.373 173.103 163.517 173.159 163.683 173.159Z" fill="#085E3B"/>
<path d="M166.097 173.826V173.163L167.646 171.728C167.778 171.601 167.888 171.486 167.977 171.384C168.068 171.282 168.137 171.182 168.183 171.084C168.23 170.985 168.254 170.878 168.254 170.764C168.254 170.636 168.225 170.526 168.166 170.434C168.108 170.341 168.029 170.269 167.928 170.219C167.828 170.168 167.714 170.143 167.586 170.143C167.453 170.143 167.337 170.17 167.238 170.224C167.139 170.278 167.062 170.355 167.008 170.455C166.954 170.556 166.927 170.676 166.927 170.815H166.054C166.054 170.53 166.119 170.283 166.247 170.073C166.376 169.863 166.557 169.701 166.789 169.586C167.022 169.471 167.289 169.414 167.593 169.414C167.904 169.414 168.176 169.469 168.407 169.58C168.639 169.689 168.82 169.841 168.948 170.035C169.077 170.229 169.142 170.451 169.142 170.702C169.142 170.866 169.109 171.028 169.044 171.189C168.98 171.349 168.866 171.526 168.702 171.722C168.538 171.916 168.306 172.149 168.007 172.421L167.372 173.044V173.074H169.199V173.826H166.097Z" fill="#085E3B"/>
<path d="M230.058 172.313H230.84L231.233 172.819L231.62 173.269L232.349 174.183H231.491L230.989 173.567L230.732 173.201L230.058 172.313ZM232.415 171.65C232.415 172.124 232.325 172.528 232.145 172.861C231.967 173.194 231.723 173.448 231.414 173.624C231.107 173.798 230.761 173.885 230.377 173.885C229.99 173.885 229.643 173.797 229.336 173.622C229.028 173.446 228.785 173.192 228.607 172.859C228.428 172.526 228.339 172.123 228.339 171.65C228.339 171.175 228.428 170.771 228.607 170.438C228.785 170.105 229.028 169.852 229.336 169.678C229.643 169.502 229.99 169.414 230.377 169.414C230.761 169.414 231.107 169.502 231.414 169.678C231.723 169.852 231.967 170.105 232.145 170.438C232.325 170.771 232.415 171.175 232.415 171.65ZM231.482 171.65C231.482 171.342 231.436 171.083 231.344 170.872C231.253 170.661 231.125 170.501 230.959 170.392C230.794 170.283 230.599 170.228 230.377 170.228C230.155 170.228 229.96 170.283 229.795 170.392C229.629 170.501 229.5 170.661 229.408 170.872C229.317 171.083 229.272 171.342 229.272 171.65C229.272 171.957 229.317 172.216 229.408 172.427C229.5 172.639 229.629 172.799 229.795 172.908C229.96 173.017 230.155 173.071 230.377 173.071C230.599 173.071 230.794 173.017 230.959 172.908C231.125 172.799 231.253 172.639 231.344 172.427C231.436 172.216 231.482 171.957 231.482 171.65Z" fill="#085E3B"/>
<path d="M235.785 169.474H236.705V172.3C236.705 172.617 236.629 172.895 236.478 173.133C236.328 173.371 236.117 173.557 235.847 173.69C235.576 173.822 235.261 173.887 234.901 173.887C234.54 173.887 234.224 173.822 233.953 173.69C233.682 173.557 233.472 173.371 233.322 173.133C233.172 172.895 233.097 172.617 233.097 172.3V169.474H234.017V172.221C234.017 172.387 234.053 172.534 234.125 172.663C234.199 172.792 234.302 172.894 234.435 172.967C234.569 173.041 234.724 173.078 234.901 173.078C235.079 173.078 235.235 173.041 235.366 172.967C235.499 172.894 235.602 172.792 235.674 172.663C235.748 172.534 235.785 172.387 235.785 172.221V169.474Z" fill="#085E3B"/>
<path d="M238.212 173.826H237.226L238.729 169.474H239.915L241.415 173.826H240.429L239.339 170.468H239.305L238.212 173.826ZM238.151 172.115H240.48V172.833H238.151V172.115Z" fill="#085E3B"/>
<path d="M243.482 173.826H241.939V169.474H243.494C243.932 169.474 244.309 169.561 244.625 169.735C244.941 169.908 245.184 170.156 245.354 170.481C245.525 170.805 245.611 171.193 245.611 171.645C245.611 172.099 245.525 172.488 245.354 172.814C245.184 173.14 244.939 173.39 244.621 173.564C244.303 173.739 243.924 173.826 243.482 173.826ZM242.859 173.037H243.443C243.715 173.037 243.944 172.989 244.13 172.893C244.317 172.795 244.457 172.644 244.551 172.44C244.645 172.235 244.693 171.97 244.693 171.645C244.693 171.324 244.645 171.061 244.551 170.857C244.457 170.653 244.317 170.503 244.132 170.406C243.946 170.31 243.717 170.262 243.445 170.262H242.859V173.037Z" fill="#085E3B"/>
<path d="M246.293 173.826V169.474H248.01C248.338 169.474 248.619 169.532 248.851 169.65C249.085 169.766 249.263 169.931 249.385 170.145C249.508 170.358 249.57 170.608 249.57 170.895C249.57 171.184 249.507 171.433 249.383 171.641C249.258 171.848 249.077 172.007 248.841 172.117C248.605 172.228 248.321 172.283 247.986 172.283H246.837V171.543H247.838C248.013 171.543 248.159 171.519 248.275 171.471C248.391 171.423 248.478 171.351 248.535 171.254C248.593 171.158 248.622 171.038 248.622 170.895C248.622 170.751 248.593 170.629 248.535 170.53C248.478 170.431 248.391 170.355 248.273 170.304C248.157 170.252 248.01 170.226 247.833 170.226H247.213V173.826H246.293ZM248.643 171.845L249.725 173.826H248.709L247.651 171.845H248.643Z" fill="#085E3B"/>
<path d="M250.97 173.826H249.984L251.486 169.474H252.672L254.173 173.826H253.186L252.096 170.468H252.062L250.97 173.826ZM250.908 172.115H253.237V172.833H250.908V172.115Z" fill="#085E3B"/>
<path d="M257.762 173.921C257.397 173.92 257.082 173.83 256.819 173.652C256.557 173.473 256.355 173.214 256.213 172.876C256.073 172.537 256.004 172.13 256.005 171.654C256.005 171.179 256.075 170.775 256.215 170.44C256.357 170.106 256.559 169.852 256.821 169.678C257.084 169.502 257.398 169.414 257.762 169.414C258.127 169.414 258.44 169.502 258.702 169.678C258.965 169.853 259.168 170.108 259.309 170.443C259.451 170.776 259.521 171.179 259.52 171.654C259.52 172.131 259.449 172.539 259.307 172.878C259.167 173.217 258.966 173.475 258.704 173.654C258.442 173.832 258.128 173.921 257.762 173.921ZM257.762 173.159C258.012 173.159 258.211 173.033 258.36 172.782C258.508 172.532 258.582 172.155 258.581 171.654C258.581 171.324 258.547 171.049 258.479 170.829C258.412 170.61 258.317 170.445 258.194 170.334C258.072 170.224 257.928 170.168 257.762 170.168C257.514 170.168 257.316 170.292 257.167 170.54C257.019 170.788 256.944 171.159 256.942 171.654C256.942 171.988 256.975 172.267 257.042 172.491C257.11 172.714 257.206 172.881 257.329 172.993C257.452 173.103 257.597 173.159 257.762 173.159Z" fill="#085E3B"/>
<path d="M262.069 169.474V173.826H261.149V170.347H261.124L260.127 170.972V170.156L261.205 169.474H262.069Z" fill="#085E3B"/>
<path d="M62.4865 38.8745V151.116H53.906V38.8745H62.4865Z" stroke="#085E3B" stroke-width="20.1025"/>
<path d="M156.587 84.163V151.116H147.503V84.163H156.587Z" stroke="#085E3B" stroke-width="20.1025"/>
<path d="M250.687 92.2148V151.116H241.603V92.2148H250.687Z" stroke="#085E3B" stroke-width="20.1025"/>
<path d="M38.4366 24.2943V19.1707H40.1679C40.5681 19.1707 40.8967 19.2391 41.1535 19.3759C41.4104 19.511 41.6005 19.6969 41.7239 19.9338C41.8474 20.1706 41.9091 20.4399 41.9091 20.7418C41.9091 21.0437 41.8474 21.3114 41.7239 21.5449C41.6005 21.7784 41.4112 21.9618 41.1561 22.0953C40.9009 22.227 40.5748 22.2929 40.1779 22.2929H38.7769V21.7325H40.1579C40.4314 21.7325 40.6515 21.6925 40.8183 21.6124C40.9868 21.5324 41.1085 21.419 41.1836 21.2722C41.2603 21.1238 41.2987 20.947 41.2987 20.7418C41.2987 20.5367 41.2603 20.3574 41.1836 20.2039C41.1069 20.0505 40.9843 19.9321 40.8158 19.8487C40.6474 19.7636 40.4247 19.7211 40.1478 19.7211H39.0571V24.2943H38.4366ZM40.8483 21.9927L42.1092 24.2943H41.3887L40.1478 21.9927H40.8483Z" fill="#085E3B"/>
<path d="M44.3639 24.9348V18.5303H44.7742V24.9348H44.3639ZM45.7449 20.4516C45.7149 20.1981 45.5931 20.0013 45.3796 19.8612C45.1662 19.7211 44.9043 19.6511 44.5941 19.6511C44.3673 19.6511 44.1688 19.6878 43.9987 19.7611C43.8302 19.8345 43.6985 19.9354 43.6034 20.0638C43.51 20.1923 43.4633 20.3382 43.4633 20.5017C43.4633 20.6384 43.4958 20.756 43.5609 20.8544C43.6276 20.9511 43.7126 21.032 43.816 21.0971C43.9194 21.1604 44.0279 21.213 44.1413 21.2547C44.2547 21.2947 44.3589 21.3272 44.454 21.3523L44.9744 21.4923C45.1078 21.5274 45.2562 21.5757 45.4197 21.6375C45.5848 21.6992 45.7424 21.7834 45.8925 21.8901C46.0443 21.9952 46.1694 22.1303 46.2678 22.2954C46.3662 22.4605 46.4154 22.6632 46.4154 22.9033C46.4154 23.1802 46.3428 23.4304 46.1977 23.6539C46.0543 23.8774 45.8441 24.055 45.5673 24.1867C45.2921 24.3185 44.9577 24.3844 44.5641 24.3844C44.1971 24.3844 43.8794 24.3252 43.6109 24.2068C43.344 24.0883 43.1339 23.9232 42.9805 23.7114C42.8287 23.4996 42.7428 23.2536 42.7228 22.9734H43.3632C43.3799 23.1669 43.4449 23.327 43.5584 23.4537C43.6734 23.5788 43.8185 23.6722 43.9937 23.7339C44.1705 23.794 44.3606 23.824 44.5641 23.824C44.8009 23.824 45.0135 23.7856 45.202 23.7089C45.3905 23.6305 45.5397 23.5221 45.6498 23.3837C45.7599 23.2436 45.8149 23.0801 45.8149 22.8933C45.8149 22.7232 45.7674 22.5848 45.6723 22.478C45.5773 22.3713 45.4522 22.2846 45.2971 22.2179C45.142 22.1511 44.9744 22.0928 44.7942 22.0427L44.1638 21.8626C43.7635 21.7475 43.4466 21.5832 43.2131 21.3698C42.9796 21.1563 42.8629 20.8769 42.8629 20.5317C42.8629 20.2448 42.9404 19.9946 43.0955 19.7812C43.2523 19.566 43.4625 19.3992 43.726 19.2808C43.9912 19.1607 44.2872 19.1007 44.6141 19.1007C44.9443 19.1007 45.2379 19.1599 45.4947 19.2783C45.7516 19.395 45.955 19.5552 46.1051 19.7586C46.2569 19.9621 46.337 20.1931 46.3453 20.4516H45.7449Z" fill="#085E3B"/>
<path d="M51.028 24.3644C50.8178 24.361 50.6077 24.321 50.3975 24.2443C50.1874 24.1676 49.9956 24.0383 49.8221 23.8565C49.6487 23.673 49.5094 23.4254 49.4043 23.1135C49.2993 22.7999 49.2467 22.4063 49.2467 21.9327C49.2467 21.479 49.2893 21.0771 49.3743 20.7268C49.4594 20.3749 49.5828 20.0789 49.7446 19.8387C49.9063 19.5969 50.1015 19.4134 50.33 19.2883C50.5601 19.1632 50.8195 19.1007 51.108 19.1007C51.3949 19.1007 51.6501 19.1582 51.8736 19.2733C52.0987 19.3867 52.2822 19.5452 52.4239 19.7486C52.5657 19.9521 52.6574 20.1864 52.6991 20.4516H52.0887C52.032 20.2215 51.9219 20.0305 51.7585 19.8787C51.595 19.7269 51.3782 19.6511 51.108 19.6511C50.7111 19.6511 50.3984 19.8237 50.1699 20.1689C49.943 20.5142 49.8288 20.9987 49.8271 21.6224H49.8672C49.9606 21.4807 50.0715 21.3598 50.1999 21.2597C50.33 21.1579 50.4734 21.0796 50.6302 21.0245C50.787 20.9695 50.9529 20.942 51.128 20.942C51.4216 20.942 51.6901 21.0153 51.9336 21.1621C52.1771 21.3072 52.3722 21.5082 52.519 21.765C52.6658 22.0202 52.7392 22.3129 52.7392 22.6432C52.7392 22.96 52.6683 23.2502 52.5265 23.5138C52.3848 23.7756 52.1854 23.9841 51.9286 24.1392C51.6734 24.2926 51.3732 24.3677 51.028 24.3644ZM51.028 23.814C51.2381 23.814 51.4266 23.7614 51.5934 23.6564C51.7618 23.5513 51.8944 23.4104 51.9911 23.2336C52.0895 23.0568 52.1387 22.86 52.1387 22.6432C52.1387 22.4313 52.0912 22.2387 51.9961 22.0653C51.9027 21.8901 51.7735 21.7509 51.6084 21.6475C51.4449 21.5441 51.2581 21.4923 51.048 21.4923C50.8895 21.4923 50.7419 21.524 50.6052 21.5874C50.4684 21.6491 50.3483 21.7342 50.2449 21.8426C50.1432 21.951 50.0631 22.0753 50.0048 22.2154C49.9464 22.3538 49.9172 22.4997 49.9172 22.6532C49.9172 22.8566 49.9647 23.0468 50.0598 23.2236C50.1565 23.4004 50.2883 23.543 50.4551 23.6514C50.6235 23.7598 50.8145 23.814 51.028 23.814Z" fill="#085E3B"/>
<path d="M53.9225 24.3343C53.7991 24.3343 53.6932 24.2901 53.6048 24.2017C53.5164 24.1134 53.4722 24.0074 53.4722 23.884C53.4722 23.7606 53.5164 23.6547 53.6048 23.5663C53.6932 23.4779 53.7991 23.4337 53.9225 23.4337C54.0459 23.4337 54.1518 23.4779 54.2402 23.5663C54.3286 23.6547 54.3728 23.7606 54.3728 23.884C54.3728 23.9657 54.352 24.0408 54.3103 24.1092C54.2702 24.1776 54.216 24.2326 54.1477 24.2743C54.0809 24.3143 54.0059 24.3343 53.9225 24.3343Z" fill="#085E3B"/>
<path d="M56.9146 24.3644C56.5377 24.3644 56.2166 24.2618 55.9514 24.0566C55.6862 23.8498 55.4836 23.5505 55.3435 23.1585C55.2034 22.7649 55.1333 22.2896 55.1333 21.7325C55.1333 21.1788 55.2034 20.706 55.3435 20.314C55.4853 19.9204 55.6887 19.6202 55.9539 19.4134C56.2208 19.2049 56.541 19.1007 56.9146 19.1007C57.2882 19.1007 57.6076 19.2049 57.8728 19.4134C58.1396 19.6202 58.3431 19.9204 58.4832 20.314C58.625 20.706 58.6958 21.1788 58.6958 21.7325C58.6958 22.2896 58.6258 22.7649 58.4857 23.1585C58.3456 23.5505 58.143 23.8498 57.8778 24.0566C57.6126 24.2618 57.2915 24.3644 56.9146 24.3644ZM56.9146 23.814C57.2882 23.814 57.5784 23.6339 57.7852 23.2736C57.992 22.9133 58.0954 22.3997 58.0954 21.7325C58.0954 21.2889 58.0479 20.9111 57.9528 20.5992C57.8594 20.2873 57.7243 20.0497 57.5475 19.8862C57.3724 19.7228 57.1614 19.6411 56.9146 19.6411C56.5443 19.6411 56.255 19.8237 56.0465 20.1889C55.838 20.5525 55.7338 21.0671 55.7338 21.7325C55.7338 22.1762 55.7805 22.5531 55.8739 22.8633C55.9673 23.1735 56.1015 23.4095 56.2766 23.5713C56.4534 23.7331 56.6661 23.814 56.9146 23.814Z" fill="#085E3B"/>
<path d="M61.3177 24.3644C60.9407 24.3644 60.6197 24.2618 60.3545 24.0566C60.0893 23.8498 59.8867 23.5505 59.7466 23.1585C59.6065 22.7649 59.5364 22.2896 59.5364 21.7325C59.5364 21.1788 59.6065 20.706 59.7466 20.314C59.8883 19.9204 60.0918 19.6202 60.357 19.4134C60.6239 19.2049 60.9441 19.1007 61.3177 19.1007C61.6913 19.1007 62.0107 19.2049 62.2759 19.4134C62.5427 19.6202 62.7462 19.9204 62.8863 20.314C63.028 20.706 63.0989 21.1788 63.0989 21.7325C63.0989 22.2896 63.0289 22.7649 62.8888 23.1585C62.7487 23.5505 62.546 23.8498 62.2809 24.0566C62.0157 24.2618 61.6946 24.3644 61.3177 24.3644ZM61.3177 23.814C61.6913 23.814 61.9815 23.6339 62.1883 23.2736C62.3951 22.9133 62.4985 22.3997 62.4985 21.7325C62.4985 21.2889 62.451 20.9111 62.3559 20.5992C62.2625 20.2873 62.1274 20.0497 61.9506 19.8862C61.7755 19.7228 61.5645 19.6411 61.3177 19.6411C60.9474 19.6411 60.6581 19.8237 60.4496 20.1889C60.2411 20.5525 60.1369 21.0671 60.1369 21.7325C60.1369 22.1762 60.1836 22.5531 60.2769 22.8633C60.3703 23.1735 60.5046 23.4095 60.6797 23.5713C60.8565 23.7331 61.0692 23.814 61.3177 23.814Z" fill="#085E3B"/>
<path d="M65.6507 24.3644C65.3572 24.3644 65.0928 24.306 64.8577 24.1892C64.6225 24.0725 64.434 23.9124 64.2923 23.7089C64.1505 23.5054 64.0729 23.2736 64.0596 23.0134H64.66C64.6834 23.2452 64.7884 23.437 64.9752 23.5888C65.1637 23.7389 65.3889 23.814 65.6507 23.814C65.8609 23.814 66.0477 23.7648 66.2111 23.6664C66.3762 23.568 66.5055 23.4329 66.5989 23.2611C66.6939 23.0876 66.7415 22.8917 66.7415 22.6732C66.7415 22.4497 66.6923 22.2504 66.5939 22.0753C66.4971 21.8985 66.3637 21.7592 66.1936 21.6575C66.0235 21.5557 65.8292 21.504 65.6107 21.5024C65.4539 21.5007 65.293 21.5249 65.1278 21.5749C64.9627 21.6233 64.8268 21.6858 64.7201 21.7625L64.1397 21.6925L64.4499 19.1707H67.1117V19.7211H64.9702L64.7901 21.2322H64.8201C64.9252 21.1488 65.057 21.0796 65.2154 21.0245C65.3739 20.9695 65.539 20.942 65.7108 20.942C66.0243 20.942 66.3037 21.017 66.5488 21.1671C66.7957 21.3156 66.9892 21.519 67.1293 21.7775C67.271 22.0361 67.3419 22.3313 67.3419 22.6632C67.3419 22.9901 67.2685 23.2819 67.1217 23.5388C66.9766 23.794 66.7765 23.9958 66.5213 24.1442C66.2661 24.291 65.9759 24.3644 65.6507 24.3644Z" fill="#085E3B"/>
<path d="M69.0337 23.5938L68.9937 23.864C68.9653 24.0541 68.922 24.2576 68.8636 24.4744C68.8069 24.6913 68.7477 24.8956 68.686 25.0874C68.6243 25.2792 68.5734 25.4318 68.5334 25.5452H68.083C68.1047 25.4384 68.1331 25.2975 68.1681 25.1224C68.2031 24.9473 68.2382 24.7513 68.2732 24.5345C68.3099 24.3193 68.3399 24.0992 68.3632 23.874L68.3933 23.5938H69.0337Z" fill="#085E3B"/>
<path d="M71.6099 24.3644C71.233 24.3644 70.9119 24.2618 70.6467 24.0566C70.3815 23.8498 70.1789 23.5505 70.0388 23.1585C69.8987 22.7649 69.8286 22.2896 69.8286 21.7325C69.8286 21.1788 69.8987 20.706 70.0388 20.314C70.1806 19.9204 70.384 19.6202 70.6492 19.4134C70.9161 19.2049 71.2363 19.1007 71.6099 19.1007C71.9835 19.1007 72.3029 19.2049 72.5681 19.4134C72.8349 19.6202 73.0384 19.9204 73.1785 20.314C73.3203 20.706 73.3911 21.1788 73.3911 21.7325C73.3911 22.2896 73.3211 22.7649 73.181 23.1585C73.0409 23.5505 72.8383 23.8498 72.5731 24.0566C72.3079 24.2618 71.9868 24.3644 71.6099 24.3644ZM71.6099 23.814C71.9835 23.814 72.2737 23.6339 72.4805 23.2736C72.6873 22.9133 72.7907 22.3997 72.7907 21.7325C72.7907 21.2889 72.7432 20.9111 72.6481 20.5992C72.5547 20.2873 72.4196 20.0497 72.2428 19.8862C72.0677 19.7228 71.8567 19.6411 71.6099 19.6411C71.2396 19.6411 70.9503 19.8237 70.7418 20.1889C70.5333 20.5525 70.4291 21.0671 70.4291 21.7325C70.4291 22.1762 70.4758 22.5531 70.5692 22.8633C70.6626 23.1735 70.7968 23.4095 70.9719 23.5713C71.1487 23.7331 71.3614 23.814 71.6099 23.814Z" fill="#085E3B"/>
<path d="M76.013 24.3644C75.636 24.3644 75.315 24.2618 75.0498 24.0566C74.7846 23.8498 74.582 23.5505 74.4419 23.1585C74.3018 22.7649 74.2317 22.2896 74.2317 21.7325C74.2317 21.1788 74.3018 20.706 74.4419 20.314C74.5836 19.9204 74.7871 19.6202 75.0523 19.4134C75.3192 19.2049 75.6394 19.1007 76.013 19.1007C76.3866 19.1007 76.706 19.2049 76.9711 19.4134C77.238 19.6202 77.4415 19.9204 77.5816 20.314C77.7233 20.706 77.7942 21.1788 77.7942 21.7325C77.7942 22.2896 77.7242 22.7649 77.5841 23.1585C77.444 23.5505 77.2413 23.8498 76.9762 24.0566C76.711 24.2618 76.3899 24.3644 76.013 24.3644ZM76.013 23.814C76.3866 23.814 76.6768 23.6339 76.8836 23.2736C77.0904 22.9133 77.1938 22.3997 77.1938 21.7325C77.1938 21.2889 77.1463 20.9111 77.0512 20.5992C76.9578 20.2873 76.8227 20.0497 76.6459 19.8862C76.4708 19.7228 76.2598 19.6411 76.013 19.6411C75.6427 19.6411 75.3533 19.8237 75.1449 20.1889C74.9364 20.5525 74.8322 21.0671 74.8322 21.7325C74.8322 22.1762 74.8788 22.5531 74.9722 22.8633C75.0656 23.1735 75.1999 23.4095 75.375 23.5713C75.5518 23.7331 75.7645 23.814 76.013 23.814Z" fill="#085E3B"/>
<path d="M132.034 69.5832V64.4596H133.765C134.165 64.4596 134.494 64.528 134.751 64.6647C135.007 64.7998 135.198 64.9858 135.321 65.2226C135.444 65.4595 135.506 65.7288 135.506 66.0307C135.506 66.3326 135.444 66.6003 135.321 66.8338C135.198 67.0673 135.008 67.2507 134.753 67.3841C134.498 67.5159 134.172 67.5818 133.775 67.5818H132.374V67.0214H133.755C134.028 67.0214 134.249 66.9814 134.415 66.9013C134.584 66.8213 134.706 66.7078 134.781 66.5611C134.857 66.4126 134.896 66.2358 134.896 66.0307C134.896 65.8256 134.857 65.6463 134.781 65.4928C134.704 65.3394 134.581 65.221 134.413 65.1376C134.244 65.0525 134.022 65.01 133.745 65.01H132.654V69.5832H132.034ZM134.445 67.2816L135.706 69.5832H134.986L133.745 67.2816H134.445Z" fill="#085E3B"/>
<path d="M137.961 70.2236V63.8191H138.371V70.2236H137.961ZM139.342 65.7405C139.312 65.487 139.19 65.2902 138.977 65.1501C138.763 65.01 138.501 64.9399 138.191 64.9399C137.964 64.9399 137.766 64.9766 137.596 65.05C137.427 65.1234 137.295 65.2243 137.2 65.3527C137.107 65.4811 137.06 65.6271 137.06 65.7905C137.06 65.9273 137.093 66.0449 137.158 66.1433C137.225 66.24 137.31 66.3209 137.413 66.3859C137.516 66.4493 137.625 66.5019 137.738 66.5436C137.852 66.5836 137.956 66.6161 138.051 66.6411L138.571 66.7812C138.705 66.8162 138.853 66.8646 139.017 66.9263C139.182 66.988 139.339 67.0723 139.49 67.179C139.641 67.2841 139.766 67.4192 139.865 67.5843C139.963 67.7494 140.012 67.952 140.012 68.1922C140.012 68.4691 139.94 68.7192 139.795 68.9427C139.651 69.1662 139.441 69.3439 139.164 69.4756C138.889 69.6074 138.555 69.6732 138.161 69.6732C137.794 69.6732 137.476 69.614 137.208 69.4956C136.941 69.3772 136.731 69.2121 136.577 69.0003C136.426 68.7885 136.34 68.5425 136.32 68.2623H136.96C136.977 68.4557 137.042 68.6158 137.155 68.7426C137.27 68.8677 137.416 68.9611 137.591 69.0228C137.767 69.0828 137.958 69.1129 138.161 69.1129C138.398 69.1129 138.611 69.0745 138.799 68.9978C138.987 68.9194 139.137 68.811 139.247 68.6725C139.357 68.5325 139.412 68.369 139.412 68.1822C139.412 68.0121 139.364 67.8737 139.269 67.7669C139.174 67.6602 139.049 67.5734 138.894 67.5067C138.739 67.44 138.571 67.3816 138.391 67.3316L137.761 67.1515C137.361 67.0364 137.044 66.8721 136.81 66.6586C136.577 66.4452 136.46 66.1658 136.46 65.8205C136.46 65.5337 136.537 65.2835 136.693 65.07C136.849 64.8549 137.059 64.6881 137.323 64.5697C137.588 64.4496 137.884 64.3895 138.211 64.3895C138.541 64.3895 138.835 64.4488 139.092 64.5672C139.349 64.6839 139.552 64.844 139.702 65.0475C139.854 65.251 139.934 65.482 139.942 65.7405H139.342Z" fill="#085E3B"/>
<path d="M144.525 69.6532C144.231 69.6532 143.967 69.5949 143.732 69.4781C143.497 69.3614 143.308 69.2013 143.166 68.9978C143.025 68.7943 142.947 68.5625 142.934 68.3023H143.534C143.558 68.5341 143.663 68.7259 143.849 68.8777C144.038 69.0278 144.263 69.1028 144.525 69.1028C144.735 69.1028 144.922 69.0537 145.085 68.9552C145.25 68.8568 145.38 68.7218 145.473 68.55C145.568 68.3765 145.616 68.1805 145.616 67.9621C145.616 67.7386 145.566 67.5393 145.468 67.3641C145.371 67.1873 145.238 67.0481 145.068 66.9463C144.898 66.8446 144.703 66.7929 144.485 66.7912C144.328 66.7896 144.167 66.8137 144.002 66.8638C143.837 66.9121 143.701 66.9747 143.594 67.0514L143.014 66.9814L143.324 64.4596H145.986V65.01H143.844L143.664 66.521H143.694C143.799 66.4376 143.931 66.3684 144.09 66.3134C144.248 66.2584 144.413 66.2308 144.585 66.2308C144.898 66.2308 145.178 66.3059 145.423 66.456C145.67 66.6044 145.863 66.8079 146.003 67.0664C146.145 67.3249 146.216 67.6201 146.216 67.952C146.216 68.2789 146.143 68.5708 145.996 68.8277C145.851 69.0828 145.651 69.2846 145.396 69.4331C145.14 69.5799 144.85 69.6532 144.525 69.6532Z" fill="#085E3B"/>
<path d="M147.458 69.6232C147.334 69.6232 147.228 69.579 147.14 69.4906C147.051 69.4022 147.007 69.2963 147.007 69.1729C147.007 69.0495 147.051 68.9436 147.14 68.8552C147.228 68.7668 147.334 68.7226 147.458 68.7226C147.581 68.7226 147.687 68.7668 147.775 68.8552C147.864 68.9436 147.908 69.0495 147.908 69.1729C147.908 69.2546 147.887 69.3297 147.845 69.3981C147.805 69.4664 147.751 69.5215 147.683 69.5632C147.616 69.6032 147.541 69.6232 147.458 69.6232Z" fill="#085E3B"/>
<path d="M150.496 69.6532C150.166 69.6532 149.871 69.5965 149.613 69.4831C149.356 69.3697 149.152 69.2121 149 69.0103C148.85 68.8068 148.768 68.5708 148.755 68.3023H149.385C149.399 68.4674 149.455 68.61 149.555 68.7301C149.655 68.8485 149.786 68.9402 149.948 69.0053C150.11 69.0703 150.289 69.1028 150.486 69.1028C150.706 69.1028 150.901 69.0645 151.071 68.9878C151.241 68.911 151.375 68.8043 151.472 68.6675C151.568 68.5308 151.617 68.3723 151.617 68.1922C151.617 68.0037 151.57 67.8378 151.477 67.6944C151.383 67.5493 151.246 67.4358 151.066 67.3541C150.886 67.2724 150.666 67.2315 150.406 67.2315H149.996V66.6812H150.406C150.609 66.6812 150.788 66.6445 150.941 66.5711C151.096 66.4977 151.217 66.3943 151.304 66.2609C151.392 66.1274 151.437 65.9707 151.437 65.7905C151.437 65.6171 151.398 65.4661 151.322 65.3377C151.245 65.2093 151.136 65.1092 150.996 65.0375C150.858 64.9658 150.694 64.9299 150.506 64.9299C150.329 64.9299 150.162 64.9624 150.006 65.0275C149.851 65.0909 149.724 65.1834 149.625 65.3052C149.527 65.4253 149.474 65.5704 149.465 65.7405H148.865C148.875 65.472 148.956 65.2368 149.107 65.035C149.259 64.8315 149.458 64.6731 149.703 64.5597C149.95 64.4463 150.221 64.3895 150.516 64.3895C150.833 64.3895 151.105 64.4538 151.332 64.5822C151.558 64.7089 151.733 64.8766 151.854 65.085C151.976 65.2935 152.037 65.5187 152.037 65.7605C152.037 66.049 151.961 66.2951 151.809 66.4985C151.659 66.702 151.455 66.8429 151.196 66.9213V66.9613C151.52 67.0147 151.773 67.1523 151.954 67.3741C152.136 67.5943 152.227 67.867 152.227 68.1922C152.227 68.4707 152.151 68.7209 152 68.9427C151.849 69.1629 151.644 69.3363 151.384 69.4631C151.124 69.5899 150.828 69.6532 150.496 69.6532Z" fill="#085E3B"/>
<path d="M153.13 68.5325V68.0221L155.382 64.4596H155.752V65.2501H155.502L153.801 67.942V67.9821H156.833V68.5325H153.13ZM155.542 69.5832V64.4596H156.132V69.5832H155.542Z" fill="#085E3B"/>
<path d="M159.442 69.6532C159.065 69.6532 158.744 69.5507 158.478 69.3455C158.213 69.1387 158.011 68.8393 157.871 68.4474C157.73 68.0538 157.66 67.5784 157.66 67.0214C157.66 66.4677 157.73 65.9948 157.871 65.6029C158.012 65.2093 158.216 64.9091 158.481 64.7023C158.748 64.4938 159.068 64.3895 159.442 64.3895C159.815 64.3895 160.135 64.4938 160.4 64.7023C160.667 64.9091 160.87 65.2093 161.01 65.6029C161.152 65.9948 161.223 66.4677 161.223 67.0214C161.223 67.5784 161.153 68.0538 161.013 68.4474C160.873 68.8393 160.67 69.1387 160.405 69.3455C160.14 69.5507 159.819 69.6532 159.442 69.6532ZM159.442 69.1028C159.815 69.1028 160.105 68.9227 160.312 68.5625C160.519 68.2022 160.622 67.6885 160.622 67.0214C160.622 66.5777 160.575 66.2 160.48 65.8881C160.386 65.5762 160.251 65.3385 160.075 65.1751C159.899 65.0116 159.688 64.9299 159.442 64.9299C159.071 64.9299 158.782 65.1126 158.573 65.4778C158.365 65.8414 158.261 66.3559 158.261 67.0214C158.261 67.465 158.307 67.842 158.401 68.1522C158.494 68.4624 158.629 68.6984 158.804 68.8602C158.98 69.022 159.193 69.1028 159.442 69.1028Z" fill="#085E3B"/>
<path d="M162.885 68.8827L162.845 69.1529C162.817 69.343 162.774 69.5465 162.715 69.7633C162.658 69.9801 162.599 70.1844 162.538 70.3762C162.476 70.568 162.425 70.7207 162.385 70.8341H161.935C161.956 70.7273 161.985 70.5864 162.02 70.4113C162.055 70.2361 162.09 70.0402 162.125 69.8234C162.161 69.6082 162.191 69.388 162.215 69.1629L162.245 68.8827H162.885Z" fill="#085E3B"/>
<path d="M165.461 69.6532C165.085 69.6532 164.763 69.5507 164.498 69.3455C164.233 69.1387 164.03 68.8393 163.89 68.4474C163.75 68.0538 163.68 67.5784 163.68 67.0214C163.68 66.4677 163.75 65.9948 163.89 65.6029C164.032 65.2093 164.236 64.9091 164.501 64.7023C164.768 64.4938 165.088 64.3895 165.461 64.3895C165.835 64.3895 166.154 64.4938 166.42 64.7023C166.686 64.9091 166.89 65.2093 167.03 65.6029C167.172 65.9948 167.243 66.4677 167.243 67.0214C167.243 67.5784 167.173 68.0538 167.033 68.4474C166.892 68.8393 166.69 69.1387 166.425 69.3455C166.159 69.5507 165.838 69.6532 165.461 69.6532ZM165.461 69.1028C165.835 69.1028 166.125 68.9227 166.332 68.5625C166.539 68.2022 166.642 67.6885 166.642 67.0214C166.642 66.5777 166.595 66.2 166.5 65.8881C166.406 65.5762 166.271 65.3385 166.094 65.1751C165.919 65.0116 165.708 64.9299 165.461 64.9299C165.091 64.9299 164.802 65.1126 164.593 65.4778C164.385 65.8414 164.281 66.3559 164.281 67.0214C164.281 67.465 164.327 67.842 164.421 68.1522C164.514 68.4624 164.648 68.6984 164.824 68.8602C165 69.022 165.213 69.1028 165.461 69.1028Z" fill="#085E3B"/>
<path d="M169.865 69.6532C169.488 69.6532 169.167 69.5507 168.901 69.3455C168.636 69.1387 168.434 68.8393 168.293 68.4474C168.153 68.0538 168.083 67.5784 168.083 67.0214C168.083 66.4677 168.153 65.9948 168.293 65.6029C168.435 65.2093 168.639 64.9091 168.904 64.7023C169.171 64.4938 169.491 64.3895 169.865 64.3895C170.238 64.3895 170.558 64.4938 170.823 64.7023C171.09 64.9091 171.293 65.2093 171.433 65.6029C171.575 65.9948 171.646 66.4677 171.646 67.0214C171.646 67.5784 171.576 68.0538 171.436 68.4474C171.296 68.8393 171.093 69.1387 170.828 69.3455C170.563 69.5507 170.241 69.6532 169.865 69.6532ZM169.865 69.1028C170.238 69.1028 170.528 68.9227 170.735 68.5625C170.942 68.2022 171.045 67.6885 171.045 67.0214C171.045 66.5777 170.998 66.2 170.903 65.8881C170.809 65.5762 170.674 65.3385 170.497 65.1751C170.322 65.0116 170.111 64.9299 169.865 64.9299C169.494 64.9299 169.205 65.1126 168.996 65.4778C168.788 65.8414 168.684 66.3559 168.684 67.0214C168.684 67.465 168.73 67.842 168.824 68.1522C168.917 68.4624 169.051 68.6984 169.227 68.8602C169.403 69.022 169.616 69.1028 169.865 69.1028Z" fill="#085E3B"/>
<path d="M226.134 78.1378V73.0142H227.865C228.265 73.0142 228.594 73.0825 228.851 73.2193C229.108 73.3544 229.298 73.5404 229.421 73.7772C229.545 74.014 229.606 74.2834 229.606 74.5853C229.606 74.8871 229.545 75.1548 229.421 75.3883C229.298 75.6218 229.108 75.8053 228.853 75.9387C228.598 76.0705 228.272 76.1363 227.875 76.1363H226.474V75.576H227.855C228.129 75.576 228.349 75.5359 228.516 75.4559C228.684 75.3758 228.806 75.2624 228.881 75.1156C228.958 74.9672 228.996 74.7904 228.996 74.5853C228.996 74.3801 228.958 74.2008 228.881 74.0474C228.804 73.8939 228.681 73.7755 228.513 73.6921C228.345 73.6071 228.122 73.5645 227.845 73.5645H226.754V78.1378H226.134ZM228.546 75.8361L229.806 78.1378H229.086L227.845 75.8361H228.546Z" fill="#085E3B"/>
<path d="M232.061 78.7782V72.3737H232.471V78.7782H232.061ZM233.442 74.2951C233.412 74.0415 233.29 73.8447 233.077 73.7046C232.863 73.5645 232.602 73.4945 232.291 73.4945C232.064 73.4945 231.866 73.5312 231.696 73.6046C231.527 73.678 231.396 73.7789 231.301 73.9073C231.207 74.0357 231.161 74.1816 231.161 74.3451C231.161 74.4819 231.193 74.5994 231.258 74.6978C231.325 74.7946 231.41 74.8755 231.513 74.9405C231.617 75.0039 231.725 75.0564 231.838 75.0981C231.952 75.1381 232.056 75.1707 232.151 75.1957L232.672 75.3358C232.805 75.3708 232.953 75.4192 233.117 75.4809C233.282 75.5426 233.44 75.6268 233.59 75.7336C233.741 75.8386 233.867 75.9737 233.965 76.1389C234.063 76.304 234.113 76.5066 234.113 76.7468C234.113 77.0236 234.04 77.2738 233.895 77.4973C233.752 77.7208 233.541 77.8984 233.264 78.0302C232.989 78.1619 232.655 78.2278 232.261 78.2278C231.894 78.2278 231.577 78.1686 231.308 78.0502C231.041 77.9318 230.831 77.7667 230.678 77.5548C230.526 77.343 230.44 77.097 230.42 76.8168H231.06C231.077 77.0103 231.142 77.1704 231.256 77.2972C231.371 77.4223 231.516 77.5156 231.691 77.5774C231.868 77.6374 232.058 77.6674 232.261 77.6674C232.498 77.6674 232.711 77.6291 232.899 77.5523C233.088 77.474 233.237 77.3655 233.347 77.2271C233.457 77.087 233.512 76.9236 233.512 76.7368C233.512 76.5667 233.465 76.4282 233.37 76.3215C233.274 76.2147 233.149 76.128 232.994 76.0613C232.839 75.9946 232.672 75.9362 232.491 75.8862L231.861 75.706C231.461 75.591 231.144 75.4267 230.91 75.2132C230.677 74.9997 230.56 74.7204 230.56 74.3751C230.56 74.0882 230.638 73.8381 230.793 73.6246C230.95 73.4094 231.16 73.2427 231.423 73.1242C231.688 73.0042 231.984 72.9441 232.311 72.9441C232.642 72.9441 232.935 73.0033 233.192 73.1217C233.449 73.2385 233.652 73.3986 233.802 73.6021C233.954 73.8056 234.034 74.0365 234.043 74.2951H233.442Z" fill="#085E3B"/>
<path d="M238.625 78.2078C238.332 78.2078 238.067 78.1494 237.832 78.0327C237.597 77.9159 237.408 77.7558 237.267 77.5523C237.125 77.3489 237.047 77.117 237.034 76.8569H237.634C237.658 77.0887 237.763 77.2805 237.95 77.4323C238.138 77.5824 238.363 77.6574 238.625 77.6574C238.835 77.6574 239.022 77.6082 239.186 77.5098C239.351 77.4114 239.48 77.2763 239.573 77.1045C239.668 76.9311 239.716 76.7351 239.716 76.5166C239.716 76.2931 239.667 76.0938 239.568 75.9187C239.472 75.7419 239.338 75.6026 239.168 75.5009C238.998 75.3992 238.804 75.3475 238.585 75.3458C238.428 75.3441 238.267 75.3683 238.102 75.4183C237.937 75.4667 237.801 75.5293 237.694 75.606L237.114 75.5359L237.424 73.0142H240.086V73.5645H237.945L237.765 75.0756H237.795C237.9 74.9922 238.031 74.923 238.19 74.868C238.348 74.8129 238.513 74.7854 238.685 74.7854C238.999 74.7854 239.278 74.8605 239.523 75.0106C239.77 75.159 239.964 75.3625 240.104 75.621C240.245 75.8795 240.316 76.1747 240.316 76.5066C240.316 76.8335 240.243 77.1254 240.096 77.3822C239.951 77.6374 239.751 77.8392 239.496 77.9876C239.241 78.1344 238.95 78.2078 238.625 78.2078Z" fill="#085E3B"/>
<path d="M241.558 78.1778C241.434 78.1778 241.328 78.1336 241.24 78.0452C241.152 77.9568 241.107 77.8509 241.107 77.7275C241.107 77.604 241.152 77.4981 241.24 77.4097C241.328 77.3213 241.434 77.2771 241.558 77.2771C241.681 77.2771 241.787 77.3213 241.876 77.4097C241.964 77.4981 242.008 77.604 242.008 77.7275C242.008 77.8092 241.987 77.8842 241.946 77.9526C241.906 78.021 241.851 78.076 241.783 78.1177C241.716 78.1578 241.641 78.1778 241.558 78.1778Z" fill="#085E3B"/>
<path d="M244.55 78.2078C244.173 78.2078 243.852 78.1052 243.587 77.9001C243.322 77.6933 243.119 77.3939 242.979 77.002C242.839 76.6083 242.769 76.133 242.769 75.576C242.769 75.0222 242.839 74.5494 242.979 74.1575C243.121 73.7639 243.324 73.4636 243.589 73.2568C243.856 73.0484 244.176 72.9441 244.55 72.9441C244.923 72.9441 245.243 73.0484 245.508 73.2568C245.775 73.4636 245.978 73.7639 246.119 74.1575C246.26 74.5494 246.331 75.0222 246.331 75.576C246.331 76.133 246.261 76.6083 246.121 77.002C245.981 77.3939 245.778 77.6933 245.513 77.9001C245.248 78.1052 244.927 78.2078 244.55 78.2078ZM244.55 77.6574C244.923 77.6574 245.214 77.4773 245.421 77.117C245.627 76.7568 245.731 76.2431 245.731 75.576C245.731 75.1323 245.683 74.7545 245.588 74.4427C245.495 74.1308 245.36 73.8931 245.183 73.7297C245.008 73.5662 244.797 73.4845 244.55 73.4845C244.18 73.4845 243.89 73.6671 243.682 74.0324C243.473 74.396 243.369 74.9105 243.369 75.576C243.369 76.0196 243.416 76.3965 243.509 76.7067C243.603 77.017 243.737 77.253 243.912 77.4147C244.089 77.5765 244.301 77.6574 244.55 77.6574Z" fill="#085E3B"/>
<path d="M247.282 78.1378V77.6874L248.973 75.8361C249.171 75.6193 249.335 75.4309 249.463 75.2707C249.592 75.109 249.687 74.9572 249.749 74.8154C249.812 74.672 249.844 74.5219 249.844 74.3651C249.844 74.185 249.8 74.029 249.714 73.8973C249.628 73.7655 249.512 73.6638 249.363 73.5921C249.215 73.5203 249.048 73.4845 248.863 73.4845C248.666 73.4845 248.494 73.5254 248.348 73.6071C248.202 73.6871 248.09 73.7997 248.01 73.9448C247.931 74.0899 247.892 74.26 247.892 74.4552H247.302C247.302 74.155 247.371 73.8914 247.509 73.6646C247.648 73.4378 247.836 73.261 248.075 73.1342C248.315 73.0075 248.584 72.9441 248.883 72.9441C249.183 72.9441 249.449 73.0075 249.681 73.1342C249.913 73.261 250.095 73.432 250.226 73.6471C250.358 73.8623 250.424 74.1016 250.424 74.3651C250.424 74.5536 250.39 74.7379 250.321 74.918C250.255 75.0965 250.138 75.2958 249.971 75.5159C249.806 75.7344 249.577 76.0013 249.283 76.3165L248.132 77.5473V77.5874H250.514V78.1378H247.282Z" fill="#085E3B"/>
<path d="M253.218 78.2078C252.842 78.2078 252.52 78.1052 252.255 77.9001C251.99 77.6933 251.787 77.3939 251.647 77.002C251.507 76.6083 251.437 76.133 251.437 75.576C251.437 75.0222 251.507 74.5494 251.647 74.1575C251.789 73.7639 251.993 73.4636 252.258 73.2568C252.525 73.0484 252.845 72.9441 253.218 72.9441C253.592 72.9441 253.911 73.0484 254.177 73.2568C254.443 73.4636 254.647 73.7639 254.787 74.1575C254.929 74.5494 255 75.0222 255 75.576C255 76.133 254.93 76.6083 254.79 77.002C254.649 77.3939 254.447 77.6933 254.182 77.9001C253.916 78.1052 253.595 78.2078 253.218 78.2078ZM253.218 77.6574C253.592 77.6574 253.882 77.4773 254.089 77.117C254.296 76.7568 254.399 76.2431 254.399 75.576C254.399 75.1323 254.352 74.7545 254.257 74.4427C254.163 74.1308 254.028 73.8931 253.851 73.7297C253.676 73.5662 253.465 73.4845 253.218 73.4845C252.848 73.4845 252.559 73.6671 252.35 74.0324C252.142 74.396 252.038 74.9105 252.038 75.576C252.038 76.0196 252.084 76.3965 252.178 76.7067C252.271 77.017 252.405 77.253 252.581 77.4147C252.757 77.5765 252.97 77.6574 253.218 77.6574Z" fill="#085E3B"/>
<path d="M256.662 77.4373L256.622 77.7075C256.594 77.8976 256.55 78.1011 256.492 78.3179C256.435 78.5347 256.376 78.739 256.314 78.9308C256.253 79.1226 256.202 79.2752 256.162 79.3886H255.711C255.733 79.2819 255.762 79.141 255.797 78.9658C255.832 78.7907 255.867 78.5947 255.902 78.3779C255.938 78.1628 255.968 77.9426 255.992 77.7175L256.022 77.4373H256.662Z" fill="#085E3B"/>
<path d="M259.238 78.2078C258.861 78.2078 258.54 78.1052 258.275 77.9001C258.01 77.6933 257.807 77.3939 257.667 77.002C257.527 76.6083 257.457 76.133 257.457 75.576C257.457 75.0222 257.527 74.5494 257.667 74.1575C257.809 73.7639 258.012 73.4636 258.278 73.2568C258.545 73.0484 258.865 72.9441 259.238 72.9441C259.612 72.9441 259.931 73.0484 260.196 73.2568C260.463 73.4636 260.667 73.7639 260.807 74.1575C260.949 74.5494 261.02 75.0222 261.02 75.576C261.02 76.133 260.95 76.6083 260.809 77.002C260.669 77.3939 260.467 77.6933 260.201 77.9001C259.936 78.1052 259.615 78.2078 259.238 78.2078ZM259.238 77.6574C259.612 77.6574 259.902 77.4773 260.109 77.117C260.316 76.7568 260.419 76.2431 260.419 75.576C260.419 75.1323 260.372 74.7545 260.277 74.4427C260.183 74.1308 260.048 73.8931 259.871 73.7297C259.696 73.5662 259.485 73.4845 259.238 73.4845C258.868 73.4845 258.579 73.6671 258.37 74.0324C258.162 74.396 258.057 74.9105 258.057 75.576C258.057 76.0196 258.104 76.3965 258.198 76.7067C258.291 77.017 258.425 77.253 258.6 77.4147C258.777 77.5765 258.99 77.6574 259.238 77.6574Z" fill="#085E3B"/>
<path d="M263.641 78.2078C263.264 78.2078 262.943 78.1052 262.678 77.9001C262.413 77.6933 262.21 77.3939 262.07 77.002C261.93 76.6083 261.86 76.133 261.86 75.576C261.86 75.0222 261.93 74.5494 262.07 74.1575C262.212 73.7639 262.416 73.4636 262.681 73.2568C262.948 73.0484 263.268 72.9441 263.641 72.9441C264.015 72.9441 264.334 73.0484 264.6 73.2568C264.866 73.4636 265.07 73.7639 265.21 74.1575C265.352 74.5494 265.423 75.0222 265.423 75.576C265.423 76.133 265.353 76.6083 265.213 77.002C265.072 77.3939 264.87 77.6933 264.605 77.9001C264.339 78.1052 264.018 78.2078 263.641 78.2078ZM263.641 77.6574C264.015 77.6574 264.305 77.4773 264.512 77.117C264.719 76.7568 264.822 76.2431 264.822 75.576C264.822 75.1323 264.775 74.7545 264.68 74.4427C264.586 74.1308 264.451 73.8931 264.274 73.7297C264.099 73.5662 263.888 73.4845 263.641 73.4845C263.271 73.4845 262.982 73.6671 262.773 74.0324C262.565 74.396 262.461 74.9105 262.461 75.576C262.461 76.0196 262.507 76.3965 262.601 76.7067C262.694 77.017 262.828 77.253 263.003 77.4147C263.18 77.5765 263.393 77.6574 263.641 77.6574Z" fill="#085E3B"/>
<defs>
<linearGradient id="paint0_linear_43_344" x1="61.991" y1="-33.6318" x2="283.922" y2="209.407" gradientUnits="userSpaceOnUse">
<stop stop-color="#B9FFE3"/>
<stop offset="1" stop-color="#DBE8E3"/>
</linearGradient>
</defs>
</svg>
