<svg width="516" height="315" viewBox="0 0 516 315" fill="none" xmlns="http://www.w3.org/2000/svg">
<path d="M250.382 142.659L256.469 142.974L262.556 142.663L377.646 136.768L377.043 140.809C374.878 155.328 374.874 170.087 377.03 184.608L377.462 187.518L264.062 180.258L256.459 179.771L248.856 180.264L139.209 187.375L140.549 178.485L23.6278 160.873L140.549 178.485C142.621 164.729 142.752 150.758 140.946 136.981L250.382 142.659ZM117.802 135.78H117.802L23.5604 151.343L117.802 135.78Z" stroke="url(#paint0_linear_31_55)" stroke-width="236.479"/>
<path d="M403.939 138.951C403.441 138.951 402.993 138.852 402.593 138.654C402.194 138.456 401.875 138.184 401.634 137.839C401.393 137.493 401.262 137.1 401.239 136.658H402.258C402.298 137.052 402.476 137.377 402.793 137.635C403.113 137.889 403.495 138.017 403.939 138.017C404.296 138.017 404.613 137.933 404.891 137.766C405.171 137.599 405.39 137.37 405.549 137.078C405.71 136.784 405.791 136.451 405.791 136.081C405.791 135.701 405.707 135.363 405.54 135.066C405.376 134.766 405.15 134.529 404.861 134.357C404.572 134.184 404.242 134.096 403.872 134.094C403.605 134.091 403.332 134.132 403.052 134.217C402.772 134.299 402.541 134.405 402.36 134.535L401.375 134.416L401.901 130.136H406.419V131.07H402.785L402.479 133.635H402.53C402.708 133.493 402.932 133.376 403.201 133.283C403.47 133.189 403.75 133.142 404.041 133.142C404.574 133.142 405.048 133.27 405.464 133.525C405.883 133.776 406.211 134.122 406.449 134.561C406.689 134.999 406.81 135.5 406.81 136.064C406.81 136.619 406.685 137.114 406.436 137.55C406.19 137.983 405.85 138.325 405.417 138.577C404.984 138.826 404.491 138.951 403.939 138.951Z" fill="#085E3B"/>
<path d="M408.768 138.832L412.658 131.138V131.07H408.174V130.136H413.745V131.121L409.872 138.832H408.768Z" fill="#085E3B"/>
<path d="M70.1985 284.464H71.4906L72.1402 285.3L72.7792 286.044L73.9836 287.554H72.5651L71.7364 286.536L71.3116 285.932L70.1985 284.464ZM74.0924 283.369C74.0924 284.153 73.9438 284.82 73.6465 285.37C73.3515 285.92 72.9489 286.34 72.4387 286.63C71.9307 286.918 71.3596 287.062 70.7252 287.062C70.0862 287.062 69.5127 286.917 69.0048 286.627C68.4968 286.337 68.0954 285.916 67.8004 285.366C67.5055 284.816 67.358 284.15 67.358 283.369C67.358 282.584 67.5055 281.917 67.8004 281.367C68.0954 280.817 68.4968 280.398 69.0048 280.11C69.5127 279.82 70.0862 279.675 70.7252 279.675C71.3596 279.675 71.9307 279.82 72.4387 280.11C72.9489 280.398 73.3515 280.817 73.6465 281.367C73.9438 281.917 74.0924 282.584 74.0924 283.369ZM72.551 283.369C72.551 282.861 72.4749 282.432 72.3228 282.083C72.173 281.735 71.9611 281.47 71.6873 281.29C71.4134 281.11 71.0927 281.02 70.7252 281.02C70.3577 281.02 70.037 281.11 69.7632 281.29C69.4893 281.47 69.2763 281.735 69.1241 282.083C68.9743 282.432 68.8994 282.861 68.8994 283.369C68.8994 283.876 68.9743 284.305 69.1241 284.654C69.2763 285.002 69.4893 285.267 69.7632 285.447C70.037 285.627 70.3577 285.717 70.7252 285.717C71.0927 285.717 71.4134 285.627 71.6873 285.447C71.9611 285.267 72.173 285.002 72.3228 284.654C72.4749 284.305 72.551 283.876 72.551 283.369Z" fill="#085E3B"/>
<path d="M79.6602 279.773H81.1805V284.443C81.1805 284.967 81.0553 285.426 80.8048 285.819C80.5567 286.213 80.2091 286.519 79.762 286.739C79.3149 286.957 78.7941 287.066 78.1996 287.066C77.6027 287.066 77.0807 286.957 76.6336 286.739C76.1865 286.519 75.8389 286.213 75.5908 285.819C75.3427 285.426 75.2186 284.967 75.2186 284.443V279.773H76.7389V284.313C76.7389 284.587 76.7986 284.83 76.918 285.043C77.0397 285.256 77.2106 285.424 77.4306 285.545C77.6506 285.667 77.907 285.728 78.1996 285.728C78.4945 285.728 78.7508 285.667 78.9685 285.545C79.1885 285.424 79.3582 285.256 79.4776 285.043C79.5993 284.83 79.6602 284.587 79.6602 284.313V279.773Z" fill="#085E3B"/>
<path d="M83.6708 286.964H82.0416L84.524 279.773H86.4832L88.9621 286.964H87.3329L85.5317 281.416H85.4755L83.6708 286.964ZM83.569 284.137H87.4172V285.324H83.569V284.137Z" fill="#085E3B"/>
<path d="M92.3767 286.964H89.8276V279.773H92.3977C93.121 279.773 93.7437 279.917 94.2656 280.205C94.7876 280.491 95.1891 280.901 95.47 281.437C95.7532 281.973 95.8948 282.615 95.8948 283.362C95.8948 284.111 95.7532 284.754 95.47 285.293C95.1891 285.831 94.7853 286.244 94.2586 286.532C93.7343 286.82 93.107 286.964 92.3767 286.964ZM91.3479 285.661H92.3135C92.7629 285.661 93.1409 285.582 93.4476 285.423C93.7565 285.261 93.9883 285.012 94.1428 284.675C94.2996 284.335 94.378 283.898 94.378 283.362C94.378 282.83 94.2996 282.396 94.1428 282.059C93.9883 281.722 93.7577 281.474 93.4511 281.315C93.1444 281.155 92.7664 281.076 92.317 281.076H91.3479V285.661Z" fill="#085E3B"/>
<path d="M97.021 286.964V279.773H99.858C100.401 279.773 100.865 279.87 101.248 280.065C101.635 280.256 101.928 280.529 102.13 280.883C102.333 281.234 102.435 281.647 102.435 282.122C102.435 282.6 102.332 283.01 102.126 283.354C101.92 283.696 101.622 283.958 101.231 284.141C100.842 284.324 100.372 284.415 99.8194 284.415H97.9199V283.193H99.5736C99.8639 283.193 100.105 283.153 100.297 283.074C100.489 282.994 100.632 282.875 100.725 282.715C100.821 282.556 100.869 282.358 100.869 282.122C100.869 281.883 100.821 281.682 100.725 281.518C100.632 281.354 100.488 281.23 100.293 281.146C100.101 281.059 99.8592 281.016 99.5666 281.016H98.5413V286.964H97.021ZM100.904 283.692L102.692 286.964H101.013L99.2646 283.692H100.904Z" fill="#085E3B"/>
<path d="M104.749 286.964H103.12L105.602 279.773H107.561L110.04 286.964H108.411L106.61 281.416H106.554L104.749 286.964ZM104.647 284.137H108.495V285.324H104.647V284.137Z" fill="#085E3B"/>
<path d="M115.972 287.122C115.368 287.12 114.848 286.971 114.413 286.676C113.98 286.381 113.646 285.954 113.412 285.394C113.18 284.835 113.065 284.162 113.068 283.376C113.068 282.591 113.184 281.923 113.415 281.371C113.649 280.818 113.983 280.398 114.416 280.11C114.851 279.82 115.37 279.675 115.972 279.675C116.573 279.675 117.09 279.82 117.523 280.11C117.959 280.4 118.294 280.822 118.528 281.374C118.762 281.924 118.878 282.591 118.875 283.376C118.875 284.164 118.758 284.839 118.524 285.398C118.292 285.957 117.96 286.385 117.527 286.68C117.094 286.974 116.575 287.122 115.972 287.122ZM115.972 285.861C116.383 285.861 116.712 285.654 116.958 285.24C117.204 284.826 117.326 284.204 117.323 283.376C117.323 282.83 117.267 282.376 117.155 282.013C117.045 281.65 116.888 281.378 116.684 281.195C116.483 281.013 116.245 280.921 115.972 280.921C115.562 280.921 115.234 281.126 114.988 281.536C114.743 281.945 114.619 282.559 114.616 283.376C114.616 283.928 114.671 284.389 114.781 284.759C114.894 285.126 115.052 285.403 115.255 285.588C115.459 285.77 115.698 285.861 115.972 285.861Z" fill="#085E3B"/>
<path d="M122.617 287.062C122.093 287.062 121.626 286.972 121.216 286.792C120.809 286.609 120.487 286.359 120.251 286.041C120.017 285.72 119.896 285.35 119.889 284.931H121.42C121.429 285.107 121.487 285.261 121.592 285.394C121.7 285.526 121.842 285.627 122.02 285.7C122.198 285.772 122.398 285.809 122.621 285.809C122.852 285.809 123.057 285.768 123.235 285.686C123.413 285.604 123.552 285.49 123.653 285.345C123.754 285.2 123.804 285.033 123.804 284.843C123.804 284.651 123.75 284.482 123.642 284.334C123.537 284.184 123.385 284.067 123.186 283.983C122.989 283.899 122.755 283.857 122.484 283.857H121.813V282.74H122.484C122.713 282.74 122.916 282.7 123.091 282.621C123.269 282.541 123.407 282.431 123.506 282.291C123.604 282.148 123.653 281.982 123.653 281.792C123.653 281.612 123.61 281.454 123.523 281.318C123.439 281.18 123.319 281.072 123.165 280.995C123.013 280.918 122.835 280.879 122.631 280.879C122.425 280.879 122.237 280.917 122.066 280.991C121.895 281.064 121.758 281.168 121.655 281.304C121.552 281.44 121.497 281.599 121.49 281.781H120.033C120.04 281.367 120.158 281.002 120.388 280.686C120.617 280.37 120.926 280.123 121.315 279.945C121.705 279.765 122.147 279.675 122.638 279.675C123.135 279.675 123.569 279.765 123.941 279.945C124.313 280.125 124.602 280.369 124.808 280.675C125.017 280.98 125.119 281.322 125.117 281.701C125.119 282.103 124.994 282.439 124.741 282.708C124.491 282.978 124.164 283.148 123.762 283.221V283.277C124.291 283.345 124.693 283.529 124.97 283.828C125.248 284.126 125.386 284.498 125.384 284.945C125.386 285.355 125.268 285.719 125.029 286.037C124.793 286.355 124.466 286.606 124.05 286.788C123.633 286.971 123.156 287.062 122.617 287.062Z" fill="#085E3B"/>
<path d="M224.973 284.464H226.265L226.915 285.3L227.554 286.044L228.758 287.554H227.339L226.511 286.536L226.086 285.932L224.973 284.464ZM228.867 283.369C228.867 284.153 228.718 284.82 228.421 285.37C228.126 285.92 227.723 286.34 227.213 286.63C226.705 286.918 226.134 287.062 225.5 287.062C224.861 287.062 224.287 286.917 223.779 286.627C223.271 286.337 222.87 285.916 222.575 285.366C222.28 284.816 222.132 284.15 222.132 283.369C222.132 282.584 222.28 281.917 222.575 281.367C222.87 280.817 223.271 280.398 223.779 280.11C224.287 279.82 224.861 279.675 225.5 279.675C226.134 279.675 226.705 279.82 227.213 280.11C227.723 280.398 228.126 280.817 228.421 281.367C228.718 281.917 228.867 282.584 228.867 283.369ZM227.325 283.369C227.325 282.861 227.249 282.432 227.097 282.083C226.947 281.735 226.735 281.47 226.462 281.29C226.188 281.11 225.867 281.02 225.5 281.02C225.132 281.02 224.811 281.11 224.538 281.29C224.264 281.47 224.051 281.735 223.898 282.083C223.749 282.432 223.674 282.861 223.674 283.369C223.674 283.876 223.749 284.305 223.898 284.654C224.051 285.002 224.264 285.267 224.538 285.447C224.811 285.627 225.132 285.717 225.5 285.717C225.867 285.717 226.188 285.627 226.462 285.447C226.735 285.267 226.947 285.002 227.097 284.654C227.249 284.305 227.325 283.876 227.325 283.369Z" fill="#085E3B"/>
<path d="M234.435 279.773H235.955V284.443C235.955 284.967 235.83 285.426 235.579 285.819C235.331 286.213 234.983 286.519 234.536 286.739C234.089 286.957 233.568 287.066 232.974 287.066C232.377 287.066 231.855 286.957 231.408 286.739C230.961 286.519 230.613 286.213 230.365 285.819C230.117 285.426 229.993 284.967 229.993 284.443V279.773H231.513V284.313C231.513 284.587 231.573 284.83 231.692 285.043C231.814 285.256 231.985 285.424 232.205 285.545C232.425 285.667 232.681 285.728 232.974 285.728C233.269 285.728 233.525 285.667 233.743 285.545C233.963 285.424 234.133 285.256 234.252 285.043C234.374 284.83 234.435 284.587 234.435 284.313V279.773Z" fill="#085E3B"/>
<path d="M238.445 286.964H236.816L239.298 279.773H241.258L243.736 286.964H242.107L240.306 281.416H240.25L238.445 286.964ZM238.343 284.137H242.192V285.324H238.343V284.137Z" fill="#085E3B"/>
<path d="M247.151 286.964H244.602V279.773H247.172C247.895 279.773 248.518 279.917 249.04 280.205C249.562 280.491 249.963 280.901 250.244 281.437C250.528 281.973 250.669 282.615 250.669 283.362C250.669 284.111 250.528 284.754 250.244 285.293C249.963 285.831 249.56 286.244 249.033 286.532C248.509 286.82 247.881 286.964 247.151 286.964ZM246.122 285.661H247.088C247.537 285.661 247.915 285.582 248.222 285.423C248.531 285.261 248.763 285.012 248.917 284.675C249.074 284.335 249.152 283.898 249.152 283.362C249.152 282.83 249.074 282.396 248.917 282.059C248.763 281.722 248.532 281.474 248.225 281.315C247.919 281.155 247.541 281.076 247.091 281.076H246.122V285.661Z" fill="#085E3B"/>
<path d="M251.795 286.964V279.773H254.632C255.175 279.773 255.639 279.87 256.023 280.065C256.409 280.256 256.703 280.529 256.904 280.883C257.108 281.234 257.21 281.647 257.21 282.122C257.21 282.6 257.107 283.01 256.901 283.354C256.695 283.696 256.396 283.958 256.005 284.141C255.617 284.324 255.146 284.415 254.594 284.415H252.694V283.193H254.348C254.638 283.193 254.879 283.153 255.071 283.074C255.263 282.994 255.406 282.875 255.5 282.715C255.596 282.556 255.644 282.358 255.644 282.122C255.644 281.883 255.596 281.682 255.5 281.518C255.406 281.354 255.262 281.23 255.068 281.146C254.876 281.059 254.634 281.016 254.341 281.016H253.316V286.964H251.795ZM255.679 283.692L257.466 286.964H255.788L254.039 283.692H255.679Z" fill="#085E3B"/>
<path d="M259.523 286.964H257.894L260.377 279.773H262.336L264.815 286.964H263.186L261.384 281.416H261.328L259.523 286.964ZM259.422 284.137H263.27V285.324H259.422V284.137Z" fill="#085E3B"/>
<path d="M270.746 287.122C270.142 287.12 269.622 286.971 269.187 286.676C268.754 286.381 268.42 285.954 268.186 285.394C267.955 284.835 267.84 284.162 267.842 283.376C267.842 282.591 267.958 281.923 268.19 281.371C268.424 280.818 268.757 280.398 269.19 280.11C269.626 279.82 270.144 279.675 270.746 279.675C271.347 279.675 271.865 279.82 272.298 280.11C272.733 280.4 273.068 280.822 273.302 281.374C273.536 281.924 273.652 282.591 273.65 283.376C273.65 284.164 273.533 284.839 273.298 285.398C273.067 285.957 272.734 286.385 272.301 286.68C271.868 286.974 271.35 287.122 270.746 287.122ZM270.746 285.861C271.158 285.861 271.487 285.654 271.733 285.24C271.978 284.826 272.1 284.204 272.098 283.376C272.098 282.83 272.041 282.376 271.929 282.013C271.819 281.65 271.662 281.378 271.459 281.195C271.257 281.013 271.02 280.921 270.746 280.921C270.336 280.921 270.009 281.126 269.763 281.536C269.517 281.945 269.393 282.559 269.391 283.376C269.391 283.928 269.446 284.389 269.556 284.759C269.668 285.126 269.826 285.403 270.03 285.588C270.233 285.77 270.472 285.861 270.746 285.861Z" fill="#085E3B"/>
<path d="M274.734 286.964V285.868L277.293 283.498C277.511 283.288 277.694 283.098 277.841 282.93C277.991 282.761 278.104 282.596 278.182 282.435C278.259 282.271 278.297 282.094 278.297 281.904C278.297 281.694 278.249 281.512 278.154 281.36C278.058 281.206 277.926 281.087 277.76 281.006C277.594 280.921 277.406 280.879 277.195 280.879C276.975 280.879 276.783 280.924 276.619 281.013C276.455 281.101 276.329 281.229 276.24 281.395C276.151 281.561 276.107 281.759 276.107 281.989H274.663C274.663 281.518 274.77 281.11 274.983 280.763C275.196 280.417 275.494 280.149 275.878 279.959C276.262 279.77 276.705 279.675 277.205 279.675C277.72 279.675 278.169 279.766 278.55 279.949C278.934 280.129 279.233 280.379 279.446 280.7C279.659 281.021 279.765 281.388 279.765 281.803C279.765 282.074 279.711 282.342 279.604 282.607C279.498 282.871 279.31 283.165 279.038 283.488C278.767 283.809 278.384 284.194 277.89 284.643L276.84 285.672V285.721H279.86V286.964H274.734Z" fill="#085E3B"/>
<path d="M380.412 284.464H381.704L382.353 285.3L382.992 286.044L384.197 287.554H382.778L381.949 286.536L381.525 285.932L380.412 284.464ZM384.305 283.369C384.305 284.153 384.157 284.82 383.859 285.37C383.565 285.92 383.162 286.34 382.652 286.63C382.144 286.918 381.573 287.062 380.938 287.062C380.299 287.062 379.726 286.917 379.218 286.627C378.71 286.337 378.308 285.916 378.013 285.366C377.719 284.816 377.571 284.15 377.571 283.369C377.571 282.584 377.719 281.917 378.013 281.367C378.308 280.817 378.71 280.398 379.218 280.11C379.726 279.82 380.299 279.675 380.938 279.675C381.573 279.675 382.144 279.82 382.652 280.11C383.162 280.398 383.565 280.817 383.859 281.367C384.157 281.917 384.305 282.584 384.305 283.369ZM382.764 283.369C382.764 282.861 382.688 282.432 382.536 282.083C382.386 281.735 382.174 281.47 381.9 281.29C381.626 281.11 381.306 281.02 380.938 281.02C380.571 281.02 380.25 281.11 379.976 281.29C379.702 281.47 379.489 281.735 379.337 282.083C379.187 282.432 379.112 282.861 379.112 283.369C379.112 283.876 379.187 284.305 379.337 284.654C379.489 285.002 379.702 285.267 379.976 285.447C380.25 285.627 380.571 285.717 380.938 285.717C381.306 285.717 381.626 285.627 381.9 285.447C382.174 285.267 382.386 285.002 382.536 284.654C382.688 284.305 382.764 283.876 382.764 283.369Z" fill="#085E3B"/>
<path d="M389.873 279.773H391.394V284.443C391.394 284.967 391.268 285.426 391.018 285.819C390.77 286.213 390.422 286.519 389.975 286.739C389.528 286.957 389.007 287.066 388.413 287.066C387.816 287.066 387.294 286.957 386.847 286.739C386.399 286.519 386.052 286.213 385.804 285.819C385.556 285.426 385.432 284.967 385.432 284.443V279.773H386.952V284.313C386.952 284.587 387.012 284.83 387.131 285.043C387.253 285.256 387.424 285.424 387.644 285.545C387.864 285.667 388.12 285.728 388.413 285.728C388.707 285.728 388.964 285.667 389.181 285.545C389.402 285.424 389.571 285.256 389.691 285.043C389.812 284.83 389.873 284.587 389.873 284.313V279.773Z" fill="#085E3B"/>
<path d="M393.884 286.964H392.255L394.737 279.773H396.696L399.175 286.964H397.546L395.745 281.416H395.688L393.884 286.964ZM393.782 284.137H397.63V285.324H393.782V284.137Z" fill="#085E3B"/>
<path d="M402.59 286.964H400.041V279.773H402.611C403.334 279.773 403.957 279.917 404.479 280.205C405.001 280.491 405.402 280.901 405.683 281.437C405.966 281.973 406.108 282.615 406.108 283.362C406.108 284.111 405.966 284.754 405.683 285.293C405.402 285.831 404.998 286.244 404.472 286.532C403.947 286.82 403.32 286.964 402.59 286.964ZM401.561 285.661H402.526C402.976 285.661 403.354 285.582 403.661 285.423C403.97 285.261 404.201 285.012 404.356 284.675C404.513 284.335 404.591 283.898 404.591 283.362C404.591 282.83 404.513 282.396 404.356 282.059C404.201 281.722 403.971 281.474 403.664 281.315C403.357 281.155 402.979 281.076 402.53 281.076H401.561V285.661Z" fill="#085E3B"/>
<path d="M407.234 286.964V279.773H410.071C410.614 279.773 411.078 279.87 411.461 280.065C411.848 280.256 412.141 280.529 412.343 280.883C412.546 281.234 412.648 281.647 412.648 282.122C412.648 282.6 412.545 283.01 412.339 283.354C412.133 283.696 411.835 283.958 411.444 284.141C411.055 284.324 410.585 284.415 410.032 284.415H408.133V283.193H409.787C410.077 283.193 410.318 283.153 410.51 283.074C410.702 282.994 410.845 282.875 410.938 282.715C411.034 282.556 411.082 282.358 411.082 282.122C411.082 281.883 411.034 281.682 410.938 281.518C410.845 281.354 410.701 281.23 410.506 281.146C410.314 281.059 410.072 281.016 409.78 281.016H408.754V286.964H407.234ZM411.117 283.692L412.905 286.964H411.226L409.478 283.692H411.117Z" fill="#085E3B"/>
<path d="M414.962 286.964H413.333L415.815 279.773H417.774L420.253 286.964H418.624L416.823 281.416H416.767L414.962 286.964ZM414.86 284.137H418.708V285.324H414.86V284.137Z" fill="#085E3B"/>
<path d="M426.185 287.122C425.581 287.12 425.061 286.971 424.626 286.676C424.193 286.381 423.859 285.954 423.625 285.394C423.393 284.835 423.278 284.162 423.281 283.376C423.281 282.591 423.397 281.923 423.628 281.371C423.862 280.818 424.196 280.398 424.629 280.11C425.064 279.82 425.583 279.675 426.185 279.675C426.786 279.675 427.303 279.82 427.736 280.11C428.172 280.4 428.507 280.822 428.741 281.374C428.975 281.924 429.091 282.591 429.088 283.376C429.088 284.164 428.971 284.839 428.737 285.398C428.505 285.957 428.173 286.385 427.74 286.68C427.307 286.974 426.788 287.122 426.185 287.122ZM426.185 285.861C426.596 285.861 426.925 285.654 427.171 285.24C427.417 284.826 427.539 284.204 427.536 283.376C427.536 282.83 427.48 282.376 427.368 282.013C427.258 281.65 427.101 281.378 426.897 281.195C426.696 281.013 426.458 280.921 426.185 280.921C425.775 280.921 425.447 281.126 425.201 281.536C424.956 281.945 424.832 282.559 424.829 283.376C424.829 283.928 424.884 284.389 424.994 284.759C425.107 285.126 425.265 285.403 425.468 285.588C425.672 285.77 425.911 285.861 426.185 285.861Z" fill="#085E3B"/>
<path d="M433.301 279.773V286.964H431.78V281.216H431.738L430.092 282.248V280.9L431.872 279.773H433.301Z" fill="#085E3B"/>
<path d="M103.726 76.7229V249.433H89.1124V76.7229H103.726Z" stroke="#085E3B" stroke-width="33.2134"/>
<path d="M258.833 103.626V249.765H244.219V103.626H258.833Z" stroke="#085E3B" stroke-width="33.2134"/>
<path d="M414.271 164.074V249.764H399.657V164.074H414.271Z" stroke="#085E3B" stroke-width="33.2134"/>
<path d="M91.5516 41.185C91.9735 41.1884 92.3955 41.2688 92.8174 41.4261C93.2393 41.5835 93.6244 41.8447 93.9726 42.2097C94.3209 42.5714 94.6005 43.0653 94.8115 43.6915C95.0224 44.3176 95.1279 45.1029 95.1279 46.0472C95.1279 46.9613 95.0408 47.7734 94.8667 48.4833C94.6959 49.1898 94.4481 49.7859 94.1233 50.2714C93.8019 50.757 93.4101 51.1253 92.948 51.3765C92.4892 51.6276 91.9702 51.7532 91.3909 51.7532C90.8149 51.7532 90.3009 51.6393 89.8489 51.4116C89.4001 51.1806 89.0318 50.8608 88.7438 50.4522C88.4592 50.0404 88.2767 49.5632 88.1963 49.0207H89.4219C89.5324 49.4929 89.7518 49.883 90.0799 50.1911C90.4114 50.4958 90.8484 50.6481 91.3909 50.6481C92.1845 50.6481 92.8107 50.3016 93.2694 49.6084C93.7315 48.9152 93.9626 47.9358 93.9626 46.67H93.8822C93.6947 46.9513 93.472 47.1941 93.2142 47.3983C92.9563 47.6026 92.67 47.76 92.3553 47.8705C92.0405 47.981 91.7056 48.0362 91.3507 48.0362C90.7613 48.0362 90.2206 47.8906 89.7283 47.5993C89.2394 47.3046 88.8476 46.9011 88.553 46.3887C88.2616 45.8731 88.116 45.2837 88.116 44.6207C88.116 43.9912 88.2566 43.4152 88.5379 42.8928C88.8225 42.3671 89.221 41.9485 89.7333 41.6371C90.249 41.3257 90.8551 41.175 91.5516 41.185ZM91.5516 42.2901C91.1297 42.2901 90.7496 42.3956 90.4114 42.6065C90.0766 42.8141 89.8104 43.0954 89.6128 43.4504C89.4186 43.802 89.3215 44.1921 89.3215 44.6207C89.3215 45.0493 89.4152 45.4394 89.6027 45.791C89.7936 46.1393 90.0531 46.4172 90.3813 46.6248C90.7128 46.8291 91.0895 46.9312 91.5114 46.9312C91.8295 46.9312 92.1259 46.8693 92.4005 46.7454C92.6751 46.6181 92.9145 46.4457 93.1188 46.228C93.3264 46.007 93.4888 45.7575 93.606 45.4796C93.7232 45.1983 93.7818 44.9053 93.7818 44.6006C93.7818 44.1988 93.6847 43.8221 93.4904 43.4704C93.2996 43.1188 93.035 42.8342 92.6968 42.6166C92.362 42.3989 91.9802 42.2901 91.5516 42.2901Z" fill="#085E3B"/>
<path d="M100.378 41.185C100.8 41.1884 101.222 41.2688 101.644 41.4261C102.066 41.5835 102.451 41.8447 102.799 42.2097C103.147 42.5714 103.427 43.0653 103.638 43.6915C103.849 44.3176 103.954 45.1029 103.954 46.0472C103.954 46.9613 103.867 47.7734 103.693 48.4833C103.522 49.1898 103.275 49.7859 102.95 50.2714C102.628 50.757 102.237 51.1253 101.774 51.3765C101.316 51.6276 100.797 51.7532 100.217 51.7532C99.6414 51.7532 99.1274 51.6393 98.6753 51.4116C98.2266 51.1806 97.8583 50.8608 97.5703 50.4522C97.2856 50.0404 97.1031 49.5632 97.0228 49.0207H98.2484C98.3589 49.4929 98.5782 49.883 98.9064 50.1911C99.2379 50.4958 99.6749 50.6481 100.217 50.6481C101.011 50.6481 101.637 50.3016 102.096 49.6084C102.558 48.9152 102.789 47.9358 102.789 46.67H102.709C102.521 46.9513 102.298 47.1941 102.041 47.3983C101.783 47.6026 101.496 47.76 101.182 47.8705C100.867 47.981 100.532 48.0362 100.177 48.0362C99.5878 48.0362 99.047 47.8906 98.5548 47.5993C98.0659 47.3046 97.6741 46.9011 97.3794 46.3887C97.0881 45.8731 96.9424 45.2837 96.9424 44.6207C96.9424 43.9912 97.0831 43.4152 97.3643 42.8928C97.649 42.3671 98.0474 41.9485 98.5598 41.6371C99.0755 41.3257 99.6816 41.175 100.378 41.185ZM100.378 42.2901C99.9561 42.2901 99.5761 42.3956 99.2379 42.6065C98.903 42.8141 98.6368 43.0954 98.4392 43.4504C98.245 43.802 98.1479 44.1921 98.1479 44.6207C98.1479 45.0493 98.2417 45.4394 98.4292 45.791C98.6201 46.1393 98.8796 46.4172 99.2077 46.6248C99.5392 46.8291 99.916 46.9312 100.338 46.9312C100.656 46.9312 100.952 46.8693 101.227 46.7454C101.502 46.6181 101.741 46.4457 101.945 46.228C102.153 46.007 102.315 45.7575 102.432 45.4796C102.55 45.1983 102.608 44.9053 102.608 44.6006C102.608 44.1988 102.511 43.8221 102.317 43.4704C102.126 43.1188 101.861 42.8342 101.523 42.6166C101.188 42.3989 100.807 42.2901 100.378 42.2901Z" fill="#085E3B"/>
<path d="M247.905 77.8379C247.321 77.8379 246.806 77.7346 246.359 77.528C245.915 77.3185 245.568 77.0312 245.319 76.666C245.07 76.2981 244.946 75.8791 244.949 75.4092C244.946 75.0412 245.019 74.7015 245.166 74.3902C245.313 74.076 245.514 73.8141 245.769 73.6047C246.026 73.3924 246.314 73.2579 246.631 73.2013V73.1503C246.215 73.0428 245.883 72.8092 245.637 72.4497C245.391 72.0874 245.269 71.6755 245.272 71.2141C245.269 70.7725 245.381 70.3777 245.607 70.0295C245.834 69.6813 246.145 69.4067 246.542 69.2058C246.941 69.0048 247.395 68.9043 247.905 68.9043C248.408 68.9043 248.858 69.0048 249.255 69.2058C249.651 69.4067 249.962 69.6813 250.189 70.0295C250.418 70.3777 250.534 70.7725 250.537 71.2141C250.534 71.6755 250.408 72.0874 250.159 72.4497C249.913 72.8092 249.586 73.0428 249.178 73.1503V73.2013C249.493 73.2579 249.776 73.3924 250.028 73.6047C250.279 73.8141 250.48 74.076 250.63 74.3902C250.781 74.7015 250.857 75.0412 250.86 75.4092C250.857 75.8791 250.73 76.2981 250.478 76.666C250.229 77.0312 249.882 77.3185 249.437 77.528C248.996 77.7346 248.485 77.8379 247.905 77.8379ZM247.905 76.9038C248.298 76.9038 248.638 76.8401 248.924 76.7127C249.209 76.5854 249.43 76.4056 249.586 76.1735C249.742 75.9414 249.821 75.6696 249.824 75.3583C249.821 75.0299 249.736 74.7398 249.569 74.4878C249.402 74.2359 249.174 74.0377 248.885 73.8934C248.599 73.749 248.273 73.6768 247.905 73.6768C247.534 73.6768 247.203 73.749 246.911 73.8934C246.622 74.0377 246.394 74.2359 246.227 74.4878C246.063 74.7398 245.982 75.0299 245.985 75.3583C245.982 75.6696 246.058 75.9414 246.21 76.1735C246.366 76.4056 246.588 76.5854 246.877 76.7127C247.166 76.8401 247.508 76.9038 247.905 76.9038ZM247.905 72.7767C248.216 72.7767 248.492 72.7144 248.733 72.5899C248.976 72.4653 249.167 72.2912 249.306 72.0676C249.444 71.844 249.515 71.5821 249.518 71.2821C249.515 70.9877 249.446 70.7315 249.31 70.5135C249.174 70.2927 248.986 70.1229 248.745 70.004C248.505 69.8823 248.224 69.8214 247.905 69.8214C247.579 69.8214 247.295 69.8823 247.051 70.004C246.808 70.1229 246.619 70.2927 246.486 70.5135C246.353 70.7315 246.288 70.9877 246.291 71.2821C246.288 71.5821 246.355 71.844 246.491 72.0676C246.629 72.2912 246.82 72.4653 247.064 72.5899C247.307 72.7144 247.587 72.7767 247.905 72.7767Z" fill="#085E3B"/>
<path d="M255.374 77.8379C255.018 77.8323 254.661 77.7643 254.304 77.6341C253.948 77.5039 253.622 77.2845 253.328 76.976C253.033 76.6646 252.797 76.2443 252.619 75.7149C252.44 75.1828 252.351 74.5147 252.351 73.7108C252.351 72.9409 252.423 72.2587 252.568 71.6642C252.712 71.0669 252.922 70.5645 253.196 70.1569C253.471 69.7464 253.802 69.4351 254.19 69.2227C254.58 69.0104 255.021 68.9043 255.51 68.9043C255.997 68.9043 256.43 69.002 256.81 69.1973C257.192 69.3898 257.503 69.6587 257.744 70.004C257.984 70.3494 258.14 70.7471 258.211 71.1972H257.175C257.078 70.8065 256.892 70.4824 256.614 70.2248C256.337 69.9672 255.969 69.8384 255.51 69.8384C254.837 69.8384 254.306 70.1314 253.918 70.7174C253.533 71.3033 253.339 72.1256 253.336 73.1843H253.404C253.563 72.9437 253.751 72.7385 253.969 72.5686C254.19 72.3959 254.433 72.2629 254.699 72.1695C254.965 72.0761 255.247 72.0294 255.544 72.0294C256.042 72.0294 256.498 72.1539 256.911 72.403C257.325 72.6493 257.656 72.9904 257.905 73.4263C258.154 73.8594 258.279 74.3562 258.279 74.9167C258.279 75.4545 258.158 75.947 257.918 76.3943C257.677 76.8387 257.339 77.1925 256.903 77.4558C256.47 77.7162 255.96 77.8436 255.374 77.8379ZM255.374 76.9038C255.731 76.9038 256.051 76.8147 256.334 76.6363C256.62 76.458 256.845 76.2188 257.009 75.9187C257.176 75.6187 257.26 75.2847 257.26 74.9167C257.26 74.5572 257.179 74.2302 257.018 73.9358C256.859 73.6386 256.64 73.4023 256.359 73.2268C256.082 73.0513 255.765 72.9635 255.408 72.9635C255.139 72.9635 254.889 73.0173 254.657 73.1249C254.425 73.2296 254.221 73.374 254.045 73.5579C253.873 73.7419 253.737 73.9528 253.638 74.1906C253.539 74.4256 253.489 74.6732 253.489 74.9337C253.489 75.279 253.57 75.6017 253.731 75.9018C253.895 76.2018 254.119 76.4438 254.402 76.6278C254.688 76.8118 255.012 76.9038 255.374 76.9038Z" fill="#085E3B"/>
<defs>
<linearGradient id="paint0_linear_31_55" x1="102.73" y1="-55.7985" x2="469.406" y2="345.751" gradientUnits="userSpaceOnUse">
<stop stop-color="#B9FFE3"/>
<stop offset="1" stop-color="#DBE8E3"/>
</linearGradient>
</defs>
</svg>
