<svg width="313" height="191" viewBox="0 0 313 191" fill="none" xmlns="http://www.w3.org/2000/svg">
<path d="M151.351 86.3445L155.035 86.5357L158.719 86.347L228.378 82.7793L228.013 85.2241C228.013 85.2244 228.013 85.2248 228.013 85.2251C226.703 94.0129 226.7 102.946 228.005 111.734C228.005 111.735 228.005 111.735 228.005 111.735L228.266 113.496L159.631 109.102L155.029 108.807L150.428 109.105L84.0639 113.409L84.8744 108.028C86.1285 99.7024 86.2081 91.2467 85.115 82.9082L151.351 86.3445ZM71.1072 82.1814H71.1072L14.0671 91.6009L71.1072 82.1814Z" stroke="url(#paint0_linear_43_334)" stroke-width="143.129"/>
<path d="M244.292 84.1003C243.991 84.1003 243.719 84.0403 243.478 83.9204C243.236 83.8005 243.042 83.636 242.897 83.427C242.751 83.2179 242.671 82.9798 242.658 82.7125H243.274C243.298 82.9507 243.406 83.1477 243.598 83.3036C243.792 83.4578 244.023 83.5349 244.292 83.5349C244.508 83.5349 244.7 83.4844 244.868 83.3833C245.037 83.2822 245.17 83.1434 245.266 82.9669C245.364 82.7888 245.413 82.5875 245.413 82.363C245.413 82.1334 245.362 81.9287 245.261 81.7488C245.162 81.5672 245.025 81.4241 244.85 81.3196C244.675 81.2151 244.476 81.162 244.251 81.1603C244.09 81.1586 243.925 81.1834 243.755 81.2348C243.585 81.2845 243.446 81.3488 243.336 81.4276L242.74 81.3556L243.059 78.7651H245.793V79.3305H243.593L243.408 80.8827H243.439C243.547 80.7971 243.682 80.726 243.845 80.6694C244.008 80.6129 244.177 80.5846 244.354 80.5846C244.676 80.5846 244.963 80.6617 245.215 80.8159C245.468 80.9684 245.667 81.1774 245.811 81.443C245.957 81.7085 246.029 82.0118 246.029 82.3527C246.029 82.6885 245.954 82.9884 245.803 83.2522C245.654 83.5143 245.449 83.7216 245.187 83.8741C244.924 84.0249 244.626 84.1003 244.292 84.1003Z" fill="#085E3B"/>
<path d="M247.215 84.0283L249.569 79.3716V79.3305H246.855V78.7651H250.227V79.3614L247.883 84.0283H247.215Z" fill="#085E3B"/>
<path d="M42.2949 172.172H43.077L43.4701 172.678L43.8569 173.128L44.5858 174.042H43.7272L43.2257 173.426L42.9686 173.06L42.2949 172.172ZM44.6517 171.509C44.6517 171.984 44.5617 172.387 44.3818 172.72C44.2033 173.053 43.9596 173.308 43.6507 173.483C43.3433 173.658 42.9976 173.745 42.6137 173.745C42.2269 173.745 41.8798 173.657 41.5724 173.481C41.2649 173.306 41.022 173.051 40.8434 172.718C40.6649 172.385 40.5757 171.982 40.5757 171.509C40.5757 171.034 40.6649 170.631 40.8434 170.298C41.022 169.965 41.2649 169.711 41.5724 169.537C41.8798 169.361 42.2269 169.273 42.6137 169.273C42.9976 169.273 43.3433 169.361 43.6507 169.537C43.9596 169.711 44.2033 169.965 44.3818 170.298C44.5617 170.631 44.6517 171.034 44.6517 171.509ZM43.7187 171.509C43.7187 171.202 43.6727 170.942 43.5806 170.731C43.4899 170.52 43.3617 170.36 43.196 170.251C43.0302 170.142 42.8361 170.087 42.6137 170.087C42.3912 170.087 42.1972 170.142 42.0314 170.251C41.8656 170.36 41.7367 170.52 41.6446 170.731C41.5539 170.942 41.5086 171.202 41.5086 171.509C41.5086 171.817 41.5539 172.076 41.6446 172.287C41.7367 172.498 41.8656 172.658 42.0314 172.767C42.1972 172.876 42.3912 172.931 42.6137 172.931C42.8361 172.931 43.0302 172.876 43.196 172.767C43.3617 172.658 43.4899 172.498 43.5806 172.287C43.6727 172.076 43.7187 171.817 43.7187 171.509Z" fill="#085E3B"/>
<path d="M48.0216 169.333H48.9418V172.159C48.9418 172.477 48.866 172.754 48.7144 172.992C48.5642 173.23 48.3538 173.416 48.0832 173.549C47.8126 173.681 47.4974 173.747 47.1375 173.747C46.7763 173.747 46.4603 173.681 46.1897 173.549C45.9191 173.416 45.7087 173.23 45.5586 172.992C45.4084 172.754 45.3333 172.477 45.3333 172.159V169.333H46.2535V172.081C46.2535 172.246 46.2896 172.394 46.3619 172.523C46.4355 172.652 46.539 172.753 46.6721 172.827C46.8053 172.9 46.9604 172.937 47.1375 172.937C47.316 172.937 47.4712 172.9 47.6029 172.827C47.7361 172.753 47.8388 172.652 47.9111 172.523C47.9847 172.394 48.0216 172.246 48.0216 172.081V169.333Z" fill="#085E3B"/>
<path d="M50.449 173.685H49.4629L50.9654 169.333H52.1512L53.6516 173.685H52.6655L51.5753 170.327H51.5413L50.449 173.685ZM50.3874 171.974H52.7165V172.693H50.3874V171.974Z" fill="#085E3B"/>
<path d="M55.7182 173.685H54.1754V169.333H55.731C56.1688 169.333 56.5456 169.42 56.8616 169.594C57.1775 169.767 57.4205 170.016 57.5905 170.34C57.7619 170.665 57.8476 171.053 57.8476 171.505C57.8476 171.958 57.7619 172.348 57.5905 172.674C57.4205 172.999 57.1761 173.25 56.8573 173.424C56.54 173.598 56.1603 173.685 55.7182 173.685ZM55.0956 172.897H55.68C55.952 172.897 56.1808 172.849 56.3664 172.752C56.5534 172.655 56.6937 172.504 56.7872 172.3C56.8821 172.094 56.9296 171.829 56.9296 171.505C56.9296 171.183 56.8821 170.92 56.7872 170.716C56.6937 170.512 56.5541 170.362 56.3685 170.266C56.1829 170.17 55.9541 170.121 55.6821 170.121H55.0956V172.897Z" fill="#085E3B"/>
<path d="M58.5292 173.685V169.333H60.2463C60.575 169.333 60.8555 169.392 61.0879 169.509C61.3217 169.625 61.4995 169.791 61.6213 170.004C61.7446 170.217 61.8062 170.467 61.8062 170.755C61.8062 171.044 61.7438 171.292 61.6192 171.501C61.4945 171.707 61.3139 171.866 61.0773 171.977C60.8421 172.087 60.5573 172.142 60.223 172.142H59.0733V171.403H60.0742C60.2499 171.403 60.3958 171.379 60.512 171.331C60.6282 171.282 60.7146 171.21 60.7713 171.114C60.8293 171.017 60.8584 170.898 60.8584 170.755C60.8584 170.61 60.8293 170.488 60.7713 170.389C60.7146 170.29 60.6275 170.215 60.5099 170.164C60.3937 170.111 60.2471 170.085 60.07 170.085H59.4494V173.685H58.5292ZM60.8796 171.705L61.9613 173.685H60.9455L59.8872 171.705H60.8796Z" fill="#085E3B"/>
<path d="M63.2066 173.685H62.2206L63.723 169.333H64.9089L66.4092 173.685H65.4231L64.333 170.327H64.299L63.2066 173.685ZM63.145 171.974H65.4741V172.693H63.145V171.974Z" fill="#085E3B"/>
<path d="M69.9991 173.781C69.6335 173.779 69.319 173.689 69.0555 173.511C68.7934 173.332 68.5915 173.074 68.4498 172.735C68.3096 172.397 68.2402 171.989 68.2416 171.513C68.2416 171.039 68.3117 170.634 68.452 170.3C68.5936 169.966 68.7955 169.711 69.0576 169.537C69.3212 169.361 69.635 169.273 69.9991 169.273C70.3632 169.273 70.6763 169.361 70.9384 169.537C71.2019 169.713 71.4045 169.968 71.5462 170.302C71.6878 170.635 71.758 171.039 71.7565 171.513C71.7565 171.991 71.6857 172.399 71.544 172.737C71.4038 173.076 71.2026 173.335 70.9405 173.513C70.6784 173.692 70.3646 173.781 69.9991 173.781ZM69.9991 173.018C70.2484 173.018 70.4475 172.893 70.5962 172.642C70.745 172.391 70.8187 172.015 70.8172 171.513C70.8172 171.183 70.7832 170.908 70.7152 170.689C70.6486 170.469 70.5537 170.304 70.4305 170.194C70.3086 170.083 70.1648 170.028 69.9991 170.028C69.7511 170.028 69.5528 170.152 69.404 170.4C69.2553 170.648 69.1802 171.019 69.1788 171.513C69.1788 171.848 69.2121 172.127 69.2786 172.351C69.3467 172.573 69.4423 172.74 69.5655 172.852C69.6888 172.963 69.8333 173.018 69.9991 173.018Z" fill="#085E3B"/>
<path d="M74.0214 173.745C73.704 173.745 73.4214 173.69 73.1735 173.581C72.927 173.471 72.7321 173.319 72.5891 173.126C72.4474 172.932 72.3744 172.708 72.3702 172.455H73.2967C73.3024 172.561 73.3371 172.655 73.4009 172.735C73.466 172.815 73.5524 172.876 73.6601 172.92C73.7678 172.964 73.8889 172.986 74.0235 172.986C74.1638 172.986 74.2877 172.961 74.3954 172.912C74.5031 172.862 74.5874 172.793 74.6483 172.706C74.7092 172.618 74.7397 172.516 74.7397 172.402C74.7397 172.285 74.7071 172.183 74.6419 172.093C74.5782 172.003 74.4861 171.932 74.3657 171.881C74.2467 171.83 74.105 171.804 73.9406 171.804H73.5347V171.129H73.9406C74.0795 171.129 74.202 171.105 74.3083 171.056C74.416 171.008 74.4995 170.942 74.559 170.857C74.6185 170.77 74.6483 170.67 74.6483 170.555C74.6483 170.446 74.6221 170.35 74.5697 170.268C74.5187 170.184 74.4464 170.119 74.3529 170.072C74.2608 170.026 74.1531 170.002 74.0299 170.002C73.9052 170.002 73.7912 170.025 73.6877 170.07C73.5843 170.114 73.5014 170.177 73.4391 170.259C73.3768 170.342 73.3435 170.438 73.3392 170.549H72.4573C72.4616 170.298 72.5331 170.077 72.6719 169.885C72.8108 169.694 72.9978 169.545 73.233 169.437C73.4696 169.328 73.7366 169.273 74.0341 169.273C74.3345 169.273 74.5973 169.328 74.8226 169.437C75.0478 169.546 75.2228 169.694 75.3475 169.879C75.4736 170.063 75.5359 170.27 75.5345 170.5C75.5359 170.743 75.4601 170.947 75.3071 171.11C75.1555 171.272 74.9579 171.376 74.7142 171.42V171.454C75.0344 171.495 75.278 171.606 75.4452 171.787C75.6138 171.967 75.6974 172.193 75.696 172.463C75.6974 172.711 75.6259 172.931 75.4813 173.124C75.3383 173.317 75.1406 173.468 74.8884 173.579C74.6363 173.689 74.3472 173.745 74.0214 173.745Z" fill="#085E3B"/>
<path d="M135.972 172.172H136.754L137.148 172.678L137.534 173.128L138.263 174.042H137.405L136.903 173.426L136.646 173.06L135.972 172.172ZM138.329 171.509C138.329 171.984 138.239 172.387 138.059 172.72C137.881 173.053 137.637 173.308 137.328 173.483C137.021 173.658 136.675 173.745 136.291 173.745C135.904 173.745 135.557 173.657 135.25 173.481C134.942 173.306 134.699 173.051 134.521 172.718C134.342 172.385 134.253 171.982 134.253 171.509C134.253 171.034 134.342 170.631 134.521 170.298C134.699 169.965 134.942 169.711 135.25 169.537C135.557 169.361 135.904 169.273 136.291 169.273C136.675 169.273 137.021 169.361 137.328 169.537C137.637 169.711 137.881 169.965 138.059 170.298C138.239 170.631 138.329 171.034 138.329 171.509ZM137.396 171.509C137.396 171.202 137.35 170.942 137.258 170.731C137.167 170.52 137.039 170.36 136.873 170.251C136.708 170.142 136.514 170.087 136.291 170.087C136.069 170.087 135.875 170.142 135.709 170.251C135.543 170.36 135.414 170.52 135.322 170.731C135.231 170.942 135.186 171.202 135.186 171.509C135.186 171.817 135.231 172.076 135.322 172.287C135.414 172.498 135.543 172.658 135.709 172.767C135.875 172.876 136.069 172.931 136.291 172.931C136.514 172.931 136.708 172.876 136.873 172.767C137.039 172.658 137.167 172.498 137.258 172.287C137.35 172.076 137.396 171.817 137.396 171.509Z" fill="#085E3B"/>
<path d="M141.699 169.333H142.619V172.159C142.619 172.477 142.543 172.754 142.392 172.992C142.242 173.23 142.031 173.416 141.761 173.549C141.49 173.681 141.175 173.747 140.815 173.747C140.454 173.747 140.138 173.681 139.867 173.549C139.597 173.416 139.386 173.23 139.236 172.992C139.086 172.754 139.011 172.477 139.011 172.159V169.333H139.931V172.081C139.931 172.246 139.967 172.394 140.039 172.523C140.113 172.652 140.216 172.753 140.35 172.827C140.483 172.9 140.638 172.937 140.815 172.937C140.993 172.937 141.149 172.9 141.28 172.827C141.414 172.753 141.516 172.652 141.588 172.523C141.662 172.394 141.699 172.246 141.699 172.081V169.333Z" fill="#085E3B"/>
<path d="M144.126 173.685H143.14L144.643 169.333H145.829L147.329 173.685H146.343L145.253 170.327H145.219L144.126 173.685ZM144.065 171.974H146.394V172.693H144.065V171.974Z" fill="#085E3B"/>
<path d="M149.396 173.685H147.853V169.333H149.408C149.846 169.333 150.223 169.42 150.539 169.594C150.855 169.767 151.098 170.016 151.268 170.34C151.439 170.665 151.525 171.053 151.525 171.505C151.525 171.958 151.439 172.348 151.268 172.674C151.098 172.999 150.853 173.25 150.535 173.424C150.217 173.598 149.838 173.685 149.396 173.685ZM148.773 172.897H149.357C149.629 172.897 149.858 172.849 150.044 172.752C150.231 172.655 150.371 172.504 150.465 172.3C150.56 172.094 150.607 171.829 150.607 171.505C150.607 171.183 150.56 170.92 150.465 170.716C150.371 170.512 150.232 170.362 150.046 170.266C149.86 170.17 149.632 170.121 149.36 170.121H148.773V172.897Z" fill="#085E3B"/>
<path d="M152.207 173.685V169.333H153.924C154.252 169.333 154.533 169.392 154.765 169.509C154.999 169.625 155.177 169.791 155.299 170.004C155.422 170.217 155.484 170.467 155.484 170.755C155.484 171.044 155.421 171.292 155.297 171.501C155.172 171.707 154.991 171.866 154.755 171.977C154.52 172.087 154.235 172.142 153.9 172.142H152.751V171.403H153.752C153.927 171.403 154.073 171.379 154.189 171.331C154.306 171.282 154.392 171.21 154.449 171.114C154.507 171.017 154.536 170.898 154.536 170.755C154.536 170.61 154.507 170.488 154.449 170.389C154.392 170.29 154.305 170.215 154.187 170.164C154.071 170.111 153.924 170.085 153.747 170.085H153.127V173.685H152.207ZM154.557 171.705L155.639 173.685H154.623L153.565 171.705H154.557Z" fill="#085E3B"/>
<path d="M156.884 173.685H155.898L157.4 169.333H158.586L160.087 173.685H159.101L158.01 170.327H157.976L156.884 173.685ZM156.822 171.974H159.152V172.693H156.822V171.974Z" fill="#085E3B"/>
<path d="M163.676 173.781C163.311 173.779 162.996 173.689 162.733 173.511C162.471 173.332 162.269 173.074 162.127 172.735C161.987 172.397 161.918 171.989 161.919 171.513C161.919 171.039 161.989 170.634 162.129 170.3C162.271 169.966 162.473 169.711 162.735 169.537C162.999 169.361 163.312 169.273 163.676 169.273C164.041 169.273 164.354 169.361 164.616 169.537C164.879 169.713 165.082 169.968 165.224 170.302C165.365 170.635 165.435 171.039 165.434 171.513C165.434 171.991 165.363 172.399 165.221 172.737C165.081 173.076 164.88 173.335 164.618 173.513C164.356 173.692 164.042 173.781 163.676 173.781ZM163.676 173.018C163.926 173.018 164.125 172.893 164.274 172.642C164.422 172.391 164.496 172.015 164.495 171.513C164.495 171.183 164.461 170.908 164.393 170.689C164.326 170.469 164.231 170.304 164.108 170.194C163.986 170.083 163.842 170.028 163.676 170.028C163.429 170.028 163.23 170.152 163.081 170.4C162.933 170.648 162.858 171.019 162.856 171.513C162.856 171.848 162.889 172.127 162.956 172.351C163.024 172.573 163.12 172.74 163.243 172.852C163.366 172.963 163.511 173.018 163.676 173.018Z" fill="#085E3B"/>
<path d="M166.09 173.685V173.022L167.639 171.588C167.771 171.46 167.882 171.345 167.971 171.243C168.061 171.141 168.13 171.042 168.177 170.944C168.224 170.845 168.247 170.738 168.247 170.623C168.247 170.495 168.218 170.386 168.16 170.293C168.102 170.2 168.023 170.128 167.922 170.079C167.821 170.028 167.707 170.002 167.58 170.002C167.447 170.002 167.33 170.029 167.231 170.083C167.132 170.137 167.056 170.214 167.002 170.315C166.948 170.415 166.921 170.535 166.921 170.674H166.048C166.048 170.389 166.112 170.142 166.241 169.932C166.37 169.723 166.551 169.56 166.783 169.446C167.015 169.331 167.283 169.273 167.586 169.273C167.898 169.273 168.169 169.329 168.4 169.439C168.632 169.548 168.813 169.7 168.942 169.894C169.071 170.088 169.135 170.31 169.135 170.561C169.135 170.726 169.103 170.888 169.038 171.048C168.974 171.208 168.86 171.386 168.695 171.581C168.531 171.775 168.3 172.008 168.001 172.28L167.365 172.903V172.933H169.193V173.685H166.09Z" fill="#085E3B"/>
<path d="M230.052 172.172H230.834L231.227 172.678L231.614 173.128L232.343 174.042H231.484L230.983 173.426L230.725 173.06L230.052 172.172ZM232.409 171.509C232.409 171.984 232.319 172.387 232.139 172.72C231.96 173.053 231.716 173.308 231.408 173.483C231.1 173.658 230.754 173.745 230.371 173.745C229.984 173.745 229.637 173.657 229.329 173.481C229.022 173.306 228.779 173.051 228.6 172.718C228.422 172.385 228.333 171.982 228.333 171.509C228.333 171.034 228.422 170.631 228.6 170.298C228.779 169.965 229.022 169.711 229.329 169.537C229.637 169.361 229.984 169.273 230.371 169.273C230.754 169.273 231.1 169.361 231.408 169.537C231.716 169.711 231.96 169.965 232.139 170.298C232.319 170.631 232.409 171.034 232.409 171.509ZM231.476 171.509C231.476 171.202 231.43 170.942 231.337 170.731C231.247 170.52 231.119 170.36 230.953 170.251C230.787 170.142 230.593 170.087 230.371 170.087C230.148 170.087 229.954 170.142 229.788 170.251C229.623 170.36 229.494 170.52 229.401 170.731C229.311 170.942 229.265 171.202 229.265 171.509C229.265 171.817 229.311 172.076 229.401 172.287C229.494 172.498 229.623 172.658 229.788 172.767C229.954 172.876 230.148 172.931 230.371 172.931C230.593 172.931 230.787 172.876 230.953 172.767C231.119 172.658 231.247 172.498 231.337 172.287C231.43 172.076 231.476 171.817 231.476 171.509Z" fill="#085E3B"/>
<path d="M235.778 169.333H236.699V172.159C236.699 172.477 236.623 172.754 236.471 172.992C236.321 173.23 236.111 173.416 235.84 173.549C235.569 173.681 235.254 173.747 234.894 173.747C234.533 173.747 234.217 173.681 233.947 173.549C233.676 173.416 233.466 173.23 233.315 172.992C233.165 172.754 233.09 172.477 233.09 172.159V169.333H234.01V172.081C234.01 172.246 234.046 172.394 234.119 172.523C234.192 172.652 234.296 172.753 234.429 172.827C234.562 172.9 234.717 172.937 234.894 172.937C235.073 172.937 235.228 172.9 235.36 172.827C235.493 172.753 235.596 172.652 235.668 172.523C235.742 172.394 235.778 172.246 235.778 172.081V169.333Z" fill="#085E3B"/>
<path d="M238.206 173.685H237.22L238.722 169.333H239.908L241.408 173.685H240.422L239.332 170.327H239.298L238.206 173.685ZM238.144 171.974H240.473V172.693H238.144V171.974Z" fill="#085E3B"/>
<path d="M243.475 173.685H241.932V169.333H243.488C243.926 169.333 244.302 169.42 244.618 169.594C244.934 169.767 245.177 170.016 245.347 170.34C245.519 170.665 245.604 171.053 245.604 171.505C245.604 171.958 245.519 172.348 245.347 172.674C245.177 172.999 244.933 173.25 244.614 173.424C244.297 173.598 243.917 173.685 243.475 173.685ZM242.852 172.897H243.437C243.709 172.897 243.938 172.849 244.123 172.752C244.31 172.655 244.451 172.504 244.544 172.3C244.639 172.094 244.686 171.829 244.686 171.505C244.686 171.183 244.639 170.92 244.544 170.716C244.451 170.512 244.311 170.362 244.125 170.266C243.94 170.17 243.711 170.121 243.439 170.121H242.852V172.897Z" fill="#085E3B"/>
<path d="M246.286 173.685V169.333H248.003C248.332 169.333 248.612 169.392 248.845 169.509C249.079 169.625 249.256 169.791 249.378 170.004C249.501 170.217 249.563 170.467 249.563 170.755C249.563 171.044 249.501 171.292 249.376 171.501C249.251 171.707 249.071 171.866 248.834 171.977C248.599 172.087 248.314 172.142 247.98 172.142H246.83V171.403H247.831C248.007 171.403 248.153 171.379 248.269 171.331C248.385 171.282 248.471 171.21 248.528 171.114C248.586 171.017 248.615 170.898 248.615 170.755C248.615 170.61 248.586 170.488 248.528 170.389C248.471 170.29 248.384 170.215 248.267 170.164C248.151 170.111 248.004 170.085 247.827 170.085H247.206V173.685H246.286ZM248.636 171.705L249.718 173.685H248.702L247.644 171.705H248.636Z" fill="#085E3B"/>
<path d="M250.964 173.685H249.977L251.48 169.333H252.666L254.166 173.685H253.18L252.09 170.327H252.056L250.964 173.685ZM250.902 171.974H253.231V172.693H250.902V171.974Z" fill="#085E3B"/>
<path d="M257.756 173.781C257.39 173.779 257.076 173.689 256.812 173.511C256.55 173.332 256.348 173.074 256.207 172.735C256.066 172.397 255.997 171.989 255.998 171.513C255.998 171.039 256.069 170.634 256.209 170.3C256.351 169.966 256.552 169.711 256.815 169.537C257.078 169.361 257.392 169.273 257.756 169.273C258.12 169.273 258.433 169.361 258.695 169.537C258.959 169.713 259.161 169.968 259.303 170.302C259.445 170.635 259.515 171.039 259.513 171.513C259.513 171.991 259.443 172.399 259.301 172.737C259.161 173.076 258.959 173.335 258.697 173.513C258.435 173.692 258.121 173.781 257.756 173.781ZM257.756 173.018C258.005 173.018 258.204 172.893 258.353 172.642C258.502 172.391 258.576 172.015 258.574 171.513C258.574 171.183 258.54 170.908 258.472 170.689C258.406 170.469 258.311 170.304 258.187 170.194C258.066 170.083 257.922 170.028 257.756 170.028C257.508 170.028 257.31 170.152 257.161 170.4C257.012 170.648 256.937 171.019 256.936 171.513C256.936 171.848 256.969 172.127 257.036 172.351C257.104 172.573 257.199 172.74 257.322 172.852C257.446 172.963 257.59 173.018 257.756 173.018Z" fill="#085E3B"/>
<path d="M262.063 169.333V173.685H261.143V170.206H261.117L260.121 170.831V170.015L261.198 169.333H262.063Z" fill="#085E3B"/>
<path d="M62.5876 46.4365V150.969H53.7425V46.4365H62.5876Z" stroke="#085E3B" stroke-width="20.1025"/>
<path d="M156.466 62.7197V151.17H147.621V62.7197H156.466Z" stroke="#085E3B" stroke-width="20.1025"/>
<path d="M250.545 99.3061V151.17H241.7V99.3061H250.545Z" stroke="#085E3B" stroke-width="20.1025"/>
<path d="M55.219 24.9275C55.4743 24.9296 55.7297 24.9782 55.9851 25.0735C56.2404 25.1687 56.4735 25.3268 56.6843 25.5477C56.8951 25.7666 57.0643 26.0655 57.192 26.4445C57.3197 26.8235 57.3835 27.2988 57.3835 27.8704C57.3835 28.4237 57.3308 28.9151 57.2254 29.3448C57.1221 29.7724 56.9721 30.1332 56.7755 30.4271C56.5809 30.721 56.3438 30.9439 56.0641 31.0959C55.7864 31.2479 55.4723 31.3239 55.1217 31.3239C54.7731 31.3239 54.462 31.255 54.1884 31.1172C53.9168 30.9773 53.6938 30.7838 53.5195 30.5365C53.3473 30.2872 53.2368 29.9984 53.1882 29.6701H53.93C53.9968 29.9559 54.1296 30.192 54.3282 30.3784C54.5289 30.5629 54.7933 30.6551 55.1217 30.6551C55.602 30.6551 55.981 30.4453 56.2587 30.0258C56.5384 29.6063 56.6782 29.0134 56.6782 28.2473H56.6296C56.5161 28.4176 56.3813 28.5645 56.2252 28.6881C56.0692 28.8118 55.8959 28.907 55.7054 28.9739C55.5149 29.0408 55.3122 29.0742 55.0974 29.0742C54.7406 29.0742 54.4133 28.9861 54.1154 28.8097C53.8195 28.6314 53.5824 28.3872 53.404 28.0771C53.2277 27.765 53.1395 27.4083 53.1395 27.007C53.1395 26.6259 53.2246 26.2773 53.3949 25.9612C53.5672 25.643 53.8083 25.3896 54.1184 25.2011C54.4306 25.0127 54.7974 24.9215 55.219 24.9275ZM55.219 25.5964C54.9636 25.5964 54.7336 25.6602 54.5289 25.7879C54.3262 25.9135 54.1651 26.0838 54.0455 26.2986C53.9279 26.5114 53.8692 26.7475 53.8692 27.007C53.8692 27.2664 53.9259 27.5025 54.0394 27.7153C54.1549 27.9261 54.312 28.0943 54.5106 28.22C54.7113 28.3436 54.9393 28.4054 55.1946 28.4054C55.3872 28.4054 55.5665 28.3679 55.7327 28.2929C55.8989 28.2159 56.0438 28.1115 56.1675 27.9798C56.2931 27.846 56.3914 27.695 56.4624 27.5268C56.5333 27.3566 56.5688 27.1792 56.5688 26.9948C56.5688 26.7516 56.51 26.5236 56.3924 26.3108C56.2769 26.098 56.1168 25.9257 55.9121 25.794C55.7094 25.6622 55.4784 25.5964 55.219 25.5964Z" fill="#085E3B"/>
<path d="M60.5612 24.9275C60.8165 24.9296 61.0719 24.9782 61.3273 25.0735C61.5827 25.1687 61.8157 25.3268 62.0265 25.5477C62.2373 25.7666 62.4065 26.0655 62.5342 26.4445C62.6619 26.8235 62.7257 27.2988 62.7257 27.8704C62.7257 28.4237 62.673 28.9151 62.5676 29.3448C62.4643 29.7724 62.3143 30.1332 62.1177 30.4271C61.9231 30.721 61.686 30.9439 61.4063 31.0959C61.1287 31.2479 60.8145 31.3239 60.4639 31.3239C60.1153 31.3239 59.8042 31.255 59.5306 31.1172C59.259 30.9773 59.0361 30.7838 58.8618 30.5365C58.6895 30.2872 58.579 29.9984 58.5304 29.6701H59.2722C59.3391 29.9559 59.4718 30.192 59.6704 30.3784C59.8711 30.5629 60.1356 30.6551 60.4639 30.6551C60.9442 30.6551 61.3232 30.4453 61.6009 30.0258C61.8806 29.6063 62.0204 29.0134 62.0204 28.2473H61.9718C61.8583 28.4176 61.7235 28.5645 61.5675 28.6881C61.4114 28.8118 61.2381 28.907 61.0476 28.9739C60.8571 29.0408 60.6544 29.0742 60.4396 29.0742C60.0829 29.0742 59.7556 28.9861 59.4576 28.8097C59.1617 28.6314 58.9246 28.3872 58.7462 28.0771C58.5699 27.765 58.4817 27.4083 58.4817 27.007C58.4817 26.6259 58.5669 26.2773 58.7371 25.9612C58.9094 25.643 59.1506 25.3896 59.4607 25.2011C59.7728 25.0127 60.1396 24.9215 60.5612 24.9275ZM60.5612 25.5964C60.3058 25.5964 60.0758 25.6602 59.8711 25.7879C59.6684 25.9135 59.5073 26.0838 59.3877 26.2986C59.2701 26.5114 59.2114 26.7475 59.2114 27.007C59.2114 27.2664 59.2681 27.5025 59.3816 27.7153C59.4971 27.9261 59.6542 28.0943 59.8528 28.22C60.0535 28.3436 60.2815 28.4054 60.5369 28.4054C60.7294 28.4054 60.9088 28.3679 61.075 28.2929C61.2411 28.2159 61.3861 28.1115 61.5097 27.9798C61.6353 27.846 61.7336 27.695 61.8046 27.5268C61.8755 27.3566 61.911 27.1792 61.911 26.9948C61.911 26.7516 61.8522 26.5236 61.7347 26.3108C61.6191 26.098 61.459 25.9257 61.2543 25.794C61.0516 25.6622 60.8206 25.5964 60.5612 25.5964Z" fill="#085E3B"/>
<path d="M149.852 47.1117C149.499 47.1117 149.187 47.0492 148.916 46.9241C148.647 46.7973 148.437 46.6234 148.287 46.4024C148.136 46.1797 148.061 45.9261 148.063 45.6417C148.061 45.419 148.105 45.2134 148.194 45.0249C148.283 44.8347 148.405 44.6763 148.559 44.5495C148.715 44.421 148.889 44.3396 149.081 44.3053V44.2745C148.829 44.2094 148.628 44.0681 148.479 43.8505C148.33 43.6312 148.257 43.3819 148.258 43.1026C148.257 42.8354 148.324 42.5964 148.461 42.3856C148.598 42.1749 148.787 42.0087 149.027 41.8871C149.268 41.7654 149.543 41.7046 149.852 41.7046C150.157 41.7046 150.429 41.7654 150.669 41.8871C150.909 42.0087 151.097 42.1749 151.234 42.3856C151.373 42.5964 151.443 42.8354 151.445 43.1026C151.443 43.3819 151.367 43.6312 151.216 43.8505C151.067 44.0681 150.869 44.2094 150.623 44.2745V44.3053C150.813 44.3396 150.984 44.421 151.137 44.5495C151.289 44.6763 151.411 44.8347 151.502 45.0249C151.592 45.2134 151.639 45.419 151.64 45.6417C151.639 45.9261 151.562 46.1797 151.409 46.4024C151.258 46.6234 151.048 46.7973 150.779 46.9241C150.512 47.0492 150.203 47.1117 149.852 47.1117ZM149.852 46.5463C150.09 46.5463 150.295 46.5078 150.468 46.4307C150.642 46.3536 150.775 46.2448 150.869 46.1043C150.964 45.9638 151.012 45.7993 151.013 45.6109C151.012 45.4121 150.96 45.2365 150.859 45.084C150.758 44.9315 150.62 44.8116 150.445 44.7242C150.272 44.6369 150.074 44.5932 149.852 44.5932C149.627 44.5932 149.427 44.6369 149.25 44.7242C149.076 44.8116 148.938 44.9315 148.837 45.084C148.737 45.2365 148.688 45.4121 148.69 45.6109C148.688 45.7993 148.734 45.9638 148.826 46.1043C148.921 46.2448 149.055 46.3536 149.23 46.4307C149.405 46.5078 149.612 46.5463 149.852 46.5463ZM149.852 44.0484C150.04 44.0484 150.207 44.0107 150.353 43.9353C150.5 43.8599 150.616 43.7545 150.7 43.6192C150.784 43.4838 150.827 43.3253 150.828 43.1437C150.827 42.9656 150.785 42.8105 150.702 42.6786C150.62 42.545 150.506 42.4422 150.361 42.3702C150.215 42.2965 150.045 42.2597 149.852 42.2597C149.655 42.2597 149.482 42.2965 149.335 42.3702C149.188 42.4422 149.074 42.545 148.993 42.6786C148.913 42.8105 148.873 42.9656 148.875 43.1437C148.873 43.3253 148.914 43.4838 148.996 43.6192C149.08 43.7545 149.196 43.8599 149.343 43.9353C149.49 44.0107 149.66 44.0484 149.852 44.0484Z" fill="#085E3B"/>
<path d="M154.373 47.1117C154.157 47.1083 153.941 47.0671 153.725 46.9883C153.509 46.9095 153.312 46.7767 153.134 46.59C152.956 46.4015 152.813 46.1471 152.705 45.8267C152.597 45.5046 152.543 45.1003 152.543 44.6137C152.543 44.1477 152.587 43.7348 152.674 43.375C152.761 43.0135 152.888 42.7094 153.054 42.4627C153.221 42.2143 153.421 42.0258 153.656 41.8973C153.892 41.7688 154.159 41.7046 154.455 41.7046C154.75 41.7046 155.012 41.7637 155.241 41.8819C155.473 41.9984 155.661 42.1612 155.807 42.3702C155.952 42.5792 156.047 42.8199 156.09 43.0923H155.462C155.404 42.8559 155.291 42.6597 155.123 42.5038C154.955 42.3479 154.733 42.27 154.455 42.27C154.047 42.27 153.726 42.4473 153.491 42.8019C153.258 43.1566 153.141 43.6543 153.139 44.2951H153.18C153.276 44.1494 153.39 44.0252 153.522 43.9224C153.656 43.8179 153.803 43.7374 153.964 43.6809C154.125 43.6243 154.296 43.596 154.476 43.596C154.777 43.596 155.053 43.6714 155.303 43.8222C155.553 43.9713 155.754 44.1777 155.904 44.4415C156.055 44.7037 156.131 45.0044 156.131 45.3436C156.131 45.6691 156.058 45.9672 155.912 46.2379C155.767 46.5069 155.562 46.7211 155.298 46.8804C155.036 47.038 154.727 47.1151 154.373 47.1117ZM154.373 46.5463C154.589 46.5463 154.782 46.4923 154.954 46.3844C155.127 46.2765 155.263 46.1317 155.362 45.9501C155.463 45.7685 155.514 45.5663 155.514 45.3436C155.514 45.126 155.465 44.9281 155.367 44.7499C155.271 44.57 155.139 44.427 154.969 44.3208C154.801 44.2145 154.609 44.1614 154.393 44.1614C154.231 44.1614 154.079 44.194 153.939 44.2591C153.798 44.3225 153.675 44.4099 153.568 44.5212C153.464 44.6326 153.382 44.7602 153.322 44.9041C153.262 45.0463 153.232 45.1962 153.232 45.3539C153.232 45.5629 153.281 45.7582 153.378 45.9398C153.478 46.1214 153.613 46.2679 153.784 46.3793C153.957 46.4906 154.154 46.5463 154.373 46.5463Z" fill="#085E3B"/>
<defs>
<linearGradient id="paint0_linear_43_334" x1="61.9846" y1="-33.772" x2="283.916" y2="209.267" gradientUnits="userSpaceOnUse">
<stop stop-color="#B9FFE3"/>
<stop offset="1" stop-color="#DBE8E3"/>
</linearGradient>
</defs>
</svg>
