<svg width="516" height="316" viewBox="0 0 516 316" fill="none" xmlns="http://www.w3.org/2000/svg">
<path d="M250.045 143.507L256.132 143.823L262.219 143.511L377.309 137.617L376.706 141.658C374.541 156.177 374.536 170.936 376.692 185.456L377.124 188.367L263.725 181.107L256.122 180.62L248.519 181.113L138.872 188.224L140.211 179.333L23.2907 161.722L140.211 179.333C142.283 165.577 142.415 151.607 140.609 137.83L250.045 143.507ZM117.465 136.629H117.465L23.2232 152.192L117.465 136.629Z" stroke="url(#paint0_linear_31_211)" stroke-width="236.479"/>
<path d="M69.8614 285.313H71.1535L71.803 286.148L72.4421 286.893L73.6464 288.402H72.2279L71.3993 287.384L70.9744 286.78L69.8614 285.313ZM73.7552 284.217C73.7552 285.001 73.6066 285.668 73.3093 286.219C73.0144 286.769 72.6118 287.189 72.1015 287.479C71.5935 287.767 71.0224 287.911 70.3881 287.911C69.749 287.911 69.1755 287.766 68.6676 287.475C68.1597 287.185 67.7582 286.765 67.4633 286.215C67.1683 285.665 67.0209 284.999 67.0209 284.217C67.0209 283.433 67.1683 282.766 67.4633 282.216C67.7582 281.666 68.1597 281.247 68.6676 280.959C69.1755 280.669 69.749 280.523 70.3881 280.523C71.0224 280.523 71.5935 280.669 72.1015 280.959C72.6118 281.247 73.0144 281.666 73.3093 282.216C73.6066 282.766 73.7552 283.433 73.7552 284.217ZM72.2138 284.217C72.2138 283.709 72.1378 283.281 71.9856 282.932C71.8358 282.583 71.624 282.319 71.3501 282.139C71.0762 281.958 70.7556 281.868 70.3881 281.868C70.0206 281.868 69.6999 281.958 69.426 282.139C69.1521 282.319 68.9391 282.583 68.787 282.932C68.6372 283.281 68.5623 283.709 68.5623 284.217C68.5623 284.725 68.6372 285.153 68.787 285.502C68.9391 285.851 69.1521 286.116 69.426 286.296C69.6999 286.476 70.0206 286.566 70.3881 286.566C70.7556 286.566 71.0762 286.476 71.3501 286.296C71.624 286.116 71.8358 285.851 71.9856 285.502C72.1378 285.153 72.2138 284.725 72.2138 284.217Z" fill="#085E3B"/>
<path d="M79.323 280.622H80.8434V285.292C80.8434 285.816 80.7181 286.275 80.4677 286.668C80.2195 287.061 79.8719 287.368 79.4249 287.588C78.9778 287.806 78.4569 287.914 77.8624 287.914C77.2655 287.914 76.7435 287.806 76.2964 287.588C75.8493 287.368 75.5017 287.061 75.2536 286.668C75.0055 286.275 74.8814 285.816 74.8814 285.292V280.622H76.4018V285.162C76.4018 285.436 76.4614 285.679 76.5808 285.892C76.7025 286.105 76.8734 286.272 77.0935 286.394C77.3135 286.516 77.5698 286.577 77.8624 286.577C78.1573 286.577 78.4136 286.516 78.6313 286.394C78.8514 286.272 79.0211 286.105 79.1404 285.892C79.2622 285.679 79.323 285.436 79.323 285.162V280.622Z" fill="#085E3B"/>
<path d="M83.3336 287.813H81.7045L84.1868 280.622H86.146L88.6249 287.813H86.9957L85.1945 282.265H85.1384L83.3336 287.813ZM83.2318 284.986H87.08V286.173H83.2318V284.986Z" fill="#085E3B"/>
<path d="M92.0395 287.813H89.4904V280.622H92.0606C92.7839 280.622 93.4065 280.766 93.9285 281.054C94.4505 281.339 94.8519 281.75 95.1328 282.286C95.416 282.822 95.5577 283.463 95.5577 284.21C95.5577 284.959 95.416 285.603 95.1328 286.141C94.8519 286.68 94.4481 287.093 93.9215 287.381C93.3971 287.669 92.7698 287.813 92.0395 287.813ZM91.0107 286.51H91.9763C92.4257 286.51 92.8038 286.43 93.1104 286.271C93.4194 286.11 93.6511 285.86 93.8056 285.523C93.9624 285.184 94.0408 284.746 94.0408 284.21C94.0408 283.679 93.9624 283.245 93.8056 282.908C93.6511 282.57 93.4205 282.322 93.1139 282.163C92.8073 282.004 92.4292 281.924 91.9798 281.924H91.0107V286.51Z" fill="#085E3B"/>
<path d="M96.6839 287.813V280.622H99.5209C100.064 280.622 100.527 280.719 100.911 280.913C101.297 281.105 101.591 281.378 101.793 281.731C101.996 282.082 102.098 282.496 102.098 282.971C102.098 283.448 101.995 283.859 101.789 284.203C101.583 284.545 101.285 284.807 100.894 284.99C100.505 285.172 100.035 285.263 99.4822 285.263H97.5827V284.042H99.2365C99.5267 284.042 99.7678 284.002 99.9598 283.922C100.152 283.843 100.294 283.723 100.388 283.564C100.484 283.405 100.532 283.207 100.532 282.971C100.532 282.732 100.484 282.531 100.388 282.367C100.294 282.203 100.151 282.079 99.9562 281.995C99.7643 281.908 99.522 281.865 99.2294 281.865H98.2042V287.813H96.6839ZM100.567 284.54L102.354 287.813H100.676L98.9275 284.54H100.567Z" fill="#085E3B"/>
<path d="M104.412 287.813H102.783L105.265 280.622H107.224L109.703 287.813H108.074L106.273 282.265H106.217L104.412 287.813ZM104.31 284.986H108.158V286.173H104.31V284.986Z" fill="#085E3B"/>
<path d="M115.634 287.971C115.03 287.968 114.511 287.82 114.075 287.525C113.642 287.23 113.309 286.803 113.075 286.243C112.843 285.684 112.728 285.011 112.731 284.224C112.731 283.44 112.847 282.772 113.078 282.219C113.312 281.667 113.646 281.247 114.079 280.959C114.514 280.669 115.033 280.523 115.634 280.523C116.236 280.523 116.753 280.669 117.186 280.959C117.622 281.249 117.956 281.67 118.19 282.223C118.425 282.773 118.54 283.44 118.538 284.224C118.538 285.013 118.421 285.687 118.187 286.247C117.955 286.806 117.623 287.233 117.19 287.528C116.757 287.823 116.238 287.971 115.634 287.971ZM115.634 286.71C116.046 286.71 116.375 286.503 116.621 286.089C116.867 285.674 116.988 285.053 116.986 284.224C116.986 283.679 116.93 283.225 116.818 282.862C116.708 282.499 116.551 282.226 116.347 282.044C116.146 281.861 115.908 281.77 115.634 281.77C115.225 281.77 114.897 281.975 114.651 282.384C114.405 282.794 114.281 283.407 114.279 284.224C114.279 284.777 114.334 285.238 114.444 285.608C114.556 285.975 114.714 286.251 114.918 286.436C115.122 286.619 115.36 286.71 115.634 286.71Z" fill="#085E3B"/>
<path d="M122.28 287.911C121.756 287.911 121.289 287.821 120.879 287.641C120.472 287.458 120.15 287.207 119.914 286.889C119.679 286.568 119.559 286.199 119.552 285.78H121.083C121.092 285.955 121.149 286.11 121.255 286.243C121.362 286.374 121.505 286.476 121.683 286.549C121.861 286.621 122.061 286.657 122.284 286.657C122.515 286.657 122.72 286.616 122.898 286.535C123.076 286.453 123.215 286.339 123.316 286.194C123.417 286.049 123.467 285.881 123.467 285.692C123.467 285.5 123.413 285.33 123.305 285.183C123.2 285.033 123.048 284.916 122.849 284.832C122.652 284.747 122.418 284.705 122.147 284.705H121.476V283.589H122.147C122.376 283.589 122.579 283.549 122.754 283.469C122.932 283.39 123.07 283.28 123.168 283.139C123.267 282.996 123.316 282.83 123.316 282.641C123.316 282.46 123.273 282.302 123.186 282.167C123.102 282.029 122.982 281.921 122.828 281.844C122.676 281.766 122.498 281.728 122.294 281.728C122.088 281.728 121.9 281.765 121.729 281.84C121.558 281.913 121.421 282.017 121.318 282.153C121.215 282.288 121.16 282.448 121.153 282.63H119.696C119.703 282.216 119.821 281.851 120.05 281.535C120.28 281.219 120.589 280.972 120.977 280.794C121.368 280.614 121.81 280.523 122.301 280.523C122.797 280.523 123.232 280.614 123.604 280.794C123.976 280.974 124.265 281.217 124.471 281.524C124.679 281.828 124.782 282.17 124.78 282.549C124.782 282.952 124.657 283.288 124.404 283.557C124.154 283.826 123.827 283.997 123.425 284.07V284.126C123.954 284.194 124.356 284.377 124.633 284.677C124.911 284.974 125.049 285.347 125.047 285.794C125.049 286.203 124.931 286.567 124.692 286.886C124.456 287.204 124.129 287.454 123.713 287.637C123.296 287.82 122.818 287.911 122.28 287.911Z" fill="#085E3B"/>
<path d="M224.636 285.313H225.928L226.577 286.148L227.216 286.893L228.421 288.402H227.002L226.174 287.384L225.749 286.78L224.636 285.313ZM228.53 284.217C228.53 285.001 228.381 285.668 228.084 286.219C227.789 286.769 227.386 287.189 226.876 287.479C226.368 287.767 225.797 287.911 225.162 287.911C224.523 287.911 223.95 287.766 223.442 287.475C222.934 287.185 222.533 286.765 222.238 286.215C221.943 285.665 221.795 284.999 221.795 284.217C221.795 283.433 221.943 282.766 222.238 282.216C222.533 281.666 222.934 281.247 223.442 280.959C223.95 280.669 224.523 280.523 225.162 280.523C225.797 280.523 226.368 280.669 226.876 280.959C227.386 281.247 227.789 281.666 228.084 282.216C228.381 282.766 228.53 283.433 228.53 284.217ZM226.988 284.217C226.988 283.709 226.912 283.281 226.76 282.932C226.61 282.583 226.398 282.319 226.124 282.139C225.851 281.958 225.53 281.868 225.162 281.868C224.795 281.868 224.474 281.958 224.2 282.139C223.927 282.319 223.713 282.583 223.561 282.932C223.412 283.281 223.337 283.709 223.337 284.217C223.337 284.725 223.412 285.153 223.561 285.502C223.713 285.851 223.927 286.116 224.2 286.296C224.474 286.476 224.795 286.566 225.162 286.566C225.53 286.566 225.851 286.476 226.124 286.296C226.398 286.116 226.61 285.851 226.76 285.502C226.912 285.153 226.988 284.725 226.988 284.217Z" fill="#085E3B"/>
<path d="M234.097 280.622H235.618V285.292C235.618 285.816 235.492 286.275 235.242 286.668C234.994 287.061 234.646 287.368 234.199 287.588C233.752 287.806 233.231 287.914 232.637 287.914C232.04 287.914 231.518 287.806 231.071 287.588C230.624 287.368 230.276 287.061 230.028 286.668C229.78 286.275 229.656 285.816 229.656 285.292V280.622H231.176V285.162C231.176 285.436 231.236 285.679 231.355 285.892C231.477 286.105 231.648 286.272 231.868 286.394C232.088 286.516 232.344 286.577 232.637 286.577C232.932 286.577 233.188 286.516 233.406 286.394C233.626 286.272 233.795 286.105 233.915 285.892C234.037 285.679 234.097 285.436 234.097 285.162V280.622Z" fill="#085E3B"/>
<path d="M238.108 287.813H236.479L238.961 280.622H240.92L243.399 287.813H241.77L239.969 282.265H239.913L238.108 287.813ZM238.006 284.986H241.854V286.173H238.006V284.986Z" fill="#085E3B"/>
<path d="M246.814 287.813H244.265V280.622H246.835C247.558 280.622 248.181 280.766 248.703 281.054C249.225 281.339 249.626 281.75 249.907 282.286C250.19 282.822 250.332 283.463 250.332 284.21C250.332 284.959 250.19 285.603 249.907 286.141C249.626 286.68 249.222 287.093 248.696 287.381C248.171 287.669 247.544 287.813 246.814 287.813ZM245.785 286.51H246.751C247.2 286.51 247.578 286.43 247.885 286.271C248.194 286.11 248.425 285.86 248.58 285.523C248.737 285.184 248.815 284.746 248.815 284.21C248.815 283.679 248.737 283.245 248.58 282.908C248.425 282.57 248.195 282.322 247.888 282.163C247.582 282.004 247.204 281.924 246.754 281.924H245.785V286.51Z" fill="#085E3B"/>
<path d="M251.458 287.813V280.622H254.295C254.838 280.622 255.302 280.719 255.686 280.913C256.072 281.105 256.366 281.378 256.567 281.731C256.771 282.082 256.872 282.496 256.872 282.971C256.872 283.448 256.769 283.859 256.563 284.203C256.357 284.545 256.059 284.807 255.668 284.99C255.28 285.172 254.809 285.263 254.257 285.263H252.357V284.042H254.011C254.301 284.042 254.542 284.002 254.734 283.922C254.926 283.843 255.069 283.723 255.162 283.564C255.258 283.405 255.306 283.207 255.306 282.971C255.306 282.732 255.258 282.531 255.162 282.367C255.069 282.203 254.925 282.079 254.731 281.995C254.539 281.908 254.296 281.865 254.004 281.865H252.979V287.813H251.458ZM255.342 284.54L257.129 287.813H255.45L253.702 284.54H255.342Z" fill="#085E3B"/>
<path d="M259.186 287.813H257.557L260.039 280.622H261.999L264.478 287.813H262.848L261.047 282.265H260.991L259.186 287.813ZM259.084 284.986H262.933V286.173H259.084V284.986Z" fill="#085E3B"/>
<path d="M270.409 287.971C269.805 287.968 269.285 287.82 268.85 287.525C268.417 287.23 268.083 286.803 267.849 286.243C267.617 285.684 267.503 285.011 267.505 284.224C267.505 283.44 267.621 282.772 267.853 282.219C268.087 281.667 268.42 281.247 268.853 280.959C269.289 280.669 269.807 280.523 270.409 280.523C271.01 280.523 271.528 280.669 271.961 280.959C272.396 281.249 272.731 281.67 272.965 282.223C273.199 282.773 273.315 283.44 273.312 284.224C273.312 285.013 273.195 285.687 272.961 286.247C272.73 286.806 272.397 287.233 271.964 287.528C271.531 287.823 271.013 287.971 270.409 287.971ZM270.409 286.71C270.821 286.71 271.15 286.503 271.395 286.089C271.641 285.674 271.763 285.053 271.76 284.224C271.76 283.679 271.704 283.225 271.592 282.862C271.482 282.499 271.325 282.226 271.121 282.044C270.92 281.861 270.683 281.77 270.409 281.77C269.999 281.77 269.671 281.975 269.426 282.384C269.18 282.794 269.056 283.407 269.053 284.224C269.053 284.777 269.108 285.238 269.218 285.608C269.331 285.975 269.489 286.251 269.692 286.436C269.896 286.619 270.135 286.71 270.409 286.71Z" fill="#085E3B"/>
<path d="M274.396 287.813V286.717L276.956 284.347C277.174 284.136 277.356 283.947 277.504 283.778C277.654 283.61 277.767 283.445 277.844 283.283C277.922 283.119 277.96 282.943 277.96 282.753C277.96 282.542 277.912 282.361 277.816 282.209C277.72 282.054 277.589 281.936 277.423 281.854C277.257 281.77 277.068 281.728 276.858 281.728C276.638 281.728 276.446 281.772 276.282 281.861C276.118 281.95 275.992 282.078 275.903 282.244C275.814 282.41 275.769 282.608 275.769 282.837H274.326C274.326 282.367 274.433 281.958 274.646 281.612C274.859 281.265 275.157 280.997 275.541 280.808C275.925 280.618 276.367 280.523 276.868 280.523C277.383 280.523 277.832 280.615 278.213 280.797C278.597 280.978 278.895 281.228 279.108 281.549C279.321 281.869 279.428 282.237 279.428 282.651C279.428 282.923 279.374 283.191 279.266 283.455C279.161 283.72 278.973 284.014 278.701 284.337C278.43 284.657 278.047 285.042 277.553 285.492L276.503 286.52V286.57H279.523V287.813H274.396Z" fill="#085E3B"/>
<path d="M380.074 285.313H381.366L382.016 286.148L382.655 286.893L383.859 288.402H382.441L381.612 287.384L381.187 286.78L380.074 285.313ZM383.968 284.217C383.968 285.001 383.82 285.668 383.522 286.219C383.227 286.769 382.825 287.189 382.314 287.479C381.807 287.767 381.235 287.911 380.601 287.911C379.962 287.911 379.389 287.766 378.881 287.475C378.373 287.185 377.971 286.765 377.676 286.215C377.381 285.665 377.234 284.999 377.234 284.217C377.234 283.433 377.381 282.766 377.676 282.216C377.971 281.666 378.373 281.247 378.881 280.959C379.389 280.669 379.962 280.523 380.601 280.523C381.235 280.523 381.807 280.669 382.314 280.959C382.825 281.247 383.227 281.666 383.522 282.216C383.82 282.766 383.968 283.433 383.968 284.217ZM382.427 284.217C382.427 283.709 382.351 283.281 382.199 282.932C382.049 282.583 381.837 282.319 381.563 282.139C381.289 281.958 380.969 281.868 380.601 281.868C380.234 281.868 379.913 281.958 379.639 282.139C379.365 282.319 379.152 282.583 379 282.932C378.85 283.281 378.775 283.709 378.775 284.217C378.775 284.725 378.85 285.153 379 285.502C379.152 285.851 379.365 286.116 379.639 286.296C379.913 286.476 380.234 286.566 380.601 286.566C380.969 286.566 381.289 286.476 381.563 286.296C381.837 286.116 382.049 285.851 382.199 285.502C382.351 285.153 382.427 284.725 382.427 284.217Z" fill="#085E3B"/>
<path d="M389.536 280.622H391.056V285.292C391.056 285.816 390.931 286.275 390.681 286.668C390.433 287.061 390.085 287.368 389.638 287.588C389.191 287.806 388.67 287.914 388.075 287.914C387.478 287.914 386.956 287.806 386.509 287.588C386.062 287.368 385.715 287.061 385.467 286.668C385.218 286.275 385.094 285.816 385.094 285.292V280.622H386.615V285.162C386.615 285.436 386.674 285.679 386.794 285.892C386.916 286.105 387.086 286.272 387.306 286.394C387.526 286.516 387.783 286.577 388.075 286.577C388.37 286.577 388.627 286.516 388.844 286.394C389.064 286.272 389.234 286.105 389.353 285.892C389.475 285.679 389.536 285.436 389.536 285.162V280.622Z" fill="#085E3B"/>
<path d="M393.547 287.813H391.917L394.4 280.622H396.359L398.838 287.813H397.209L395.408 282.265H395.351L393.547 287.813ZM393.445 284.986H397.293V286.173H393.445V284.986Z" fill="#085E3B"/>
<path d="M402.253 287.813H399.703V280.622H402.274C402.997 280.622 403.62 280.766 404.141 281.054C404.663 281.339 405.065 281.75 405.346 282.286C405.629 282.822 405.771 283.463 405.771 284.21C405.771 284.959 405.629 285.603 405.346 286.141C405.065 286.68 404.661 287.093 404.134 287.381C403.61 287.669 402.983 287.813 402.253 287.813ZM401.224 286.51H402.189C402.639 286.51 403.017 286.43 403.323 286.271C403.632 286.11 403.864 285.86 404.019 285.523C404.175 285.184 404.254 284.746 404.254 284.21C404.254 283.679 404.175 283.245 404.019 282.908C403.864 282.57 403.634 282.322 403.327 282.163C403.02 282.004 402.642 281.924 402.193 281.924H401.224V286.51Z" fill="#085E3B"/>
<path d="M406.897 287.813V280.622H409.734C410.277 280.622 410.74 280.719 411.124 280.913C411.51 281.105 411.804 281.378 412.006 281.731C412.209 282.082 412.311 282.496 412.311 282.971C412.311 283.448 412.208 283.859 412.002 284.203C411.796 284.545 411.498 284.807 411.107 284.99C410.718 285.172 410.248 285.263 409.695 285.263H407.796V284.042H409.449C409.74 284.042 409.981 284.002 410.173 283.922C410.365 283.843 410.507 283.723 410.601 283.564C410.697 283.405 410.745 283.207 410.745 282.971C410.745 282.732 410.697 282.531 410.601 282.367C410.507 282.203 410.364 282.079 410.169 281.995C409.977 281.908 409.735 281.865 409.442 281.865H408.417V287.813H406.897ZM410.78 284.54L412.567 287.813H410.889L409.14 284.54H410.78Z" fill="#085E3B"/>
<path d="M414.625 287.813H412.996L415.478 280.622H417.437L419.916 287.813H418.287L416.486 282.265H416.43L414.625 287.813ZM414.523 284.986H418.371V286.173H414.523V284.986Z" fill="#085E3B"/>
<path d="M425.847 287.971C425.243 287.968 424.724 287.82 424.288 287.525C423.855 287.23 423.522 286.803 423.288 286.243C423.056 285.684 422.941 285.011 422.944 284.224C422.944 283.44 423.06 282.772 423.291 282.219C423.525 281.667 423.859 281.247 424.292 280.959C424.727 280.669 425.246 280.523 425.847 280.523C426.449 280.523 426.966 280.669 427.399 280.959C427.835 281.249 428.169 281.67 428.403 282.223C428.638 282.773 428.753 283.44 428.751 284.224C428.751 285.013 428.634 285.687 428.4 286.247C428.168 286.806 427.836 287.233 427.403 287.528C426.97 287.823 426.451 287.971 425.847 287.971ZM425.847 286.71C426.259 286.71 426.588 286.503 426.834 286.089C427.08 285.674 427.201 285.053 427.199 284.224C427.199 283.679 427.143 283.225 427.031 282.862C426.921 282.499 426.764 282.226 426.56 282.044C426.359 281.861 426.121 281.77 425.847 281.77C425.438 281.77 425.11 281.975 424.864 282.384C424.618 282.794 424.494 283.407 424.492 284.224C424.492 284.777 424.547 285.238 424.657 285.608C424.769 285.975 424.927 286.251 425.131 286.436C425.335 286.619 425.573 286.71 425.847 286.71Z" fill="#085E3B"/>
<path d="M432.964 280.622V287.813H431.443V282.065H431.401L429.754 283.097V281.749L431.535 280.622H432.964Z" fill="#085E3B"/>
<path d="M103.211 64.8455V250.292H89.0345V64.8455H103.211Z" stroke="#085E3B" stroke-width="33.2134"/>
<path d="M258.684 139.672V250.291H243.676V139.672H258.684Z" stroke="#085E3B" stroke-width="33.2134"/>
<path d="M414.157 152.974V250.292H399.149V152.974H414.157Z" stroke="#085E3B" stroke-width="33.2134"/>
<path d="M63.4761 40.7558V32.2906H66.3364C66.9977 32.2906 67.5406 32.4036 67.965 32.6295C68.3893 32.8527 68.7035 33.16 68.9074 33.5513C69.1113 33.9426 69.2132 34.3876 69.2132 34.8864C69.2132 35.3851 69.1113 35.8274 68.9074 36.2132C68.7035 36.599 68.3907 36.9021 67.9691 37.1225C67.5475 37.3402 67.0088 37.4491 66.3529 37.4491H64.0382V36.5232H66.3199C66.7718 36.5232 67.1355 36.4571 67.4111 36.3248C67.6894 36.1925 67.8906 36.0051 68.0146 35.7626C68.1413 35.5174 68.2047 35.2253 68.2047 34.8864C68.2047 34.5474 68.1413 34.2512 68.0146 33.9977C67.8878 33.7442 67.6853 33.5485 67.4069 33.4107C67.1286 33.2702 66.7608 33.1999 66.3033 33.1999H64.5012V40.7558H63.4761ZM67.4607 36.9531L69.5439 40.7558H68.3535L66.3033 36.9531H67.4607Z" fill="#085E3B"/>
<path d="M73.2692 41.814V31.2324H73.947V41.814H73.2692ZM75.5508 34.4069C75.5012 33.988 75.3 33.6629 74.9473 33.4314C74.5946 33.1999 74.162 33.0842 73.6494 33.0842C73.2747 33.0842 72.9468 33.1448 72.6657 33.2661C72.3874 33.3873 72.1697 33.554 72.0126 33.7662C71.8583 33.9784 71.7811 34.2195 71.7811 34.4895C71.7811 34.7155 71.8349 34.9098 71.9423 35.0724C72.0526 35.2322 72.1931 35.3658 72.3639 35.4733C72.5348 35.578 72.7139 35.6648 72.9013 35.7337C73.0887 35.7998 73.2609 35.8536 73.418 35.8949L74.2777 36.1264C74.4982 36.1842 74.7434 36.2642 75.0135 36.3661C75.2863 36.4681 75.5467 36.6072 75.7947 36.7836C76.0454 36.9572 76.2521 37.1804 76.4147 37.4532C76.5773 37.726 76.6586 38.0608 76.6586 38.4576C76.6586 38.9151 76.5387 39.3284 76.2989 39.6976C76.062 40.0669 75.7148 40.3604 75.2573 40.5781C74.8027 40.7958 74.2502 40.9046 73.5998 40.9046C72.9936 40.9046 72.4687 40.8068 72.025 40.6111C71.5841 40.4155 71.2369 40.1427 70.9834 39.7927C70.7326 39.4428 70.5907 39.0363 70.5576 38.5734H71.6158C71.6433 38.893 71.7508 39.1575 71.9382 39.367C72.1283 39.5736 72.3681 39.728 72.6574 39.8299C72.9495 39.9291 73.2636 39.9787 73.5998 39.9787C73.9911 39.9787 74.3425 39.9153 74.6539 39.7886C74.9652 39.6591 75.2119 39.48 75.3937 39.2512C75.5756 39.0198 75.6665 38.7497 75.6665 38.4411C75.6665 38.16 75.588 37.9313 75.4309 37.7549C75.2739 37.5786 75.0672 37.4353 74.8109 37.3251C74.5546 37.2148 74.2777 37.1184 73.9801 37.0357L72.9385 36.7381C72.2771 36.548 71.7536 36.2766 71.3678 35.9238C70.982 35.5711 70.7891 35.1096 70.7891 34.5392C70.7891 34.0652 70.9172 33.6518 71.1735 33.2991C71.4325 32.9437 71.7798 32.6681 72.2151 32.4724C72.6533 32.274 73.1424 32.1748 73.6825 32.1748C74.2281 32.1748 74.7131 32.2727 75.1375 32.4683C75.5618 32.6612 75.898 32.9257 76.146 33.2619C76.3968 33.5981 76.529 33.9798 76.5428 34.4069H75.5508Z" fill="#085E3B"/>
<path d="M84.2795 40.8715C83.9323 40.866 83.5851 40.7999 83.2379 40.6731C82.8907 40.5464 82.5738 40.3328 82.2872 40.0325C82.0006 39.7293 81.7706 39.3201 81.5969 38.8048C81.4233 38.2868 81.3365 37.6365 81.3365 36.8539C81.3365 36.1043 81.4068 35.4402 81.5473 34.8616C81.6879 34.2801 81.8918 33.791 82.1591 33.3942C82.4264 32.9946 82.7488 32.6915 83.1263 32.4848C83.5066 32.2782 83.9351 32.1748 84.4118 32.1748C84.8858 32.1748 85.3074 32.2699 85.6766 32.46C86.0486 32.6474 86.3517 32.9092 86.586 33.2454C86.8202 33.5816 86.9718 33.9687 87.0406 34.4069H86.0321C85.9384 34.0266 85.7565 33.7111 85.4865 33.4603C85.2164 33.2096 84.8582 33.0842 84.4118 33.0842C83.756 33.0842 83.2393 33.3694 82.8618 33.9398C82.487 34.5102 82.2983 35.3107 82.2955 36.3413H82.3616C82.5159 36.1071 82.6992 35.9073 82.9114 35.742C83.1263 35.5739 83.3633 35.4444 83.6223 35.3534C83.8813 35.2625 84.1555 35.217 84.4449 35.217C84.9299 35.217 85.3735 35.3383 85.7758 35.5808C86.1781 35.8205 86.5006 36.1526 86.743 36.5769C86.9855 36.9985 87.1068 37.4821 87.1068 38.0277C87.1068 38.5513 86.9897 39.0308 86.7554 39.4662C86.5212 39.8988 86.1919 40.2433 85.7676 40.4995C85.346 40.753 84.8499 40.877 84.2795 40.8715ZM84.2795 39.9622C84.6267 39.9622 84.9381 39.8754 85.2137 39.7018C85.492 39.5282 85.7111 39.2953 85.8709 39.0032C86.0335 38.7111 86.1148 38.386 86.1148 38.0277C86.1148 37.6778 86.0362 37.3595 85.8792 37.0729C85.7248 36.7836 85.5113 36.5535 85.2385 36.3827C84.9684 36.2118 84.6598 36.1264 84.3126 36.1264C84.0508 36.1264 83.8069 36.1787 83.581 36.2835C83.355 36.3854 83.1566 36.5259 82.9858 36.7051C82.8177 36.8842 82.6854 37.0895 82.589 37.3209C82.4925 37.5497 82.4443 37.7908 82.4443 38.0443C82.4443 38.3805 82.5228 38.6946 82.6799 38.9867C82.8397 39.2788 83.0574 39.5144 83.333 39.6935C83.6113 39.8726 83.9268 39.9622 84.2795 39.9622Z" fill="#085E3B"/>
<path d="M89.0619 40.8219C88.858 40.8219 88.683 40.7489 88.5369 40.6029C88.3909 40.4568 88.3179 40.2818 88.3179 40.0779C88.3179 39.874 88.3909 39.699 88.5369 39.553C88.683 39.4069 88.858 39.3339 89.0619 39.3339C89.2658 39.3339 89.4408 39.4069 89.5868 39.553C89.7329 39.699 89.8059 39.874 89.8059 40.0779C89.8059 40.2129 89.7715 40.3369 89.7026 40.4499C89.6364 40.5629 89.5469 40.6538 89.4339 40.7227C89.3237 40.7889 89.1997 40.8219 89.0619 40.8219Z" fill="#085E3B"/>
<path d="M94.0054 40.8715C93.3827 40.8715 92.8522 40.7021 92.4141 40.3631C91.9759 40.0214 91.6411 39.5268 91.4097 38.8792C91.1782 38.2289 91.0625 37.4436 91.0625 36.5232C91.0625 35.6083 91.1782 34.8271 91.4097 34.1795C91.6439 33.5292 91.9801 33.0332 92.4182 32.6915C92.8591 32.3471 93.3882 32.1748 94.0054 32.1748C94.6227 32.1748 95.1504 32.3471 95.5885 32.6915C96.0294 33.0332 96.3656 33.5292 96.5971 34.1795C96.8313 34.8271 96.9484 35.6083 96.9484 36.5232C96.9484 37.4436 96.8327 38.2289 96.6012 38.8792C96.3698 39.5268 96.035 40.0214 95.5968 40.3631C95.1587 40.7021 94.6282 40.8715 94.0054 40.8715ZM94.0054 39.9622C94.6227 39.9622 95.1022 39.6646 95.4439 39.0694C95.7856 38.4742 95.9564 37.6254 95.9564 36.5232C95.9564 35.7902 95.8779 35.1661 95.7208 34.6508C95.5665 34.1355 95.3433 33.7428 95.0512 33.4727C94.7619 33.2027 94.4133 33.0677 94.0054 33.0677C93.3937 33.0677 92.9156 33.3694 92.5712 33.9729C92.2267 34.5736 92.0545 35.4237 92.0545 36.5232C92.0545 37.2562 92.1316 37.8789 92.2859 38.3915C92.4403 38.904 92.6621 39.294 92.9514 39.5612C93.2435 39.8285 93.5949 39.9622 94.0054 39.9622Z" fill="#085E3B"/>
<path d="M101.28 40.8715C100.657 40.8715 100.127 40.7021 99.6889 40.3631C99.2507 40.0214 98.9159 39.5268 98.6845 38.8792C98.453 38.2289 98.3373 37.4436 98.3373 36.5232C98.3373 35.6083 98.453 34.8271 98.6845 34.1795C98.9187 33.5292 99.2549 33.0332 99.693 32.6915C100.134 32.3471 100.663 32.1748 101.28 32.1748C101.898 32.1748 102.425 32.3471 102.863 32.6915C103.304 33.0332 103.64 33.5292 103.872 34.1795C104.106 34.8271 104.223 35.6083 104.223 36.5232C104.223 37.4436 104.108 38.2289 103.876 38.8792C103.645 39.5268 103.31 40.0214 102.872 40.3631C102.433 40.7021 101.903 40.8715 101.28 40.8715ZM101.28 39.9622C101.898 39.9622 102.377 39.6646 102.719 39.0694C103.06 38.4742 103.231 37.6254 103.231 36.5232C103.231 35.7902 103.153 35.1661 102.996 34.6508C102.841 34.1355 102.618 33.7428 102.326 33.4727C102.037 33.2027 101.688 33.0677 101.28 33.0677C100.669 33.0677 100.19 33.3694 99.846 33.9729C99.5015 34.5736 99.3293 35.4237 99.3293 36.5232C99.3293 37.2562 99.4064 37.8789 99.5608 38.3915C99.7151 38.904 99.9369 39.294 100.226 39.5612C100.518 39.8285 100.87 39.9622 101.28 39.9622Z" fill="#085E3B"/>
<path d="M108.439 40.8715C107.954 40.8715 107.518 40.7751 107.129 40.5822C106.74 40.3893 106.429 40.1248 106.195 39.7886C105.961 39.4524 105.833 39.0694 105.81 38.6395H106.802C106.841 39.0225 107.015 39.3394 107.323 39.5902C107.635 39.8382 108.007 39.9622 108.439 39.9622C108.787 39.9622 109.095 39.8809 109.365 39.7183C109.638 39.5557 109.852 39.3325 110.006 39.0487C110.163 38.7621 110.241 38.4383 110.241 38.0774C110.241 37.7081 110.16 37.3788 109.998 37.0895C109.838 36.7974 109.617 36.5673 109.336 36.3992C109.055 36.2311 108.734 36.1457 108.373 36.1429C108.114 36.1402 107.848 36.1801 107.575 36.2628C107.303 36.3427 107.078 36.446 106.902 36.5728L105.943 36.4571L106.455 32.2906H110.853V33.1999H107.315L107.017 35.6965H107.067C107.241 35.5587 107.458 35.4444 107.72 35.3534C107.982 35.2625 108.255 35.217 108.539 35.217C109.057 35.217 109.518 35.341 109.923 35.589C110.331 35.8343 110.651 36.1705 110.882 36.5976C111.116 37.0247 111.234 37.5125 111.234 38.0608C111.234 38.6009 111.112 39.0831 110.87 39.5075C110.63 39.9291 110.299 40.2625 109.878 40.5078C109.456 40.7503 108.977 40.8715 108.439 40.8715Z" fill="#085E3B"/>
<path d="M114.029 39.5984L113.963 40.0449C113.916 40.359 113.844 40.6952 113.748 41.0534C113.654 41.4116 113.556 41.7492 113.454 42.0661C113.352 42.383 113.268 42.6351 113.202 42.8225H112.458C112.494 42.6461 112.541 42.4133 112.599 42.124C112.656 41.8346 112.714 41.5108 112.772 41.1526C112.833 40.7971 112.882 40.4334 112.921 40.0614L112.971 39.5984H114.029Z" fill="#085E3B"/>
<path d="M118.285 40.8715C117.662 40.8715 117.132 40.7021 116.694 40.3631C116.256 40.0214 115.921 39.5268 115.689 38.8792C115.458 38.2289 115.342 37.4436 115.342 36.5232C115.342 35.6083 115.458 34.8271 115.689 34.1795C115.924 33.5292 116.26 33.0332 116.698 32.6915C117.139 32.3471 117.668 32.1748 118.285 32.1748C118.902 32.1748 119.43 32.3471 119.868 32.6915C120.309 33.0332 120.645 33.5292 120.877 34.1795C121.111 34.8271 121.228 35.6083 121.228 36.5232C121.228 37.4436 121.112 38.2289 120.881 38.8792C120.649 39.5268 120.315 40.0214 119.876 40.3631C119.438 40.7021 118.908 40.8715 118.285 40.8715ZM118.285 39.9622C118.902 39.9622 119.382 39.6646 119.724 39.0694C120.065 38.4742 120.236 37.6254 120.236 36.5232C120.236 35.7902 120.158 35.1661 120 34.6508C119.846 34.1355 119.623 33.7428 119.331 33.4727C119.042 33.2027 118.693 33.0677 118.285 33.0677C117.673 33.0677 117.195 33.3694 116.851 33.9729C116.506 34.5736 116.334 35.4237 116.334 36.5232C116.334 37.2562 116.411 37.8789 116.566 38.3915C116.72 38.904 116.942 39.294 117.231 39.5612C117.523 39.8285 117.875 39.9622 118.285 39.9622Z" fill="#085E3B"/>
<path d="M125.56 40.8715C124.937 40.8715 124.407 40.7021 123.969 40.3631C123.53 40.0214 123.196 39.5268 122.964 38.8792C122.733 38.2289 122.617 37.4436 122.617 36.5232C122.617 35.6083 122.733 34.8271 122.964 34.1795C123.198 33.5292 123.535 33.0332 123.973 32.6915C124.414 32.3471 124.943 32.1748 125.56 32.1748C126.177 32.1748 126.705 32.3471 127.143 32.6915C127.584 33.0332 127.92 33.5292 128.152 34.1795C128.386 34.8271 128.503 35.6083 128.503 36.5232C128.503 37.4436 128.387 38.2289 128.156 38.8792C127.924 39.5268 127.589 40.0214 127.151 40.3631C126.713 40.7021 126.183 40.8715 125.56 40.8715ZM125.56 39.9622C126.177 39.9622 126.657 39.6646 126.998 39.0694C127.34 38.4742 127.511 37.6254 127.511 36.5232C127.511 35.7902 127.432 35.1661 127.275 34.6508C127.121 34.1355 126.898 33.7428 126.606 33.4727C126.316 33.2027 125.968 33.0677 125.56 33.0677C124.948 33.0677 124.47 33.3694 124.126 33.9729C123.781 34.5736 123.609 35.4237 123.609 36.5232C123.609 37.2562 123.686 37.8789 123.84 38.3915C123.995 38.904 124.217 39.294 124.506 39.5612C124.798 39.8285 125.149 39.9622 125.56 39.9622Z" fill="#085E3B"/>
<path d="M218.118 115.582V107.117H220.978C221.639 107.117 222.182 107.23 222.606 107.456C223.031 107.679 223.345 107.987 223.549 108.378C223.753 108.769 223.855 109.214 223.855 109.713C223.855 110.212 223.753 110.654 223.549 111.04C223.345 111.426 223.032 111.729 222.611 111.949C222.189 112.167 221.65 112.276 220.994 112.276H218.68V111.35H220.961C221.413 111.35 221.777 111.284 222.053 111.151C222.331 111.019 222.532 110.832 222.656 110.589C222.783 110.344 222.846 110.052 222.846 109.713C222.846 109.374 222.783 109.078 222.656 108.824C222.529 108.571 222.327 108.375 222.048 108.237C221.77 108.097 221.402 108.026 220.945 108.026H219.143V115.582H218.118ZM222.102 111.78L224.185 115.582H222.995L220.945 111.78H222.102Z" fill="#085E3B"/>
<path d="M227.911 116.64V106.059H228.589V116.64H227.911ZM230.192 109.233C230.143 108.815 229.942 108.489 229.589 108.258C229.236 108.026 228.803 107.911 228.291 107.911C227.916 107.911 227.588 107.971 227.307 108.093C227.029 108.214 226.811 108.381 226.654 108.593C226.5 108.805 226.423 109.046 226.423 109.316C226.423 109.542 226.476 109.736 226.584 109.899C226.694 110.059 226.835 110.192 227.005 110.3C227.176 110.405 227.355 110.491 227.543 110.56C227.73 110.626 227.902 110.68 228.059 110.721L228.919 110.953C229.14 111.011 229.385 111.091 229.655 111.193C229.928 111.295 230.188 111.434 230.436 111.61C230.687 111.784 230.894 112.007 231.056 112.28C231.219 112.553 231.3 112.887 231.3 113.284C231.3 113.742 231.18 114.155 230.94 114.524C230.703 114.893 230.356 115.187 229.899 115.405C229.444 115.622 228.892 115.731 228.241 115.731C227.635 115.731 227.11 115.633 226.667 115.438C226.226 115.242 225.878 114.969 225.625 114.619C225.374 114.269 225.232 113.863 225.199 113.4H226.257C226.285 113.72 226.392 113.984 226.58 114.194C226.77 114.4 227.01 114.555 227.299 114.656C227.591 114.756 227.905 114.805 228.241 114.805C228.633 114.805 228.984 114.742 229.295 114.615C229.607 114.486 229.853 114.306 230.035 114.078C230.217 113.846 230.308 113.576 230.308 113.268C230.308 112.987 230.23 112.758 230.072 112.581C229.915 112.405 229.709 112.262 229.452 112.152C229.196 112.041 228.919 111.945 228.622 111.862L227.58 111.565C226.919 111.375 226.395 111.103 226.009 110.75C225.624 110.398 225.431 109.936 225.431 109.366C225.431 108.892 225.559 108.478 225.815 108.126C226.074 107.77 226.421 107.495 226.857 107.299C227.295 107.101 227.784 107.001 228.324 107.001C228.87 107.001 229.355 107.099 229.779 107.295C230.203 107.488 230.54 107.752 230.788 108.088C231.038 108.425 231.171 108.806 231.184 109.233H230.192Z" fill="#085E3B"/>
<path d="M238.756 115.698C238.271 115.698 237.834 115.602 237.445 115.409C237.057 115.216 236.745 114.951 236.511 114.615C236.277 114.279 236.149 113.896 236.127 113.466H237.119C237.157 113.849 237.331 114.166 237.64 114.417C237.951 114.665 238.323 114.789 238.756 114.789C239.103 114.789 239.412 114.707 239.682 114.545C239.954 114.382 240.168 114.159 240.322 113.875C240.479 113.589 240.558 113.265 240.558 112.904C240.558 112.535 240.477 112.205 240.314 111.916C240.154 111.624 239.934 111.394 239.653 111.226C239.372 111.058 239.051 110.972 238.69 110.969C238.431 110.967 238.165 111.007 237.892 111.089C237.619 111.169 237.394 111.273 237.218 111.399L236.259 111.284L236.772 107.117H241.17V108.026H237.631L237.334 110.523H237.383C237.557 110.385 237.775 110.271 238.036 110.18C238.298 110.089 238.571 110.044 238.855 110.044C239.373 110.044 239.835 110.168 240.24 110.416C240.647 110.661 240.967 110.997 241.199 111.424C241.433 111.851 241.55 112.339 241.55 112.887C241.55 113.427 241.429 113.91 241.186 114.334C240.946 114.756 240.616 115.089 240.194 115.334C239.773 115.577 239.293 115.698 238.756 115.698Z" fill="#085E3B"/>
<path d="M243.601 115.648C243.397 115.648 243.222 115.575 243.076 115.429C242.93 115.283 242.857 115.108 242.857 114.904C242.857 114.701 242.93 114.526 243.076 114.38C243.222 114.233 243.397 114.16 243.601 114.16C243.805 114.16 243.98 114.233 244.126 114.38C244.272 114.526 244.345 114.701 244.345 114.904C244.345 115.039 244.311 115.163 244.242 115.276C244.176 115.389 244.086 115.48 243.973 115.549C243.863 115.615 243.739 115.648 243.601 115.648Z" fill="#085E3B"/>
<path d="M248.621 115.698C248.076 115.698 247.589 115.604 247.162 115.417C246.738 115.23 246.4 114.969 246.149 114.636C245.901 114.3 245.766 113.91 245.744 113.466H246.786C246.808 113.739 246.902 113.974 247.067 114.173C247.232 114.368 247.449 114.52 247.716 114.628C247.983 114.735 248.279 114.789 248.605 114.789C248.968 114.789 249.291 114.725 249.572 114.599C249.853 114.472 250.073 114.295 250.233 114.07C250.393 113.844 250.473 113.582 250.473 113.284C250.473 112.973 250.396 112.699 250.241 112.462C250.087 112.222 249.861 112.034 249.564 111.899C249.266 111.764 248.902 111.697 248.472 111.697H247.794V110.788H248.472C248.809 110.788 249.103 110.727 249.357 110.606C249.613 110.484 249.813 110.314 249.956 110.093C250.102 109.873 250.175 109.614 250.175 109.316C250.175 109.03 250.112 108.78 249.985 108.568C249.858 108.356 249.679 108.19 249.448 108.072C249.219 107.953 248.949 107.894 248.638 107.894C248.346 107.894 248.07 107.948 247.811 108.055C247.555 108.16 247.345 108.313 247.183 108.514C247.02 108.713 246.932 108.952 246.918 109.233H245.926C245.943 108.79 246.076 108.401 246.327 108.068C246.578 107.732 246.906 107.47 247.311 107.282C247.719 107.095 248.166 107.001 248.654 107.001C249.178 107.001 249.627 107.107 250.002 107.32C250.376 107.529 250.664 107.806 250.866 108.15C251.067 108.495 251.167 108.867 251.167 109.266C251.167 109.743 251.042 110.15 250.791 110.486C250.543 110.822 250.206 111.055 249.778 111.184V111.251C250.313 111.339 250.731 111.566 251.031 111.933C251.331 112.296 251.481 112.747 251.481 113.284C251.481 113.744 251.356 114.158 251.105 114.524C250.857 114.888 250.518 115.175 250.088 115.384C249.659 115.593 249.169 115.698 248.621 115.698Z" fill="#085E3B"/>
<path d="M252.974 113.846V113.003L256.694 107.117H257.305V108.423H256.892L254.081 112.871V112.937H259.091V113.846H252.974ZM256.958 115.582V107.117H257.934V115.582H256.958Z" fill="#085E3B"/>
<path d="M263.401 115.698C262.778 115.698 262.248 115.529 261.81 115.19C261.372 114.848 261.037 114.353 260.805 113.706C260.574 113.055 260.458 112.27 260.458 111.35C260.458 110.435 260.574 109.654 260.805 109.006C261.04 108.356 261.376 107.86 261.814 107.518C262.255 107.174 262.784 107.001 263.401 107.001C264.018 107.001 264.546 107.174 264.984 107.518C265.425 107.86 265.761 108.356 265.993 109.006C266.227 109.654 266.344 110.435 266.344 111.35C266.344 112.27 266.228 113.055 265.997 113.706C265.765 114.353 265.431 114.848 264.993 115.19C264.554 115.529 264.024 115.698 263.401 115.698ZM263.401 114.789C264.018 114.789 264.498 114.491 264.84 113.896C265.181 113.301 265.352 112.452 265.352 111.35C265.352 110.617 265.274 109.993 265.117 109.477C264.962 108.962 264.739 108.569 264.447 108.299C264.158 108.029 263.809 107.894 263.401 107.894C262.789 107.894 262.311 108.196 261.967 108.799C261.622 109.4 261.45 110.25 261.45 111.35C261.45 112.083 261.527 112.705 261.682 113.218C261.836 113.731 262.058 114.12 262.347 114.388C262.639 114.655 262.991 114.789 263.401 114.789Z" fill="#085E3B"/>
<path d="M269.091 114.425L269.025 114.871C268.978 115.186 268.906 115.522 268.81 115.88C268.716 116.238 268.618 116.576 268.516 116.893C268.414 117.21 268.33 117.462 268.264 117.649H267.52C267.556 117.473 267.603 117.24 267.661 116.95C267.719 116.661 267.776 116.337 267.834 115.979C267.895 115.624 267.944 115.26 267.983 114.888L268.033 114.425H269.091Z" fill="#085E3B"/>
<path d="M273.347 115.698C272.724 115.698 272.194 115.529 271.756 115.19C271.318 114.848 270.983 114.353 270.751 113.706C270.52 113.055 270.404 112.27 270.404 111.35C270.404 110.435 270.52 109.654 270.751 109.006C270.986 108.356 271.322 107.86 271.76 107.518C272.201 107.174 272.73 107.001 273.347 107.001C273.964 107.001 274.492 107.174 274.93 107.518C275.371 107.86 275.707 108.356 275.939 109.006C276.173 109.654 276.29 110.435 276.29 111.35C276.29 112.27 276.174 113.055 275.943 113.706C275.711 114.353 275.377 114.848 274.939 115.19C274.5 115.529 273.97 115.698 273.347 115.698ZM273.347 114.789C273.964 114.789 274.444 114.491 274.786 113.896C275.127 113.301 275.298 112.452 275.298 111.35C275.298 110.617 275.22 109.993 275.063 109.477C274.908 108.962 274.685 108.569 274.393 108.299C274.104 108.029 273.755 107.894 273.347 107.894C272.735 107.894 272.257 108.196 271.913 108.799C271.568 109.4 271.396 110.25 271.396 111.35C271.396 112.083 271.473 112.705 271.628 113.218C271.782 113.731 272.004 114.12 272.293 114.388C272.585 114.655 272.937 114.789 273.347 114.789Z" fill="#085E3B"/>
<path d="M280.622 115.698C279.999 115.698 279.469 115.529 279.031 115.19C278.592 114.848 278.258 114.353 278.026 113.706C277.795 113.055 277.679 112.27 277.679 111.35C277.679 110.435 277.795 109.654 278.026 109.006C278.26 108.356 278.597 107.86 279.035 107.518C279.476 107.174 280.005 107.001 280.622 107.001C281.239 107.001 281.767 107.174 282.205 107.518C282.646 107.86 282.982 108.356 283.214 109.006C283.448 109.654 283.565 110.435 283.565 111.35C283.565 112.27 283.449 113.055 283.218 113.706C282.986 114.353 282.652 114.848 282.213 115.19C281.775 115.529 281.245 115.698 280.622 115.698ZM280.622 114.789C281.239 114.789 281.719 114.491 282.06 113.896C282.402 113.301 282.573 112.452 282.573 111.35C282.573 110.617 282.494 109.993 282.337 109.477C282.183 108.962 281.96 108.569 281.668 108.299C281.378 108.029 281.03 107.894 280.622 107.894C280.01 107.894 279.532 108.196 279.188 108.799C278.843 109.4 278.671 110.25 278.671 111.35C278.671 112.083 278.748 112.705 278.903 113.218C279.057 113.731 279.279 114.12 279.568 114.388C279.86 114.655 280.211 114.789 280.622 114.789Z" fill="#085E3B"/>
<path d="M373.591 129.716V121.251H376.451C377.112 121.251 377.655 121.364 378.079 121.59C378.504 121.813 378.818 122.12 379.022 122.512C379.226 122.903 379.328 123.348 379.328 123.847C379.328 124.346 379.226 124.788 379.022 125.174C378.818 125.559 378.505 125.863 378.084 126.083C377.662 126.301 377.123 126.41 376.467 126.41H374.153V125.484H376.434C376.886 125.484 377.25 125.417 377.526 125.285C377.804 125.153 378.005 124.966 378.129 124.723C378.256 124.478 378.319 124.186 378.319 123.847C378.319 123.508 378.256 123.212 378.129 122.958C378.002 122.705 377.8 122.509 377.521 122.371C377.243 122.231 376.875 122.16 376.418 122.16H374.616V129.716H373.591ZM377.575 125.914L379.658 129.716H378.468L376.418 125.914H377.575Z" fill="#085E3B"/>
<path d="M383.384 130.774V120.193H384.061V130.774H383.384ZM385.665 123.367C385.616 122.948 385.414 122.623 385.062 122.392C384.709 122.16 384.276 122.045 383.764 122.045C383.389 122.045 383.061 122.105 382.78 122.227C382.502 122.348 382.284 122.514 382.127 122.727C381.973 122.939 381.896 123.18 381.896 123.45C381.896 123.676 381.949 123.87 382.057 124.033C382.167 124.193 382.308 124.326 382.478 124.434C382.649 124.538 382.828 124.625 383.016 124.694C383.203 124.76 383.375 124.814 383.532 124.855L384.392 125.087C384.613 125.145 384.858 125.225 385.128 125.327C385.401 125.429 385.661 125.568 385.909 125.744C386.16 125.918 386.367 126.141 386.529 126.414C386.692 126.686 386.773 127.021 386.773 127.418C386.773 127.875 386.653 128.289 386.413 128.658C386.176 129.027 385.829 129.321 385.372 129.539C384.917 129.756 384.365 129.865 383.714 129.865C383.108 129.865 382.583 129.767 382.139 129.572C381.699 129.376 381.351 129.103 381.098 128.753C380.847 128.403 380.705 127.997 380.672 127.534H381.73C381.758 127.853 381.865 128.118 382.053 128.327C382.243 128.534 382.483 128.688 382.772 128.79C383.064 128.89 383.378 128.939 383.714 128.939C384.106 128.939 384.457 128.876 384.768 128.749C385.08 128.62 385.326 128.44 385.508 128.212C385.69 127.98 385.781 127.71 385.781 127.402C385.781 127.12 385.702 126.892 385.545 126.715C385.388 126.539 385.182 126.396 384.925 126.286C384.669 126.175 384.392 126.079 384.095 125.996L383.053 125.699C382.392 125.508 381.868 125.237 381.482 124.884C381.096 124.532 380.904 124.07 380.904 123.5C380.904 123.026 381.032 122.612 381.288 122.26C381.547 121.904 381.894 121.629 382.33 121.433C382.768 121.234 383.257 121.135 383.797 121.135C384.343 121.135 384.828 121.233 385.252 121.429C385.676 121.622 386.012 121.886 386.26 122.222C386.511 122.559 386.643 122.94 386.657 123.367H385.665Z" fill="#085E3B"/>
<path d="M394.229 129.832C393.744 129.832 393.307 129.736 392.918 129.543C392.53 129.35 392.218 129.085 391.984 128.749C391.75 128.413 391.622 128.03 391.6 127.6H392.592C392.63 127.983 392.804 128.3 393.113 128.551C393.424 128.799 393.796 128.923 394.229 128.923C394.576 128.923 394.884 128.841 395.155 128.679C395.427 128.516 395.641 128.293 395.795 128.009C395.952 127.723 396.031 127.399 396.031 127.038C396.031 126.669 395.95 126.339 395.787 126.05C395.627 125.758 395.407 125.528 395.126 125.36C394.844 125.192 394.523 125.106 394.163 125.103C393.903 125.101 393.638 125.141 393.365 125.223C393.092 125.303 392.867 125.406 392.691 125.533L391.732 125.417L392.245 121.251H396.643V122.16H393.104L392.807 124.657H392.856C393.03 124.519 393.248 124.405 393.509 124.314C393.771 124.223 394.044 124.177 394.328 124.177C394.846 124.177 395.307 124.301 395.713 124.549C396.12 124.795 396.44 125.131 396.671 125.558C396.906 125.985 397.023 126.473 397.023 127.021C397.023 127.561 396.902 128.044 396.659 128.468C396.419 128.89 396.089 129.223 395.667 129.468C395.245 129.711 394.766 129.832 394.229 129.832Z" fill="#085E3B"/>
<path d="M399.074 129.782C398.87 129.782 398.695 129.709 398.549 129.563C398.403 129.417 398.33 129.242 398.33 129.038C398.33 128.834 398.403 128.659 398.549 128.513C398.695 128.367 398.87 128.294 399.074 128.294C399.278 128.294 399.453 128.367 399.599 128.513C399.745 128.659 399.818 128.834 399.818 129.038C399.818 129.173 399.784 129.297 399.715 129.41C399.649 129.523 399.559 129.614 399.446 129.683C399.336 129.749 399.212 129.782 399.074 129.782Z" fill="#085E3B"/>
<path d="M404.018 129.832C403.395 129.832 402.864 129.663 402.426 129.324C401.988 128.982 401.653 128.487 401.422 127.84C401.19 127.189 401.075 126.404 401.075 125.484C401.075 124.569 401.19 123.788 401.422 123.14C401.656 122.49 401.992 121.994 402.43 121.652C402.871 121.308 403.4 121.135 404.018 121.135C404.635 121.135 405.163 121.308 405.601 121.652C406.042 121.994 406.378 122.49 406.609 123.14C406.843 123.788 406.961 124.569 406.961 125.484C406.961 126.404 406.845 127.189 406.613 127.84C406.382 128.487 406.047 128.982 405.609 129.324C405.171 129.663 404.64 129.832 404.018 129.832ZM404.018 128.923C404.635 128.923 405.114 128.625 405.456 128.03C405.798 127.435 405.969 126.586 405.969 125.484C405.969 124.751 405.89 124.126 405.733 123.611C405.579 123.096 405.355 122.703 405.063 122.433C404.774 122.163 404.425 122.028 404.018 122.028C403.406 122.028 402.928 122.33 402.583 122.933C402.239 123.534 402.067 124.384 402.067 125.484C402.067 126.217 402.144 126.839 402.298 127.352C402.452 127.864 402.674 128.254 402.964 128.522C403.256 128.789 403.607 128.923 404.018 128.923Z" fill="#085E3B"/>
<path d="M408.531 129.716V128.972L411.325 125.914C411.653 125.555 411.923 125.244 412.136 124.979C412.348 124.712 412.505 124.461 412.607 124.227C412.712 123.99 412.764 123.742 412.764 123.483C412.764 123.185 412.692 122.928 412.549 122.71C412.408 122.492 412.216 122.324 411.97 122.206C411.725 122.087 411.449 122.028 411.144 122.028C410.818 122.028 410.535 122.096 410.292 122.231C410.052 122.363 409.866 122.549 409.734 122.789C409.605 123.028 409.54 123.309 409.54 123.632H408.564C408.564 123.136 408.679 122.7 408.907 122.326C409.136 121.951 409.448 121.659 409.842 121.449C410.238 121.24 410.683 121.135 411.177 121.135C411.673 121.135 412.112 121.24 412.495 121.449C412.878 121.659 413.179 121.941 413.396 122.297C413.614 122.652 413.723 123.048 413.723 123.483C413.723 123.794 413.666 124.099 413.553 124.397C413.443 124.691 413.25 125.021 412.975 125.384C412.702 125.745 412.323 126.186 411.838 126.707L409.937 128.741V128.807H413.872V129.716H408.531Z" fill="#085E3B"/>
<path d="M418.34 129.832C417.717 129.832 417.187 129.663 416.748 129.324C416.31 128.982 415.976 128.487 415.744 127.84C415.513 127.189 415.397 126.404 415.397 125.484C415.397 124.569 415.513 123.788 415.744 123.14C415.978 122.49 416.314 121.994 416.753 121.652C417.194 121.308 417.723 121.135 418.34 121.135C418.957 121.135 419.485 121.308 419.923 121.652C420.364 121.994 420.7 122.49 420.932 123.14C421.166 123.788 421.283 124.569 421.283 125.484C421.283 126.404 421.167 127.189 420.936 127.84C420.704 128.487 420.369 128.982 419.931 129.324C419.493 129.663 418.963 129.832 418.34 129.832ZM418.34 128.923C418.957 128.923 419.437 128.625 419.778 128.03C420.12 127.435 420.291 126.586 420.291 125.484C420.291 124.751 420.212 124.126 420.055 123.611C419.901 123.096 419.678 122.703 419.386 122.433C419.096 122.163 418.748 122.028 418.34 122.028C417.728 122.028 417.25 122.33 416.906 122.933C416.561 123.534 416.389 124.384 416.389 125.484C416.389 126.217 416.466 126.839 416.62 127.352C416.775 127.864 416.996 128.254 417.286 128.522C417.578 128.789 417.929 128.923 418.34 128.923Z" fill="#085E3B"/>
<path d="M424.029 128.559L423.963 129.005C423.917 129.319 423.845 129.656 423.748 130.014C423.655 130.372 423.557 130.71 423.455 131.027C423.353 131.343 423.269 131.596 423.203 131.783H422.459C422.495 131.607 422.541 131.374 422.599 131.084C422.657 130.795 422.715 130.471 422.773 130.113C422.834 129.758 422.883 129.394 422.922 129.022L422.971 128.559H424.029Z" fill="#085E3B"/>
<path d="M428.286 129.832C427.663 129.832 427.133 129.663 426.695 129.324C426.256 128.982 425.922 128.487 425.69 127.84C425.459 127.189 425.343 126.404 425.343 125.484C425.343 124.569 425.459 123.788 425.69 123.14C425.924 122.49 426.261 121.994 426.699 121.652C427.14 121.308 427.669 121.135 428.286 121.135C428.903 121.135 429.431 121.308 429.869 121.652C430.31 121.994 430.646 122.49 430.878 123.14C431.112 123.788 431.229 124.569 431.229 125.484C431.229 126.404 431.113 127.189 430.882 127.84C430.65 128.487 430.315 128.982 429.877 129.324C429.439 129.663 428.909 129.832 428.286 129.832ZM428.286 128.923C428.903 128.923 429.383 128.625 429.724 128.03C430.066 127.435 430.237 126.586 430.237 125.484C430.237 124.751 430.158 124.126 430.001 123.611C429.847 123.096 429.624 122.703 429.332 122.433C429.042 122.163 428.694 122.028 428.286 122.028C427.674 122.028 427.196 122.33 426.852 122.933C426.507 123.534 426.335 124.384 426.335 125.484C426.335 126.217 426.412 126.839 426.566 127.352C426.721 127.864 426.943 128.254 427.232 128.522C427.524 128.789 427.875 128.923 428.286 128.923Z" fill="#085E3B"/>
<path d="M435.561 129.832C434.938 129.832 434.407 129.663 433.969 129.324C433.531 128.982 433.196 128.487 432.965 127.84C432.733 127.189 432.618 126.404 432.618 125.484C432.618 124.569 432.733 123.788 432.965 123.14C433.199 122.49 433.535 121.994 433.973 121.652C434.414 121.308 434.943 121.135 435.561 121.135C436.178 121.135 436.706 121.308 437.144 121.652C437.585 121.994 437.921 122.49 438.152 123.14C438.387 123.788 438.504 124.569 438.504 125.484C438.504 126.404 438.388 127.189 438.156 127.84C437.925 128.487 437.59 128.982 437.152 129.324C436.714 129.663 436.183 129.832 435.561 129.832ZM435.561 128.923C436.178 128.923 436.657 128.625 436.999 128.03C437.341 127.435 437.512 126.586 437.512 125.484C437.512 124.751 437.433 124.126 437.276 123.611C437.122 123.096 436.899 122.703 436.606 122.433C436.317 122.163 435.969 122.028 435.561 122.028C434.949 122.028 434.471 122.33 434.126 122.933C433.782 123.534 433.61 124.384 433.61 125.484C433.61 126.217 433.687 126.839 433.841 127.352C433.995 127.864 434.217 128.254 434.507 128.522C434.799 128.789 435.15 128.923 435.561 128.923Z" fill="#085E3B"/>
<defs>
<linearGradient id="paint0_linear_31_211" x1="102.393" y1="-54.9499" x2="469.069" y2="346.6" gradientUnits="userSpaceOnUse">
<stop stop-color="#B9FFE3"/>
<stop offset="1" stop-color="#DBE8E3"/>
</linearGradient>
</defs>
</svg>
