<svg width="38" height="38" viewBox="0 0 38 38" fill="none" xmlns="http://www.w3.org/2000/svg">
<path d="M11.2778 11.2221H26.0556V8.111C26.0556 4.99989 24.8889 3.44434 21.3889 3.44434H15.9445C12.4445 3.44434 11.2778 4.99989 11.2778 8.111V11.2221ZM24.8889 23.6666V29.8888C24.8889 32.9999 23.3334 34.5554 20.2223 34.5554H17.1112C14.0001 34.5554 12.4445 32.9999 12.4445 29.8888V23.6666H24.8889Z" stroke="#085E3B" stroke-width="2.33333" stroke-miterlimit="10" stroke-linecap="round" stroke-linejoin="round"/>
<path d="M26.4445 23.6666H10.889M10.889 17.4444H15.5556M32.6667 15.8888V23.6666C32.6667 26.7777 31.1112 28.3333 28.0001 28.3333H24.889V23.6666H12.4445V28.3333H9.33341C6.2223 28.3333 4.66675 26.7777 4.66675 23.6666V15.8888C4.66675 12.7777 6.2223 11.2222 9.33341 11.2222H28.0001C31.1112 11.2222 32.6667 12.7777 32.6667 15.8888Z" stroke="#085E3B" stroke-width="2.33333" stroke-miterlimit="10" stroke-linecap="round" stroke-linejoin="round"/>
</svg>
