<svg width="104" height="104" viewBox="0 0 104 104" fill="none" xmlns="http://www.w3.org/2000/svg">
<path d="M0 52C0 80.7188 23.2812 104 52 104C80.7188 104 104 80.7188 104 52C104 23.2812 80.7188 0 52 0C23.2812 0 0 23.2812 0 52Z" fill="url(#paint0_linear_71_34)"/>
<path d="M44.9999 65.9999H29.0049C20.9899 65.9999 16.9999 62.0099 16.9999 53.9949V29.0049C16.9999 20.9899 20.9899 16.9999 29.0049 16.9999H44.9999C53.0149 16.9999 57.4999 19.9999 57.4999 36.9999" stroke="white" stroke-width="5.25" stroke-linecap="round" stroke-linejoin="round"/>
<path d="M74.9953 86.9999H59.0003C50.9853 86.9999 46.9953 83.0099 46.9953 74.9949V50.0049C46.9953 41.9899 50.9853 37.9999 59.0003 37.9999H74.9953C83.0103 37.9999 87.0003 41.9899 87.0003 50.0049V74.9949C87.0003 83.0099 83.0103 86.9999 74.9953 86.9999Z" stroke="white" stroke-width="5.25" stroke-linecap="round" stroke-linejoin="round"/>
<path d="M71.25 11C76.9109 11 81.5 15.5891 81.5 21.25C81.5 26.9109 76.9109 31.5 71.25 31.5C65.5891 31.5 61 26.9109 61 21.25C61 15.5891 65.5891 11 71.25 11Z" stroke="white" stroke-width="2"/>
<path d="M66.1105 48.0056C64.4949 48.0998 63.2253 48.3537 61.8768 48.8484C60.6356 49.306 59.3199 50.0612 58.2626 50.9215C55.489 53.1828 53.6173 56.5825 53.1204 60.2624C53.0263 60.9629 53 61.3832 53 62.2107C53 62.9769 53.0109 63.2067 53.0876 63.8525C53.2386 65.1353 53.556 66.2496 54.1383 67.5346C55.8152 71.2385 59.1645 74.2376 62.9254 75.4065C64.3089 75.8356 65.4362 75.9954 67.1175 75.9998C68.0456 76.002 68.3324 75.9823 69.1314 75.8684C70.7886 75.632 72.4676 75.0541 73.9628 74.2047C75.3922 73.3926 76.6006 72.379 77.682 71.0875C77.8178 70.9255 77.9819 70.7284 78.0476 70.6518C78.2425 70.4242 78.5774 69.9623 78.8007 69.6208C79.7507 68.1628 80.4228 66.3831 80.6986 64.5968C80.8278 63.7671 80.8628 63.2658 80.8628 62.353C80.865 61.1161 80.7512 60.1223 80.4797 58.9818C79.6369 55.4508 77.3515 52.1452 74.3853 50.1663C73.4505 49.5402 72.3209 48.9907 71.2877 48.6536C70.817 48.4982 69.8188 48.2727 69.1971 48.1808C68.7615 48.1151 68.5513 48.091 68.0478 48.045C67.7107 48.0144 66.4016 47.9881 66.1105 48.0056ZM68.1354 48.5201C68.8644 48.5748 69.8232 48.7521 70.5522 48.9688C70.8564 49.0586 71.4059 49.2709 71.7802 49.4417C72.6581 49.8467 73.225 50.3217 73.525 50.9062C73.6454 51.1404 73.6432 51.1886 73.5096 51.5388C73.1769 52.4167 72.6384 53.2726 71.8919 54.111C71.7277 54.2971 71.7102 54.3102 71.581 54.3453C71.3928 54.3956 71.1082 54.4263 70.6222 54.4503C70.3924 54.4635 70.11 54.4832 69.9961 54.4941C69.4686 54.5488 68.1639 54.6233 67.4787 54.6386L66.8548 54.6517L66.5045 54.284C65.41 53.1303 64.4315 52.038 64.2344 51.7468C64.0549 51.4797 63.998 51.147 64.0724 50.8077C64.2104 50.1947 64.8605 49.4395 65.7712 48.8353C66.2418 48.5245 66.2484 48.5223 66.9095 48.4982C67.3517 48.4807 67.7173 48.4894 68.1354 48.5201ZM74.7552 51.6155C74.9457 51.6658 75.1602 51.7621 75.5236 51.9635C75.7053 52.0642 75.9023 52.1715 75.9636 52.2021C76.2504 52.3466 77.0866 53.185 77.6054 53.8483C78.6846 55.2275 79.4793 56.9853 79.8098 58.73C79.8865 59.1262 79.8974 59.286 79.8689 59.5422C79.7901 60.2711 79.4771 60.8775 78.5818 62.0465C78.3256 62.3792 78.3213 62.3858 78.2009 62.423L78.0783 62.4602L77.8068 62.3376C76.4058 61.7094 75.1339 60.9848 74.1532 60.2602L73.8774 60.0566L73.7658 59.818C73.4593 59.1635 73.2207 58.4914 72.785 57.0444C72.6099 56.4665 72.4326 55.8908 72.3932 55.7638C72.2859 55.4332 72.2706 55.3501 72.2706 55.0764C72.2706 54.7546 72.3363 54.4985 72.5092 54.1395C72.6646 53.8155 72.8266 53.5681 73.3192 52.9092C73.525 52.6334 73.7526 52.3028 73.8292 52.1759C74.0897 51.7337 74.1576 51.6549 74.3218 51.6045C74.4225 51.5761 74.6173 51.5804 74.7552 51.6155ZM63.3281 51.7687C63.6324 51.8234 63.9083 52.0007 64.0987 52.2678C64.1885 52.3926 64.3658 52.5984 64.7204 52.9836C65.4735 53.8067 65.769 54.1964 65.9901 54.6583C66.1674 55.0304 66.2265 55.2515 66.2462 55.6127C66.2593 55.8601 66.2572 55.8732 66.1871 56.0725C66.1499 56.1863 66.0273 56.5344 65.92 56.8474C65.5216 57.9967 65.1123 59.251 65.0028 59.6451L64.9503 59.8377L64.0637 60.3368C63.0786 60.895 62.4438 61.2431 61.8855 61.5321C61.6819 61.6393 61.4652 61.7641 61.4039 61.8123C61.1478 62.0158 60.8063 62.1297 60.5392 62.1012C60.3772 62.0837 60.1408 62.0049 59.9788 61.913C59.6636 61.7335 59.1645 61.2781 58.5537 60.6104C57.7766 59.7589 57.527 59.3911 57.4023 58.9051L57.3563 58.7213L57.4045 58.5724C57.4307 58.4914 57.5774 58.0405 57.7284 57.572C57.8795 57.1035 58.0568 56.5781 58.1203 56.4008C58.7092 54.7787 59.3024 53.8133 60.1408 53.1128C60.4451 52.8611 60.664 52.7231 61.2485 52.4189C62.1614 51.9438 62.5248 51.8037 62.9801 51.7512C63.1071 51.7359 63.1574 51.738 63.3281 51.7687ZM58.0699 52.6378C58.4114 52.8085 58.6522 53.161 58.7223 53.5988L58.7486 53.7651L58.6019 54.03C57.8291 55.4398 57.1221 57.3575 56.7302 59.1241C56.6383 59.5334 56.4653 59.807 55.9203 60.4047C55.7626 60.5798 55.5853 60.7812 55.5306 60.8534C55.4737 60.9257 55.2745 61.1665 55.0862 61.3898C54.8717 61.6459 54.7141 61.8539 54.6615 61.9524C54.6177 62.0399 54.5411 62.1559 54.4952 62.2085C54.4032 62.3114 54.2171 62.4186 54.1296 62.4186C54.0223 62.4186 53.8997 62.3639 53.81 62.2763C53.6086 62.0815 53.5298 61.7685 53.5735 61.3547C53.5867 61.2234 53.6042 61.0067 53.6108 60.8753C53.6283 60.547 53.6589 60.258 53.7224 59.8596C54.0661 57.7165 55.0337 55.6018 56.6755 53.3996C56.7609 53.2857 56.8638 53.1347 56.9053 53.0646C57.0411 52.8392 57.2512 52.6575 57.4701 52.5743C57.5205 52.5568 57.619 52.548 57.7284 52.5502C57.8817 52.5568 57.9255 52.5677 58.0699 52.6378ZM65.4778 60.7965C66.2834 61.1446 67.0737 61.6722 67.9165 62.4186C68.1967 62.666 68.8359 63.2571 68.9279 63.3534L69.0088 63.4366L68.9103 64.2028C68.6958 65.9102 68.5119 67.0486 68.2864 68.0665C68.166 68.6028 68.0851 68.7561 67.7436 69.0954C67.3736 69.461 66.9445 69.7061 66.1652 69.9973C64.9897 70.4351 64.6941 70.5183 64.3395 70.5183C63.998 70.5183 63.4661 70.3738 63.0676 70.1724C62.6758 69.9776 62.3212 69.7412 61.5331 69.1501C61.2419 68.9334 60.9245 68.697 60.8238 68.6247C60.4801 68.3752 60.1627 67.9921 59.9526 67.574C59.749 67.1668 59.6636 66.8297 59.6483 66.359C59.6351 66.0066 59.6592 65.7636 59.738 65.4177C59.7687 65.2907 59.8037 65.0696 59.8168 64.9252C59.9394 63.627 60.4758 62.701 61.3602 62.2588C61.4455 62.2172 61.601 62.1516 61.7082 62.1144C61.9556 62.0268 62.1745 61.9239 62.5751 61.7072C63.6718 61.1139 63.963 60.976 64.4139 60.8447C64.6657 60.7703 64.97 60.7155 65.1604 60.7133C65.2567 60.7111 65.3224 60.7287 65.4778 60.7965ZM74.3349 61.068C75.9067 61.8342 76.8349 62.3989 77.6974 63.1104L77.9272 63.2987L77.9119 63.4344C77.9053 63.5066 77.8747 63.8678 77.844 64.2356C77.7302 65.6388 77.6711 66.1226 77.5354 66.753C77.4412 67.1909 77.2004 67.5783 76.7385 68.0468C76.3248 68.4649 76.0555 68.6641 74.7859 69.5004C74.5297 69.6689 74.2014 69.8966 74.0569 70.0039C73.4658 70.4482 73.039 70.6781 72.704 70.735C72.5639 70.7591 72.5399 70.7569 72.3078 70.6956C71.314 70.4307 70.272 69.901 69.0767 69.056C68.8206 68.8743 68.7265 68.7955 68.7265 68.7626C68.7265 68.6882 68.8337 67.8914 68.9147 67.355C69.0088 66.7377 69.3591 64.6274 69.3722 64.6077C69.3766 64.599 69.4073 64.402 69.4379 64.1677C69.5408 63.3884 69.5824 63.3052 70.0946 62.9221C70.2282 62.8214 70.5368 62.5763 70.7842 62.377C71.3731 61.8998 71.6423 61.6919 71.9225 61.5036C72.5727 61.068 73.1287 60.8447 73.711 60.779C73.7242 60.779 74.0066 60.9082 74.3349 61.068ZM54.0464 63.1016C54.053 63.1301 54.0814 63.314 54.1142 63.5132C54.2959 64.6559 54.6637 65.9124 55.1563 67.0705C55.3248 67.4711 55.7626 68.362 55.859 68.4978C56.0275 68.7451 56.0735 69.1019 55.9859 69.4982C55.9618 69.6054 55.94 69.6974 55.9356 69.7018C55.9246 69.7127 55.4036 68.8393 55.176 68.4299C54.9176 67.9658 54.5477 67.1952 54.3813 66.7749C54.1646 66.2299 53.8275 65.074 53.7049 64.4545C53.6655 64.2531 53.6545 64.1283 53.6545 63.8306C53.6545 63.4738 53.6567 63.4541 53.7115 63.3381C53.7793 63.198 53.8428 63.1257 53.9369 63.0841C54.0289 63.0447 54.0354 63.0469 54.0464 63.1016ZM78.5511 67.8848C78.7613 67.9833 78.8007 68.2942 78.654 68.6904C78.5577 68.9509 78.457 69.1195 77.9666 69.8506C77.1654 71.0459 76.0293 72.147 74.648 73.073C73.7395 73.6793 72.5158 74.3207 71.9663 74.4762C71.7846 74.5265 71.7168 74.5331 71.4409 74.5353C71.1564 74.5353 71.1126 74.5309 71.0162 74.4849C70.8608 74.4149 70.7711 74.3404 70.7054 74.2288L70.6485 74.1325L70.8849 73.7866C71.5657 72.7884 71.9532 72.2893 72.4567 71.7726C72.8244 71.3917 73.0368 71.2166 73.3564 71.0196C73.9518 70.6584 74.4947 70.2841 75.7753 69.3581C76.7758 68.6335 77.01 68.4693 77.5069 68.1387C77.8506 67.9111 77.8812 67.8936 78.0323 67.8695C78.1221 67.8564 78.2096 67.841 78.2271 67.8366C78.2884 67.8235 78.4789 67.852 78.5511 67.8848ZM59.1492 68.0337C59.3856 68.0643 59.4907 68.1103 59.7512 68.3029C60.0839 68.5503 60.4167 68.8108 60.9223 69.2267C62.0891 70.1855 62.562 70.5314 63.1924 70.8882C63.4354 71.0262 63.4726 71.0568 63.5755 71.1903C63.9411 71.6785 64.2454 72.3309 64.3745 72.9175C64.4118 73.0839 64.4227 73.2087 64.4227 73.4626C64.4249 73.8479 64.3855 74.0143 64.2388 74.2354C64.1534 74.3623 64.1447 74.3689 63.9914 74.4149C63.5996 74.5353 63.1771 74.59 62.6408 74.59H62.2949L61.9928 74.4893C60.6027 74.0296 59.2017 73.1759 57.8904 71.9872C57.411 71.5515 57.0323 71.1816 56.9513 71.0656C56.7587 70.7897 56.6273 70.446 56.5638 70.0476C56.5441 69.9119 56.5244 69.6098 56.5179 69.2574L56.5047 68.686L56.612 68.6597C56.6689 68.6444 56.8813 68.5744 57.0805 68.4999C58.1553 68.1103 58.3436 68.0534 58.6785 68.0227C58.8624 68.0074 58.9368 68.0074 59.1492 68.0337ZM67.8618 74.6119C68.1967 74.6404 68.5623 74.6863 68.9782 74.752C69.1599 74.7826 69.3854 74.8177 69.4817 74.8308C69.8407 74.8855 70.0618 74.9884 70.0312 75.0869C70.0049 75.1679 69.7794 75.2445 69.4489 75.2883C69.3591 75.2993 69.1511 75.3299 68.9891 75.354C68.8272 75.3803 68.4419 75.4241 68.1354 75.4547C66.3754 75.6298 65.0969 75.5182 64.1622 75.1044C64.0068 75.0344 64.0046 75.0366 64.3592 74.9315C65.0138 74.7389 65.6004 74.6425 66.4936 74.5812C66.6862 74.5681 67.575 74.5878 67.8618 74.6119Z" fill="white"/>
<path d="M76.1494 25.6804L72.2369 23.3455C71.5553 22.9416 71 21.9698 71 21.1747V16" stroke="white" stroke-width="1.68282" stroke-linecap="round" stroke-linejoin="round"/>
<path d="M47 41V37C47 32 45 30 40 30H34C29 30 27 32 27 37V43C27 48 29 50 34 50H38" stroke="white" stroke-width="1.5" stroke-linecap="round" stroke-linejoin="round"/>
<path d="M47 41V37C47 32 45 30 40 30H34C29 30 27 32 27 37V43C27 48 29 50 34 50H38" stroke="white" stroke-width="1.5" stroke-linecap="round" stroke-linejoin="round"/>
<path d="M47 41V37C47 32 45 30 40 30H34C29 30 27 32 27 37V43C27 48 29 50 34 50H38M41 47.43L42.58 49L46 45M32 38.5V41.5M37 38.5V41.5M42 38.5V41.5" stroke="white" stroke-width="1.5" stroke-linecap="round" stroke-linejoin="round"/>
<defs>
<linearGradient id="paint0_linear_71_34" x1="11.5" y1="-3.5" x2="96.5" y2="100.5" gradientUnits="userSpaceOnUse">
<stop stop-color="#0AB46F"/>
<stop offset="1" stop-color="#9747FF"/>
</linearGradient>
</defs>
</svg>
