<svg width="104" height="105" viewBox="0 0 104 105" fill="none" xmlns="http://www.w3.org/2000/svg">
<path d="M0 52.5C0 81.2188 23.2812 104.5 52 104.5C80.7188 104.5 104 81.2188 104 52.5C104 23.7812 80.7188 0.5 52 0.5C23.2812 0.5 0 23.7812 0 52.5Z" fill="url(#paint0_linear_57_34)"/>
<path d="M45 67H29.005C20.99 67 17 63.01 17 54.995V30.005C17 21.99 20.99 18 29.005 18H45C53.015 18 57.5 21 57.5 38" fill="#00A060"/>
<path d="M45 67H29.005C20.99 67 17 63.01 17 54.995V30.005C17 21.99 20.99 18 29.005 18H45C53.015 18 57.5 21 57.5 38" stroke="white" stroke-width="5.25" stroke-linecap="round" stroke-linejoin="round"/>
<path d="M36.1105 29.0057C34.4949 29.0998 33.2253 29.3538 31.8768 29.8485C30.6356 30.306 29.3199 31.0613 28.2626 31.9216C25.489 34.1829 23.6173 37.5826 23.1204 41.2624C23.0263 41.963 23 42.3833 23 43.2107C23 43.9769 23.0109 44.2068 23.0876 44.8526C23.2386 46.1354 23.556 47.2496 24.1383 48.5346C25.8152 52.2386 29.1645 55.2376 32.9254 56.4066C34.3089 56.8357 35.4362 56.9955 37.1175 56.9998C38.0456 57.002 38.3324 56.9823 39.1314 56.8685C40.7886 56.6321 42.4676 56.0542 43.9628 55.2048C45.3922 54.3926 46.6006 53.3791 47.682 52.0875C47.8178 51.9255 47.9819 51.7285 48.0476 51.6519C48.2425 51.4242 48.5774 50.9623 48.8007 50.6208C49.7507 49.1629 50.4228 47.3832 50.6986 45.5968C50.8278 44.7672 50.8628 44.2659 50.8628 43.353C50.865 42.1162 50.7512 41.1223 50.4797 39.9818C49.6369 36.4508 47.3515 33.1453 44.3853 31.1663C43.4505 30.5403 42.3209 29.9908 41.2877 29.6537C40.817 29.4982 39.8188 29.2728 39.1971 29.1808C38.7615 29.1152 38.5513 29.0911 38.0478 29.0451C37.7107 29.0145 36.4016 28.9882 36.1105 29.0057ZM38.1354 29.5201C38.8644 29.5749 39.8232 29.7522 40.5522 29.9689C40.8564 30.0587 41.4059 30.271 41.7802 30.4417C42.6581 30.8467 43.225 31.3218 43.525 31.9063C43.6454 32.1405 43.6432 32.1886 43.5096 32.5389C43.1769 33.4167 42.6384 34.2727 41.8919 35.1111C41.7277 35.2972 41.7102 35.3103 41.581 35.3453C41.3928 35.3957 41.1082 35.4263 40.6222 35.4504C40.3924 35.4635 40.11 35.4832 39.9961 35.4942C39.4686 35.5489 38.1639 35.6233 37.4787 35.6387L36.8548 35.6518L36.5045 35.284C35.41 34.1304 34.4315 33.038 34.2344 32.7469C34.0549 32.4798 33.998 32.1471 34.0724 31.8077C34.2104 31.1948 34.8605 30.4396 35.7712 29.8354C36.2418 29.5245 36.2484 29.5223 36.9095 29.4982C37.3517 29.4807 37.7173 29.4895 38.1354 29.5201ZM44.7552 32.6155C44.9457 32.6659 45.1602 32.7622 45.5236 32.9636C45.7053 33.0643 45.9023 33.1715 45.9636 33.2022C46.2504 33.3467 47.0866 34.1851 47.6054 34.8484C48.6846 36.2275 49.4793 37.9854 49.8098 39.7301C49.8865 40.1263 49.8974 40.2861 49.8689 40.5422C49.7901 41.2712 49.4771 41.8776 48.5818 43.0466C48.3256 43.3793 48.3213 43.3859 48.2009 43.4231L48.0783 43.4603L47.8068 43.3377C46.4058 42.7094 45.1339 41.9848 44.1532 41.2603L43.8774 41.0567L43.7658 40.8181C43.4593 40.1635 43.2207 39.4915 42.785 38.0445C42.6099 37.4666 42.4326 36.8908 42.3932 36.7639C42.2859 36.4333 42.2706 36.3501 42.2706 36.0765C42.2706 35.7547 42.3363 35.4986 42.5092 35.1395C42.6646 34.8156 42.8266 34.5682 43.3192 33.9093C43.525 33.6334 43.7526 33.3029 43.8292 33.1759C44.0897 32.7337 44.1576 32.6549 44.3218 32.6046C44.4225 32.5761 44.6173 32.5805 44.7552 32.6155ZM33.3281 32.7688C33.6324 32.8235 33.9083 33.0008 34.0987 33.2679C34.1885 33.3926 34.3658 33.5984 34.7204 33.9837C35.4735 34.8068 35.769 35.1965 35.9901 35.6584C36.1674 36.0305 36.2265 36.2516 36.2462 36.6128C36.2593 36.8602 36.2572 36.8733 36.1871 37.0725C36.1499 37.1863 36.0273 37.5344 35.92 37.8475C35.5216 38.9967 35.1123 40.2511 35.0028 40.6451L34.9503 40.8378L34.0637 41.3369C33.0786 41.8951 32.4438 42.2432 31.8855 42.5321C31.6819 42.6394 31.4652 42.7642 31.4039 42.8123C31.1478 43.0159 30.8063 43.1297 30.5392 43.1013C30.3772 43.0838 30.1408 43.005 29.9788 42.913C29.6636 42.7335 29.1645 42.2782 28.5537 41.6105C27.7766 40.759 27.527 40.3912 27.4023 39.9052L27.3563 39.7213L27.4045 39.5725C27.4307 39.4915 27.5774 39.0405 27.7284 38.572C27.8795 38.1036 28.0568 37.5782 28.1203 37.4009C28.7092 35.7788 29.3024 34.8134 30.1408 34.1129C30.4451 33.8611 30.664 33.7232 31.2485 33.4189C32.1614 32.9439 32.5248 32.8038 32.9801 32.7512C33.1071 32.7359 33.1574 32.7381 33.3281 32.7688ZM28.0699 33.6378C28.4114 33.8086 28.6522 34.161 28.7223 34.5988L28.7486 34.7652L28.6019 35.0301C27.8291 36.4399 27.1221 38.3575 26.7302 40.1241C26.6383 40.5335 26.4653 40.8071 25.9203 41.4047C25.7626 41.5799 25.5853 41.7813 25.5306 41.8535C25.4737 41.9257 25.2745 42.1665 25.0862 42.3898C24.8717 42.646 24.7141 42.8539 24.6615 42.9524C24.6177 43.04 24.5411 43.156 24.4952 43.2085C24.4032 43.3114 24.2171 43.4187 24.1296 43.4187C24.0223 43.4187 23.8997 43.364 23.81 43.2764C23.6086 43.0816 23.5298 42.7685 23.5735 42.3548C23.5867 42.2235 23.6042 42.0067 23.6108 41.8754C23.6283 41.547 23.6589 41.2581 23.7224 40.8596C24.0661 38.7165 25.0337 36.6019 26.6755 34.3996C26.7609 34.2858 26.8638 34.1348 26.9053 34.0647C27.0411 33.8392 27.2512 33.6575 27.4701 33.5743C27.5205 33.5568 27.619 33.5481 27.7284 33.5503C27.8817 33.5568 27.9255 33.5678 28.0699 33.6378ZM35.4778 41.7966C36.2834 42.1446 37.0737 42.6722 37.9165 43.4187C38.1967 43.6661 38.8359 44.2571 38.9279 44.3534L39.0088 44.4366L38.9103 45.2028C38.6958 46.9103 38.5119 48.0486 38.2864 49.0666C38.166 49.6029 38.0851 49.7561 37.7436 50.0954C37.3736 50.461 36.9445 50.7062 36.1652 50.9973C34.9897 51.4352 34.6941 51.5184 34.3395 51.5184C33.998 51.5184 33.4661 51.3739 33.0676 51.1725C32.6758 50.9776 32.3212 50.7412 31.5331 50.1502C31.2419 49.9334 30.9245 49.697 30.8238 49.6248C30.4801 49.3752 30.1627 48.9921 29.9526 48.574C29.749 48.1668 29.6636 47.8297 29.6483 47.3591C29.6351 47.0066 29.6592 46.7636 29.738 46.4178C29.7687 46.2908 29.8037 46.0697 29.8168 45.9252C29.9394 44.6271 30.4758 43.7011 31.3602 43.2589C31.4455 43.2173 31.601 43.1516 31.7082 43.1144C31.9556 43.0269 32.1745 42.924 32.5751 42.7072C33.6718 42.114 33.963 41.9761 34.4139 41.8447C34.6657 41.7703 34.97 41.7156 35.1604 41.7134C35.2567 41.7112 35.3224 41.7287 35.4778 41.7966ZM44.3349 42.068C45.9067 42.8342 46.8349 43.399 47.6974 44.1105L47.9272 44.2987L47.9119 44.4344C47.9053 44.5067 47.8747 44.8679 47.844 45.2356C47.7302 46.6389 47.6711 47.1226 47.5354 47.7531C47.4412 48.1909 47.2004 48.5784 46.7385 49.0469C46.3248 49.465 46.0555 49.6642 44.7859 50.5004C44.5297 50.669 44.2014 50.8966 44.0569 51.0039C43.4658 51.4483 43.039 51.6782 42.704 51.7351C42.5639 51.7592 42.5399 51.757 42.3078 51.6957C41.314 51.4308 40.272 50.901 39.0767 50.056C38.8206 49.8743 38.7265 49.7955 38.7265 49.7627C38.7265 49.6883 38.8337 48.8914 38.9147 48.3551C39.0088 47.7378 39.3591 45.6275 39.3722 45.6078C39.3766 45.599 39.4073 45.402 39.4379 45.1678C39.5408 44.3885 39.5824 44.3053 40.0946 43.9222C40.2282 43.8215 40.5368 43.5763 40.7842 43.3771C41.3731 42.8999 41.6423 42.6919 41.9225 42.5037C42.5727 42.068 43.1287 41.8447 43.711 41.7791C43.7242 41.7791 44.0066 41.9082 44.3349 42.068ZM24.0464 44.1017C24.053 44.1302 24.0814 44.314 24.1142 44.5132C24.2959 45.656 24.6637 46.9125 25.1563 48.0705C25.3248 48.4711 25.7626 49.3621 25.859 49.4978C26.0275 49.7452 26.0735 50.102 25.9859 50.4982C25.9618 50.6055 25.94 50.6974 25.9356 50.7018C25.9246 50.7128 25.4036 49.8393 25.176 49.43C24.9176 48.9659 24.5477 48.1953 24.3813 47.775C24.1646 47.2299 23.8275 46.0741 23.7049 45.4546C23.6655 45.2532 23.6545 45.1284 23.6545 44.8307C23.6545 44.4738 23.6567 44.4541 23.7115 44.3381C23.7793 44.198 23.8428 44.1258 23.9369 44.0842C24.0289 44.0448 24.0354 44.047 24.0464 44.1017ZM48.5511 48.8849C48.7613 48.9834 48.8007 49.2942 48.654 49.6905C48.5577 49.951 48.457 50.1195 47.9666 50.8507C47.1654 52.0459 46.0293 53.147 44.648 54.073C43.7395 54.6794 42.5158 55.3208 41.9663 55.4762C41.7846 55.5266 41.7168 55.5332 41.4409 55.5353C41.1564 55.5353 41.1126 55.531 41.0162 55.485C40.8608 55.4149 40.7711 55.3405 40.7054 55.2289L40.6485 55.1325L40.8849 54.7867C41.5657 53.7884 41.9532 53.2893 42.4567 52.7727C42.8244 52.3918 43.0368 52.2167 43.3564 52.0197C43.9518 51.6585 44.4947 51.2841 45.7753 50.3581C46.7758 49.6335 47.01 49.4694 47.5069 49.1388C47.8506 48.9111 47.8812 48.8936 48.0323 48.8695C48.1221 48.8564 48.2096 48.8411 48.2271 48.8367C48.2884 48.8236 48.4789 48.852 48.5511 48.8849ZM29.1492 49.0337C29.3856 49.0644 29.4907 49.1103 29.7512 49.303C30.0839 49.5504 30.4167 49.8109 30.9223 50.2268C32.0891 51.1856 32.562 51.5315 33.1924 51.8883C33.4354 52.0262 33.4726 52.0569 33.5755 52.1904C33.9411 52.6786 34.2454 53.3309 34.3745 53.9176C34.4118 54.084 34.4227 54.2087 34.4227 54.4627C34.4249 54.848 34.3855 55.0143 34.2388 55.2354C34.1534 55.3624 34.1447 55.369 33.9914 55.4149C33.5996 55.5353 33.1771 55.5901 32.6408 55.5901H32.2949L31.9928 55.4894C30.6027 55.0297 29.2017 54.1759 27.8904 52.9872C27.411 52.5516 27.0323 52.1816 26.9513 52.0656C26.7587 51.7898 26.6273 51.4461 26.5638 51.0477C26.5441 50.912 26.5244 50.6099 26.5179 50.2574L26.5047 49.6861L26.612 49.6598C26.6689 49.6445 26.8813 49.5744 27.0805 49.5C28.1553 49.1103 28.3436 49.0534 28.6785 49.0228C28.8624 49.0075 28.9368 49.0075 29.1492 49.0337ZM37.8618 55.612C38.1967 55.6404 38.5623 55.6864 38.9782 55.7521C39.1599 55.7827 39.3854 55.8177 39.4817 55.8309C39.8407 55.8856 40.0618 55.9885 40.0312 56.087C40.0049 56.168 39.7794 56.2446 39.4489 56.2884C39.3591 56.2993 39.1511 56.33 38.9891 56.3541C38.8272 56.3803 38.4419 56.4241 38.1354 56.4548C36.3754 56.6299 35.0969 56.5182 34.1622 56.1045C34.0068 56.0345 34.0046 56.0366 34.3592 55.9316C35.0138 55.7389 35.6004 55.6426 36.4936 55.5813C36.6862 55.5682 37.575 55.5879 37.8618 55.612Z" fill="white"/>
<path d="M74.9954 88H59.0004C50.9854 88 46.9954 84.01 46.9954 75.995V51.005C46.9954 42.99 50.9854 39 59.0004 39H74.9954C83.0104 39 87.0004 42.99 87.0004 51.005V75.995C87.0004 84.01 83.0104 88 74.9954 88Z" fill="#00A060" stroke="white" stroke-width="5.25" stroke-linecap="round" stroke-linejoin="round"/>
<path d="M78.6206 45H55.1176C54.5004 45 54 45.5004 54 46.1176V81.8824C54 82.4996 54.5004 83 55.1176 83H79.6725C80.3027 83 80.8082 82.4794 80.7897 81.8495L79.7378 46.0848C79.72 45.4806 79.2251 45 78.6206 45Z" stroke="white" stroke-width="1.11765"/>
<path d="M54 64H80.2647" stroke="white" stroke-width="1.11765"/>
<path d="M60 45V50.9706C60 51.5391 60.4609 52 61.0294 52H72.9706C73.5391 52 74 51.5391 74 50.9706V45" stroke="white" stroke-width="1.02941"/>
<path d="M64 45V47.5588C64 47.8025 64.1975 48 64.4412 48H69.5588C69.8025 48 70 47.8025 70 47.5588V45" stroke="white"/>
<path d="M60 83V77.0294C60 76.4609 60.4609 76 61.0294 76H72.9706C73.5391 76 74 76.4609 74 77.0294V83" stroke="white" stroke-width="1.02941"/>
<path d="M64 83V80.4412C64 80.1975 64.1975 80 64.4412 80H69.5588C69.8025 80 70 80.1975 70 80.4412V83" stroke="white"/>
<path d="M63.2487 76C62.9289 75.5556 62.9055 74.9847 63.2487 74.6667C64.2081 73.7778 69.9644 73.7778 70.9237 74.6667C71.0953 74.8257 70.9237 75.6296 70.9237 76" stroke="white" stroke-width="1.02941"/>
<path d="M63.2487 52C62.9289 52.4444 62.9055 53.0153 63.2487 53.3333C64.2081 54.2222 69.9644 54.2222 70.9237 53.3333C71.0953 53.1743 70.9237 52.3704 70.9237 52" stroke="white" stroke-width="1.02941"/>
<path d="M63 64V64.5714C63 66.465 64.535 68 66.4286 68H67C69.2091 68 71 66.2091 71 64C71 61.7909 69.2091 60 67 60C64.7909 60 63 61.7909 63 64Z" stroke="white" stroke-width="1.02941"/>
<path d="M71.25 12C76.9109 12 81.5 16.5891 81.5 22.25C81.5 27.9109 76.9109 32.5 71.25 32.5C65.5891 32.5 61 27.9109 61 22.25C61 16.5891 65.5891 12 71.25 12Z" stroke="white" stroke-width="2"/>
<path d="M71.25 16.25V28.25" stroke="white" stroke-width="2" stroke-linecap="round"/>
<path d="M65.25 22.25H77.25" stroke="white" stroke-width="2" stroke-linecap="round"/>
<defs>
<linearGradient id="paint0_linear_57_34" x1="-8.50083e-07" y1="-14.5" x2="135.5" y2="135" gradientUnits="userSpaceOnUse">
<stop stop-color="#085E3B"/>
<stop offset="1" stop-color="#00A060"/>
</linearGradient>
</defs>
</svg>
