<svg width="35" height="35" viewBox="0 0 35 35" fill="none" xmlns="http://www.w3.org/2000/svg">
<path d="M17.5291 4.24365C12.702 4.24365 8.77911 8.16657 8.77911 12.9937V17.2082C8.77911 18.0978 8.39994 19.4541 7.94786 20.2124L6.27078 22.9978C5.23536 24.7187 5.94995 26.6291 7.84578 27.2707C14.1312 29.3707 20.9124 29.3707 27.1979 27.2707C28.9624 26.6874 29.7354 24.602 28.7729 22.9978L27.0958 20.2124C26.6583 19.4541 26.2791 18.0978 26.2791 17.2082V12.9937C26.2791 8.18115 22.3416 4.24365 17.5291 4.24365Z" stroke="white" stroke-width="1.5" stroke-miterlimit="10" stroke-linecap="round"/>
<path d="M20.2269 4.6666C18.4633 4.16434 16.5946 4.16434 14.8311 4.6666C15.254 3.58743 16.304 2.8291 17.529 2.8291C18.754 2.8291 19.804 3.58743 20.2269 4.6666Z" stroke="white" stroke-width="1.5" stroke-miterlimit="10" stroke-linecap="round" stroke-linejoin="round"/>
<path d="M21.9043 27.7959C21.9043 30.2021 19.9355 32.1709 17.5293 32.1709C16.3335 32.1709 15.2251 31.6751 14.4376 30.8876C13.6183 30.067 13.1569 28.9555 13.1543 27.7959" stroke="white" stroke-width="1.5" stroke-miterlimit="10"/>
</svg>
