<svg width="35" height="35" viewBox="0 0 35 35" fill="none" xmlns="http://www.w3.org/2000/svg">
<path d="M17.5 21.875C18.6603 21.875 19.7731 21.4141 20.5936 20.5936C21.4141 19.7731 21.875 18.6603 21.875 17.5C21.875 16.3397 21.4141 15.2269 20.5936 14.4064C19.7731 13.5859 18.6603 13.125 17.5 13.125C16.3397 13.125 15.2269 13.5859 14.4064 14.4064C13.5859 15.2269 13.125 16.3397 13.125 17.5C13.125 18.6603 13.5859 19.7731 14.4064 20.5936C15.2269 21.4141 16.3397 21.875 17.5 21.875Z" stroke="white" stroke-width="2.1875" stroke-miterlimit="10" stroke-linecap="round" stroke-linejoin="round"/>
<path d="M2.9165 18.7833V16.2166C2.9165 14.6999 4.15609 13.4458 5.68734 13.4458C8.32692 13.4458 9.40609 11.5791 8.079 9.28951C7.32067 7.97701 7.77275 6.27076 9.09984 5.51243L11.6228 4.06868C12.7748 3.38326 14.2623 3.79159 14.9478 4.94368L15.1082 5.22076C16.4207 7.51034 18.579 7.51034 19.9061 5.22076L20.0665 4.94368C20.7519 3.79159 22.2394 3.38326 23.3915 4.06868L25.9144 5.51243C27.2415 6.27076 27.6936 7.97701 26.9353 9.28951C25.6082 11.5791 26.6873 13.4458 29.3269 13.4458C30.8436 13.4458 32.0978 14.6853 32.0978 16.2166V18.7833C32.0978 20.2999 30.8582 21.5541 29.3269 21.5541C26.6873 21.5541 25.6082 23.4208 26.9353 25.7103C27.6936 27.0374 27.2415 28.7291 25.9144 29.4874L23.3915 30.9312C22.2394 31.6166 20.7519 31.2083 20.0665 30.0562L19.9061 29.7791C18.5936 27.4895 16.4353 27.4895 15.1082 29.7791L14.9478 30.0562C14.2623 31.2083 12.7748 31.6166 11.6228 30.9312L9.09984 29.4874C8.46415 29.1214 7.99964 28.5181 7.80826 27.81C7.61687 27.1019 7.71424 26.3468 8.079 25.7103C9.40609 23.4208 8.32692 21.5541 5.68734 21.5541C4.15609 21.5541 2.9165 20.2999 2.9165 18.7833Z" stroke="white" stroke-width="2.1875" stroke-miterlimit="10" stroke-linecap="round" stroke-linejoin="round"/>
</svg>
