<svg width="39" height="38" viewBox="0 0 39 38" fill="none" xmlns="http://www.w3.org/2000/svg">
<path d="M35.0296 28.6922C35.0296 29.2558 34.9044 29.8349 34.6383 30.3984C34.3722 30.962 34.0278 31.4942 33.5739 31.9951C32.8069 32.8403 31.9616 33.4508 31.0068 33.8421C30.0676 34.2335 29.0501 34.437 27.9544 34.437C26.3578 34.437 24.6516 34.0613 22.8515 33.2943C21.0514 32.5273 19.2513 31.4942 17.4668 30.195C15.6481 28.8646 13.9318 27.3995 12.3326 25.8121C10.7497 24.2186 9.28974 22.5075 7.96533 20.6935C6.68177 18.909 5.64866 17.1246 4.89731 15.3558C4.14596 13.5713 3.77029 11.8651 3.77029 10.2372C3.77029 9.17276 3.95812 8.15531 4.3338 7.21612C4.70948 6.26128 5.3043 5.3847 6.13391 4.60204C7.13571 3.61589 8.23144 3.13065 9.38977 3.13065C9.82806 3.13065 10.2663 3.22456 10.6577 3.4124C11.0647 3.60024 11.4247 3.882 11.7064 4.28898L15.338 9.40756C15.6197 9.79889 15.8232 10.1589 15.9641 10.5033C16.105 10.832 16.1832 11.1607 16.1832 11.4581C16.1832 11.8338 16.0737 12.2095 15.8545 12.5695C15.651 12.9295 15.3536 13.3052 14.9779 13.6809L13.7883 14.9175C13.6161 15.0897 13.5379 15.2931 13.5379 15.5436C13.5379 15.6688 13.5535 15.7784 13.5848 15.9036C13.6318 16.0288 13.6787 16.1228 13.71 16.2167C13.9918 16.7332 14.477 17.4063 15.1658 18.2203C15.8702 19.0343 16.6215 19.8639 17.4355 20.6935C18.2808 21.5231 19.0947 22.2901 19.9243 22.9945C20.7383 23.6832 21.4114 24.1528 21.9436 24.4346C22.0219 24.4659 22.1158 24.5129 22.2254 24.5598C22.3506 24.6068 22.4758 24.6224 22.6167 24.6224C22.8828 24.6224 23.0863 24.5285 23.2585 24.3563L24.4481 23.1823C24.8394 22.791 25.2151 22.4936 25.5751 22.3058C25.9352 22.0866 26.2952 21.977 26.6865 21.977C26.9839 21.977 27.297 22.0397 27.6413 22.1805C27.9857 22.3214 28.3457 22.5249 28.7371 22.791L33.9183 26.4695C34.3252 26.7513 34.607 27.08 34.7792 27.4713C34.9357 27.8626 35.0296 28.254 35.0296 28.6922V28.6922Z" stroke="white" stroke-width="1.87838" stroke-miterlimit="10"/>
<path d="M24.1194 9.34492L27.25 12.4756L33.5113 6.21429" stroke="white" stroke-width="1.87838" stroke-linecap="round" stroke-linejoin="round"/>
</svg>
