<svg width="38" height="38" viewBox="0 0 38 38" fill="none" xmlns="http://www.w3.org/2000/svg">
<path d="M14.0887 20.3504C13.0556 20.867 12.1946 21.634 11.5528 22.5889C11.1927 23.1368 11.1927 23.8256 11.5528 24.3735C12.1946 25.3284 13.0556 26.0955 14.0887 26.6121M23.81 20.3504C24.8432 20.867 25.7041 21.634 26.346 22.5889C26.706 23.1368 26.706 23.8256 26.346 24.3735C25.7041 25.3284 24.8432 26.0955 23.81 26.6121" stroke="white" stroke-width="1.88" stroke-linecap="round" stroke-linejoin="round"/>
<path d="M3.49088 12.539L33.5782 12.5234M14.0888 34.4392H23.4813C31.3083 34.4392 34.4392 31.3084 34.4392 23.4813V14.0888C34.4392 6.26169 31.3083 3.13086 23.4813 3.13086H14.0888C6.26167 3.13086 3.13084 6.26169 3.13084 14.0888V23.4813C3.13084 31.3084 6.26167 34.4392 14.0888 34.4392Z" stroke="white" stroke-width="1.88" stroke-linecap="round" stroke-linejoin="round"/>
</svg>
