<svg width="31" height="31" viewBox="0 0 31 31" fill="none" xmlns="http://www.w3.org/2000/svg">
<path d="M26.0632 27.5495C26.0632 22.7033 21.242 18.7838 15.3063 18.7838C9.37067 18.7838 4.5495 22.7033 4.5495 27.5495M15.3063 15.027C16.9669 15.027 18.5595 14.3673 19.7337 13.1931C20.9079 12.0189 21.5676 10.4263 21.5676 8.76575C21.5676 7.10516 20.9079 5.51258 19.7337 4.33837C18.5595 3.16415 16.9669 2.50449 15.3063 2.50449C13.6458 2.50449 12.0532 3.16415 10.879 4.33837C9.70475 5.51258 9.04509 7.10516 9.04509 8.76575C9.04509 10.4263 9.70475 12.0189 10.879 13.1931C12.0532 14.3673 13.6458 15.027 15.3063 15.027V15.027Z" stroke="white" stroke-width="1.87838" stroke-linecap="round" stroke-linejoin="round"/>
</svg>
