<?xml version="1.0" standalone="no"?>
<!DOCTYPE svg PUBLIC "-//W3C//DTD SVG 20010904//EN"
 "http://www.w3.org/TR/2001/REC-SVG-20010904/DTD/svg10.dtd">
<svg version="1.0" xmlns="http://www.w3.org/2000/svg"
 width="512.000000pt" height="512.000000pt" viewBox="0 0 512.000000 512.000000"
 preserveAspectRatio="xMidYMid meet">

<g transform="translate(0.000000,512.000000) scale(0.100000,-0.100000)"
fill="#000000" stroke="none">
<path d="M720 4960 c-29 -33 -51 -62 -49 -64 123 -97 446 -373 451 -385 4 -9
23 -189 43 -401 20 -212 40 -391 44 -399 4 -8 128 -55 276 -106 l269 -92 12
-65 c7 -35 26 -94 42 -130 26 -58 29 -72 21 -108 -25 -109 -125 -255 -310
-452 l-110 -118 -167 0 -167 0 -199 240 -199 240 -298 0 -299 0 0 -80 0 -80
263 0 262 0 199 -240 199 -240 115 0 115 0 -194 -198 c-370 -376 -526 -597
-605 -857 -26 -83 -28 -103 -28 -255 0 -477 173 -741 504 -767 104 -8 213 21
360 94 63 32 118 59 121 61 4 2 15 -31 25 -73 l18 -76 -73 -146 c-39 -80 -71
-146 -69 -148 8 -7 129 -65 135 -65 5 0 46 76 93 170 l84 170 -33 135 c-18 75
-32 137 -30 139 2 2 45 37 94 78 50 41 135 122 190 180 l99 106 57 -117 c66
-136 156 -260 226 -312 213 -160 517 -156 717 9 71 59 150 170 215 303 l57
118 88 -95 c84 -90 208 -205 270 -250 l29 -21 -34 -137 -33 -136 84 -170 c47
-94 88 -170 93 -170 6 0 127 58 135 65 2 2 -30 68 -69 148 l-73 146 18 76 c10
42 21 75 25 73 3 -2 58 -29 121 -61 147 -73 256 -102 360 -94 290 23 455 226
501 618 32 281 -25 500 -200 761 -99 147 -209 275 -430 500 l-194 198 116 0
115 0 199 239 198 240 263 0 262 1 0 80 0 80 -299 0 -299 0 -199 -239 -198
-240 -167 0 -166 -1 -102 108 c-181 189 -288 344 -319 459 -10 37 -8 47 19
108 17 37 36 97 43 133 6 35 17 66 22 68 214 70 523 180 531 188 6 6 27 182
48 401 21 215 40 397 44 406 4 9 106 98 227 199 121 100 221 185 222 189 1 3
-21 32 -50 63 l-52 57 -251 -209 -250 -210 -39 -390 -39 -390 -40 -15 c-44
-16 -389 -135 -392 -135 -1 0 -16 22 -34 50 l-32 49 36 31 c69 61 73 169 11
296 -67 137 -185 212 -350 223 l-94 6 -29 58 -29 58 32 129 33 130 -42 11
c-22 5 -56 14 -75 19 -19 5 -36 8 -37 7 -2 -1 -13 -45 -27 -97 l-24 -95 -29 5
c-16 2 -54 4 -84 4 -30 0 -68 -2 -84 -4 l-29 -5 -24 95 c-14 52 -25 96 -27 97
-1 1 -18 -2 -37 -7 -19 -5 -53 -14 -75 -19 l-42 -11 33 -130 32 -129 -29 -58
-29 -58 -95 -6 c-82 -6 -106 -12 -168 -43 -124 -61 -208 -180 -222 -312 -8
-77 7 -124 52 -164 l36 -31 -33 -50 c-23 -36 -36 -48 -48 -44 -9 4 -99 35
-201 70 -102 35 -192 66 -201 69 -13 6 -22 75 -54 397 l-39 390 -235 196
c-130 108 -243 202 -252 210 -14 12 -23 7 -69 -47z m1879 -570 c46 -13 99 -65
111 -110 5 -19 10 -72 10 -117 l0 -83 -160 0 -160 0 0 83 c0 45 5 99 10 119
13 45 60 95 103 107 43 12 47 12 86 1z m-361 -325 c-6 -136 -9 -139 -178 -144
l-130 -3 0 31 c0 39 33 105 68 138 52 48 111 69 206 72 l38 1 -4 -95z m825 63
c70 -35 127 -116 127 -179 l0 -31 -130 3 c-169 5 -172 8 -178 145 l-5 97 74
-7 c40 -4 91 -17 112 -28z m-306 -257 c40 -64 98 -97 200 -115 92 -16 125 -31
170 -78 44 -45 66 -102 66 -169 0 -52 -14 -88 -189 -468 -135 -294 -200 -425
-227 -456 -113 -131 -321 -131 -434 0 -27 31 -92 162 -227 456 -175 380 -189
416 -189 468 0 67 22 124 66 169 45 47 78 62 170 78 102 18 160 51 200 115
l30 49 167 0 167 0 30 -49z m-854 -933 c-49 -169 -154 -320 -483 -692 -291
-330 -402 -478 -481 -644 -117 -243 -104 -506 37 -759 l34 -62 66 46 c36 25
63 48 61 52 -37 69 -82 179 -98 238 -56 222 7 417 230 703 65 84 270 322 319
370 l25 25 -18 -30 c-10 -16 -45 -71 -77 -122 -202 -320 -268 -545 -224 -762
17 -82 74 -241 100 -277 12 -16 17 -15 80 20 39 22 65 43 62 49 -106 234 -118
352 -56 539 39 115 89 209 245 458 147 232 235 389 265 471 13 33 24 58 26 56
2 -2 13 -65 24 -140 46 -313 51 -694 11 -853 -54 -217 -183 -427 -391 -635
-190 -191 -341 -299 -542 -387 -75 -33 -91 -37 -173 -36 -113 0 -174 24 -240
95 -74 79 -113 183 -135 359 -28 232 6 400 119 589 124 206 241 340 662 756
331 327 436 441 518 563 24 34 44 62 46 62 2 0 -3 -24 -12 -52z m1389 -68 c84
-112 212 -248 527 -556 318 -312 447 -456 558 -622 159 -237 202 -404 173
-667 -20 -177 -60 -283 -135 -364 -77 -82 -196 -117 -317 -92 -77 16 -271 116
-388 198 -146 104 -369 332 -463 474 -86 130 -148 263 -178 383 -27 108 -35
313 -20 541 10 155 44 442 55 452 2 2 11 -18 21 -44 30 -83 124 -251 260 -468
167 -266 216 -357 255 -473 62 -186 50 -305 -56 -539 -3 -6 23 -27 62 -49 79
-44 74 -48 128 86 124 309 76 546 -199 975 -28 44 -54 87 -59 95 -24 47 318
-353 400 -466 75 -106 146 -245 168 -330 34 -132 12 -295 -61 -443 -21 -42
-38 -79 -38 -83 0 -4 28 -28 62 -52 l62 -46 35 63 c107 192 143 417 97 600
-53 206 -181 396 -538 798 -327 370 -439 530 -487 699 -14 52 -14 54 2 30 9
-14 42 -59 74 -100z m-925 -507 c163 -81 374 -47 504 82 l45 44 -13 -97 c-7
-53 -15 -163 -19 -244 l-7 -148 -317 0 -317 0 -7 148 c-4 81 -12 191 -19 244
l-13 97 46 -45 c25 -25 77 -61 117 -81z m516 -610 c3 -49 14 -121 25 -160 l18
-73 -366 0 -366 0 18 73 c11 39 22 111 25 160 l6 87 317 0 317 0 6 -87z m150
-475 l45 -83 -28 -75 -28 -75 -463 0 -462 0 -28 75 -27 75 45 83 45 82 428 0
428 0 45 -82z m-103 -407 c0 -14 -73 -104 -111 -136 -79 -67 -207 -101 -319
-85 -114 16 -213 79 -288 184 l-33 46 375 0 c219 0 376 -4 376 -9z"/>
</g>
</svg>
