<svg width="38" height="38" viewBox="0 0 38 38" fill="none" xmlns="http://www.w3.org/2000/svg">
<path d="M32.8716 10.9572V26.6104C32.8716 31.3063 30.5237 34.437 25.0451 34.437H12.5225C7.04393 34.437 4.69595 31.3063 4.69595 26.6104V10.9572C4.69595 6.26128 7.04393 3.13065 12.5225 3.13065H25.0451C30.5237 3.13065 32.8716 6.26128 32.8716 10.9572Z" stroke="white" stroke-width="1.87838" stroke-miterlimit="10" stroke-linecap="round" stroke-linejoin="round"/>
<path d="M20.7404 21.9144H27.393M14.0878 28.1757H27.393M24.2624 3.13065V15.434C24.2624 16.1228 23.4484 16.4671 22.9475 16.0132L19.316 12.6634C19.172 12.5278 18.9816 12.4523 18.7838 12.4523C18.586 12.4523 18.3956 12.5278 18.2516 12.6634L14.6201 16.0132C14.1192 16.4671 13.3052 16.1228 13.3052 15.434V3.13065H24.2624Z" stroke="white" stroke-width="1.87838" stroke-miterlimit="10" stroke-linecap="round" stroke-linejoin="round"/>
</svg>
