<svg width="516" height="376" viewBox="0 0 516 376" fill="none" xmlns="http://www.w3.org/2000/svg">
<g filter="url(#filter0_d_55_20)">
<g clip-path="url(#clip0_55_20)">
<path d="M4 150C4 67.1573 71.1573 0 154 0H502C507.523 0 512 4.47715 512 10V218C512 300.843 444.843 368 362 368H14C8.47715 368 4 363.523 4 358V150Z" fill="white"/>
<g filter="url(#filter1_d_55_20)">
<path d="M119.097 255.091L57.3319 193.326C50.0376 186.032 50.0376 174.096 57.3319 166.802L119.097 105.037" stroke="url(#paint0_linear_55_20)" stroke-width="14.2097" stroke-miterlimit="10" stroke-linecap="round" stroke-linejoin="round" shape-rendering="crispEdges"/>
</g>
<g filter="url(#filter2_d_55_20)">
<path d="M396.903 255.091L458.668 193.326C465.962 186.032 465.962 174.096 458.668 166.802L396.903 105.037" stroke="url(#paint1_linear_55_20)" stroke-width="12.8526" stroke-miterlimit="10" stroke-linecap="round" stroke-linejoin="round" shape-rendering="crispEdges"/>
</g>
<g filter="url(#filter3_d_55_20)">
<path d="M365 105L258.237 258.165" stroke="url(#paint2_linear_55_20)" stroke-width="13.1585" stroke-linecap="round"/>
</g>
<g filter="url(#filter4_d_55_20)">
<path d="M181.421 197.541H149.937V185.702H181.078C188.57 185.702 194.003 183.843 197.377 180.126C200.751 176.351 202.439 171.175 202.439 164.598V157.135C202.439 150.443 200.751 145.268 197.377 141.607C194.06 137.947 188.684 136.117 181.249 136.117H149.851V124.364H181.507C193.746 124.364 202.639 127.252 208.186 133.029C213.791 138.748 216.593 146.64 216.593 156.706V164.941C216.593 175.122 213.762 183.1 208.101 188.876C202.496 194.652 193.603 197.541 181.421 197.541ZM154.741 234H140.672V124.364H154.655V189.219L154.741 195.567V234ZM251.088 124.364V234H236.847V124.364H251.088ZM244.482 234V221.904H302.303V234H244.482Z" fill="url(#paint3_linear_55_20)"/>
</g>
</g>
</g>
<defs>
<filter id="filter0_d_55_20" x="0" y="0" width="516" height="376" filterUnits="userSpaceOnUse" color-interpolation-filters="sRGB">
<feFlood flood-opacity="0" result="BackgroundImageFix"/>
<feColorMatrix in="SourceAlpha" type="matrix" values="0 0 0 0 0 0 0 0 0 0 0 0 0 0 0 0 0 0 127 0" result="hardAlpha"/>
<feOffset dy="4"/>
<feGaussianBlur stdDeviation="2"/>
<feComposite in2="hardAlpha" operator="out"/>
<feColorMatrix type="matrix" values="0 0 0 0 0 0 0 0 0 0 0 0 0 0 0 0 0 0 0.25 0"/>
<feBlend mode="normal" in2="BackgroundImageFix" result="effect1_dropShadow_55_20"/>
<feBlend mode="normal" in="SourceGraphic" in2="effect1_dropShadow_55_20" result="shape"/>
</filter>
<filter id="filter1_d_55_20" x="39.6472" y="97.9324" width="91.6632" height="174.482" filterUnits="userSpaceOnUse" color-interpolation-filters="sRGB">
<feFlood flood-opacity="0" result="BackgroundImageFix"/>
<feColorMatrix in="SourceAlpha" type="matrix" values="0 0 0 0 0 0 0 0 0 0 0 0 0 0 0 0 0 0 127 0" result="hardAlpha"/>
<feOffset dy="5.10909"/>
<feGaussianBlur stdDeviation="2.55455"/>
<feComposite in2="hardAlpha" operator="out"/>
<feColorMatrix type="matrix" values="0 0 0 0 0 0 0 0 0 0 0 0 0 0 0 0 0 0 0.25 0"/>
<feBlend mode="normal" in2="BackgroundImageFix" result="effect1_dropShadow_55_20"/>
<feBlend mode="normal" in="SourceGraphic" in2="effect1_dropShadow_55_20" result="shape"/>
</filter>
<filter id="filter2_d_55_20" x="385.368" y="98.6108" width="90.3061" height="173.125" filterUnits="userSpaceOnUse" color-interpolation-filters="sRGB">
<feFlood flood-opacity="0" result="BackgroundImageFix"/>
<feColorMatrix in="SourceAlpha" type="matrix" values="0 0 0 0 0 0 0 0 0 0 0 0 0 0 0 0 0 0 127 0" result="hardAlpha"/>
<feOffset dy="5.10909"/>
<feGaussianBlur stdDeviation="2.55455"/>
<feComposite in2="hardAlpha" operator="out"/>
<feColorMatrix type="matrix" values="0 0 0 0 0 0 0 0 0 0 0 0 0 0 0 0 0 0 0.25 0"/>
<feBlend mode="normal" in2="BackgroundImageFix" result="effect1_dropShadow_55_20"/>
<feBlend mode="normal" in="SourceGraphic" in2="effect1_dropShadow_55_20" result="shape"/>
</filter>
<filter id="filter3_d_55_20" x="246.548" y="98.4202" width="130.141" height="176.543" filterUnits="userSpaceOnUse" color-interpolation-filters="sRGB">
<feFlood flood-opacity="0" result="BackgroundImageFix"/>
<feColorMatrix in="SourceAlpha" type="matrix" values="0 0 0 0 0 0 0 0 0 0 0 0 0 0 0 0 0 0 127 0" result="hardAlpha"/>
<feOffset dy="5.10909"/>
<feGaussianBlur stdDeviation="2.55455"/>
<feComposite in2="hardAlpha" operator="out"/>
<feColorMatrix type="matrix" values="0 0 0 0 0 0 0 0 0 0 0 0 0 0 0 0 0 0 0.25 0"/>
<feBlend mode="normal" in2="BackgroundImageFix" result="effect1_dropShadow_55_20"/>
<feBlend mode="normal" in="SourceGraphic" in2="effect1_dropShadow_55_20" result="shape"/>
</filter>
<filter id="filter4_d_55_20" x="135.563" y="124.364" width="171.849" height="119.854" filterUnits="userSpaceOnUse" color-interpolation-filters="sRGB">
<feFlood flood-opacity="0" result="BackgroundImageFix"/>
<feColorMatrix in="SourceAlpha" type="matrix" values="0 0 0 0 0 0 0 0 0 0 0 0 0 0 0 0 0 0 127 0" result="hardAlpha"/>
<feOffset dy="5.10909"/>
<feGaussianBlur stdDeviation="2.55455"/>
<feComposite in2="hardAlpha" operator="out"/>
<feColorMatrix type="matrix" values="0 0 0 0 0 0 0 0 0 0 0 0 0 0 0 0 0 0 0.25 0"/>
<feBlend mode="normal" in2="BackgroundImageFix" result="effect1_dropShadow_55_20"/>
<feBlend mode="normal" in="SourceGraphic" in2="effect1_dropShadow_55_20" result="shape"/>
</filter>
<linearGradient id="paint0_linear_55_20" x1="85.4788" y1="105.037" x2="85.4788" y2="255.091" gradientUnits="userSpaceOnUse">
<stop stop-color="#90081E"/>
<stop offset="1" stop-color="#02325A"/>
</linearGradient>
<linearGradient id="paint1_linear_55_20" x1="430.521" y1="105.037" x2="430.521" y2="255.091" gradientUnits="userSpaceOnUse">
<stop stop-color="#90081E"/>
<stop offset="1" stop-color="#02325A"/>
</linearGradient>
<linearGradient id="paint2_linear_55_20" x1="311.5" y1="105.083" x2="311.737" y2="258.083" gradientUnits="userSpaceOnUse">
<stop stop-color="#90081E"/>
<stop offset="1" stop-color="#02325A"/>
</linearGradient>
<linearGradient id="paint3_linear_55_20" x1="127.718" y1="60" x2="450.576" y2="231.849" gradientUnits="userSpaceOnUse">
<stop stop-color="#90081E"/>
<stop offset="1" stop-color="#02325A"/>
</linearGradient>
<clipPath id="clip0_55_20">
<path d="M4 150C4 67.1573 71.1573 0 154 0H502C507.523 0 512 4.47715 512 10V218C512 300.843 444.843 368 362 368H14C8.47715 368 4 363.523 4 358V150Z" fill="white"/>
</clipPath>
</defs>
</svg>
